/* XPM */
static char *result[] = {
/* columns rows colors chars-per-pixel */
"64 64 172 2 ",
"   c #342417",
".  c #3B2516",
"X  c #3C2917",
"o  c #352619",
"O  c #37281C",
"+  c #392A1D",
"@  c #352C25",
"#  c #3B2E24",
"$  c #372E28",
"%  c #392F28",
"&  c #3E3025",
"*  c #3C332B",
"=  c #432615",
"-  c #432A17",
";  c #492A17",
":  c #452A1A",
">  c #4C2C1A",
",  c #522E1A",
"<  c #502E17",
"1  c #4A3417",
"2  c #4E301F",
"3  c #4B3617",
"4  c #543C17",
"5  c #53301D",
"6  c #5A321C",
"7  c #5A3116",
"8  c #61361F",
"9  c #673719",
"0  c #7D3C16",
"q  c #783E1B",
"w  c #432E22",
"e  c #4A2F20",
"r  c #433225",
"t  c #4A3325",
"y  c #4A3A23",
"u  c #40362E",
"i  c #42382F",
"p  c #523626",
"a  c #553827",
"s  c #5B3926",
"d  c #5E3C28",
"f  c #433A31",
"g  c #493E34",
"h  c #443934",
"j  c #633720",
"k  c #653922",
"l  c #6B3C22",
"z  c #663F29",
"x  c #713F24",
"c  c #6B4C16",
"v  c #755316",
"b  c #7E5A16",
"n  c #4B4037",
"m  c #4D433A",
"M  c #52463C",
"N  c #55493E",
"B  c #6C4129",
"V  c #754125",
"C  c #7A4427",
"Z  c #75442A",
"A  c #7D4628",
"S  c #7F482A",
"D  c #564A40",
"F  c #5B4E43",
"G  c #504540",
"H  c #5E5146",
"J  c #5D534B",
"K  c #605347",
"L  c #63564A",
"P  c #66594D",
"I  c #6A5C4F",
"U  c #6D5E51",
"Y  c #645951",
"T  c #6E6052",
"R  c #6F655F",
"E  c #726355",
"W  c #766759",
"Q  c #77685A",
"!  c #7B6C5D",
"~  c #7E6F60",
"^  c #843E16",
"/  c #944417",
"(  c #9D4515",
")  c #9B4718",
"_  c #9C4B1D",
"`  c #94471C",
"'  c #A44A18",
"]  c #B34F18",
"[  c #AA501D",
"{  c #B6531C",
"}  c #BA541C",
"|  c #8E671B",
" . c #956A14",
".. c #9F7215",
"X. c #AF7E18",
"o. c #A57615",
"O. c #804729",
"+. c #854A2B",
"@. c #884B2B",
"#. c #81632D",
"$. c #967026",
"%. c #C5581C",
"&. c #D05C1C",
"*. c #C7661D",
"=. c #DD631D",
"-. c #D4641F",
";. c #E6661F",
":. c #E56D1F",
">. c #EE711F",
",. c #F4761F",
"<. c #F57D1E",
"1. c #D66020",
"2. c #DD6421",
"3. c #EE6920",
"4. c #E66721",
"5. c #F36B21",
"6. c #F57420",
"7. c #806F60",
"8. c #837363",
"9. c #897767",
"0. c #8D7B6A",
"q. c #917E6D",
"w. c #B78314",
"e. c #CB9217",
"r. c #D29416",
"t. c #D79A14",
"y. c #E38D1A",
"u. c #F6831D",
"i. c #F78D1B",
"p. c #F98E1B",
"a. c #F8801E",
"s. c #FA9B19",
"d. c #FA971A",
"f. c #E6A616",
"g. c #E9A815",
"h. c #FAA417",
"j. c #FBAD15",
"k. c #F2AE14",
"l. c #FCB514",
"z. c #FCB71A",
"x. c #FBB514",
"c. c #FEBB24",
"v. c #F3BA3A",
"b. c #FCC23D",
"n. c #94816F",
"m. c #8D847C",
"M. c #968372",
"N. c #998673",
"B. c #9D8976",
"V. c #9F8B78",
"C. c #A18D7A",
"Z. c #A7927F",
"A. c #A8937F",
"S. c #DEBA6C",
"D. c #FAC44A",
"F. c #FBC854",
"G. c #FAC752",
"H. c #FACE69",
"J. c #968A81",
"K. c #AB9682",
"L. c #AE9984",
"P. c #B59F8A",
"I. c #B7A08B",
"U. c #BAA38D",
"Y. c #BEA790",
"T. c #BFA891",
"R. c #C3AB94",
"E. c #C7AF98",
"W. c #F9D789",
"Q. c #F5D895",
"!. c #FADFA0",
"~. c None",
/* pixels */
"~.~.~.~.~.~.~.~.~.~.~.~.~.~.~.~.~.~.~.~.~.~.~.~.~.~.~.~.~.~.~.~.~.~.~.~.~.~.~.~.~.~.~.~.~.~.~.~.~.~.~.~.~.~.~.~.~.~.~.~.~.~.~.~.",
"~.~.~.~.~.~.~.~.~.~.~.~.~.~.~.~.~.~.~.~.~.~.~.~.~.~.~.~.~.~.~.~.~.~.~.~.~.~.~.~.~.~.~.~.~.~.~.~.~.~.~.~.~.~.~.~.~.~.~.~.~.~.~.~.",
"~.~.~.~.~.~.~.~.~.~.~.~.~.~.~.~.~.~.~.~.~.~.~.~.~.~.~.~.~.~.~.~.~.~.~.~.~.~.~.~.~.~.~.~.~.~.~.~.~.~.~.~.~.~.~.~.~.~.~.~.~.~.~.~.",
"~.~.~.~.~.~.~.~.~.~.~.~.~.~.~.~.~.~.~.~.~.~.~.~.~.~.~.~.~.~.~.~.~.~.~.~.~.~.~.~.~.~.~.~.~.~.~.~.~.~.~.~.~.~.~.~.~.~.~.~.~.~.~.~.",
"~.~.~.~.~.~.~.~.~.~.~.~.~.~.~.~.~.~.~.~.~.~.~.~.~.~.~.~.~.~.~.~.~.~.~.~.~.~.~.~.~.~.~.~.~.~.~.~.~.~.~.~.~.~.~.~.~.~.~.~.~.~.~.~.",
"~.~.~.~.~.~.~.~.~.~.~.~.~.~.~.~.~.~.~.~.~.~.~.~.~.~.~.~.~.~.~.~.~.~.~.~.~.~.~.~.~.~.~.~.~.~.~.~.~.~.~.~.~.~.~.~.~.~.~.~.~.~.~.~.",
"~.~.~.~.~.~.~.~.~.~.~.~.~.~.~.~.~.~.~.~.~.~.~.~.~.~.~.~.% @ @ @ $ @ $ @ ~.~.~.~.~.~.~.~.~.~.~.~.~.~.~.~.~.~.~.~.~.~.~.~.~.~.~.~.",
"~.~.~.~.~.~.~.~.~.~.~.~.~.~.~.~.~.~.~.~.~.~.@ @ ~.~.% @ % n % @ * $ @ @ $ ~.@ $ @ @ @ @ @ @ @ @ @ @ @ @ ~.~.~.~.~.~.~.~.~.~.~.~.",
"~.~.~.~.~.~.~.~.~.~.~.~.~.~.@ @ @ @ $ @ @ @ @ @ @ @ $ J Y * n m * @ @ @ @ @ @ @ @ @ @ @ @ @ @ @ @ @ @ @ @ @ @ ~.~.~.~.~.~.~.~.~.",
"~.~.~.~.~.~.~.~.~.~.~.~.@ @ @ @ @ $ g m M * @ @ $ J J.J.G R J.J $ $ N H H H H H H H H H H J H H D f % * * @ @ @ ~.~.~.~.~.~.~.~.",
"~.~.~.~.~.~.~.~.~.~.~.@ @ @ @ @ @ $ * * * $ $ $ * R J $ * Y D $ @ @ u i f f h * i i * f h f * * * * @ & @ @ @ @ @ ~.~.~.~.~.~.~.",
"~.~.~.~.~.~.~.~.~.~.~.@ @ % @ % $ $ $ $ @ @ @ @ @ @ @ @ $ $ @ $ $ $ $ & $ % % $ & $ $ $ $ $ * $ @ * N F n * @ @ $ ~.~.~.~.~.~.~.",
"~.~.~.~.~.~.~.~.~.~.~.@ @ * * f i i i i * @ @ * * * h h * h h n n n m m n n m n m n n n n n n n @ * M.9.E ! E f @ @ ~.~.~.~.~.~.",
"~.~.~.~.~.~.~.~.~.~.~.$ @ * f f i f i i f $ $ n m m m m m m m m m m m m m m m m m m m m m m m m * @ E g @ f I I * @ ~.~.~.~.~.~.",
"~.~.~.~.~.~.~.~.~.~.~.~.$ % * f i f f i i $ $ f m m m m m m m m m m m m m m m m m m m m m m m m i @ N m @ @ @ f * @ ~.~.~.~.~.~.",
"~.~.~.~.~.~.~.~.~.~.~.~.@ % * f f f i i f * $ * m m m m m m m m m m m m m m m m m m m m m m m m g # f K @ & # * f $ @ ~.~.~.~.~.",
"~.~.~.~.~.~.~.~.~.~.~.~.@ @ * f f f * n * * $ * n m m m m m m m m m m m m m m m m m M m m m m m m % * H * # r % i % @ ~.~.~.~.~.",
"~.~.~.~.~.~.~.~.~.~.~.~.@ @ * f * f n * f * $ $ n m m m m m m m m m m m m m m m m m m m m m m m m * @ F f # t % f * @ ~.~.~.~.~.",
"~.~.~.~.~.~.~.~.~.~.~.~.~.@ * * f f * f f f % $ n m m m m m m m m m M m m m m m m m m m m M m m m f @ g D @ t # * g @ @ ~.~.~.~.",
"~.~.~.~.~.~.~.~.~.~.~.~.~.@ @ f f f n * i f % @ * m m m m m m m m M m m m m m m M m m m m m m m m n % * D % t t @ f % @ ~.~.~.~.",
"~.~.~.~.~.~.~.~.~.~.~.~.~.@ % * f i i f i i * @ * m m m m m m m m m m m m m m m m m m m m m m m m m * @ D * r a @ u * @ ~.~.~.~.",
"~.~.~.~.~.~.~.~.~.~.~.~.~.@ @ * i i i i f i * @ @ n n n m m m m m m m m m m m m m m m m m m m m m m f @ m g @ a # * i @ @ ~.~.~.",
"~.~.~.~.~.~.~.~.~.~.~.~.~.@ @ * f f i i i * % + o X X + # & & r * n m m m n i u u * n n n m m m m m g @ f M @ p t @ g % @ ~.~.~.",
"~.~.~.~.~.~.~.~.~.~.~.~.~.~.@ % i i i % +       X - - X           o + & & + X     o o + r f m M m m m % * M % & t % m * @ ~.~.~.",
"~.~.~.~.~.~.~.~.~.~.~.~.~.~.% @ i * +   X 4 v  .w.e.*.{ [ _ / q 6 1 X     X > 9 q 7 - .   X i m m m m * @ M * @ @ * P # @ ~.~.~.",
"~.~.~.~.~.~.~.~.~.~.~.~.~.~.@ @ @ O   1 $.S.b.D.b.x.h.i.,.,.6.>.:.-.{ _ ` { 1.4.3.;.%.q :   & m m m m f @ f g @ @ G Q @ @ ~.~.~.",
"~.~.~.~.~.~.~.~.~.~.~.~.~.~.@ @   X c w.D.!.F.H.D.l.x.x.x.j.j.j.j.h.s.p.a.6.6.a.,.5.5.&./ X   i m m m m % * m # @ I L @ @ ~.~.~.",
"~.~.~.~.~.~.~.~.~.~.~.o       @   4 g.b.W.F.l.l.l.l.l.x.l.l.l.l.x.l.l.l.l.j.j.x.h.,.5.5.} 9   + f h i f @ @ g * * U i @ ~.~.~.~.",
"~.~.~.~.~.~.~.~.~.      o X o   X ..x.x.c.l.l.l.l.l.l.l.l.l.l.x.l.l.l.l.l.j.j.x.j.<.5.5.5.' X   @ @ @ @ @ @ g M N N @ @ ~.~.~.~.",
"~.~.~.~.~.~.~.~.    1 v o.w.$.b w.k.x.x.x.l.l.l.l.x.l.x.l.l.l.x.x.l.l.x.p.a.<.<.a.5.5.5.5.%.7   O i g m g @ u B.9.* @ ~.~.~.~.~.",
"~.~.~.~.~.~.~.  X c t.x.l.c.D.Q.z.x.x.x.l.l.l.l.l.l.l.l.l.l.l.j.x.l.x.h.,.u.a.u.h.p.5.5.>.} 0 .   X r H K * @ E M @ @ ~.~.~.~.~.",
"~.~.~.~.~.~.o o b g.l.l.l.b.b.F.z.x.x.x.l.l.x.l.j.j.l.l.x.h.u.,.,.a.u.,.3.6.>.<.d.p.6.&.] ' ( 0 5 X   & J g @ % @ @ ~.~.~.~.~.~.",
"~.~.~.~.~.~.. 1 t.l.l.l.l.l.l.l.l.l.l.z.l.l.l.p.6.6.u.i.p.6.5.5.5.5.5.5.5.6.=.&.;.;.=.] ( ( ( ( ) ^ = o f i @ @ @ ~.~.~.~.~.~.~.",
"~.~.~.~.~.~.  3 r.g.f.f.f.f.f.f.f.f.f.f.g.f.y.2.2.2.2.2.2.2.2.2.2.2.2.2.2.2.{ / ) ) / / / / / / / ^ -   @ @ # @ @ ~.~.~.~.~.~.~.",
"~.~.~.@ @ @ @ @ y y y y y y t t y y y y y y t e y t e t t e e e t t t t t t r & w w # w # w w w w # @ @ @ @ @ @ ~.~.~.~.~.~.~.~.",
"~.~.~.@ @ * u u * * * u u u u u u i i * i * u u * * h * i * u u @ @ * f f f f i f f f f i f f f f f f f f * @ ~.~.~.~.~.~.~.~.~.",
"~.~.~.@ * q.A.A.K.K.K.K.K.K.C.K.K.C.K.K.A.Z.Z.Z.K.K.K.K.Z.Z.Z.C.n & 0.I.P.P.P.P.P.P.P.P.P.P.P.P.P.P.P.K.q.L @ @ ~.~.~.~.~.~.~.~.",
"~.~.~.@ u C.E.U.I.P.P.L.P.P.P.P.P.P.P.P.P.P.P.P.I.I.P.L.P.R.R.P.M * N.E.U.I.I.P.P.P.P.P.P.P.P.P.P.P.I.P.! H @ ~.~.~.~.~.~.~.~.~.",
"~.~.~.@ % N.R.T f f h f t f h h f i f f i i f i f f h h i T R.U.M * N.U.I u f f i i f i f f i f f i M V.P.H @ ~.~.~.~.~.~.~.~.~.",
"~.~.~.@ @ 0.R.F @ @ @ @ @ @ # @ @ @ # @ @ # # @ # @ @ @ @ M P.U.M % N.U.M @ # @ @ # # @ # # # # @ @ # n.Y.N @ ~.~.~.~.~.~.~.~.~.",
"~.~.~.@ @ 8.Y.P @ w , , 2 2 2 2 , , 2 , 5 2 2 5 , 2 , e @ M U.U.M % N.U.M @ e p , , 6 , , , p , , # * B.U.m @ ~.~.~.~.~.~.~.~.~.",
"~.~.~.@ @ P 9.U @ w 6 6 6 6 6 6 6 6 6 , 6 6 6 6 6 6 6 e @ N U.P.M * N.U.M @ > 6 6 6 6 6 6 6 6 6 , # u A.P.f @ ~.~.~.~.~.~.~.~.~.",
"~.~.~.@ @ F ! Q @ w 6 6 6 6 6 , 6 6 6 6 6 6 6 , 6 6 6 e @ M P.P.M % N.U.N @ 2 6 6 6 k l l l j 6 p @ i P.Z.* @ ~.~.~.~.~.~.~.~.~.",
"~.~.~.~.@ F K.9.@ # > > = = ; ; > > > , , , , , , , , : @ f P.R.D % q.Y.F @ : 6 x A A A A C x l , @ m U.B.* @ ~.~.~.~.~.~.~.~.~.",
"~.~.~.~.@ n 0.! u @ . ; ; , 5 6 6 6 6 6 6 , , ; . . . . @ f L.R.K @ 9.R.K @ : 6 j j 8 6 8 6 6 8 > @ F Y.0.& @ ~.~.~.~.~.~.~.~.~.",
"~.~.~.~.@ * Z.K.f @ j x x A A O.x A x x x C C x V l 7 > @ * B.V.H @ 9.U.K @ p V V V C C A O.A A s @ U R.! @ @ ~.~.~.~.~.~.~.~.~.",
"~.~.~.~.@ * N.U.G @ x @.@.@.@.@.@.@.@.@.@.@.@.@.@.@.+.V r * 9.~ K @ U 8.K @ s @.@.@.@.@.@.@.@.+.p @ ! R.E @ @ ~.~.~.~.~.~.~.~.~.",
"~.~.~.~.@ @ ! U.Y @ z @.@.@.@.@.@.@.@.@.@.@.@.@.@.+.@.+.t @ 9.U.E @ U N.T @ s +.@.+.@.@.@.+.O.V t % 0.Y.H @ ~.~.~.~.~.~.~.~.~.~.",
"~.~.~.~.@ @ N 0.W @ t A C V V V V V V V V C +.+.+.@.+.+.p @ ~ R.E @ I Y.! @ p O.O.O.C C x j 6 , @ * C.U.m @ ~.~.~.~.~.~.~.~.~.~.",
"~.~.~.~.~.@ f ~ ! * # 6 6 6 6 6 6 6 6 6 6 6 6 6 6 l l l t @ H 9.K @ m 0.8.% w j 8 8 8 6 6 6 8 p @ f K.9.* @ ~.~.~.~.~.~.~.~.~.~.",
"~.~.~.~.~.@ * W 0.f @ 5 6 6 6 j j k l l l l k 6 6 6 6 6 : @ m ~ P @ g ~ Q * t Z O.O.C C C C O.d @ D M.P @ @ ~.~.~.~.~.~.~.~.~.~.",
"~.~.~.~.~.@ @ K 0.F @ s O.A O.+.+.+.+.@.@.+.+.+.+.S C C z @ f ! U % * Q E % # Z @.@.+.@.@.@.+.a @ H 8.F @ @ ~.~.~.~.~.~.~.~.~.~.",
"~.~.~.~.~.@ @ N 9.U @ t +.@.@.@.@.+.@.@.+.@.@.+.@.@.@.@.Z & * W Q * * E ! * # Z @.+.@.+.@.@.O.r @ K ~ n @ ~.~.~.~.~.~.~.~.~.~.~.",
"~.~.~.~.~.~.@ f ! E * # Z @.@.@.@.@.@.@.@.@.@.+.@.@.@.@.S r % I ! f @ I ~ g @ z +.+.+.O.S S B # * W Q * @ ~.~.~.~.~.~.~.~.~.~.~.",
"~.~.~.~.~.~.@ % I ! h @ t d d d a d d d d d s d d s s s d & @ D ! M @ F ~ G @ r t t t r & # & @ m ! P % @ ~.~.~.~.~.~.~.~.~.~.~.",
"~.~.~.~.~.~.@ @ D ~ H @ @ @ @ @ @ @ @ @ @ @ @ @ @ @ @ @ @ @ @ m ~ F @ m ~ L @ @ % $ % % % * * * P ~ M @ @ ~.~.~.~.~.~.~.~.~.~.~.",
"~.~.~.~.~.~.~.@ f Q ! J F F F F F F F F F F F F F F F F H F F U 8.U @ * ! ! H F K K I U U E T Q 8.W * @ ~.~.~.~.~.~.~.~.~.~.~.~.",
"~.~.~.~.~.~.~.@ % K 8.~ 8.8.8.8.8.8.9.8.8.8.8.8.8.8.8.8.8.8.8.8.8.! f % L 8.8.~ ~ ! ! ! ! Q ! E T N @ @ ~.~.~.~.~.~.~.~.~.~.~.~.",
"~.~.~.~.~.~.~.@ @ f F F F F F F F F F F F F F F F F F F F F F F F D * @ f M M M m n g f u * * * * @ @ ~.~.~.~.~.~.~.~.~.~.~.~.~.",
"~.~.~.~.~.~.~.~.@ @ @ @ @ @ @ @ @ @ @ @ @ @ @ @ @ @ @ @ @ @ @ @ @ @ @ @ @ @ @ @ @ @ @ @ @ @ @ @ @ @ @ ~.~.~.~.~.~.~.~.~.~.~.~.~.",
"~.~.~.~.~.~.~.~.~.@ @ @ @ @ @ @ @ @ @ @ @ % @ @ @ @ @ @ @ @ @ @ % @ @ @ @ @ @ ~.~.~.~.~.~.~.~.~.~.~.~.~.~.~.~.~.~.~.~.~.~.~.~.~.",
"~.~.~.~.~.~.~.~.~.~.~.~.~.~.~.~.~.~.~.~.~.~.~.~.~.~.~.~.~.~.~.~.~.~.~.~.~.~.~.~.~.~.~.~.~.~.~.~.~.~.~.~.~.~.~.~.~.~.~.~.~.~.~.~.",
"~.~.~.~.~.~.~.~.~.~.~.~.~.~.~.~.~.~.~.~.~.~.~.~.~.~.~.~.~.~.~.~.~.~.~.~.~.~.~.~.~.~.~.~.~.~.~.~.~.~.~.~.~.~.~.~.~.~.~.~.~.~.~.~.",
"~.~.~.~.~.~.~.~.~.~.~.~.~.~.~.~.~.~.~.~.~.~.~.~.~.~.~.~.~.~.~.~.~.~.~.~.~.~.~.~.~.~.~.~.~.~.~.~.~.~.~.~.~.~.~.~.~.~.~.~.~.~.~.~."
};
