/* XPM */
static char *d12ba927270e41339648064aea789dafR3S0b6gfXRZIBiKk[] = {
/* columns rows colors chars-per-pixel */
"64 64 250 2 ",
"   c None",
".  c #3D291A",
"X  c #392D25",
"o  c #3B332A",
"O  c #3A3936",
"+  c #392935",
"@  c #431F14",
"#  c #45240D",
"$  c #442918",
"%  c #502F16",
"&  c #693B16",
"*  c #63360F",
"=  c #462826",
"-  c #463627",
";  c #573B28",
":  c #4A2539",
">  c #493C37",
",  c #523131",
"<  c #54282B",
"1  c #3D453A",
"2  c #3B402E",
"3  c #72411A",
"4  c #584437",
"5  c #454236",
"6  c #674328",
"7  c #674A38",
"8  c #7A5330",
"9  c #7C603B",
"0  c #38324E",
"q  c #2D3872",
"w  c #4B2546",
"e  c #542759",
"r  c #493757",
"t  c #533657",
"y  c #4E334C",
"u  c #550873",
"i  c #562766",
"p  c #553171",
"a  c #683677",
"s  c #560C55",
"d  c #3B4848",
"f  c #384756",
"g  c #3A5558",
"h  c #2A495C",
"j  c #1B4F79",
"k  c #37576A",
"l  c #375D77",
"z  c #2D4D6B",
"x  c #3C6766",
"c  c #366674",
"v  c #3D7672",
"b  c #336365",
"n  c #434344",
"m  c #4C4C4B",
"M  c #454746",
"N  c #574844",
"B  c #45555A",
"V  c #535353",
"C  c #5A5A5B",
"Z  c #4E5050",
"A  c #6A5B56",
"S  c #6B504B",
"D  c #4B615B",
"F  c #776558",
"G  c #696257",
"H  c #495966",
"J  c #504D6E",
"K  c #684F6B",
"L  c #4E6C6F",
"P  c #666565",
"I  c #656A6A",
"U  c #6D6B6A",
"Y  c #786968",
"T  c #6D7374",
"R  c #8F4F1D",
"E  c #85552A",
"W  c #89562C",
"Q  c #A45D22",
"!  c #966938",
"~  c #96693C",
"^  c #B76A25",
"/  c #AE692B",
"(  c #C6732C",
")  c #CC7C35",
"_  c #8B5B45",
"`  c #8D6A4A",
"'  c #AC7B45",
"]  c #885E6A",
"[  c #887979",
"{  c #886B70",
"}  c #55847D",
"|  c #CE843B",
" . c #BB894D",
".. c #90847E",
"X. c #D59D57",
"o. c #D1914B",
"O. c #DAA35D",
"+. c #DDA863",
"@. c #E2AD65",
"#. c #E6B472",
"$. c #E0A55D",
"%. c #2A3895",
"&. c #2C368A",
"*. c #670886",
"=. c #582389",
"-. c #532B92",
";. c #672398",
":. c #6F378F",
">. c #791CA5",
",. c #6F1FA2",
"<. c #7E3ABA",
"1. c #7837A8",
"2. c #5B0D82",
"3. c #195295",
"4. c #27469A",
"5. c #2F588A",
"6. c #196698",
"7. c #1C7897",
"8. c #2A6A87",
"9. c #366681",
"0. c #2C7599",
"q. c #337194",
"w. c #175AA5",
"e. c #1554A5",
"r. c #274BA1",
"t. c #2D55A5",
"y. c #136CAD",
"u. c #1466A5",
"i. c #056CBA",
"p. c #0071BD",
"a. c #0976BE",
"s. c #1574B4",
"d. c #1A7CBC",
"f. c #1778B8",
"g. c #0E69AA",
"h. c #2877A3",
"j. c #2A6AB2",
"k. c #3170B0",
"l. c #4E4E89",
"z. c #4E738F",
"x. c #5155B0",
"c. c #7653B4",
"v. c #566CBA",
"b. c #4574BA",
"n. c #4D72B1",
"m. c #7562A2",
"M. c #1468C2",
"N. c #1077C2",
"B. c #3779C4",
"V. c #2F73CC",
"C. c #6C78CC",
"Z. c #636FCD",
"A. c #821AAA",
"S. c #822CAC",
"D. c #8D5891",
"F. c #95788D",
"G. c #AC758B",
"H. c #8752B6",
"J. c #A167AC",
"K. c #9357C8",
"L. c #9770CD",
"P. c #A677D1",
"I. c #3B8D95",
"U. c #1984B2",
"Y. c #3585A6",
"T. c #2788B7",
"R. c #3798BA",
"E. c #328BB1",
"W. c #3AA9B6",
"Q. c #3BA29E",
"!. c #568F91",
"~. c #6C8A8F",
"^. c #578EB0",
"/. c #4DAEAC",
"(. c #609CA7",
"). c #6CC0BF",
"_. c #1C88C5",
"`. c #168DCA",
"'. c #2489C6",
"]. c #3589C9",
"[. c #2193CD",
"{. c #2A96C9",
"}. c #3794CA",
"|. c #3988D6",
" X c #2296D1",
".X c #239AD4",
"XX c #279EDB",
"oX c #3298DD",
"OX c #2D8AD4",
"+X c #35A7C6",
"@X c #27A2DB",
"#X c #33B6D8",
"$X c #3B98E3",
"%X c #29ABE3",
"&X c #26A6E1",
"*X c #38A8E3",
"=X c #35B8E6",
"-X c #2BB5E5",
";X c #109CE1",
":X c #4786DB",
">X c #558CD0",
",X c #668FCC",
"<X c #4CA8D3",
"1X c #4A8CE7",
"2X c #5989E6",
"3X c #4894E5",
"4X c #5196E5",
"5X c #6288E6",
"6X c #6BAEF2",
"7X c #63B9E1",
"8X c #31D0EA",
"9X c #34E8F5",
"0X c #0ADAEF",
"qX c #47CBCA",
"wX c #6BDBFA",
"eX c #6ECCF7",
"rX c #76E6F9",
"tX c #73ECFA",
"yX c #59D8F4",
"uX c #9B8B84",
"iX c #928E93",
"pX c #AA8F94",
"aX c #A690A7",
"sX c #BBB8B8",
"dX c #B1ACAB",
"fX c #A1ADAB",
"gX c #C9B9B8",
"hX c #D49C91",
"jX c #A4ADCA",
"kX c #8BC9E8",
"lX c #95EBFB",
"zX c #AEEEFA",
"xX c #B1CCDC",
"cX c #C8C7C8",
"vX c #D6CBCA",
"bX c #DCDCDC",
"nX c #D7D5D6",
"mX c #CECAD2",
"MX c #E4D9DC",
"NX c #DBD5EC",
"BX c #E7D6F5",
"VX c #D2F1FD",
"CX c #E4E4E4",
"ZX c #EBE8E9",
"AX c #F4F4F4",
"SX c #FAFAFA",
"DX c #F9F7F8",
"FX c #EEF2F6",
"GX c #E0E0DF",
"HX c #C7BACE",
/* pixels */
"                                                                                                                                ",
"                                                                                                                                ",
"                                                              . $                                                               ",
"                                                            X 7.f                                                               ",
"                                                            h ;Xg                                                               ",
"                                                            6.`.f                                                               ",
"                                                          . 6.U.g                                                               ",
"                                                          o g.a.B                                                               ",
"                                                          0 i.N.H                                                               ",
"                                                          h p.N.H                                                               ",
"                                                          j N._.L                                                               ",
"                                                        O g.p.'.l                                                               ",
"                                                      0 e.p.p.].l                                                               ",
"                                                    0 4.p.p.p.}.l                                                               ",
"                                                $ r &.w.p.p.N.}.l.                                BXBX                          ",
"                                              = l 4.&.e.p.p.N.].l.                              NXFXBX                          ",
"                                            - 9.r.%.%.4.i.M.a.B.l.                                BXBX                          ",
"                                          2 q.t.%.i.i.i.i.g.7.x.l.                                                              ",
"                                        5 Y.k.%.e.N.i.i.p.`.{.Y.k o                                       kXzX                  ",
"                                      $ Q.].%.r.i.M.M.M.N.XX%X%X*XR.c o                                 tXtXzX                  ",
"                                      g #Xr.%.g.p.M.M.M.V.1X$X%X%X=X=X^.k                           wXwXwXlXVXlX                ",
"                                      x E.%.r.M.M.i.M.V.1X2X2X3X*X%X*XyX<Xd                       wXrXwXyXzXFXVXtX              ",
"                                    o x 0 0 3.M.N.M.M.V.4X2X5XZ.:XR.Y.z.L y #                     6XwXrXtXVXSXzXtX9X            ",
"                                    d +Xp s 0 j 3.5.4.5.z.x.J t t p a D.J.H.y c c D 5 5           6X6XeXlXVXVXzXtX0X            ",
"                                  . x <X*.u ;.i w = w i :.:.1.c.<.H.S.K.P.P.p 0..X XR.^.~.P 4       6X6XeXVXzXtX9X0X            ",
"                          O g c I.c I.>X*.u >.,.=.=.i e i =.S.S.<.<.<.K.L.P.:.c .X X X X<X7XjXm.;   7X6XeXVXlXyX0X    BX        ",
"                      # g {.@X-X-X9.Q.Z.*.u A.A.,.;.;.=.p i e e =.:.1.S.K.jXJ.f .X X[.[.'.{.kXxXiX, l.6XeXzXwXQ.      BX        ",
"                x v x d d E.%X&X@Xc W.c.*.u A.A.>.>.;.;.;.=.=.=.i e e i =.F.D.r [. X[.[.[._.<XxXjX> e 5.^.jX^.e : = <           ",
"              x 9X9X-X@X+X.X%X&X.X8.x i s u A.>.>.>.>.,.;.;.=.=.=.=.i e w = = M {..X[.[.[._.<XkX~.e :.a K K t V J , %           ",
"              Q.9X9X-X%X-X-X-X@XXX.X_.h.q.H k r i e e i e e e y r r q z 5.q.T. X.X.X X[.`._.>X~., :.K.K.H.H.C.,Xz.y             ",
"              x 9X9X8X&X&X@X-X%X&X&X&X&XXX@X.X X_.'.k.b.k.b.B.|.].|.oXoXoXXXXXXX.X.X X X[.Y.C >   e :.D.1.C.7Xz.y               ",
"                D W.8X8X-X%X@X-X%X&X%X%X&X&X&X&X&X3X2X2X1X1X1X3X3XoX$X$X@X@XXXXX.X@X_.0.k -         : i K H B N                 ",
"                  o x Q.+X-X-X&X%X-X%X-X%X%X%X$X1X2X2X2X1X1X3X3X3X$X@X@X@X XT.U.8.k f .             r c.,X!.                    ",
"                        2 g b c 0.0.E.T.T.E.B.v.Z.v.v.v.b.n.n.q.q.q.q.L L P U S 0 5.U.o             i c.,XD                     ",
"                            . + 5 } N 4 ; 8 E R & S [ ..[ uX..3 R 3 uXvXvXcXsXS l.e.U.1             p H.<X5                     ",
"                        + 0 3.j v /.P P 4 R ( ( ^ S dXcXbXFXdXR ( Q ` sXuXF 4 $ %.6.U.2             :.jX^.5                     ",
"                    5 l %.4.e.h I./.G U G ; / ( ( R < S A { 7 Q ^ / 3 4 L !.S S 0 u.U.o           @ a L.!.O     BX              ",
"                    c {.4.%.4.h Q.!.P P I V 3 ^ ( o.W } b.I 3 8 _ _ ! 7 l.V A G.0 u.c             = :.C.z.      VX              ",
"                    5 W.j.%.%.d qX} P P P P 4 R ( o.O.~ N N  .W hXhXW  .~ ~ F J.S 8.b             = :.,Xx                       ",
"                      v +Xw.&.g qXT P P I I C 6 Q ) O.O. .! 8 6 S F A ` ` 8 F aXD.f o             : 1.,XM                       ",
"                      $ I.{.q L qXI P P P I I C 3 Q ! 9 F ..dXsXvXMXGXGXMXcXsXaXJ.=               : c.^.5                       ",
"                        - x d d Q./.I P P P I !.V G ..dXvXGXGXCXGXnXnXGXZXAXZXgX] $ > O O         w c.^.$                       ",
"                  $ g L I.0.k.l.d } /.I P P T /.~.dXmXbXGXnXcXdX{ S 7 dXMXCXZXnXA q.}.].k.n.H $ % e c.!.                        ",
"              $ x Q.R.k.t.r.t.r.t.f x !.I P !.qX(.sXbXnXcXcXsXdXF.F.F.HXNXMXZXgXm {.XXoX|.1Xn.8 ! e v.L                         ",
"            $ I.}.k.r.r.r.w.s.T._.'.b Z } I !.qXfXsXcXcXsXcXcXcXmXmXnXNXAXAXZXuXd 9.XXXX.XXXq.' ~ i K _ E                       ",
"            $ 9.r.%.4.w.d._._.[. X@X0.: M I I !.qXsXsXsXbXGXbXbXCXFXAXSXSXZXvXI R.x h..X.XXXx  .~ i _ @.+.!                     ",
"              + %.r.u.s.N.'.'. X X@Xk.0 j n C I !.fXsXcXbXCXFXAXFXDXDXSXSXZXhXJ %X+Xg U. XT.S X.6 i _ @.@.!                     ",
"            * 3 0 w.j.f.U.'.[. X.XXXE.f y.7.d V I (.fXsXnXnXZXZXFXDXSXSXAXMXY v.3X=XI.k _.l ~ ! < y ! ! ! 6                     ",
"          3 ^ ( E h j.V.U._. X.XXXoXE.h s.f.h.r 4 I ~.cXcXmXCXAXAXDXDXDXGXgXC 2X2X*X#Xx k 7 / Q * ~ +.X.~                       ",
"        * ( | | o.! M 0._.`.[.XXXX$Xk.h y.s.s.j.r N T dXcXcXGXAXAXDXDXZXMX] v.5X5X3X-XR.- / ( ^ & ! X.O.W                       ",
"      % ^ | O.$.o.o./ 7 l T. XXX&X1Xq.z s.s.s.f.j.r 4 } cXmXnXFXDXDXAXZXpXH >X2X2X2X*X=XB Q ^ R  . .` 8                         ",
"      & ( X.@.@.O.X.X.o.` V c T.|.Z.k j y.s.s.f.s.n.t S iXnXnXCXDXDXZXnXG b.2X2X5X5X3X8XI.% R E X.@.o.%                         ",
"      % R ' @.@.+.+.#.+.@.O.6 0 0 h h 6.y.s.s.s.f.d.x.r S sXbXCXAXAXMXuX9.1X2X5X5X5X2X#X#Xd   # 8 ' W                           ",
"        * & ~ +.@.#.#.#.O.O.8 q %.e.u.g.y.y.s.s.d.d.d.x.t Y nXCXZXZXgXC B.1X:X2X5X5X5X*X8Xc     i B                             ",
"          * & W  .#.#.+. .O.; &.3.e.u.g.y.y.s.s.f.d.d.B.x.t pXZXZXMX[ z.|.:X1X2X5X5X5X4X8X!.  @ p B                             ",
"            * & & ! o./ 8 8 O &.3.g.w.u.y.y.s.s.f.f.V.U.b.l.Y CXZXdXH V.|.:X:X^.C.v.C.4X=X+X- @ =.M                             ",
"                # & 3 * g q &.q z z j 3.g.y.s.s.f.f.d._.d.:.uXZXdXC k.|.:Xz.0 y 4 t S l.<XW.- @ p -                             ",
"                        O 0 + : > > S y z 6.s.s.s.f.d.d.k.J dXuXH k.OXB.f o 5 m V K { ] N >   : p -                             ",
"                        # . O M Z C K G.] n 6.f.f.f.d._.k.t G l B.OX].f X O M m V C { G.[ 4   : r                               ",
"                        . O n M V C K G.G.{ 5 j 5.6.6.0.5.- k h.h.h.k X O 1 M Z V C U G.pX[ ; : r                               ",
"                      . + O d M V V C [ pXiXA . . X - X . $ o X X . . o O 0 M Z V C U uXiXuX4 w :                               ",
"                      X O O n m Z C P [ pXiXY %                     . X O O M Z V C Y F.[ A - = $                               ",
"                      . o O n m V C P Y { G ;                         # . - - > > 4 4 4 ;                                       ",
"                        . . $ - - - ; , %                                                                                       "
};
