/* XPM */
static char *_fceff2b8a2f4e348954f7bd086b2e377UsB4Ph8PfTNL0Lk[] = {
/* columns rows colors chars-per-pixel */
"64 64 59 1 ",
"  c None",
". c #262622",
"X c #2E2E28",
"o c #33332D",
"O c #363630",
"+ c #3D3D36",
"@ c #3E3E38",
"# c #42423B",
"$ c #484740",
"% c #474840",
"& c #4B4C44",
"* c #504F47",
"= c #4F5047",
"- c #4F5048",
"; c #505047",
": c #54544B",
"> c #58574E",
", c #57584F",
"< c #58584F",
"1 c #575950",
"2 c #5C5C52",
"3 c #605F55",
"4 c #5E6156",
"5 c #5F6459",
"6 c #616157",
"7 c #636258",
"8 c #68675D",
"9 c #66695E",
"0 c #69695E",
"q c #676C60",
"w c #6B6D62",
"e c #706F64",
"r c #6E7266",
"t c #717367",
"y c #727669",
"u c #78776B",
"i c #757A6D",
"p c #797C6F",
"a c #7A7E71",
"s c #807F72",
"d c #7D8274",
"f c #818476",
"g c #828678",
"h c #858A7B",
"j c #898D7E",
"k c #8A8F80",
"l c #8D9182",
"z c #919585",
"x c #939788",
"c c #989788",
"v c #959A8A",
"b c #9B9C8D",
"n c #A09F8F",
"m c #9DA291",
"M c #A1A08F",
"N c #A1A393",
"B c #A4A897",
"V c #A6AB9A",
"C c #A8AD9C",
/* pixels */
"                                                                ",
"                                                                ",
"                                                                ",
"                                                                ",
"0007773333333370700888800088788888788888008063223333778888000000",
"zjstee0ee00ee0tjnnnnnnncjsytttttttuzNnnnnnncu770e0weetfcnnzfspfz",
"77373>*373337738eeuuusu03666777783>0ssfffsse7<>>373<><>607<<3378",
"777773><23233377733733337uaapdddfp3:3773776777:#<<*<64443333>373",
"72:24-&=*#&&&&2777223773idddddaifd0&27762212<4324&1dddddfsddt,47",
"7:#<11rytew05&;673$:7732hdddddy9yfw&2736wrtr9;27:-idddddfpidd147",
"7726:tddffdfd4&27723777<ljddddd97dt&<72iddpdd5&4:1jdddddd97dd427",
"77742dddddaddr&<7777773>pCllggdaddr&,64dddi9rr&2:,xddddddiydd627",
"7772qddddddi9y=:77777772&9aaauyw97:#24wjddd9tr&2<=vdddddddddd426",
"776>dddddddd7r,=777777371&%%$&&&&&&=42tNdddddy&12&xxddddddddp,27",
"7771ldddddddyd4&3772;;;:2211>>>:-:,673:zVlhdi5=12&7Bvllhfpiy4:67",
"7772blhhhgddir1&372=:wyy33777337577776:&7974-&&172&;2221,;=&;377",
"7773ejauw971:,>277:*pdpwi17772-337377761&&&&&;177721,,,<<<<36777",
"73773>>22466777772&qkapqdq26*&3772&27777766677777777776736777777",
"777377777762222371&tmgddd916&&73772377777776622664742477;<677377",
"777776*>72790q7:::*&ahdy7;34222222223777774wiuppaada0=272#<6**37",
"777773>31wdfddd9&33;&=&&;2<&::,:><<<::77738ddddddaddp-,76266**67",
"322677771ddditty&173722771&8ddddaaaap51762whdddda9ydd--777623223",
"888277735hdddq9y-:7777777=1ddddddddddt>772yxdddddr1id--772:47777",
"dddw27735bdddddp;:7777772&rgdddddp5rdp:7727Czgffddydd,-76=4ddddd",
"dddy>773>xBlhfdy=:7777733&ujadddddrydi,773*8jjjfdpyr7&&72&tddddd",
"ddyr:777:*wpr91&&:7777777*wxdddddddddi,6772&$&&&=&&&%&>7<=dddddd",
"dddr:7766<&&&&&&:37337777-7Bdddddddddy:67733:::-====;277,=jddddd",
"dddr:777773232237772:3737:&zBzlhgddpi<,773:37777737277;2<=zddddd",
"ddd9:7777777777;&3&*377773;=8q0872::=:46733*&732222127671&xxdddd",
"iyr:17777777777>>3&;7773773>;-*;:::,2677773*-31raaar:2772&7bxlhd",
"&&&;6111<<11266777632<2222267:&3777636467373715ddddd7;217:%&----",
":::2:7yyyyyy0<37763;&&&&&&&&23<7776:&:::37777>wdpddd9&2&;6,:::::",
"7771:addddddd7<77711rrrwwq9&*77777:&9ppy22777>udrrid9&2:;7773777",
"777:2gdytdddd9:777:rddddddd4&27772&9ddqry1777:ggp19d8&7777777777",
"777:7ldppdddd8:7722ddddddddw&>777:&lgdyyd2377:lldipd8&372:::1373",
"777:2Bvllddt7->772qgdddddpwy-;777:&jbhgdu>377:wVvldi2=32&1qw8>77",
"7771&7r051-&&;277<agdddddd5w:-7772&;iir7:>7371&,52:=&=3&1adyyq27",
"7373:&&&--::167771kfddddddip5&37772;=&&-2372-22;&&=:,2>&agdqrp22",
"777773312577777772blhhhhddir2&2777776677333>$277577777:&vlddda22",
"3777773&2777647772thdyr971,:127-;77777772>7323342722271&qvkdp5,7",
"77777>*36222221,67212<3373777372377777777737wwwrrtyt2:7:$=:-=:33",
"77773&$327pdpdi1;7777737772::;--;;;::277773addddddddp=,72><22377",
"373773371pddiddt&177777772&,wttiyyrrq>2773whdddddrdda::3$-:27337",
"222277775hddd55y&<6>77777:;ydddddddddr1772tkaddddq5pa:;2-,:>2222",
"pdi73<237ldddiii*>3237773&qgddddddridt:772eBgadddp9dd1=75:1tuppp",
"dddy>:>34Bxddddp*>3777773&ykdddddp5tdi:333-jNxlkddidt-=52&wddddd",
"ddpt>337:7xzhar2#>3777733&rzadddddpddi1577:&1252521,&$:71=pddddd",
"ddpt:7772=&&==&#*27777777=qbdddddddddi15773>&&&&%%&%&:27,=hddddd",
"dddr:777772::>:>376777777::Nxhggddddd7:77737333322222777>-lddddd",
"ddd9:777777323777777777772&6jjgddt974:2777777767597777771&bhdddd",
"ddd11777777<#2777762323337<&&&&&=&&==27777777777737777772&uVlkhg",
"2,:&27222232337776:&&&&&&&;36633446622<,>373:377731123773*&8w985",
"&&&2><579797327771:9999762&:2277677<7yid0:272:#3>&,1117772*&&&&&",
"4461;iddddddp2276:rddddddd2&-%37773<ddddf0&67:*<&7pdpw2777634332",
"777:1ddpidddd9:722ddddddddq&12777726didddr&3777;,ddy5p5277737777",
"767:7hdptdddd7>729ddddddpwy&:77777<0friidr&2773#uxdaidw177777777",
"777:6nhggdday1:7<pfdddddd7r:*37777<thp44dr&2772&4mzhfu2277773777",
"777>;gzjdt91=&27<jdddddddry4&37777,dzdrrdr&2777>&4076:>777777777",
"7772&&#*&%&&;2772bjggggdddu4*33777>0Vvlhd9&27773<:;:;<7733323777",
":>:>3<>21221&2772pxhfptw4,>:<377772&4rr5:&&3777766777732-&###*>>",
"@@@@>ttee007237772<<<22:&&&&&#&&&;22=&&&&;<77777777773>##@+O#@@#",
"@oX+@*>370etyuuee0832:;#@@@+Xo+O###<,,<<68eeee000086;*@@@@@oo@#@",
"@Oo@@@@@@@###$&$#&###+@@+@@+oO@@@@+@#####*:>33776:##@@@@@@@+O@@@",
"................................................................"
};
