/* XPM */
static char *result[] = {
/* columns rows colors chars-per-pixel */
"64 64 153 2 ",
"   c #161513",
".  c #1A1816",
"X  c #1E1D1A",
"o  c #2C190F",
"O  c #261B13",
"+  c #2A1D13",
"@  c #201F1C",
"#  c #281F1A",
"$  c #341E13",
"%  c #391E13",
"&  c #2B2017",
"*  c #26201C",
"=  c #2A221C",
"-  c #362312",
";  c #3E2316",
":  c #3C2A12",
">  c #32241B",
",  c #39251A",
"<  c #35291C",
"1  c #3A2B1B",
"2  c #2E2620",
"3  c #2F2823",
"4  c #332B24",
"5  c #382E27",
"6  c #372E29",
"7  c #382F28",
"8  c #3C342C",
"9  c #3F3531",
"0  c #442416",
"q  c #4A2716",
"w  c #4B2817",
"e  c #412619",
"r  c #432A1D",
"t  c #4C2C1C",
"y  c #502712",
"u  c #562B14",
"i  c #542B1A",
"p  c #5A2E1B",
"a  c #453012",
"s  c #573C12",
"d  c #55311F",
"f  c #5D301D",
"g  c #642D14",
"h  c #6B2D12",
"j  c #722F13",
"k  c #64321D",
"l  c #6A351E",
"z  c #7F3314",
"x  c #41362E",
"c  c #42382F",
"v  c #5E3320",
"b  c #453A31",
"n  c #483D34",
"m  c #633520",
"M  c #6B3720",
"N  c #6E3821",
"B  c #733A21",
"V  c #614212",
"C  c #6A4812",
"Z  c #7B5515",
"A  c #4C4136",
"S  c #4D4239",
"D  c #52453B",
"F  c #574A3E",
"G  c #584B3F",
"H  c #6D5122",
"J  c #4D4540",
"K  c #544940",
"L  c #5B4E41",
"P  c #5E5044",
"I  c #5C524D",
"U  c #625346",
"Y  c #645649",
"T  c #67584B",
"R  c #6B5C4D",
"E  c #6E5F50",
"W  c #716151",
"Q  c #786756",
"!  c #7B6857",
"~  c #7C6959",
"^  c #79716B",
"/  c #833413",
"(  c #8B3412",
")  c #893917",
"_  c #943915",
"`  c #A43D15",
"'  c #AB3F14",
"]  c #8D5F12",
"[  c #A54118",
"{  c #B44317",
"}  c #BD4517",
"|  c #B95117",
" . c #996713",
".. c #A77112",
"X. c #BB7E14",
"o. c #C34717",
"O. c #C94D19",
"+. c #D04B17",
"@. c #D34E1A",
"#. c #D45119",
"$. c #DC5219",
"%. c #E4521A",
"&. c #EC541A",
"*. c #E75B19",
"=. c #ED5D1A",
"-. c #F15E1A",
";. c #DA7A16",
":. c #EE6319",
">. c #F06F17",
",. c #F16019",
"<. c #F16B19",
"1. c #F27217",
"2. c #F47A17",
"3. c #84705F",
"4. c #877361",
"5. c #8A7663",
"6. c #8E7966",
"7. c #957F6A",
"8. c #C48513",
"9. c #CC8912",
"0. c #DE9614",
"q. c #F68516",
"w. c #E19714",
"e. c #E39813",
"r. c #ED9F13",
"t. c #F79415",
"y. c #F89215",
"u. c #F79814",
"i. c #F89E13",
"p. c #F2A313",
"a. c #FAA613",
"s. c #FBA813",
"d. c #FBAD1C",
"f. c #EFAD2D",
"g. c #F9B42D",
"h. c #F9B530",
"j. c #F7B93A",
"k. c #FBBA38",
"l. c #96806C",
"z. c #99836E",
"x. c #9D8671",
"c. c #A68E77",
"v. c #A88F78",
"b. c #AC937B",
"n. c #B0977E",
"m. c #B1987F",
"M. c #D5AD59",
"N. c #F8C557",
"B. c #F7CF77",
"V. c #B49A81",
"C. c #BA9E85",
"Z. c #BAA086",
"A. c #F8D98F",
/* pixels */
"@ @ X * @ @ @ @ @ @ @ @ @ @ @ @ @ @ @ @ @ @ @ @ @ @ @ @ @ @ @ @ @ @ @ @ @ @ @ @ @ @ @ @ @ @ @ @ @ @ @ @ @ @ @ @ @ @ @ @ @ @ @ @ ",
"@ @ @ X @ @ @ @ @ @ @ @ @ @ @ @ @ @ @ @ @ @ @ @ @ @ @ @ @ @ @ @ @ @ @ @ @ @ @ @ @ @ @ @ @ @ @ @ @ @ @ @ @ @ @ @ @ @ @ @ @ @ @ @ ",
"@ @ @ @ @ @ @ @ @ @ @ @ @ @ @ @ @ @ @ @ @ @ @ @ @ @ @ @ @ @ @ @ @ @ @ @ @ @ @ @ @ @ @ @ @ @ @ @ @ @ @ @ @ @ @ @ @ @ @ @ @ @ @ @ ",
"@ @ @ @ @ @ @ @ @ @ @ @ @ @ X @ @ @ @ @ @ @ @ @ @ @ @ @ @ @ @ @ @ @ @ @ @ @ @ @ @ @ @ @ @ @ @ @ @ @ @ @ @ @ @ @ @ @ @ @ @ @ @ @ ",
"@ @ @ @ @ @ @ @ @ @ @ @ @ @ @ @ @ @ @ @ @ @ @ @ @ @ @ @ @ @ @ @ @ @ @ @ @ @ @ @ @ @ @ @ @ X . . @ @ @ @ @ @ @ @ @ @ @ @ @ @ @ @ ",
"@ @ @ @ @ X @ @ @ @ @ @ @ X @ @ @ @ @ @ @ @ @ @ @ @ @ @ * * * * = * * @ @ @ @ @ @ @ @ @ X       @ @ @ @ @ @ @ @ @ @ @ @ @ @ @ @ ",
"@ @ @ @ .   . X @ @ @ @ @ @ @ @ @ @ @ * @ * * * @ * * 2 7 3 * 3 = = = * @ * @ @ * * * * X X X X @ * @ @ @ @ @ @ @ @ @ @ @ @ @ @ ",
"@ @ @ @       X @ @ @ @ @ 2 @ @ = * = * = * = = @ = S J 6 6 9 3 = * * * = * * * * * * & * & * * @ * = = = * @ @ @ @ @ @ @ @ @ @ ",
"@ @ @ @ .   . @ @ @ X * 2 = * = 3 7 8 8 3 = * = A ^ ^ 8 I ^ A * = b A A A A A A A A A A A A A c 4 = 3 = = * * @ @ @ @ @ @ @ @ @ ",
"@ @ @ @ X X @ @ @ @ * @ @ * * = * 3 3 3 = = * 5 L D 2 3 L b * = = 4 4 4 4 4 4 4 4 4 4 4 4 4 4 4 2 = = = * = = * @ @ @ @ @ @ @ @ ",
"@ @ @ @ @ @ @ @ @ @ @ 2 = * = = * = = * = * = * * * * * * * = = = * = * @ = = = * * * = @ = = @ = b A 5 2 * = = @ @ @ @ @ @ @ @ ",
"@ @ @ @ @ @ @ @ @ @ 2 @ 2 4 4 4 4 4 4 3 = = 4 4 3 3 4 4 4 4 8 8 8 6 8 8 8 8 8 8 8 8 8 8 8 8 8 = 3 3.W P T P 4 = @ @ @     @ @ @ ",
"@ @ @ @ @ @ @ @ @ @ * * 2 4 4 4 4 4 4 3 = = 6 8 8 8 8 8 8 8 8 8 8 8 8 8 8 c 8 8 8 8 8 8 8 8 8 = * P 7 = 4 G L = @ @ X     X @ @ ",
"@ @ @ @ @ @ @ @ @ @ * = = 4 4 4 4 4 4 3 = = 4 8 8 8 8 9 8 8 8 8 8 8 8 8 8 8 8 8 8 8 8 8 8 8 8 3 * c 8 * = = 4 4 @ @ @ X X @ @ @ ",
"@ @ @ @ @ @ @ @ @ @ @ * = 3 3 4 4 4 4 4 3 * 3 8 8 8 8 8 8 8 8 8 8 8 8 8 8 8 8 8 8 8 8 8 8 8 8 8 = 4 A = = = 2 6 2 @ @ @ @ @ @ @ ",
"@ @ @ @ @ @ @ @ @ @ * * * 3 4 4 4 4 4 4 3 * 3 8 8 8 8 8 8 9 8 8 8 8 8 8 8 8 8 8 8 8 8 8 8 8 c 8 2 = A < = < * 4 2 @ @ @ @ @ @ @ ",
"@ @ @ @ @ @ @ @ @ @ @ * = 2 4 4 4 4 4 3 3 = = 8 8 8 8 8 8 8 8 8 8 8 8 8 8 8 8 8 8 8 8 8 8 8 8 8 3 * n 4 # , = 5 3 # * X @ @ @ @ ",
"@ @ @ @ @ @ @ @ @ @ @ @ = = 4 4 4 4 4 4 4 = @ 4 8 8 8 8 8 8 8 8 8 9 8 8 8 8 9 8 8 8 9 8 8 8 8 8 6 * 8 b # r = 3 5 # * @ @ @ @ @ ",
"X @ @ X @ @ @ @ @ @ @ @ * 2 3 4 4 4 4 4 3 2 = 3 8 8 8 8 8 8 8 9 8 8 8 8 8 8 8 8 8 8 8 8 8 8 8 8 8 = = n = 4 , = 5 = # @ @ @ @ @ ",
"@ @ @ @ @ @ @ @ @ @ @ @ * = 3 4 4 4 4 4 4 3 * 3 8 8 8 8 8 8 8 8 8 8 8 8 8 8 8 8 8 8 8 9 8 8 8 8 8 = = b 2 > r # 3 2 * @ @ @ @ @ ",
"@ @ @ @ @ @ @ @ @ @ @ @ = * = 4 4 4 4 4 4 4 = = 5 5 8 8 8 8 8 8 8 8 8 8 8 8 8 8 8 8 8 8 8 8 8 8 8 4 * 8 7 = r = = 3 * * @ @ @ @ ",
"@ @ @ @ @ @ @ @ @ @ @ @ * = 3 4 4 4 4 < 3 = & & + + & & = = < < 8 8 8 8 8 4 < < 5 5 8 8 8 8 8 8 8 7 = 4 c * r 4 * 6 2 X @ @ @ @ ",
"@ @ @ @ @ @ @ @ @ @ @ @ @ = = 3 4 4 & & O O O + - $ + . + + O O & & = & & + O O + + & < 5 8 8 8 8 8 = = c = > , = 8 2 X @ @ @ @ ",
"@ @ @ @ @ @ @ @ @ @ @ @ @ * = 3 3 & O + : V Z ..8.| [ [ ) z g y - o O & o - u g a + + O & 7 8 8 8 8 4 * 8 3 = = 4 D 2 2 @ @ @ @ ",
"@ @ @ @ @ @ @ @ @ @ @ @ @ * * & & O : Z M.f.N.g.s.y.>.,.=.-.*.$.O.[ ) / [ O.%.%.$.{ h - O & 8 8 8 8 4 * 4 8 = * b Y = * @ X * X ",
"@ @ @ @ @ @ @ @ X @ @ @ X * & & O s X.j.A.j.N.h.s.s.a.i.i.i.i.i.t.q.2.<.,.,.<.:.&.&.o.j o + 4 8 8 8 8 = = 8 = = G D @ * @ @ @ @ ",
"@ @ @ @ @ @ @ @ X X * & O & & + : 0.d.B.j.s.p.a.a.a.a.a.s.s.s.s.p.s.s.i.i.i.i.u.,.&.&.{ y o & 3 4 4 4 = = 8 = = L 4 # * @ @ @ @ ",
"@ @ X @ @ @ @ X O O O O + O O & ] s.s.d.s.s.s.a.a.a.a.a.a.s.a.a.s.s.s.a.i.i.p.i.:.&.&.&._ & + & = * = * # 5 c x c # @ @ @ @ @ @ ",
"@ @ @ @ @ @ & O O : V  ...Z H  .r.s.s.s.s.p.a.a.a.a.s.a.a.s.s.a.a.a.a.2.<.<.<.<.=.&.&.&.} 0 O + 4 8 8 7 * 4 5.W 2 2 @ @ @ @ @ @ ",
"@ @ @ @ X @ . & s 8.p.s.d.k.B.s.s.s.p.s.s.s.a.a.a.s.a.a.a.a.i.i.a.a.t.=.<.<.<.u.2.&.&.%.' h + + + < n S 3 = P x X * @ @ @ @ @ @ ",
"@ @ @ @ @ X X C e.s.s.s.g.g.N.s.s.s.s.s.s.s.a.i.i.a.a.a.y.>.,.,.<.>.=.&.:.=.<.q.1.&.+.' ( ( h % + O > A 6 * 2 = * @ @ @ @ @ @ @ ",
"@ @ @ @ @ X : 9.s.s.s.s.s.s.a.a.s.s.s.s.s.s.q.:.<.1.2.2.-.&.&.&.&.&.&.&.=.@.o.$.$.+.` ( ( ( ( / h $ + 5 4 * * * @ @ @ @ @ @ @ @ ",
"@ X @ * X + : 8.w.0.0.0.0.0.0.w.0.0.0.0.0.;.@.@.@.@.@.@.@.@.@.@.@.@.#.@.@.[ z / ( / z / z z z / j $ + # = * = * X @ @ @ @ @ @ @ ",
"@ * * * * & = , 1 1 1 1 1 1 1 1 1 1 1 < 1 < , , , , > , , , , , , , , , , > & > > > = > > & > > & = # * * = * * @ @ @ @ @ @ @ @ ",
"@ @ * = 2 4 4 3 3 3 3 3 3 3 3 4 4 3 3 4 4 3 4 3 3 3 4 2 3 3 3 = * 4 4 4 4 4 4 4 4 4 4 4 4 4 4 4 4 4 4 4 2 * * @ @ @ @ @ @ @ @ @ ",
"@ @ * 2 ~ l.7.7.l.l.z.l.7.7.7.7.l.l.l.l.l.l.l.l.7.7.l.l.l.l.6.7 = ~ c.c.v.c.v.v.c.c.v.c.c.c.v.c.c.v.x.~ S # * @ @ @ @ @ @ @ @ @ ",
"@ @ * 3 6.C.n.v.c.c.c.c.c.c.c.c.c.v.c.v.v.v.v.v.v.c.c.c.n.C.v.x = 4.C.b.c.v.c.c.c.c.c.v.c.c.c.c.c.b.c.Y n = * X @ @ @ @ @ @ @ @ ",
"@ @ * 2 3.V.U 4 4 6 4 4 5 6 5 3 4 4 4 4 4 4 4 4 6 6 5 4 G n.b.c 2 4.m.F 4 4 4 4 4 4 4 4 4 4 5 6 4 8 6.c.A * * @ @ @ @ @ @ @ @ @ ",
"@ @ * = ~ n.n @ = # = = # # # # = = = & # # # # # # # # x n.v.x = 5.b.c # = = = * = = # = # # # = = 3.n.x # @ @ @ @ @ @ @ @ @ @ ",
"@ * * * E n.D # - ; e e e % e 0 ; ; ; e 0 , ; 0 e ; > # x v.b.x 2 4.b.8 & , 0 0 0 0 0 e 0 0 e % = = 6.v.8 = @ @ @ @ X @ @ @ @ @ ",
"@ @ * * S Q L @ , q 0 0 0 0 0 0 0 0 0 0 0 0 0 0 0 q , # x v.n.x = 4.b.c # , 0 0 0 0 0 0 0 0 0 0 = 4 l.c.4 @ @ @ @ @ @ @ @ @ @ X ",
"@ @ * * n R U * # q 0 0 0 0 0 0 0 0 0 0 0 0 0 0 0 0 , # x b.v.x 2 4.b.c # ; 0 0 w i p p p y q 0 = 4 x.l.3 2 @ @ @ @ @ @ @ @ @ @ ",
"@ @ @ * n z.Q = # % % % % % % % ; ; % ; % 0 ; 0 0 % % # 5 c.v.b = ~ b.n # > q p l l l l k k i , * 8 b.5.2 * @ @ @ @ @ @ @ @ @ @ ",
"@ @ * * 8 Q T 2 # o $ % ; 0 ; 0 0 0 q 0 0 ; % o o o + # 3 c.V.n = Q V.S # $ 0 i w w q q q q q , * A V.~ = * @ @ @ @ @ @ @ X @ @ ",
"@ @ @ * 4 7.z.5 # i m M l l k k k k l k g l k p i q ; # 3 4.6.n # W b.D # ; k p k k k l l l M r & G Z.R @ @ @ @ @ @ @ @ @ @ @ @ ",
"@ @ @ * = 5.b.8 # d B B B B B B B B B B B B B l B B m = 2 Q R D # L W D # t B B B B B B B B N r * Y Z.G 2 @ @ @ @ @ @ @ @ @ @ @ ",
"@ @ @ * = T b.D O t B B B B B B B B B B B B B B B B B , = Q b.L @ L 5.L * r B B B B B B B M k , = ! m.A @ @ @ @ @ @ @ @ @ @ @ @ ",
"@ @ X # # c ~ U # 5 l k k g k p k k k l l l l B B B N 1 # R n.U # F b.T * 1 N N M l k p y q 0 # < 6.c.8 @ @ @ @ @ @ @ @ @ @ @ @ ",
"X @ @ 2 = 6 R R 2 = 0 0 0 0 0 0 0 0 0 0 q w w i i i f 1 @ A Q D # 8 ! R * , q i w w q 0 0 q ; * 4 l.Q 2 * @ @ @ @ @ @ @ @ @ @ @ ",
"* @ X X * 2 P Q 4 = ; q w w w i i d p i i i w w 0 0 0 ; # 8 R D = 5 R T 2 > l l N l l m k M t = b 4.D = * @ @ @ @ @ @ @ @ @ @ @ ",
"@ @ X @ * = D ~ n # r l M M B B B N B B B B l l M M k i # 5 T L = 4 T L 2 = N B B B B B B B r = A E A * * @ @ @ @ @ @ @ @ @ @ @ ",
"@ @ @ @ @ # c W L = , B B B B B B B B B B B B B B B B m = 2 U Y 2 = L T 3 = m B B B B B B N < = S R 7 * @ @ @ @ @ @ @ @ @ @ @ @ ",
"@ @ @ @ @ 2 4 T U = = k B B B B B B B z B B B B B B B N 3 2 F T 4 2 D R 7 = i l N B N M m v = = P Y 3 * * @ @ @ @ @ @ @ @ @ @ @ ",
"@ @ @ @ X @ = K T 5 # 5 t t x t t t t x t t t t t t t t = # n R 8 # n R c * > 5 1 > 3 > < = * 8 R D = * @ @ @ @ @ @ @ @ @ @ @ @ ",
"@ @ @ X X 2 @ b R A * # # # + # # @ * * * * # @ @ # # @ * # 8 R n = 8 R S = # = = = = = 3 = 3 F R 8 = * @ @ @ @ @ @ @ @ @ @ @ @ ",
"@ @ X .   @ * 4 U T n n n n n n n n n n n n n n n n n n n n L E L = 2 Y T A n S S F G L P P P R P 3 = * @ @ @ @ @ @ @ @ @ @ @ @ ",
"@ @ X   . X @ 2 D W E E W E W W E E E E E W W W W E E E E E E E T 4 = D E E R R R T T I T T P P n @ @ @ @ @ @ X @ @ @ @ @ @ @ @ ",
"@ @ @ X X X @ X 5 b n n n n n n n n n n n n n n n n n n n n n b b 4 * 4 8 c c 8 6 6 6 4 3 = 3 = @ @ @ @ @ @ @ @ @ @ @ @ @ @ @ @ ",
"@ @ @ @ X @ @ 2 # # # * # * * * * * X 2 * * * * * * * * 2 @ 2 X # * = * * * # # 3 2 @ @ * * = = 2 @ @ @ @ @ @ @ @ @ @ @ @ @ @ @ ",
"@ @ @ @ @ @ @ @ @ # @ * * * * * * * @ X @ * * * * * * @ * * @ @ * @ * * * * * * @ @ @ @ @ * @ @ @ @ @ @ @ @ @ @ @ X @ @ @ @ @ @ ",
"@ @ @ @ @ @ @ @ @ @ @ @ X @ @ @ @ @ @ @ @ @ @ @ X @ @ @ @ @ @ @ @ @ @ @ X @ @ @ @ @ @ @ @ @ @ @ @ @ @ @ @ @ @ @ @ @ @ @ @ @ @ @ ",
"@ @ @ @ @ @ @ @ @ @ @ @ @ @ @ @ @ @ @ @ @ @ @ @ * @ @ @ @ @ @ @ @ @ @ @ @ @ @ @ @ @ @ @ @ @ @ @ @ @ @ @ @ @ @ X @ @ @ @ @ @ @ @ ",
"@ @ @ @ @ @ @ @ @ @ @ @ @ @ @ @ @ @ @ @ @ @ @ @ @ @ @ @ @ @ @ @ @ @ @ @ @ @ @ @ @ @ @ @ @ @ @ @ @ @ @ @ @ @ @ @ @ @ @ @ @ @ @ @ ",
"@ @ @ @ @ @ @ @ @ @ @ @ @ @ @ @ @ @ @ @ @ @ @ @ @ @ @ @ @ @ @ @ @ @ @ @ @ @ @ @ @ @ @ @ @ @ @ @ @ @ @ @ @ @ @ @ @ @ @ @ @ @ @ X "
};
