/* XPM */
static char *result[] = {
/* columns rows colors chars-per-pixel */
"64 64 29 1 ",
"  c #141412",
". c #151412",
"X c #151513",
"o c #161513",
"O c #161613",
"+ c #171614",
"@ c #191815",
"# c #191816",
"$ c #1A1816",
"% c #1A1916",
"& c #1C1B18",
"* c #1D1C19",
"= c #1D1D1A",
"- c #1E1D1A",
"; c #1F1D1A",
": c #1F1E1B",
"> c #201F1C",
", c #211F1C",
"< c #21201C",
"1 c #21201D",
"2 c #1C1832",
"3 c #581D34",
"4 c #212255",
"5 c #332773",
"6 c #823D4C",
"7 c #2E3F80",
"8 c #5657A1",
"9 c #4C94DA",
"0 c #9D97BB",
/* pixels */
">>>>>>>>>>>>>>>>>>>>>>>>>>>>>>>>>>>>>>>>>>>>>>>>>>>>>>>>>>>>>>>>",
">>>>>>>>>>>>>>>>>>>>>>>>>>>>>>>>>>>>>>>>>>>>>>>>>>>>>>>>>>>>>>>>",
">>>>>>>>>>>>>>>>>>>>>>>>>>>>>>>>>>>>>>>>>>>>>>>>>>>>>>>>>>>>>>>>",
">>>>>>>>>>>>>>>>>>>>>>>>>>>>>>>>>>>>>>>>>>>>>>11>>>>>>>>>>>>>>>>",
">>>>>>>>>>>>>>>>>>>>>>>>>2222222222222>>>>>><;#&>>>>>>>>>>>>>>>>",
">>>>>:>>>>>>>>>>>>>>>2>22444444244444422>2><-O O:>>>>>>>>>>>>>>>",
">>>>@o$>>>>>>>>>>>>2242449999942499999442422@.OX-,>>>>>>>>>>>>>>",
">>>:X..;>>>>>>>>>22444244777774247777744244422.O:>>>>>>>>>>>>>>>",
">>>>$.%>>>>>>>>>2449944247777742477777424499442->>>>>>>>>>>>>>>>",
">>>>:->>>>>>>>>249977942447777424777744249779942>>>>>>>>>>>>>>>>",
">>>>>,>>>>>>>2249777774424444442444444244777779422>>>>>>>>>>:>>>",
">>>>>>>>>>>>244977777744224444222444442447777779442>>>>>>>>@O-,>",
">>>>>>>>>>>24244777774422222222222222222447777744242>>>>>>;XX-,>",
">>>>>>>>>>>24424477744222222222222222222244777442442>>>>>>>*->>>",
">>>>>>>>>>2499424444422223333222223333222244444249942>>>>>>11>>>",
">>>>>>>>>>2477942444222223333322233333222224442497742>>>>>>>>>>>",
">>>>>>>>>249777942222222336633222336633222222249777942>>>>>>>>>>",
">>>>>>>>>247777742222322366663222366663223222247777742>>>>>>>>>>",
">>>>>>>>24447774422233223666632223666632233222447774442>>>>>>>>>",
">>>>>>>>24444444222333223666632223666632233322244444442>>>>>>>>>",
">>>>>>>>>222444222333322366663222366663223333222444222>>>>>>>>>>",
">>>>>>>>24442222223633223666632223666632233632222224442>>>>>>>>>",
">>>>>>>>24444422233663223666632223666632236633222444442>>>>>>>>>",
">>>>>>>>24999442236663223666632223666632236663224499942>>>>>>>>>",
">>>>>>>>24777942236663223666632223666632236663224977742>>>>>>>>>",
">>>>>>>>24777742236663223666632223666632236663224777742>>>>>>>>>",
">>>>>>>>24777742223632222366322222366322223632224777742>>>>>>>>>",
">>>>>>>>24777742222222222222222222222222222222224777742>>>>>>>>>",
">>>>>>>>24444442255555555555555555555555555555224444442>>>>>>>>>",
">>>>>>>>24444422588888888888888888880800000888522444442>>>>>>>>>",
">>>>>>>>>222222258888888888888888888080000088852222222>>>>>>>>>>",
">>>>>>>>24444422588888888888888888880800000888522444442>>>>>>>>>",
">>>>>>>>24999942558888888888888888880800000885524999942>>>>>>>>>",
">>>>>>>>24777742555555555555555555555555555555524777742>>>>>>>>>",
">>>>>>>>24777742255555555555555555555555555555224777742>>>>>>>>>",
">>>>>>>>24777742222222222222222222222222222222224777742>>>>>>>>>",
">>>>>>>>24777742223332222333322222333322223332224777742>>>>>>>>>",
">>>>>>>>24444442233333223333332223333332233333224444442>>>>>>>>>",
">>>>>>>>24444422233633223366332223366332233633222444442>>>>>>>>>",
">>>>>>>>>222222223666322366663222366663223666322222222>>>>>>>>>>",
">>>>>>>>24444422236663223666632223666632236663222444442>>>>>>>>>",
">>>>>>>>24999942236663223666632223666632236663224999942>>>>>>>>>",
">>>>>>>>24777742236663223666632223666632236663224777742>>>>>>>>>",
">>>>>>>>24777742236663223666632223666632236663224777742>>>>>>>>>",
">>>>>>>>24777742223632222366322222366322223632224777742>>>>>>>>>",
">>>>>>>>24777742222222222222222222222222222222224777742>>>>>>>>>",
">>>>>>>>24777742255555555555555555555555555555224777742>>>>>>>>>",
">>>>>>>>24444442588888888888888888880800000888524444442>>>>>>>>>",
">>>>>>>>24444422588888888888888888880800000888522444442>>>>>>>>>",
">>>>>>>>>222222258888888888888888888080000088852222222>>>>>>>>>>",
">>>>>>>>24444422558888888888888888880800000885522444442>>>>>>>>>",
">>>>>>>>24999942555555555555555555555555555555524999942>>>>>>>>>",
">>>>>>>>24777742255555555555555555555555555555224777742>>>>>>>>>",
">>>>>>>>24777742222222222222222222222222222222224777742>>>>>>>>>",
">>>::>>>24444422223332222333322222333322223332222444442>>>>>>>>>",
">>:+O:>>>222222223333322333333222333333223333322222222>>>>>>>>>>",
">1=.+:>>24444422233633223366332223366332233633222444442>>>>>>>>>",
">>>*;>>>24799742226662222666622222666622226662224799742>>>>>>>>>",
">>>1>>>2244444222222222222222222222222222222222224444422>>>>>>>>",
">>>>>>222222222222222222222222222222222222222222222222222>>>>>>>",
">>>>>>>>>>>>>>>>>>>11>>>>>>>>>>>>>>>>>>>>>>>>>>>>>>>>>>>>>>>>>>>",
">>>>>>>>>>>>>>>>>>>>>>>>>>>>>>>>>>>>>>>>>>>>>>>>>>>>>>>>>>>>>>>>",
">>>>>>>>>>>>>>>>>>>>>>>>>>>>>>>>>>>>>>>>>>>>>>>>>>>>>>>>>>>>>>>>",
">>>>>>>>>>>>>>>>>>>>>>>>>>>>>>>>>>>>>>>>>>>>>>>>>>>>>>>>>>>>>>>>"
};
