/* XPM */
static char *result[] = {
/* columns rows colors chars-per-pixel */
"64 64 241 2 ",
"   c #151513",
".  c #1B1511",
"X  c #191816",
"o  c #1E1D1A",
"O  c #261A0F",
"+  c #241D16",
"@  c #2A1D15",
"#  c #201F1C",
"$  c #2B1C1B",
"%  c #321B18",
"&  c #22211D",
"*  c #2B231C",
"=  c #38261A",
"-  c #241E21",
";  c #2A1E28",
":  c #361A29",
">  c #381937",
",  c #1F2723",
"<  c #1F3330",
"1  c #242423",
"2  c #2A2423",
"3  c #282926",
"4  c #25252C",
"5  c #212B2D",
"6  c #2C2C2D",
"7  c #342A29",
"8  c #2A322B",
"9  c #3B342D",
"0  c #232D31",
"q  c #2A2936",
"w  c #362A36",
"e  c #283537",
"r  c #363536",
"t  c #3C3C3C",
"y  c #482913",
"u  c #59361A",
"i  c #683918",
"p  c #763E19",
"a  c #48362A",
"s  c #583A21",
"d  c #4D2F3A",
"f  c #463835",
"g  c #633D28",
"h  c #31423C",
"j  c #74411E",
"k  c #4F4237",
"l  c #784C2A",
"z  c #714E35",
"x  c #3C164A",
"c  c #1D3454",
"v  c #2A2944",
"b  c #392748",
"n  c #2B3746",
"m  c #353845",
"M  c #253855",
"N  c #323454",
"B  c #1B2D77",
"V  c #2B2E6D",
"C  c #441B4B",
"Z  c #450957",
"A  c #481959",
"S  c #473844",
"D  c #4D2D54",
"F  c #451665",
"G  c #4E1070",
"H  c #50296D",
"J  c #463A64",
"K  c #6E3A74",
"L  c #2D4C49",
"P  c #344447",
"I  c #29465B",
"U  c #295150",
"Y  c #2B5759",
"T  c #345057",
"R  c #1C456B",
"E  c #18567A",
"W  c #344C69",
"Q  c #275369",
"!  c #295877",
"~  c #345070",
"^  c #376866",
"/  c #2E6D70",
"(  c #2B6678",
")  c #3C6575",
"_  c #474646",
"`  c #514A4C",
"'  c #554953",
"]  c #4B5857",
"[  c #535353",
"{  c #585A5B",
"}  c #644D4A",
"|  c #6D524F",
" . c #675857",
".. c #6F6357",
"X. c #4F506C",
"o. c #6F516A",
"O. c #4E6969",
"+. c #526772",
"@. c #766868",
"#. c #726C71",
"$. c #86461B",
"%. c #954C1C",
"&. c #AF5B1F",
"*. c #84572C",
"=. c #875A30",
"-. c #B75D21",
";. c #9C612C",
":. c #996835",
">. c #B46D2E",
",. c #C27532",
"<. c #936154",
"1. c #B37E41",
"2. c #955C72",
"3. c #896F74",
"4. c #CC833C",
"5. c #BB8344",
"6. c #91847E",
"7. c #C88A47",
"8. c #D0924B",
"9. c #DB9E53",
"0. c #DBA057",
"q. c #DFA965",
"w. c #1D2A87",
"e. c #173488",
"r. c #183B94",
"t. c #233A92",
"y. c #580389",
"u. c #540E88",
"i. c #670099",
"p. c #631993",
"a. c #533193",
"s. c #6A358E",
"d. c #6E10A8",
"f. c #722DAE",
"g. c #134987",
"h. c #14508C",
"j. c #164A96",
"k. c #155698",
"l. c #2A5887",
"z. c #2D5293",
"x. c #1C658F",
"c. c #196899",
"v. c #286589",
"b. c #2C768D",
"n. c #246895",
"m. c #0D55A5",
"M. c #0C5AAD",
"N. c #155DA3",
"B. c #1051AF",
"V. c #1B5DAD",
"C. c #1353B4",
"Z. c #3554AD",
"A. c #1764AA",
"S. c #1864AB",
"D. c #1F73AB",
"F. c #1A6BB4",
"G. c #1B6EB9",
"H. c #1C73B9",
"J. c #1D7ABD",
"K. c #2769A8",
"L. c #2477A8",
"P. c #2865B0",
"I. c #3467B9",
"U. c #2979B9",
"Y. c #45528C",
"T. c #467390",
"R. c #747489",
"E. c #514FAE",
"W. c #624EB1",
"Q. c #5471B5",
"!. c #2258C3",
"~. c #1C7CC1",
"^. c #396CC8",
"/. c #2B71CD",
"(. c #3677DA",
"). c #3E75E1",
"_. c #4C6EDA",
"`. c #4B75DB",
"'. c #6479C3",
"]. c #446DE3",
"[. c #4D74E1",
"{. c #8E748C",
"}. c #8B54B6",
"|. c #9058C5",
" X c #1E8C98",
".X c #348689",
"XX c #2B85A8",
"oX c #2A8CB8",
"OX c #2FA8AE",
"+X c #469390",
"@X c #69969A",
"#X c #5A8EAF",
"$X c #4AACAA",
"%X c #1F84C7",
"&X c #2288C8",
"*X c #2D97C8",
"=X c #238BD3",
"-X c #2B86DA",
";X c #338ADD",
":X c #2A98D2",
">X c #2293DA",
",X c #259BDC",
"<X c #2EAFCA",
"1X c #2D94E1",
"2X c #2AAAE2",
"3X c #34A4E1",
"4X c #4A98CD",
"5X c #619DDD",
"6X c #55BEDB",
"7X c #59ABF5",
"8X c #2ECAD0",
"9X c #30DAF2",
"0X c #70C7CE",
"qX c #4FDCF1",
"wX c #6BD4F5",
"eX c #70EBF9",
"rX c #978D90",
"tX c #AB9895",
"yX c #918CA2",
"uX c #A498AE",
"iX c #99A4AC",
"pX c #A8AAAA",
"aX c #B4ADAB",
"sX c #B8B8B8",
"dX c #C5B6B6",
"fX c #8FAEC1",
"gX c #C2B9C7",
"hX c #89CEF1",
"jX c #8DECF8",
"kX c #B2F3FA",
"lX c #CAC8C8",
"zX c #D5CACB",
"xX c #D3CBD5",
"cX c #D4D4D4",
"vX c #DBD8DA",
"bX c #E6D8DD",
"nX c #E3DCE3",
"mX c #CFF7FC",
"MX c #E8E6E7",
"NX c #F3F3F3",
"BX c #F9F9F9",
/* pixels */
"# # # # # # # # # # # # # # # # # # # # # , # # # # # # # # # # # # # # # # # # # # # # # # # # # # # # # # # # # # # # # # # # ",
"# # # # # # # # # # # o # # # # # # # # o o # # # # # # # # # # # # # # # # # # # # # # # # # # # # # # # # # # # # # # # # # # ",
"o & # # # # # # # # # # # # # # # # # # o # # # # # # , # # # # # - # # # # # # # # # # # # # o # # # # # # # # # # # # o o # # ",
"& o # # # # # # # # , o # # # # # # # # # # # # # o o o # # # o # o # # # # # # # # # # # # # , # # # # # # # # # # # # # , # # ",
"# # # # # # # # # # # # # 1 o # # # # # # # # # o 1 # # # # # # # # # # # # # # # # # # # o X o # # # # # # # # # # # # # # # # ",
"# # # # # o # # # # # , # o # o # # # # # # # # o o # # # # # o # # + @ o # # # # # # # o       # # # # # # # # # # # # # # # # ",
"# # # # X   X # # # & o & # # # # # # # # # o # & o & # # # # , # # + e 1 # # # # # # # X       o # # # # # # # # # # # # # # # ",
"# # # o       o # # o & o # # # # # # # # # o , o & # # # # # # # # + x.Q # # # # # # o X       o # # # # # # # # # # # # # # # ",
"1 o & o X   X # # # # # # # # # # # # # # # # # # # # # # # # # # # & x.E o o # # # # # # o o o # o # # # # # # # # # # # # # # ",
"o & o & o o & # # o # # # # # # # # # # # # # # # # # # # # # # # # 2 c.E & o # # # # # # # # # # # # # # # # # # # # # # # # # ",
"o & o o o & # # # # # # # o o # # # # # # # # # # # # # # # # # o & 6 A.g.& # # # # # # # # # # # # # # # # # o # # # # o o # , ",
"# o 1 o & o # o # # # # # - # # # # # # # # # # # # # # # # # # & # r S.h.& # # # # # # # # # # # # # # # # # # # # # X X o o o ",
"# # # # # # # o # # # # # # # # # # # # # # # # # # # # # # # # o # P F.k., o & # # # # # # # # # # # # # # # # # # o     o # # ",
"# # # # # # # , # # # # # # # # # # # # # # # # # # # # # # # # # + I G.m., + o # # # # # # # # # # o - # # # # # # o o o o # # ",
"# # # # # # # # # # # # # # # # # # # # # # # # # # # # # # # # # + ~ G.M.B & o # # # # # # # # # # # # # # # # # # # & , # # # ",
"# # # # # # # # # # # # # # # # o # # # # # # # # # # # # # # # # + l.H.M.B.c @ # # # # # # # # # # # # , o & # # # # o o # # # ",
"# # # # # # # # # # # # # # - X   X o , # # # # # # # # # # # # o ; z.F.M.M.e.v & # # # # # # # # # # # # # # # # # # # # o o o ",
", # # # # o # # # o # 2 2 7 b q     o o # # # # # # # # # # # # # 7 Z.F.M.B.w.w.e + # # # # # # # # # # # # # # # # # # # , # # ",
"o # # # # # # # & 2 3 w r R.uXR.;   o - # # # # # # # # # # # # # ; Z.M.M.m.w.w.t.e + # # # # # # # # # # # # # # # # # # # # # ",
"# # # # # # # # 1 N m w m {.xX{.e o o o # # # # # # # # # # # + + w ~ x.m.M.m.B.w.l.8 & # # # # # # # # # # # # # # # # # # # # ",
"# # # # # # # , 0 q w w d D o.' q 5 < # # # # o # # # # o # + e ( oX:X,X~.B.M.M.r.t.v.7 + # # # # # # # # # & # # # # # # 1 o o ",
"# # # # # # , 0 4 4 7 w 7 7 q ; - 4 5 , # # # # # & # # # 2 b.4X3X,X>X;X(.!.C.B.m.w.P./ & & # # # # # o # # o & # # # # & o # # ",
"# # # # # # 5 v J 4 3 #XT.r $ b 4 ; 4 0 1 # # # & + . + @ 7 +X4X,X,X].].).!.C.C.B.t.t.XX* & # o # # # o # & o o # # # # # # # # ",
"# # # # # 1 5 q b & ^ kXwX6Xb.W 4 - ; 5 , + * r P P I Q w s.s.J ~ Z.E._.).!.C.C.M.r.B ( 3 # # & # # # , & o 1 o # # # # # # & o ",
"# o & # # < 4 - - e 0XmXjXqXwXqX! - 1 ; h #.@X#X&X&X&XL.J |.}.f.p.H F J V V z.g.g.M > W n # & o # & o   X # # # # # # # # # # # ",
"o & # # # 0 4 - # b.jXmXkXwXwX7X! * # 7 rXhX4XoX~.%X%X! K }.f.f.d.f.f.p.H D : > x Z x Z.Y + o o # #       o # & o , # o # # # # ",
"# # # # o 0 ; - U 8XeXmXMXhX7X5Xn # - 9 fX5XJ.J.~.%X%XM }.}.f.p.a.G H C x x F G y.y.x E./ 6 3 + +         # & o # # # # # # # # ",
"# # # # o 0 4 ; < OXqXjXmXwX7XQ.4 # $ $ #.4XH.~.%X%XU.m d D x C C x F G u.u.y.i.i.y.G W..Xb.U.( e & .     # # o # # # # # # # # ",
"# # # # # < q m P e  XqXjXhX7Xz.: % % 2 7 +.U.%X%X%X%Xn.I n b x F G G u.u.y.i.i.i.i.G a..Xc.,X,XXX8 O O + & o & # # o & # o 1 o ",
"# # # # o , q R.uXe , ( 0XhX4XD > > $ 4 < 1 I D.%X%X%X=X=X&XK.l.V N N x x F A G G Z Z D L D.>X,Xn.Q / / L + & o # # # o # # # o ",
"# # # # - 1 0 ' X.= : > W X.J H G C * 0 , # + 6 Q L.&X&X=X=X-X-X-X/./.I.Z.z.n.l.x.v.D.D.J.=X>X,X,X,X2X9X8X8 # # # # 1 o & o # # ",
"# # # # o o q n ; % d X.a.s.f.}.p.> q 0 o o # + * 5 I v.L.&X=X;X).;X).).].).).>X>X>X>X>X>X,X,X,X,X2X2X9X8X8 & # # # o & o & # # ",
"# # # # o 1 4 0 q 3 7 Y.4XQ.s.H > 3 5 & # # # 3 E B S @.#.] ^ v.K.U.`.^.`.).].).,X,X,X,X,X,X,X,X,X2X9X<XY + o & o & # # # # # # ",
"# # # # o o & # 4 v 6 2 m P X.H w 5 & # # # # e c.t.x | tXlXaXj j f +.X.X.X.Y.Z.Z.U.oXoX&X=X&XoXOX XY 3 & o & o o & # # # # # # ",
"# # # # & o # - : > 4 < 6 6 #XE.b + 4 q # # o 8 c.B d a ] { ..$.-.l lXzXaXrXu $.l i 9 h Y h M n * * + o o & , o & o & # # # # # ",
"# # # # # # # # - ; # o 1 $ T.W.A + o , # # o 3 c.I o.} ~ ] i %.%.p | ..| g %.-.&.u k [ +XU E w.B n * o & o & & o & o & # # # # ",
", # # # # # # # o # # # & + P '.s.* & # # # # * E S {.} z l =.2.<.j _ v.` $.-.-.j k ] [ +XY B w.r.XX3 & + o & o # # # # # # # # ",
"o # # # # # # # o # # r T 0 8 T.s.> # # # # # & 8 o.{.k =.z z | l l z z :.8.-.$.a [ [ [ +XQ B w.K.^ & & & o o & # # # # # # # # ",
"# # # # # # # # - o 1 R.iXP 3 ) W.C + & # # o @ % K uXdXlXcXlXaX6...z :.7.,.%.a ` [ [ [ +X^ B t.XX8 o & & & o o # # # # # # # # ",
"# # # # # # # # o o 1 ] +.h < P Q.F $ # # # # @ O | zXNXMXxXdXxXvXcXaX3.z j u ] [ [ [ [ +X/ v ) h O o o o & o & # # # # # # # # ",
"# o # # # # # # # # # < < < 5 2 T.s.$ & # + + & 3 k vXbXxXrXd } tXlXvXxXaX@.] O.[ [ [ O.$XY I ! T h * + o & o & # # # , o # # # ",
"# # # # # # o # # # # # , # # + +.a.; + & m ! K.U.W dXMXnXgXuX{.yXaXsXlXlXpX+X+X[ [ O..XY M t.j.z.L.b.P * o & o # # # # o o # # ",
"# # # # & o 1 o # # # # X # # # e E.C u f ^.;X-XU.t tXNXBXMXvXxXlXsXsXsXsXpX$XOX[ O.O.L n.G.V.k.r.e.j.XX^ + o & # # # # # # # # ",
"# # # # o & o # # # # # # # # # 3 Y.H =.} I.=X&XQ Q 3.bXBXBXNXMXnXvXcXsXpXiX$XO.] T 3 / =X%XJ.H.A.j.w.e.I + & & # # # # # # # # ",
"# # # # 1 & o & # # # # # # & * g z A g :.( =Xx.( *X{ zXNXBXNXNXMXnXcXsXpX@XO.] h I M v.-X&X~.H.S.k.j.V O O & & # # # # # # # # ",
"# # # # o o & o # # # # # & & s 8.8.} d >.[ D.Y OX1XX.uXMXBXNXNXMXcXsXaX@XO.k t h.A.R n.-X&X~.J.F.V.j.w $.j O & # # # # # # # # ",
"# # # # # # # # & # & o # # # = 1.1.j w j =.9 b.,X`.E.3.bXNXNXNXMXsXsXiX{ k n k.A.A.R l.-X%X%XJ.G.z.f ;.,.-.u & # # # # # # # # ",
"# # # # # # # # o & o # # # # # u :.5.u i &.k *X;X_._.X.dXMXBXNXcXlXsXO.a N S.A.A.k.R ! (.=X=XJ.! f >.7.8.4.&.y o # # # # # # # ",
"# # , o # # # o # # # # # # # o = 5.8.l j %.^ 2X;X[.[.Y.3.MXBXMXcXlX#.f V S.A.A.A.k.h.I ^.I.v._ *.>.8.9.9.9.>.i & & # # # # # # ",
"# # # o # # # # # # # # # # o 1 & y l 5.1.s XX1X[.[.`._.{ zXMXMXcXrXf V P.H.A.A.N.m.k.c M v 7 1.9.9.9.9.0.5.$.y & o # # # # # # ",
"# # # # # # # # # # # # & o # o # o u 7.:.h <X;X_._.`.`.~ tXMXnXaXf a.P.F.F.A.A.N.m.k.j.g.B w 1.8.q.q.9.>.j = + o o & # # # # # ",
"# # o # # # # o # # # # o & o & & & & a w 7 ] ] J Y._.(.P...cXvX .a.Z.G.F.S.A.N.k.k.k.j.j.w.v ;.:.7.7.=.i y @ # & o # # # # # # ",
"# # o o & o # , # # # # 1 & o & # # # $ f | 2.2.d a P ^.^.~ 6.cX .Z.P.F.F.S.A.N.A.k.k.j.g.e.B ; f p $.y % @ o & # # # # # # # # ",
"# # 1 o o & # # # # # # o o # o # # # a @.3.2.' P k 7 N ^./.W 6.@.z.!.F.F.A.A.A.k.k.g.g.g.e.B B 0 @ @ + + & # # # # # # # # # # ",
"# # # o o # # # # # # o # # # , # # # a #.{. ._ _ t w * l.(./.~ d z.~.F.F.A.S.h.M v e 0 v v ; + + # # # & o # # # # # # # # # # ",
"# # o X X o # # # # # # # # # # # # X + f ..{ _ h t 8 2 6 Q E l.r N x.h.l.h.R S o.| _ r 7 @ + # # # # # o & # # # # # # # # # # ",
"o , o     # # # # # # # # # # # # #     . = f f t r 8 1 O * & & & * & & * @ = 3.2.' S t 8 3 @ # # # # # # # # # # # # # # # # # ",
"# # o X o # # # # # # # # # # # # #       $ : * 7 7 3 * O o o # o & # # & * | {.3.` _ t r 6 * @ # # # # # # # # # # # # # # # # ",
"# # # , # # # # # # # # # # # # # # X     + $ + & @ @ @ & & # # & & # # # = ..3.#.[ _ t r 8 3 * # # # # # # # # # # # # # # # # ",
"# # # # # # # # # # o # # # - # # # # X X o # # + & o & o & # # o o # # # & 7 k } k t 9 7 2 % @ # # # # # # # # # # # # # # # # ",
"# # # # # # # # # # # # # # # # # # # # # # # # # # # # # # # # # # # # # # # o * @ * @ & o # # # # # # # # # # # # # # # # # # ",
"# # # # # # # # # # # # # # # # # # # # # # # # # # # # # # # # # # # # # # & o # # o o & # # # # # # # # # # # # # # # # # # # ",
"# o # # # # # # # # # # # # # # # # # # # # # # # # # # # # # # & # # # # # # # # # # # o & # # # # # # # # # # # # # # # # # # ",
"# # # # # # # # # # # # # # # # # # # # # # # # # # # # # # # # # # # # # # # # # # # & o o # # # # # # # # # # # # # # # # # # "
};
