/* XPM */
static char *result[] = {
/* columns rows colors chars-per-pixel */
"64 64 240 2 ",
"   c #151513",
".  c #181715",
"X  c #1A1816",
"o  c #1E1D1A",
"O  c #271A0F",
"+  c #251D16",
"@  c #2A1D15",
"#  c #201F1C",
"$  c #2B1D1B",
"%  c #321B18",
"&  c #23211D",
"*  c #2B231C",
"=  c #38261A",
"-  c #241E21",
";  c #2A1E28",
":  c #361A29",
">  c #381937",
",  c #1F2623",
"<  c #1F3330",
"1  c #242423",
"2  c #2B2422",
"3  c #282926",
"4  c #25252C",
"5  c #212B2D",
"6  c #2C2C2D",
"7  c #352A28",
"8  c #2A322B",
"9  c #3B342D",
"0  c #232D31",
"q  c #2A2936",
"w  c #362A35",
"e  c #283637",
"r  c #363537",
"t  c #3C3C3C",
"y  c #482913",
"u  c #59361A",
"i  c #683918",
"p  c #763E19",
"a  c #48362A",
"s  c #583A21",
"d  c #4D2F3A",
"f  c #463835",
"g  c #633D28",
"h  c #31423C",
"j  c #74411E",
"k  c #4F4237",
"l  c #784C2A",
"z  c #714E35",
"x  c #3C164A",
"c  c #1D3454",
"v  c #2A2944",
"b  c #392748",
"n  c #2B3746",
"m  c #353845",
"M  c #253855",
"N  c #323454",
"B  c #1B2D77",
"V  c #2B2E6D",
"C  c #441B4B",
"Z  c #450957",
"A  c #481959",
"S  c #483945",
"D  c #4D2D54",
"F  c #451665",
"G  c #4E1070",
"H  c #50296D",
"J  c #463A64",
"K  c #6E3A74",
"L  c #2D4C49",
"P  c #344447",
"I  c #29465B",
"U  c #295150",
"Y  c #2B5759",
"T  c #345057",
"R  c #1C456B",
"E  c #18567A",
"W  c #344C69",
"Q  c #275369",
"!  c #295877",
"~  c #345070",
"^  c #376866",
"/  c #2E6D70",
"(  c #2B6678",
")  c #3C6575",
"_  c #474646",
"`  c #514A4C",
"'  c #554953",
"]  c #4B5857",
"[  c #535353",
"{  c #585A5B",
"}  c #644D4A",
"|  c #6D524F",
" . c #675857",
".. c #6F6357",
"X. c #4F506C",
"o. c #6F516A",
"O. c #4E6969",
"+. c #526772",
"@. c #766868",
"#. c #726D70",
"$. c #86461B",
"%. c #954C1C",
"&. c #AF5B1F",
"*. c #84572C",
"=. c #875A30",
"-. c #B75D21",
";. c #9C612C",
":. c #996835",
">. c #B46D2E",
",. c #C27532",
"<. c #936154",
"1. c #B37E41",
"2. c #955C72",
"3. c #896F74",
"4. c #CC833C",
"5. c #BB8344",
"6. c #91847E",
"7. c #D0924B",
"8. c #DB9E53",
"9. c #DBA057",
"0. c #DFA965",
"q. c #1D2A87",
"w. c #173488",
"e. c #183B94",
"r. c #233285",
"t. c #233A92",
"y. c #580389",
"u. c #540E88",
"i. c #670099",
"p. c #631993",
"a. c #533193",
"s. c #6A358E",
"d. c #6E10A8",
"f. c #722DAE",
"g. c #134987",
"h. c #14508C",
"j. c #164A96",
"k. c #155698",
"l. c #2A5887",
"z. c #2D5293",
"x. c #1C658F",
"c. c #196899",
"v. c #286589",
"b. c #2C768D",
"n. c #246895",
"m. c #0D55A5",
"M. c #0C5AAD",
"N. c #155DA3",
"B. c #1051AF",
"V. c #1B5DAD",
"C. c #1353B4",
"Z. c #3554AD",
"A. c #1764AA",
"S. c #1864AB",
"D. c #1F73AB",
"F. c #1A6BB4",
"G. c #1B6EB9",
"H. c #1C73B9",
"J. c #1D7ABD",
"K. c #2769A8",
"L. c #2477A8",
"P. c #2865B0",
"I. c #3467B9",
"U. c #2979B9",
"Y. c #45528C",
"T. c #467390",
"R. c #776F86",
"E. c #514FAE",
"W. c #624EB1",
"Q. c #5470B4",
"!. c #2258C3",
"~. c #1C7CC1",
"^. c #396CC8",
"/. c #2B71CD",
"(. c #3677DA",
"). c #3E75E1",
"_. c #4C6EDA",
"`. c #4B75DB",
"'. c #6479C3",
"]. c #446DE3",
"[. c #4D74E1",
"{. c #8E748C",
"}. c #8B54B6",
"|. c #9058C5",
" X c #348689",
".X c #2B85A8",
"XX c #2A8CB8",
"oX c #2FA8AE",
"OX c #469390",
"+X c #69969A",
"@X c #5A8EAF",
"#X c #4AACAA",
"$X c #1F84C7",
"%X c #2288C8",
"&X c #2D97C8",
"*X c #238BD3",
"=X c #2B86DA",
"-X c #338ADD",
";X c #2A98D2",
":X c #2293DA",
">X c #259BDC",
",X c #2EAFCA",
"<X c #2D94E1",
"1X c #2AAAE2",
"2X c #34A4E1",
"3X c #4A98CD",
"4X c #619DDD",
"5X c #55BEDB",
"6X c #59ABF5",
"7X c #2ECAD0",
"8X c #30DAF2",
"9X c #70C7CE",
"0X c #4FDCF1",
"qX c #6BD4F5",
"wX c #70EBF9",
"eX c #978D90",
"rX c #AB9895",
"tX c #928DA3",
"yX c #A499AF",
"uX c #99A4AC",
"iX c #A8AAAA",
"pX c #B4ADAB",
"aX c #B8B8B8",
"sX c #C5B6B6",
"dX c #8FAEC1",
"fX c #C2B9C7",
"gX c #89CEF1",
"hX c #8DECF8",
"jX c #B2F3FA",
"kX c #CAC8C8",
"lX c #D5CACB",
"zX c #D3CBD5",
"xX c #D4D4D4",
"cX c #DBD8DA",
"vX c #E6D8DD",
"bX c #E3DCE3",
"nX c #CFF7FC",
"mX c #E8E6E7",
"MX c #F3F3F3",
"NX c #F9F9F9",
/* pixels */
"# # # # # # # # # # # o & o o & # # # o o o # # # # # # o # # # # # # # # # # # # # # # # # # # # # # # # # # # # # # # # # # # ",
"# # # # # # # # , # # # o 1 # o # # # , o & # # # # # # & o # # # # # # # # # # # # # # # # # # # # # # # # # # # # # # # # # # ",
"o & # # # # # # o # # # # # # # # # # # 1 & o # # # # # o & # # # # # # # # # # # # # # # # # # # # # # # # # # # # , # # # # # ",
"& o # # # # # # o # # # # # # # # # # # o o # # # # # # # # # # # # # # # # # # # # # # # # # # # # # # # # # # # # o o # # # # ",
"# # # # # # # # # o # # # # # # # # # # # # # # # # # # # # # # # # # # # # # , # # # # # o . o , o # # # # # # 1 o # # # # # # ",
"# # # # # o # # # # # # # # # # # # # # # # # # # # # # + @ # & # # # o # # o o # # # # o       o # # # # # # # o & o # # # # # ",
"# # # # X   X # # # # # # # # , # # # # # # # # , # o # 1 e + o # # # , # # & o # # o & .       o & o # # # # # o & o # # # # # ",
"# # # o       o # # # # # # # o # # # # # # # o o # # # Q x.+ o # # # # # # o & # # # & .       # # # # # # # # # o o , # # # # ",
"o # # # .   X # # # , # # # o # # # # # # # # - # # # + E c.* # # # # # # # # # # # # # o o X o # # o o # # # # # # # # # # # # ",
"& # # # o o , # # # o & # # # # # o # # # # o # # # # & E c.* # # # o # # # # # # # # # o , 1 o # # # , # # # # # # # # # # # # ",
"o & # # # # # # # # # # # # # # # # # # # # # # # # o & g.A.6 o # # # # # # # # # # # # # # # # # # # # # # # # # # # # # # # # ",
"# o # # # # # # # # # # # # # # # # # # # # # # # # o # h.A.r + # # # # # # # # # # # # # # # # # # # # # # # # # # # X   o # # ",
"# , # # # # # # # # # # # # # # # # # # # # # # # # # 1 k.F.n & # # # # # # # # # # # # # # # # # 1 o o # # # # o & o     o # # ",
"# # # # # # # # # # # # # # # # # # # # # # # # # # + < m.G.I & # # # # # # # # # # # # o , # # # o o & # # # # # o o o o # # # ",
"o # # # # # # # # # # # # o # o # # # # # # # # # # + B M.G.~ + # # # - # # # # # # # # o # # # # # & o # # # # # # o 1 , # # # ",
"# # # # # # # # # # # # # - # # o o # # # # # # # @ c m.M.H.l.$ # # # # # # # # # # # # # # # # # # # # # # # # # # & o o # # # ",
"# # # # # o # # # # # # # # # .   . # # # # # # $ v w.M.M.G.z.; # # # # # # # # # # # # o & o # # o # o # # # # # # # # # # # # ",
"# # # # # # # # # # # # # # .     . o # # # # & q q.q.B.M.G.Z.; # # # # # # # # # # # # # o & # # t S w 2 - # # # # # # # # # # ",
"# # # # # # # # # # # # # # .       # # # # & 8 w.q.q.B.M.A.Z.4 # # # # # # # # # # # # # # # # v R.yXR.t w 7 2 # # # # # # # # ",
"# # # # # # - # # # # # # # o . . . # # # & 8 l.q.m.M.M.m.n.W 6 + # # # # # # # # # # # # # o , n {.zX{.m w m N - # # # # # # # ",
"# # # # # # # # # # # # # # # # # # # # o 3 b.t.e.M.M.C.~.>X;XXX( r * # # # # # # # # # # # 5 5 e ' o.' w w w q < , # # # # # # ",
"# # # # # # # # # # # # # # # # # # # # + / P.q.m.B.C.C.(.-X<X>X2X&Xb.2 # # # # # # , # o , 0 4 - 4 ; w : d 7 4 4 0 1 o # # # # ",
"# # # # # # # # # # # # # # # # # # # # * .Xr.q.B.C.C.!.).).).=X>X3XT.w @ # + # # # o # , 0 4 - 4 b - e T.@X3 ; J v < o # # # # ",
"# # # # # # # # # # # # # # # # # # # * 8 v.q.e.C.C.C.!.)._._.Y.Q J o.s.w Q I P t 9 * + 1 0 ; - ; W T.5XqXjX^ # b q 0 1 # # # # ",
"# # # # # # o 1 o o # # # # # # # # # & h Y > c w.j.w.~ V J D H p.f.|.}.A D.*X$X&X@X+X#.a ; ; # ~ 0XqX0XhXnX9Xe o ; 0 5 o # # # ",
"# # # # # # & o o & # # # & # # # # o + ^ Z.x Z x q : C a.p.f.d.d.f.}.|.K ! $X$X~.U.3XgXtX2 - # l.6XqXqXjXnXhX X# - 4 5 & # # # ",
"# # # # # # o , # # # # o o & & # o * 8 / E.Z G y.u.F A x x F H a.p.f.}.}.N $X$X~.~.U.5XdXa - # n 4X6XhXNXjXwX7Xc & 4 0 # # # # ",
"# # # # # # o # # # # # & o + * e ( L.b.b.f.G y.i.y.y.u.u.G F x C C x C d e $X$X~.~.J.3X+.2 # # # _.6XqXnXhX8XoX< 1 4 5 # # # # ",
"# # # # # # # # # # & o # + O 8 L.1X>Xn. XW.G y.i.i.i.i.y.G u.G F C b v I n.%X$X~.~.U.+.7 ; % % $ Y.6XgXjX0Xb.0 ' S 4 < # # # # ",
"# # # # o , # # # # o + L / / Q n.:X:XL.I x C Z G G F F A x b N V l.K.%X*X*X%X$X$XD.I 2 , 4 % > > J `.qXqX/ o e yXR.q , # # # # ",
"# # # # o # # # # # , 8 7X8X1X>X>X>X>X$X$XD.D.n.v.l.n.z.Z.I.^./.=X=X*X*X*X*X*XL.Q 6 # # , 0 2 C G H D X.J > % 7 X.D 5 # # # # # ",
"# # # # o # # # # # # 8 7X8X1X>X>X>X>X>X:X:X:X:X:X:X(.).].).(.-X(.=X:X%XD.( I 8 $ + # # # e 6 : p.}.f.s.Y.~ d % 2 m n # # # # # ",
"# # # # # # # # # , + & Y ,X8X1X>X>X>X>X>X>X>X>X>X).].].].(.^.U.K.v.^ ] #.@.m B E 3 # # # , 5 3 > H s.Q.3XY.9 2 0 q 4 # # # # # ",
"# # # # # # # # # o o # & 8 Y  XoX%X&X%X%X%XXXXXZ.Y.Y.X.X.X.o.s j j pXkXrX .C t.c.e # # # & & 5 w H X.T P 3 6 v q & # # # # # # ",
"# # # # # # # # # # # # # + + @ 2 n M L T h 9 u l $.s eXpXlXkXl &.$... .] a f r.c.< # # # 6 4 + b W.Q.8 5 , 5 > : - o - # # # # ",
"# # # # # # # # # # # # # # & e B q.R U OX[ _ u &.-.%.k ......i %.$.u ' ~ } o.M c.3 # # # # & + D W.) & # # & 1 - o o o # # # # ",
"# # # # # # # # # # # # # o 3 .Xw.q.B Y OX[ [ k p &.-.$._ v.k l <.<.=.l l } {.S E * # # # # # $ s.'.h & # # # # # # # # # # # # ",
"# # , # # # # # # # # # # # * / P.q.B Y OX[ [ [ a $.-.7.:.z z l z <.z z =.} {.K 6 + # o & # # : s.Q.3 < P r # # # # # # # # # # ",
"# o o # # # # # # # # # # # & 3 .Xj.B ^ OX` [ [ ` a %.,.5.:.z ..6.pXkXxXlXkXrXK % + # # # # * > W.) 3 L yXR.8 # # # # # # # # # ",
"# # # # o # # # # # # # # # # + h ! q / OX[ [ [ [ [ s j z 6.aXxXcXxXaXlXmXmXlX} @ # # # # # $ G Q.P 5 h +.X.& & # # # # # # # # ",
"# # # # # # # # # # # o # # = h Y ) I ^ #XO.[ [ [ O.] ..pXxXxXkXeX| d {.zXbXzXk 7 * * + # # $ H T.2 , < < 1 # # # # # # # # # # ",
"# # # # # # # # # # # & * L b.K.z.t.w.V Y  XO.[ ` OXOXiXkXxXaXaXeXtXyXfXbXmXsXX.U.K.! e * & : E.+.# & , , # # # # # # # # # # # ",
"# # # # # # # # # # o + ^ .Xj.r.e.k.V.G.n.L ^ { [ #X#XuXaXaXaXaXfXzXcXmXNXmXrXe XX*X).^.t y C W.n o # # o # # o # # # # # # # , ",
"# # # # # # # # # # o + M q.q.j.A.G.~.$X*XQ 8 ] O.O.#XuXiXaXxXcXbXmXMXNXNXvX#./ Q %X*X/.z =.H Y.3 # # # # # , # # # # # # # o o ",
"# # # # # # # # o o - + % B j.N.F.F.~.$X*Xv.M R h ` O.+XuXpXxXmXmXMXMXNXMXlXX.&X( v.*X( :.z A =.j * # # # # # # # # # # # # # # ",
"# # # # # # # # o o + i $.d j.V.F.J.$X$X:Xv.R V.h.r k O.+XaXaXkXmXMXNXNXMXrXX.-X&XQ L.k :.d S 7.7.a # # # # # # # # # # # # # # ",
"# # # # # # # # + O i ,.,.;.r h.F.J.$X*X=Xz.R N.A.k.N f { uXaXkXmXMXMXMXvX3.E.).2X( 9 =.j : z 1.1.= # # # # o , # # # # # # # # ",
"# # # # # # # # O y &.4.7.,.>.k ! J.$X*X-X! R N.A.S.S.N f ..iXkXxXMXMXmXsX' _.`.-X,Xk &.i g 5.:.u # # # # o o # # # # # # # # # ",
"# # , o # # # # o j >.8.8.4.4.4.=._ v.U.^.N g.N.A.A.A.S.V d #.kXxXmXMXbX3.Y.[._.`.1X^ $.l *.7.5.= # # # # # # # # # # # # # # # ",
"# # # # # # # # X = $.5.8.8.9.0.8.1.7 v n R h.m.N.A.A.F.I.V f eXxXmXmXlX{ _.[.[.[.2X.Xu >.5.l y # o # # # # # # # # # # # # # # ",
"# # # # # # # # + + = j 5.9.0.0.7.5.w B g.j.k.k.k.A.A.F.G.P.V d pXbXbXrX~ `.`.[.[.-X,Xr :.7.s # .   X # # # # # # # # # # # # # ",
"# # # # # # # # # # O y u =.7.4.:.;.v q.j.j.k.m.A.A.A.A.F.P.I.a. .xXcX..I.(._.Y.J ' ^ 9 w a + #       # # # # # # # # # # # # # ",
"# # # # # # # # # # o * = y $.j 9 w B q.j.j.j.k.k.A.A.S.F.G.U.Z. .lX6.~ /.^.m a S o.2.| f + # # .   . # # # # # # # # # , # # # ",
"# # # # # # # # # o o # + O O O 5 V B q.g.g.h.k.N.N.A.S.F.F.I.t.@.eXW ^.^.N 7 h _ [ 2.2.#.a # # # o # # # # # # # # # # o # # # ",
"# # # # # # # # # # # # # # & # # $ - v c 5 q n c k.S.S.F.F.J.l.k ~ /./.l.2 6 t _ _ ..{.#.a # # # # # # # # # # # # # # # # # # ",
"# # #     o # # # # # # # # # # # # X @ 3 r S | | m R l.h.l.k.I e l.! Q 8 * r r t _ [ @.k + & # # # # # # # # # # # # # # # # # ",
"# # o     # # # # # # # # # # # # + @ 3 r t k ' 2.3.9 & & & & & + # + + $ 3 6 r t k t 7 @ # # # # # # # # # # # # # # # # # # # ",
"# o o o o # # # # # # # # # # # + @ & 6 r t _ ` 2.3. .* & & & # # # # # $ * 3 7 = * : $ + # # o # # # # # # # # # # # # # # # # ",
"# # # , # # # # # # # # # # # # # $ 2 8 r h _ [ @.{. .= # # # # # # # # + + @ @ + + * o # & o & # # # # # # # # # # # # # # # # ",
"# # # # # # # # # # # # # # # # # + * * 7 9 f _ } k = + # # # # # # # # & # # & # & o # # o & o # o # # # # # # # # # # # # # # ",
"# # # # # # # # # # # # # # # # # # + + @ * @ * * o o o # # # # # # # # o # # # # # # # # # # # # # # # o # # # # # # # # # # # ",
"# # # # # # # # # # # # # # # # # # # # o # o # # # o & # # # # # # # # & o # # # # # # # # # # , o # # , # # # # # # # # # # # ",
"# # # # # # # # # # # # # # # # # # # # # # # # # # & # # # # # # # # # # # # # # # # # # # # # # # # # # # # # # # # # # # # # ",
"# # # # # # # # # # # # # # # # # # # # # # # # # # # # # # # # # # # # # # # # # # # # # # # # # # # # # # # # # # # # # # # # "
};
