/* XPM */
static char *result[] = {
/* columns rows colors chars-per-pixel */
"64 64 251 2 ",
"   c #151513",
".  c #181715",
"X  c #1A1815",
"o  c #1E1D1A",
"O  c #1B1E1F",
"+  c #241616",
"@  c #251C16",
"#  c #2A1E16",
"$  c #201F1C",
"%  c #2A1C1A",
"&  c #2E2015",
"*  c #22211D",
"=  c #2A231C",
"-  c #352419",
";  c #251E21",
":  c #291A25",
">  c #361B2A",
",  c #341935",
"<  c #1E2827",
"1  c #1E312E",
"2  c #232324",
"3  c #2A2423",
"4  c #222B2C",
"5  c #292929",
"6  c #382928",
"7  c #2B322A",
"8  c #38322E",
"9  c #2A2633",
"0  c #232C31",
"q  c #372B36",
"w  c #293536",
"e  c #333334",
"r  c #393535",
"t  c #3C3C3C",
"y  c #482915",
"u  c #522A12",
"i  c #56341C",
"p  c #673919",
"a  c #763D17",
"s  c #4B312E",
"d  c #573B24",
"f  c #463937",
"g  c #653D30",
"h  c #30423F",
"j  c #4E4234",
"k  c #57473B",
"l  c #694426",
"z  c #774A27",
"x  c #795133",
"c  c #7F603A",
"v  c #3D1844",
"b  c #3E0B57",
"n  c #1E3758",
"m  c #282949",
"M  c #3A2547",
"N  c #293947",
"B  c #383545",
"V  c #332654",
"C  c #29395A",
"Z  c #333658",
"A  c #1E267C",
"S  c #1A3770",
"D  c #252869",
"F  c #273270",
"G  c #431A46",
"H  c #480F57",
"J  c #461958",
"K  c #46284A",
"L  c #453543",
"P  c #49315B",
"I  c #4D0F6F",
"U  c #4F2C6E",
"Y  c #612F7C",
"T  c #2B4649",
"R  c #364648",
"E  c #2A4757",
"W  c #354A54",
"Q  c #2D5455",
"!  c #32595B",
"~  c #184B75",
"^  c #194E74",
"/  c #284A63",
"(  c #3A4364",
")  c #29556B",
"_  c #354579",
"`  c #275975",
"'  c #355673",
"]  c #196771",
"[  c #306A6D",
"{  c #366774",
"}  c #327A79",
"|  c #484746",
" . c #544948",
".. c #534756",
"X. c #4A5456",
"o. c #535353",
"O. c #5A5559",
"+. c #525B5B",
"@. c #6A4B4E",
"#. c #625656",
"$. c #78655B",
"%. c #4B4D6E",
"&. c #565468",
"*. c #725369",
"=. c #4F6363",
"-. c #566568",
";. c #47667C",
":. c #796669",
">. c #706B73",
",. c #8A4618",
"<. c #964C1A",
"1. c #9E501C",
"2. c #A7551D",
"3. c #855026",
"4. c #865D33",
"5. c #B15D22",
"6. c #8E663B",
"7. c #9C6A36",
"8. c #B26F33",
"9. c #A6733B",
"0. c #C57430",
"q. c #A26A59",
"w. c #895075",
"e. c #836E70",
"r. c #867776",
"t. c #C9833D",
"y. c #AC8461",
"u. c #CA8C47",
"i. c #D6964D",
"p. c #D99C52",
"a. c #DBA15B",
"s. c #E1A355",
"d. c #E1AB68",
"f. c #1C2A86",
"g. c #18368B",
"h. c #1C3A94",
"j. c #212786",
"k. c #2E3C8F",
"l. c #570489",
"z. c #550E88",
"x. c #690A96",
"c. c #680098",
"v. c #5B2F8D",
"b. c #6D388B",
"n. c #6A1FAF",
"m. c #712DB1",
"M. c #0F478F",
"N. c #114789",
"B. c #1B5887",
"V. c #124A96",
"C. c #13559B",
"Z. c #14569B",
"A. c #285989",
"S. c #315193",
"D. c #176694",
"F. c #2B6A89",
"G. c #276799",
"H. c #164DAD",
"J. c #0D55A8",
"K. c #0C5CAE",
"L. c #155DA3",
"P. c #1C5CA9",
"I. c #0D5AB2",
"U. c #1252B3",
"Y. c #3257AF",
"T. c #1664A9",
"R. c #1966AB",
"E. c #176CB2",
"W. c #1B6BB3",
"Q. c #1B6BB8",
"!. c #1C74B7",
"~. c #1D7ABD",
"^. c #296BA8",
"/. c #2574A6",
"(. c #2F6EB5",
"). c #2377BA",
"_. c #4B5296",
"`. c #456F8E",
"'. c #747588",
"]. c #4D53B0",
"[. c #6851B4",
"{. c #4E6BAA",
"}. c #1E7FC3",
"|. c #2C6FCB",
" X c #3578D9",
".X c #3D73E1",
"XX c #526DC3",
"oX c #4B6ADA",
"OX c #7D61C4",
"+X c #4B6EE3",
"@X c #4275E2",
"#X c #8D748B",
"$X c #A26680",
"%X c #8C54BD",
"&X c #9A65CC",
"*X c #1E969E",
"=X c #2E8385",
"-X c #3CA39D",
";X c #2987B8",
":X c #3EAEAA",
">X c #458A88",
",X c #419C97",
"<X c #749093",
"1X c #5AA1AE",
"2X c #1E81C5",
"3X c #1F86C9",
"4X c #2286C8",
"5X c #238CD2",
"6X c #2F8ED0",
"7X c #2B85D8",
"8X c #2495D7",
"9X c #259ADC",
"0X c #2DA8D0",
"qX c #2E8CE0",
"wX c #2CA6E1",
"eX c #34AFE4",
"rX c #4E95CA",
"tX c #5FAFE1",
"yX c #2DC7E9",
"uX c #32DDE8",
"iX c #55D5F1",
"pX c #77DAF6",
"aX c #64E1E7",
"sX c #73E7F8",
"dX c #958E8C",
"fX c #AC9A97",
"gX c #AAA39E",
"hX c #9196A9",
"jX c #A597B8",
"kX c #A7A5A6",
"lX c #B5ADA8",
"zX c #B5AAB1",
"xX c #B9B7B7",
"cX c #C4B1B0",
"vX c #85B0C8",
"bX c #D2BDC1",
"nX c #91C4E3",
"mX c #8DEAF8",
"MX c #B5F1FB",
"NX c #C8C7C9",
"BX c #D3C9CE",
"VX c #D9D8D9",
"CX c #E2D8DB",
"ZX c #CCC8E0",
"AX c #E7DCE0",
"SX c #D0F7FC",
"DX c #E4E3E4",
"FX c #EBE8EA",
"GX c #ECF6F8",
"HX c #F3F3F3",
"JX c #FAFAFA",
/* pixels */
"$ $ $ $ $ $ $ $ $ $ $ * o * o $ $ $ $ $ $ $ $ $ $ $ $ $ $ $ $ $ $ $ $ $ $ $ $ $ $ $ $ $ $ $ $ $ $ $ $ $ $ $ $ $ $ $ $ $ $ $ $ $ ",
"$ $ $ $ $ $ $ $ $ $ $ $ * o $ $ $ $ $ $ $ $ $ $ $ $ o < $ $ $ $ $ $ $ $ $ $ $ $ $ $ $ $ $ $ $ o $ $ $ $ $ $ $ $ $ $ $ $ $ $ $ $ ",
"$ $ $ o $ $ $ $ < $ $ o $ $ $ $ $ $ $ $ $ $ $ $ $ $ o o $ $ $ $ $ $ $ $ $ $ $ $ $ $ $ $ $ $ $ o $ $ $ $ $ $ $ $ $ $ $ O $ $ * $ ",
"$ $ $ * $ $ $ $ o o $ $ $ $ $ < $ $ $ $ $ $ $ $ $ $ $ $ $ $ $ $ $ $ $ $ $ $ $ $ $ $ $ $ $ $ * < $ $ $ $ $ $ $ $ $ $ $ $ $ $ $ $ ",
"$ $ $ $ $ $ $ $ $ $ $ $ $ $ $ $ $ $ $ $ $ $ $ $ $ $ $ $ $ $ $ $ $ $ * * $ $ * O $ $ $ $ o o . o $ $ $ $ $ $ $ $ $ $ $ $ $ $ $ $ ",
"$ $ $ $ $ $ $ $ $ o $ $ $ $ o $ $ $ $ $ $ $ $ $ $ $ $ $ @ $ $ $ $ $ $ o $ $ $ $ $ $ $ $ o     . $ $ $ $ $ $ $ $ $ $ $ $ $ $ $ $ ",
"$ $ $ $ .   X $ $ $ $ $ $ $ $ $ $ $ $ $ $ $ $ $ $ $ * * = * o $ $ $ $ O $ $ $ $ $ $ $ $ X       o $ $ $ $ $ $ $ $ $ $ $ $ $ $ O ",
"$ $ $ o       o $ $ $ $ $ $ $ $ $ $ $ $ $ $ $ $ $ $ $ ` E o $ $ $ $ * $ $ $ $ $ $ $ $ $ X       o $ $ $ $ $ $ $ $ $ $ $ $ $ $ * ",
"$ $ $ < X   X $ $ $ $ $ $ $ $ $ $ $ $ $ $ $ o o $ $ $ D.` @ o * $ $ $ $ $ $ $ $ $ $ $ $ $ o X o $ $ $ $ $ $ $ O $ $ $ $ $ $ $ * ",
"$ $ o $ o o $ $ $ $ $ $ $ $ $ $ $ $ $ $ $ $ < $ $ $ * ^ D.= * o $ $ $ $ $ $ $ $ $ $ $ O $ * 2 o $ $ $ $ $ $ $ * * $ $ $ $ $ o O ",
"$ $ $ $ $ $ $ $ $ $ $ * $ $ < $ $ $ $ $ $ $ $ $ $ $ @ ~ T.w $ $ $ $ $ $ $ $ $ * $ $ $ $ * o o * $ $ $ $ $ $ * o O $ $ $ o * * $ ",
"$ $ $ $ $ $ $ $ $ $ $ o $ $ $ o $ $ $ $ $ $ $ $ $ $ $ ~ I.W $ $ O $ $ $ $ $ $ $ $ $ $ $ o o 2 O $ $ $ $ $ $ $ $ $ $ $ X   o o * ",
"$ $ $ $ o o * $ $ $ $ $ $ $ $ $ $ $ $ $ $ $ $ $ $ $ $ ~ I.' * $ $ $ * $ $ $ * $ $ * $ 3 3 : ; o * $ $ $ $ $ $ $ $ $ o     o * O ",
"$ $ $ $ 2 o $ $ $ $ $ o $ $ $ $ $ $ $ $ $ $ $ $ $ $ X ~ Q.F.3 $ $ $ o O $ $ o o 7 L f e e B B < < $ $ $ $ $ $ $ $ $ $ o o * $ o ",
"$ $ $ o o * $ $ $ $ $ $ $ $ $ $ $ $ $ $ $ $ $ $ o o % N.I.(.9 $ * $ $ * $ * $ 5 >.jX'.Z q q 9 9 0 4 < o $ $ $ $ $ $ O $ * $ $ $ ",
"$ $ $ $ $ $ $ $ $ $ $ $ $ $ $ $ o o $ $ $ $ $ $ * $ m J.I.}.N + o * * o * o $ e #XZX#XK q 6 9 9 P m 1 < $ $ $ $ $ $ * * o * $ $ ",
"$ $ * $ $ $ $ $ $ $ $ $ O $ $ X   . $ $ * $ $ $ $ 9 g.K.K.Q._ % $ $ $ $ $ $ o 4 &.>...6 q X.7 = B 9 2 0 < $ $ $ $ $ $ $ $ $ $ $ ",
"$ $ o * $ $ $ $ $ $ $ $ $ * X       o $ $ $ $ $ : D h.K.I.Q.S.% $ $ $ $ $ $ < 0 9 5 > ; ;.mX1XR 2 ; ; 9 4 < $ $ $ $ $ $ $ $ $ $ ",
"$ $ $ o $ $ < o $ $ $ $ $ $ .       O $ o * $ * n f.f.J.K.Q.Y.9 $ $ $ $ $ $ 4 4 : 9 q Q tXsXMXpX{ < ; 2 0 2 $ o $ $ $ $ $ $ $ $ ",
"$ $ $ $ $ $ $ $ $ $ $ $ $ $ o .   X $ $ o * * w g.f.h.J.L.B._ w % @ $ $ $ $ 0 4 O , W tXiXsXGXMXiX*X0 ; 4 4 $ $ $ $ o $ $ $ $ o ",
"o $ $ $ $ $ $ $ $ $ $ $ $ $ * $ $ $ $ $ * $ 3 A.f.J.I.I.E.8X6X6X/.' t * $ * 4 3 ; 4 rXiXiXmXGXMXaX0Xw q 0 4 2 $ $ $ $ $ $ $ $ $ ",
"* $ $ $ $ $ $ $ $ $ $ $ $ $ $ $ $ $ $ $ $ * [ S.g.U.U.U.|.6X8X9XwXeX0XQ @ * 2 2 % 2 (.tXtXmXSXmXuX] L jX&.0 $ $ $ $ $ $ $ $ o ; ",
"o * $ $ $ $ $ o $ $ $ $ $ $ $ $ $ $ o * * w ).j.h.I.U.H.|..X.XqX6X4X`.P > e T R R | o.&.%.rXMXmXyX7 t #X&.0 2 $ $ $ $ $ $ $ $ $ ",
"2 o $ $ $ $ $ $ $ $ $ $ $ $ $ $ $ $ * * @ Q /.j.H.U.U.U..X.XoX]._ V $X%Xb./ 4X4X4X6XrXvXhX&.vXpX[ & % - 9 Z 3 $ $ $ $ $ $ $ $ $ ",
"o o * $ $ $ $ $ $ $ $ $ o o * $ $ $ $ $ * Q A.A J.U.U.H.Y.S.P P z.m.m.%X%XP /.4X2X~.~.6XnXdX>.1XV q > : < 4 $ $ $ $ o o * $ $ $ ",
"o * $ $ $ $ $ $ $ $ o $ * o $ $ $ $ $ $ = R B , n n m m J Y x.n.n.n.n.m.&Xb.' 4X2X2X~.!.tX<Xg U %.{.M O 9 : $ $ $ $ o < o * $ $ ",
"$ $ $ $ $ $ o * $ $ $ $ o * o $ o $ $ $ + F.k.b I b v v V K J I U I U Y b.*.N ;X2X2X2X2X1XP b.[.rX`.: 0 , : ; o $ $ $ $ $ $ $ $ ",
"$ $ $ $ < o * o $ $ $ $ * o * * * $ $ $ % { ].H l.l.z.z.I I I b H H J v > 9 ` 2X3X2X~.).B J Y Y %.q O O O : $ $ $ $ $ $ $ $ $ $ ",
"$ $ $ < o o $ * $ $ $ $ $ $ $ $ $ @ 7 ) ] } ].I l.c.c.c.l.l.z.I I H M C A.).5X4X3X3XG.w = 6 U _.W 4 o X o $ $ $ $ $ $ $ $ $ $ $ ",
"$ $ $ $ $ $ $ o $ $ $ $ $ $ $ * = ) ;X9X).} ].I l.c.c.l.I I J M C ` (.7X5X5X5X5X).` 5 o < 7 Y XX! % $ 2 $ $ $ $ $ $ $ $ $ $ $ $ ",
"$ $ $ $ $ $ $ $ $ $ $ $ $ * @ * = ` 8X8X;XQ ( H J J K Z Z k.S.|. X X7X7X5X5X;X) 0 @ @ 5 * @ J [.! $ 2 e 4 o o o $ $ $ $ $ $ $ $ ",
"$ $ $ $ $ $ $ $ $ $ o $ $ 5 [ =XF.;X8X8X3X!./././.).2X3X X+X.X.X XqX7X;XG.' -.k % ; % 3 2 $ K OX;.< R hX>.2 * o < $ $ $ $ $ $ $ ",
"$ $ $ $ $ $ $ $ $ $ $ $ & } uXyX9X9X9X9X9X8X8X8X9X6X9X7X@X.X XoX|.S.! X.dXlXgXj D F ^ 7 o o , [.`.5 h <X-.2 $ $ $ $ $ $ $ $ $ $ ",
"$ $ $ $ $ $ $ $ $ $ $ $ @ =XuXuX9X9X9X9X9X9X9X9X9X9XqXoXXX_.%.=.#.p ,.x zXe. .y K g.R.w o * > v.`.5 4 w 1 * $ $ o $ * o $ $ $ $ ",
"$ $ $ $ $ $ $ $ $ $ $ $ $ 7 =X0XyXwXwX9X9X9X6X;X/.F.P f L r.gXBXxX,.5.,.y %.;.@.@.D D.w * o = v.{.5 < < < $ $ $ 2 $ $ * $ $ $ $ ",
"$ $ $ $ $ $ $ $ $ $ $ $ $ X @ 7 Q [ [ ` ) Q ! h s a 2.2.z :.r.e.@.p 3.z x  .l @.#XL B.4 * o # U {.7 o * $ $ $ $ o $ $ o $ $ $ $ ",
"$ $ $ $ $ $ $ $ $ $ $ $ $ $ $ $ = } S D S T =Xo.| i 1.5.5.p j F. .z q.y.l 4.x l #Xw.N % $ $ # J {.8 $ $ $ $ $ $ o $ $ $ $ $ $ < ",
"$ $ $ $ $ $ $ $ $ $ $ $ $ $ $ @ @ [ Z.A f.E ,XO.o.| i 1.5.t.6.k l x l @.e.fXlXxXkXw.- % @ * @ G ].h $ * $ $ $ $ $ $ $ $ $ $ $ o ",
"$ $ $ $ $ $ $ $ $ $ $ $ * $ w Q ! ! ! N m N -XX.o.o. .i <.t.i.9.x $.gXVXDXDXFXFXAXr.- w T q y G _.j % = $ $ $ $ $ $ $ $ $ $ $ o ",
"$ $ $ $ $ $ $ $ $ $ $ $ * * ) ^.G.Y.G.G.' R -Xo.o.o.o. .d ,.z $.gXVXVXxXr.e.NXVXDXr.'  X XS.4.g U 4.9.l $ $ $ $ o * $ $ $ $ $ $ ",
"$ $ $ $ $ $ $ $ @ o o @ & & V f.f.g.g.h.h.E -X+.o.o.o.X.X.j r.xXVXNXkX*.@.#XNXDXAX>.^.8X8X^.c x K 9.s.4.$ $ $ $ * o $ $ $ $ $ $ ",
"$ $ $ $ $ O $ $ * * & p <.,.m h.C.L.T.R.P.Z -X>X+.o.o.+.>X<XxXVXNXlXjXzXxXBXDXHXCX*.!.5X3X/.c 4.G z 9.d $ $ $ $ o * $ $ $ $ $ o ",
"$ $ $ $ $ $ $ $ X u 2.0.0.8.j H.L.R.!.~.}./.! [ >X+.o.=.:X<XxXNXxXxXNXBXCXHXJXHXBXo.R.;X}.A.4.p s 9.u.l o $ $ $ < $ $ $ $ $ $ $ ",
"$ $ $ $ $ $ $ $ @ a 0.i.t.t.z ^ W.!.~.}.3X8X` 9 R [ =.+.,X1XkXkXxXVXDXFXHXHXJXHXbX| E !.)./ 4.<.y 9.u.d o $ $ $ $ $ $ $ $ $ $ $ ",
"$ $ $ $ $ $ $ $ + u 7.a.p.t.8.R W.~.}.4X3X4XE D S n R X.+.>X1XkXxXVXDXFXGXHXJXFXfX{ [ ~ P.f 2.2.3.9.z & $ $ $ $ 2 o $ $ $ $ $ $ ",
"$ $ $ $ $ $ $ $ X y z i.s.i.t.x ` 2X4X4X7X^.m f.V.T.B.T j o.-.hXxXxXNXFXHXHXJXDXr.^.0XE N.y ,.<.7.p.9.% $ $ $ $ o $ $ $ $ $ o $ ",
"$ $ $ $ $ $ $ $ $ - i 9.s.a.p.u. ./.7X7X X/ D g.Z.T.T.T.^ r  .+.<XxXNXVXHXHXHXBX*.XXwX} 5 % & y u x d o $ $ $ $ $ $ $ $ $ $ $ $ ",
"< $ $ $ $ $ $ $ * * u p u.d.a.i.7.w ^. XA.m f.V.Z.Z.T.R.W.D.Z f o.gXxXNXFXHXFXcX&.oXqX0X7 @ $ $ % V q o $ $ $ $ o * $ $ $ $ $ $ ",
"$ $ $ $ $ o o $ $ $ @ y 2.8.9.u.i & 3 ( m A g.V.Z.L.T.T.R.E.W.F f  .kXNXCXHXAXdX_.+X@XwX[ $ * o $ G B $ $ $ $ $ $ $ $ $ $ o * o ",
"$ $ $ $ $ $ $ $ $ $ $ * y y d l # $ 7 { S f.N.V.Z.Z.L.T.T.W.!.Q.S.B o.zXVXDXCX:.{.+X_.' R - & X $ , M @ $ $ $ $ $ $ $ $ o * o * ",
"$ $ $ $ $ $ $ $ $ $ $ $ @ $ * @ o $ T (.f.f.N.V.C.Z.L.T.T.W.W.).|.Y.U ..xXAXNX&.XX( s *.w.e.#.s + > M * $ $ $ $ $ o o $ $ $ * $ ",
"$ $ $ $ $ $ $ $ $ $ $ $ o $ $ $ o @ ) S.f.f.M.V.C.Z.Z.T.R.R.W.W.Q.|.Y.U e.DXdX%.( 8 | o.w.q.r.#.+ + M @ $ $ $ $ $ < $ $ $ $ $ $ ",
"$ $ $ $ $ $ $ $ $ $ * o $ $ $ $ $ @ ` N.A g.M.M.V.Z.L.L.T.E.W.W.Q.Q.|.k.r.zX%.S.6 t h | o.:.r.f X + v @ * o $ $ $ $ $ $ $ $ < o ",
"$ $ $ $ $ $ $ $ $ $ o * $ $ $ $ * @ w D A g.M.M.C.Z.Z.L.T.T.W.Q.Q.|.|.S.$.+.Y./ 3 e t j | O.k % o @ > # o * $ $ o $ $ $ $ $ $ $ ",
"$ $ O $ $ $ $ $ $ $ o * o * $ o $ $ @ @ ; m S g.M.C.J.L.T.T.E.Q.Q.}.|.S.8 G. XN 3 e r B | 8 # $ o * # @ 2 * o $ $ $ $ $ $ $ $ $ ",
"$ $ $     $ $ $ $ $ * o * $ $ $ $ $ X X @ - q f w N n ^ ^ B.B.B.B.B.A.E N ) T = 3 7 e r - # $ $ * o $ $ o o * $ $ $ $ $ $ $ $ o ",
"$ $ o     < $ $ $ $ $ $ $ $ $ $ $ o + & e t | *.*.y # * @ * * * ; 3 % @ * @ @ # = 3 = % * $ $ $ $ $ $ $ $ $ $ $ $ $ $ < $ $ $ $ ",
"$ $ o o o $ $ $ $ $ $ $ $ $ $ $ * @ & 5 r h | @.q.e.- @ * * * $ $ $ $ $ $ $ $ $ @ # @ * $ $ $ * $ $ $ $ $ $ $ $ $ $ $ $ $ $ $ $ ",
"$ $ $ * o o $ $ $ $ $ $ < $ $ $ $ # 3 e r B | o.$X#Xo.# * o $ $ $ $ $ $ $ $ $ $ $ $ $ o $ $ $ $ < o $ $ $ $ $ $ $ $ * $ $ o $ $ ",
"$ $ $ o * $ $ $ $ $ $ $ o $ $ $ $ & 3 e t j | +.r.>. .% o * $ $ $ $ $ $ $ $ $ $ $ $ $ $ $ $ $ $ $ o $ $ $ $ $ $ $ $ o $ $ $ $ $ ",
"$ $ $ $ $ $ $ $ $ $ $ $ o o $ $ o # & = 8 8 f f f 6 = @ $ $ $ $ $ $ $ $ $ $ $ $ $ $ $ $ o < $ $ $ $ $ $ $ $ $ $ $ $ $ $ $ $ $ $ ",
"$ $ $ $ $ $ $ $ $ $ $ $ o * $ $ $ $ o $ @ # * @ @ $ $ * $ $ $ $ $ $ $ $ $ $ o $ $ $ $ $ $ $ $ $ $ $ o $ $ $ $ $ $ $ $ $ $ $ $ $ ",
"$ $ $ $ $ $ $ $ $ $ $ $ $ $ $ $ $ $ o * * o $ $ $ $ $ o $ $ $ $ $ $ $ $ 2 o * o $ $ $ $ $ $ $ $ * o * o * $ o * $ $ $ $ o $ $ $ ",
"$ $ $ $ $ $ $ $ $ $ $ $ $ $ $ $ * o * o o * $ $ $ * o * $ $ $ $ $ $ * o o * o * $ $ $ o $ $ $ $ $ * o * o o 2 o $ $ $ $ $ $ $ $ "
};
