/* XPM */
static char *result[] = {
/* columns rows colors chars-per-pixel */
"64 64 249 2 ",
"   c #151513",
".  c #181715",
"X  c #1A1816",
"o  c #1E1D1A",
"O  c #251D16",
"+  c #2A1E15",
"@  c #201F1C",
"#  c #2A1D1B",
"$  c #321C16",
"%  c #1B201D",
"&  c #2F2014",
"*  c #22201C",
"=  c #2A231C",
"-  c #332419",
";  c #271E22",
":  c #361A2D",
">  c #3A1937",
",  c #1F2825",
"<  c #1E302D",
"1  c #232323",
"2  c #2B2322",
"3  c #232A27",
"4  c #2B2A24",
"5  c #25242B",
"6  c #2A232B",
"7  c #222B2B",
"8  c #2B2C2B",
"9  c #342829",
"0  c #2A322D",
"q  c #3B332B",
"w  c #222C31",
"e  c #2C2838",
"r  c #372738",
"t  c #2A3536",
"y  c #333334",
"u  c #393938",
"i  c #4B2710",
"p  c #593318",
"a  c #6C3A17",
"s  c #552E29",
"d  c #533525",
"f  c #4C3433",
"g  c #463A36",
"h  c #2D443C",
"j  c #76421C",
"k  c #474239",
"l  c #534339",
"z  c #754B27",
"x  c #704C32",
"c  c #3C0C4C",
"v  c #1E364E",
"b  c #29294A",
"n  c #39264B",
"m  c #283848",
"M  c #353847",
"N  c #242958",
"B  c #3B2C55",
"V  c #283A56",
"C  c #353458",
"Z  c #19366E",
"A  c #2A3867",
"S  c #32346C",
"D  c #48004F",
"F  c #44194A",
"G  c #451958",
"H  c #4A3B45",
"J  c #4F3451",
"K  c #4B0D70",
"L  c #4C2664",
"P  c #522E6B",
"I  c #633061",
"U  c #1F4C54",
"Y  c #2B4645",
"T  c #354545",
"R  c #294858",
"E  c #315653",
"W  c #30635C",
"Q  c #174A75",
"!  c #2B4968",
"~  c #374769",
"^  c #33536E",
"/  c #27587A",
"(  c #38656B",
")  c #2F6B72",
"_  c #424242",
"`  c #4B4849",
"'  c #564B48",
"]  c #4A4853",
"[  c #544A52",
"{  c #4B5758",
"}  c #535353",
"|  c #58575B",
" . c #684C4D",
".. c #665B55",
"X. c #726358",
"o. c #4C4E6D",
"O. c #5A5567",
"+. c #71586A",
"@. c #4E676B",
"#. c #4A7B7A",
"$. c #716D6E",
"%. c #7B6773",
"&. c #904A1A",
"*. c #A7541D",
"=. c #B25A1E",
"-. c #86572B",
";. c #8C5630",
":. c #B85E21",
">. c #966534",
",. c #B76627",
"<. c #A76B32",
"1. c #A9753D",
"2. c #C27330",
"3. c #815653",
"4. c #A0685A",
"5. c #90576D",
"6. c #8A7173",
"7. c #34847B",
"8. c #BE8343",
"9. c #91847C",
"0. c #D28F47",
"q. c #CF904A",
"w. c #D89C53",
"e. c #DCA259",
"r. c #E1A760",
"t. c #1D2886",
"y. c #1C338C",
"u. c #173994",
"i. c #23328A",
"p. c #570388",
"a. c #521285",
"s. c #650A8F",
"d. c #680096",
"f. c #543292",
"g. c #6A3286",
"h. c #691FAB",
"j. c #5F35A7",
"k. c #6E2BAA",
"l. c #15508D",
"z. c #194699",
"x. c #175A99",
"c. c #245984",
"v. c #2D5594",
"b. c #196B83",
"n. c #196797",
"m. c #296889",
"M. c #34708D",
"N. c #236898",
"B. c #287899",
"V. c #0D53A6",
"C. c #0B5BAD",
"Z. c #165CA5",
"A. c #184DB7",
"S. c #0E5AB1",
"D. c #1354B4",
"F. c #3053A9",
"G. c #1765AA",
"H. c #1B71A5",
"J. c #1566B4",
"K. c #1A6AB1",
"L. c #1C78BC",
"P. c #2867A5",
"I. c #2776A9",
"U. c #3564BD",
"Y. c #2B72B3",
"T. c #4A5082",
"R. c #7B449B",
"E. c #655D9F",
"W. c #4A7791",
"Q. c #6D4CAD",
"!. c #4D6FAD",
"~. c #255AC5",
"^. c #1E7FC3",
"/. c #2A76C9",
"(. c #3470CD",
"). c #3774D7",
"_. c #3C76E1",
"`. c #4667D7",
"'. c #4A6AD0",
"]. c #4277DB",
"[. c #4D74DD",
"{. c #5172DD",
"}. c #7364C3",
"|. c #4B6EE1",
" X c #4675E1",
".X c #8F5F88",
"XX c #90758F",
"oX c #854CB0",
"OX c #935BC6",
"+X c #369393",
"@X c #308AA8",
"#X c #2987B6",
"$X c #2BA5A6",
"%X c #29A0B0",
"&X c #48908E",
"*X c #778891",
"=X c #468CA2",
"-X c #518EB3",
";X c #43B6B3",
":X c #71ACAB",
">X c #1F82C5",
",X c #1E86CB",
"<X c #1F8CD5",
"1X c #2386C5",
"2X c #228BCB",
"3X c #2794C9",
"4X c #268AD6",
"5X c #3587DD",
"6X c #2494D9",
"7X c #259BDC",
"8X c #3692D0",
"9X c #2DA4C9",
"0X c #2DA7D8",
"qX c #2EAAE2",
"wX c #5899DE",
"eX c #70AFD7",
"rX c #51AEEF",
"tX c #30D4EA",
"yX c #5CD1F9",
"uX c #6BD6F7",
"iX c #44E2EE",
"pX c #64E4F6",
"aX c #968F8F",
"sX c #A28A86",
"dX c #9298B0",
"fX c #A394AB",
"gX c #8FA9AE",
"hX c #ABA7A7",
"jX c #B8ADA8",
"kX c #B7B6B8",
"lX c #C7B6B5",
"zX c #C8C3BE",
"xX c #ABB4C4",
"cX c #C5BACD",
"vX c #95D3F3",
"bX c #8EEEF8",
"nX c #B6F4FB",
"mX c #C8C6C6",
"MX c #D4C4CF",
"NX c #D2D2D2",
"BX c #DBD9DA",
"VX c #E3D7DA",
"CX c #CCCCE2",
"ZX c #E6DDE2",
"AX c #CEF5FD",
"SX c #E4E3E4",
"DX c #EBEAEB",
"FX c #F3F3F3",
"GX c #FAF9FA",
/* pixels */
"@ @ @ @ @ @ @ @ @ @ @ @ @ @ @ @ @ @ @ @ @ @ @ @ @ @ @ @ @ @ @ @ @ o @ @ @ @ @ @ * @ @ @ @ @ @ @ @ @ @ @ @ @ @ @ , o @ @ @ @ @ @ ",
"@ @ @ @ @ @ @ o @ @ @ @ @ @ @ @ @ @ @ @ @ @ @ @ @ @ @ @ @ @ @ @ o * @ @ @ @ @ @ o @ @ @ @ @ @ @ @ @ @ @ @ @ @ @ * o @ @ @ @ @ @ ",
"* o @ @ @ , @ @ @ @ @ @ @ @ @ o @ @ @ @ @ @ @ @ @ @ @ @ @ @ @ @ * @ @ @ @ @ @ @ @ @ * o @ @ @ o @ @ @ @ @ @ @ @ o * @ @ @ @ @ @ ",
"@ @ @ @ @ @ @ @ @ @ @ @ @ @ @ @ @ @ @ @ @ @ @ % @ @ @ @ @ @ @ @ o * @ @ @ @ @ @ o 1 o * @ @ 1 @ @ @ @ @ @ @ @ @ * o @ @ @ @ @ @ ",
"@ @ @ @ @ @ @ @ o , @ @ @ * o * @ @ @ @ @ @ @ @ @ @ @ @ @ @ @ @ o o @ @ @ @ @ @ @ @ @ o @ o X o @ @ @ @ @ @ @ @ o * @ @ @ @ @ @ ",
"@ @ @ @ @ @ o * @ @ @ @ @ @ 1 o @ @ @ @ @ @ @ @ o , @ @ @ @ @ @ @ , @ @ @ @ @ @ @ @ @ * o       @ @ @ @ @ @ @ @ * @ @ @ @ @ o , ",
"@ @ @ @ X   X o @ @ @ @ @ @ o o @ @ @ @ @ @ @ @ o * @ @ @ @ @ @ @ o @ @ @ @ @ @ @ @ @ @ X       o @ @ @ @ @ @ @ o 1 @ @ @ @ o @ ",
"@ @ @ o       o @ @ @ @ @ * o * @ @ @ @ @ @ @ @ * o @ @ @ O @ @ o * @ @ @ @ @ @ @ @ @ o X       o @ @ @ @ @ @ @ o o @ o @ @ @ @ ",
"@ @ @ @ X   X @ @ @ @ @ @ @ @ @ @ @ @ @ @ @ @ @ * % o * t = @ @ * o @ @ @ @ @ @ @ @ @ @ @ o o o , @ @ @ @ @ @ * * o @ @ @ @ @ @ ",
"@ @ @ @ o o @ @ @ @ @ @ @ @ @ @ @ @ @ @ @ @ @ @ * o * t H.= @ @ o 1 @ @ @ @ @ @ @ @ o , @ @ @ @ o @ @ @ @ @ @ o @ * @ @ @ @ @ @ ",
"@ @ @ @ @ @ @ @ @ @ @ o @ @ @ @ @ @ @ @ @ @ @ @ * o O Q G.= @ @ @ @ @ @ @ @ @ @ @ @ o @ o @ @ @ @ @ @ @ @ @ @ @ @ @ @ @ o @ , o ",
"@ @ @ @ @ @ @ @ @ @ @ @ @ @ @ @ @ @ @ @ @ @ @ @ * % % Q n.4 @ @ @ @ @ @ @ @ @ @ @ @ @ @ @ @ @ @ @ @ @ @ @ @ @ @ @ @ @ X   o @ @ ",
"@ @ @ @ @ @ @ o * o @ @ @ @ @ @ o * o @ @ @ @ @ * % * l.x.9 @ @ @ @ @ @ @ @ @ @ @ @ @ @ @ @ @ @ @ @ @ @ @ @ @ @ @ @ o     o @ @ ",
"@ @ @ @ @ @ @ @ o * @ @ @ @ 1 o @ @ * @ @ @ @ @ o O < V.N.4 @ @ @ @ @ @ @ @ @ @ * o @ @ @ @ @ @ @ @ @ @ @ @ @ @ @ @ @ o o @ @ @ ",
"@ @ @ @ @ @ @ @ * o @ @ @ @ o @ * @ @ @ @ @ * @ * X v V.P.4 @ @ @ @ @ @ @ @ @ @ o @ @ @ , @ @ @ @ @ @ @ 1 o @ @ @ @ @ * @ @ @ @ ",
"@ @ @ @ @ @ @ @ @ , @ @ @ @ @ @ o o @ @ @ @ % % O + Q C.P.8 @ @ @ @ @ @ @ @ @ @ * @ @ @ o @ @ @ @ o @ @ o * o @ @ @ @ @ @ @ @ @ ",
"@ @ ; @ @ @ @ @ @ @ @ @ @ @ o X   X @ @ @ @ @ @ O v V.S.I.4 @ @ * o @ @ @ @ @ @ @ @ @ @ @ @ 1 o @ @ @ @ @ @ @ @ @ @ @ @ @ @ @ @ ",
"@ @ @ @ @ @ @ % @ @ @ @ @ @ X       o @ @ @ @ * N z.C.S.I.8 @ @ o * @ @ @ @ @ @ @ @ @ @ o @ o * @ @ @ @ @ @ @ @ @ @ @ @ @ @ @ @ ",
"@ @ @ @ @ @ @ @ @ @ @ @ @ @ X       o @ o # = N t.V.C.J.P.6 O @ @ @ o @ @ @ @ @ @ @ @ @ * @ * o @ @ @ @ @ @ @ @ @ @ @ @ @ o @ @ ",
"@ @ @ @ @ @ @ @ @ @ @ @ @ @ o X . X @ @ @ = ! t.t.V.C.J.U.: @ @ @ @ 1 o * o @ @ @ @ @ @ @ @ @ @ @ @ @ @ @ @ @ @ @ @ @ @ o o , @ ",
"@ @ @ @ @ @ @ @ @ @ @ @ @ @ * @ * o * * 4 / i.y.u.V.C.S.F.6 @ @ @ @ , @ @ @ @ @ @ @ @ @ @ @ @ @ @ @ * @ @ @ @ @ @ @ @ @ * o 1 o ",
"@ @ @ @ @ @ @ @ @ @ @ @ @ @ @ @ o o * 4 m.i.u.C.C.C.Z.m.~ = O % @ @ @ @ @ @ @ @ @ @ @ @ @ @ o @ @ @ o * @ @ @ @ @ @ @ @ o * @ @ ",
"@ @ @ @ @ @ @ @ @ @ @ @ @ o @ @ * o = B.F.t.V.D.D.S.2X7X1XM.0 + @ @ @ o @ @ @ @ @ @ @ , @ @ @ @ @ o 1 o @ o * @ @ @ @ @ @ @ * o ",
"@ @ @ @ @ @ @ @ @ @ @ @ @ * @ @ * * Y I.t.u.S.D.A.~._.6X7X8X3X! 2 @ @ @ @ @ o @ @ @ @ o @ @ @ @ @ @ o * 1 o @ @ @ @ @ @ @ @ @ @ ",
"@ @ @ @ @ @ @ @ @ @ @ @ * @ @ @ o * E v.t.V.V.D.A.(._._.).7XqXrX/ & o o * * % @ @ @ @ @ @ @ @ @ o @ O X X , @ @ @ @ @ @ @ @ @ @ ",
"@ @ @ @ @ @ @ @ @ @ @ @ % o @ @ * = ( e N z.S.D.A._.`.`.'.Y.M.@.] # * + O % @ @ @ @ @ @ @ o @ @ * o       o @ @ @ @ @ @ @ @ @ @ ",
"@ @ @ @ @ @ * @ @ @ @ @ % * % o O u #Xc c b v v A S L L P P P k.oXL ! ^ M q = O @ @ @ @ @ @ @ @ * X       o * @ @ @ @ @ @ @ @ @ ",
"@ @ @ @ o * o @ @ @ @ * O = 1 t t E U.K p.K G > F L h.h.h.h.k.OXOXP / 2X#XY.&X| q # @ @ @ @ @ @ o X       1 r 6 1 o @ @ @ @ @ @ ",
"@ @ @ @ @ @ @ @ @ @ . X 0 m.#X3XI.M.j.K p.d.p.a.G F n K f.h.h.k.OX.X! ,X>X^.1XeXgX| # @ @ @ @ @ @ @ o o 4 O.XX%.9 @ @ @ @ @ @ @ ",
"@ @ @ @ @ @ @ o = Y W Y t B.7X6Xm.+Xh.K p.d.d.p.a.a.K G F F L K R.oXR >X>X^.L.L.eXxXq @ @ @ @ o 1 < w w h E.CXdXH 9 2 @ @ @ @ @ ",
"@ @ @ @ @ @ @ @ Y tXtX0X3X3X7X<Xb.E G D K d.d.s.p.p.a.K K K c > > s m >X>X>XL.L.eX:X9 @ @ @ o , w w 5 5 ; J XX%.M y 8 @ @ @ @ @ ",
"@ @ @ % @ @ @ @ W iXtX7X7X7X7X6X<XL.N.c.S C B B n G c n n b C ! ! c.I.,X>X>XL./.-X` O @ @ @ , w 5 5 1 ; e ; f r r M M e @ @ @ @ ",
"o @ @ @ @ @ @ @ = $XtXqX6X6X7X7X7X6X6X4X<X,X^./.U.U.U.(./././.2X<X<X2X,X,X,X>Xm.u O @ @ @ @ w 5 5 ; o e B 1 6 9 9 f M w @ @ @ @ ",
"* @ @ @ @ @ @ @ o 4 W $X0X0X7X7X7X7X7X7X7X6X5X`. X X).).).5X5X6X6X<X2X>XH./ t = o @ @ @ @ < 7 5 ; o ! =X=X=X=X-X] ; 5 < , @ @ @ ",
"% @ @ @ @ @ @ @ o * * = Y ) B.@X#X2X3X3X4X).`.`.`.).).)./.1X>XI.N./ R V R 4 @ * @ @ @ @ @ 7 5 ; ; ; Y.uXpXyXpXbX@.@ e e , @ @ @ ",
"@ @ @ @ @ @ @ @ * % o * X X = = E T M f l f H } O.O.O.` k g X.%.9.aX` A n.0 @ % @ @ @ @ , 7 5 # @ 6 !.rXpXpXnXnXW.@ L C 7 @ @ @ ",
"@ @ @ @ * @ @ @ * * o + # e Z Y +X{ ' p *.=.a 6.jXmXBX3.*.&.sXkXsX..r y.n.< @ * @ @ @ @ 1 7 ; $ $ 5 wXwXvXAXGXnX=X1 ; 5 w @ @ @ ",
"@ @ @ @ % O @ @ o * = m Z t.y.U &X| } k &.:.=.p ' ..X.j =.&.d ` ( l f Z n., * o @ @ @ @ 1 e # : > n wXrXvXAXnXpX$X; ; 5 < @ @ @ ",
"@ @ * @ * % % * o * 4 @Xu.t.Z ( &X} } ' d *.2.<.} v.k j z ;.z ` ] [ +.N b.= @ @ @ @ @ @ 1 t = G F L wXeXnXbXpXiX%X, ; w < ; @ @ ",
"@ @ @ @ o * * o * o X ) I.t.N 7.#.} } } g a :.0.1.x x z 4.4.z -.-. ..XM U O o @ @ @ @ @ @ < 9 K k.L W.uXuX0X$X) U ; ; w , o @ @ ",
"@ @ @ @ @ @ @ @ @ * @ 4 @Xz.b $X@.} } } } k &.,.1.-.x ..X.6.6.6.3.X.XX .= @ @ @ @ @ @ @ ; , 3 F k.k.P o.~ 7 1 u H 1 5 w , @ @ @ ",
"@ @ * o @ @ @ @ @ @ @ O h @XC 7.&X{ } } } { d x X.aXmXNXBXBXSXDXSXmXXXJ O o @ @ @ @ @ 5 e * 4 r I j.Q.T.F : 2 XXfXM 5 < o o @ @ ",
"@ @ @ @ @ @ @ @ @ @ @ @ * Y Y y 7.#.| } { #.$.hXmXBXNXzXaX6.6.MXSXSXjXs o @ @ @ @ @ @ @ @ O r j.T.o.-X-X@.: $ ] O.t 5 * @ @ @ @ ",
"@ @ @ @ @ @ @ @ @ @ @ @ = Y c.i.m W @.} #.;X:XkXNXzXkXfX%...%.cXVXVXXX$ O @ @ @ @ @ @ @ X : g.'.=X0 y y 9 2 6 w b 5 * o @ @ @ @ ",
"@ @ @ @ @ @ @ @ @ @ @ = ( P.y.z.P./ E { #.;XgXkXkXkXkXxXxXcXMXZXDXVX..9 8 O @ @ @ @ * O ; g.}.W.4 * 7 7 e e w e b * * o @ @ @ @ ",
"@ @ @ @ @ @ @ @ % * = ) P.u.z.L.1X2X) _ } #.:XhXhXNXBXBXZXDXFXGXDXlX@.B.! R = @ @ @ * # L Q.W.8 O @ o 1 : > 6 o * @ @ @ @ @ @ o ",
"@ @ @ @ @ @ @ @ * O E I.t.z.K.L.>X2X4XR h } #.gXjXNXZXDXFXFXGXGXZX6.W.7X) v.c.1 @ @ O F Q.W.h , < * @ @ ; ; @ @ * % @ @ * o @ @ ",
"@ @ @ @ @ @ @ @ * 0 @Xy.y.Z.K.^.^.,X4XM.- k } *XkXkXNXDXFXFXGXFXMX .'.5X%X~ '.T O O F j.!.t < Y *XO.* @ @ @ @ @ @ @ o 1 o * @ @ ",
"@ @ @ @ @ @ @ % o t c.t.u.G.P.L.L.,X4X(.R A f | fXkXmXDXFXFXFXDXaXo.|.].0XM.~ l p : f.!.y @ 7 E dX$.% % @ @ @ @ @ @ o 1 o o * o ",
"@ @ @ @ @ @ @ @ * O # N i.D.K.L.>X,X4X).! c.S g $.kXmXSXFXFXDXlXO.'.|.{.8X9Xk 1.s f.!.u O @ < < T 8 @ @ @ @ @ o @ @ * @ o * o 1 ",
"@ @ @ @ @ @ @ @ % O p j k M ! c.B.I.N.! V n.D.B h hXmXBXFXFXSX6.v.].{.{.5XqX( d G o.h O % * @ , .   . ; @ @ @ @ @ @ @ @ @ @ * o ",
"@ @ @ @ @ @ @ @ @ & *.,.2.,.>.x x x e Q x.G.K.F.H } mXBXDXDXlXo.(.`.{.{.{.qX@Xr x 1.p @ % * @ @       o @ @ @ @ @ @ @ @ @ @ o * ",
"@ @ @ @ @ @ @ @ * i ,.q.q.0.0.w.w.q.k l.Z.Z.G.K.F.f 9.BXSXVX%.v.(.).{.{.{.5XqXq 1.e.>.# @ @ @ @ .   X @ @ @ @ @ @ @ @ @ @ @ @ @ ",
"@ @ @ @ @ @ @ @ O p 2.w.e.e.w.r.w.q.x Q Z.G.G.K.U.i.[ lXZXjX~ /.(.).[.{.{.5XrXE ;.1.d @ @ % @ @ % o o , @ @ @ @ @ @ @ o @ @ @ @ ",
"@ @ @ o o @ @ @ O p ,.2.w.w.e.r.8.z g Q l.l.G.K.J.F.I zXmX..P.(.(.].[.{.|.5XqX( j - # @ @ @ @ @ ; o ; o @ @ @ @ @ @ @ , @ @ @ @ ",
"@ @ % X X o @ @ % + i p z -.>.<.*.- 3 9 y g V c.J.F.+.jX} v./.(.(.F.~ H J @.M.t O @ @ @ @ @ @ @ o o o o @ @ @ @ @ @ @ @ @ @ @ @ ",
"@ @ o     @ @ @ o * O $ i i i i i O 9 u `  .5._ Q c. .E Z./././.! 9 y k  .5.f + o @ @ @ @ @ @ @ o * @ @ @ @ @ @ @ @ @ @ @ @ @ @ ",
"@ @ @ o o @ @ @ @ % @ @ o + + O # 8 y u ` [ 5.6.H e 0 c.v.c./ R 2 y u _ [ 5.XXf & % @ @ @ @ @ @ * o * @ @ @ @ @ @ o @ @ @ @ @ @ ",
"@ @ @ @ @ @ @ @ @ @ @ @ o * o + 2 8 u u H [ 5.XX..$ & * * = + + 4 y u _ ` +.6.6.d X @ @ @ @ @ @ o , o @ @ @ @ @ @ @ @ @ @ @ @ @ ",
"@ @ @ @ @ @ @ @ @ @ @ @ * o o + 1 0 u u T } $.6...- * * % % O = 8 y u _ ` X.XX..9 @ @ @ @ @ @ @ @ @ 1 o @ @ @ @ @ @ @ @ @ @ o * ",
"@ @ @ @ @ @ @ @ * o @ @ o @ @ O + & 9 q q g g f # O @ @ @ @ O = 8 y u g k ' f - @ @ @ @ @ @ @ @ @ @ @ @ @ @ @ @ @ @ @ @ @ @ @ , ",
"@ @ @ @ @ @ @ @ @ * o @ * % @ @ @ O & @ = @ & @ @ @ @ @ * o O $ + & = & = O O * @ @ @ @ @ @ @ @ @ @ @ @ @ @ @ @ @ @ @ @ @ @ @ @ ",
"@ @ @ @ @ @ @ @ @ @ @ @ @ @ @ * @ @ @ @ @ @ @ @ @ @ @ @ o * o # O @ @ @ @ @ % % o @ @ @ @ @ @ @ @ @ @ @ @ @ @ @ @ @ @ @ @ @ @ @ ",
"@ @ @ @ @ @ @ @ @ @ @ @ @ @ @ @ @ @ @ @ @ @ @ @ @ @ @ @ * o o @ @ @ @ @ @ @ @ * @ @ @ @ @ @ @ @ @ @ o @ o @ @ @ @ @ @ @ @ @ @ o "
};
