/* XPM */
static char *result[] = {
/* columns rows colors chars-per-pixel */
"64 64 248 2 ",
"   c #151513",
".  c #191714",
"X  c #1A1816",
"o  c #1E1D1A",
"O  c #28170E",
"+  c #251D16",
"@  c #2B1D15",
"#  c #201F1C",
"$  c #2A1D1A",
"%  c #331C17",
"&  c #2D2016",
"*  c #22211D",
"=  c #2A231C",
"-  c #33241A",
";  c #271E22",
":  c #361A2D",
">  c #3A1937",
",  c #1F2724",
"<  c #1E302D",
"1  c #232323",
"2  c #2B2423",
"3  c #232A26",
"4  c #2B2A24",
"5  c #25242B",
"6  c #2A232B",
"7  c #212B2B",
"8  c #2C2D2B",
"9  c #352828",
"0  c #2A322D",
"q  c #3C342B",
"w  c #222C31",
"e  c #2C2838",
"r  c #372738",
"t  c #2B3333",
"y  c #293737",
"u  c #363635",
"i  c #3B3B3B",
"p  c #4B2710",
"a  c #593318",
"s  c #552E29",
"d  c #543523",
"f  c #4E3333",
"g  c #463B34",
"h  c #2D443C",
"j  c #76421C",
"k  c #474238",
"l  c #54443A",
"z  c #754B27",
"x  c #704C32",
"c  c #3C0C4C",
"v  c #1E364E",
"b  c #29294A",
"n  c #39264B",
"m  c #283848",
"M  c #353847",
"N  c #242958",
"B  c #3B2C55",
"V  c #283A57",
"C  c #343658",
"Z  c #19366E",
"A  c #2A3867",
"S  c #32346C",
"D  c #48004F",
"F  c #44194A",
"G  c #451958",
"H  c #4C3C43",
"J  c #543C48",
"K  c #4E2D54",
"L  c #4B0D70",
"P  c #4C2664",
"I  c #522E6B",
"U  c #633061",
"Y  c #1F4C54",
"T  c #2B4645",
"R  c #354545",
"E  c #29495A",
"W  c #315653",
"Q  c #30635C",
"!  c #174B75",
"~  c #2A4A67",
"^  c #364869",
"/  c #30536B",
"(  c #27587A",
")  c #38656B",
"_  c #2F6B72",
"`  c #434343",
"'  c #4B4648",
"]  c #554B4B",
"[  c #4D4853",
"{  c #4B5758",
"}  c #535353",
"|  c #595659",
" . c #674B4B",
".. c #675955",
"X. c #6A615A",
"o. c #796558",
"O. c #4C4E6D",
"+. c #5A5567",
"@. c #70566C",
"#. c #4E676B",
"$. c #4A7B7A",
"%. c #756C71",
"&. c #904A1A",
"*. c #A7541D",
"=. c #B25A1E",
"-. c #86572B",
";. c #8C5630",
":. c #B85E21",
">. c #966534",
",. c #B76627",
"<. c #A76B32",
"1. c #A9753D",
"2. c #C27330",
"3. c #956554",
"4. c #8E566D",
"5. c #8B706F",
"6. c #877578",
"7. c #34847B",
"8. c #91847C",
"9. c #D28F47",
"0. c #CF904A",
"q. c #D89C53",
"w. c #DCA259",
"e. c #E1A760",
"r. c #1D2886",
"t. c #1C338C",
"y. c #173994",
"u. c #23328A",
"i. c #570388",
"p. c #521285",
"a. c #650A8F",
"s. c #680096",
"d. c #543292",
"f. c #6A3286",
"g. c #691FAB",
"h. c #5F35A7",
"j. c #6E2BAA",
"k. c #15508D",
"l. c #194699",
"z. c #175B99",
"x. c #245984",
"c. c #2D5594",
"v. c #196B83",
"b. c #196797",
"n. c #296889",
"m. c #236898",
"M. c #356F90",
"N. c #287899",
"B. c #0D53A6",
"V. c #0B5BAD",
"C. c #165CA5",
"Z. c #184DB7",
"A. c #0E5AB1",
"S. c #1354B4",
"D. c #2F52AA",
"F. c #1765AA",
"G. c #1B71A5",
"H. c #1566B4",
"J. c #1A6AB1",
"K. c #1C78BC",
"L. c #2867A5",
"P. c #2776A9",
"I. c #3564BD",
"U. c #2B71B4",
"Y. c #494F82",
"T. c #7B449B",
"R. c #655D9F",
"E. c #4A7791",
"W. c #6D4CAD",
"Q. c #4C6EAC",
"!. c #255AC5",
"~. c #1E7FC3",
"^. c #2A77C9",
"/. c #3371CE",
"(. c #3774D7",
"). c #3C76E1",
"_. c #4869CD",
"`. c #4667D7",
"'. c #4975DD",
"]. c #5071DE",
"[. c #7364C3",
"{. c #4B70E1",
"}. c #8F5F88",
"|. c #91748E",
" X c #854CB0",
".X c #935BC6",
"XX c #369393",
"oX c #308AA8",
"OX c #2987B6",
"+X c #2BA5A6",
"@X c #29A0B0",
"#X c #48908E",
"$X c #778891",
"%X c #468CA2",
"&X c #518EB3",
"*X c #43B6B3",
"=X c #71ACAB",
"-X c #1F82C5",
";X c #1E86CB",
":X c #1F8CD5",
">X c #2386C5",
",X c #228BCB",
"<X c #2794C9",
"1X c #268AD6",
"2X c #3587DD",
"3X c #2494D9",
"4X c #259BDC",
"5X c #3692D0",
"6X c #2DA4C9",
"7X c #2DA7D8",
"8X c #2EAAE2",
"9X c #5B9ADC",
"0X c #70AFD7",
"qX c #498CE5",
"wX c #51AEEF",
"eX c #38D8E3",
"rX c #30D4EA",
"tX c #5CD1F9",
"yX c #6BD6F7",
"uX c #44E2EE",
"iX c #64E4F6",
"pX c #968F8F",
"aX c #A28A86",
"sX c #9298B0",
"dX c #A394AB",
"fX c #8FA9AE",
"gX c #ABA7A7",
"hX c #B8ADA8",
"jX c #B7B6B8",
"kX c #C7B6B5",
"lX c #C8C3BE",
"zX c #C5BACD",
"xX c #95D3F3",
"cX c #8EEEF8",
"vX c #B6F4FB",
"bX c #C8C6C6",
"nX c #D4C4CF",
"mX c #D2D2D2",
"MX c #DBD9DA",
"NX c #E3D7DA",
"BX c #CCCCE2",
"VX c #E6DDE2",
"CX c #CEF5FD",
"ZX c #E4E3E4",
"AX c #EBEAEB",
"SX c #EDF2F3",
"DX c #F3F3F3",
"FX c #FAF9FA",
/* pixels */
"# # # # # # # , o # o # # # # # # # # # # # # # # # # # # # # # # # # # # # # # , o # # # # # # # # # # # # # # # # , o # # # # ",
"# # # # # # # # # # # # # # # # # # # # # # # # # # # # # # # # o , # # # # o # # # # # # # # # # # # # # # # # # # # # # # # # ",
"# * # # # # # # # # # # * # # # # # # # # # # # # # # # # # # # o # # # # # * # # # # # # # # # # # # # o # # # # # # # # # # # ",
"# o # # # # # # # # # # o # # # # # # # # # # # # # # # # # # # # # # # # # # # # # # # # # # # # # # # # # # # # # # # # # # # ",
"# # # # # # # # # # # # * o o * o 1 o # # # # # # # o * # # # # # o # # # # # # # # # # * # X X # # # # # # # # # # o # # # # # ",
"# # # # # # # # # # # # o 1 # # * o # # # # # # # # o o # # # # # # # # # # # # # # # * o       # # # # # # # # # # # # # # # # ",
"# # # # X   X o # # # # # # # # o * # o # # # # # # # , # # # # # # + + # # # # # # # * X       # # # # # # # # # # # # # # # # ",
"# # # o       o # # # # # # # # * # # 1 o # # # # # # # # # # # # # = t # # o , # # # #         # # # # # # # # # # # # # # # # ",
"# # # o X   X # # # o # # # # # # # # # # # # # # # # # o , # # # # 1 G.y + # # # # # # # o X # # # # # # # # # # # # # # # # # ",
"# # # 1 o o # # # # o , # # # # # # # # # # # # # # # # o # # # # # = G.! # # # # # # # # # * # # # # # # # # # # # # # # # # # ",
"# # # o # # # # # # # # o # # # o # # # # # # # # # # # # # # # # # 2 b.! * # # # # # # # # # # # # o # # # # # , # # # # # # # ",
"# # * # # # # # # # # # * # # # , # # # # o # # # # # # # # # # # * 2 z.k.# # # # # # # # # # # # # o , # # # # o # #     # # # ",
"# o * # o # # # , # # # o * o * # # # # # # # # # # # # # # # # # # 9 m.B.7 # # # # # # # # # # # # # # # # # # # # o     o o # ",
"# # # # # # # # o # # # 1 o * o # * # # # # # # # # # # # # # # # # 9 m.B.v + # # # # # # # # # # # # # # # # # # # # o X , # # ",
"# # # # # # # # # # # # # # # # * o o o # # # # # # # # # # # # * # 4 L.V.! + # # # # # # # # # # # # # # # # # # # # # # # # # ",
"# # # # # # # # # # # # # # o * o o * o , # # # # # # # # # # # # # 5 P.V.B.v + o # # # # # # # # # # # # # # # # # # # # # # # ",
"# # # # # # # # # # # # # # # X   X # # # # # # # # # # # # # # # # 6 P.A.V.l.b = # # # * * * * # # # # # # # o # # o * o # # # ",
"# # # # # # # # # # # # o , X       o # # # # # # # # # # # # # # # 9 U.H.V.A.r.N & * o o o * o # # # # # # , o # # * o , # # # ",
"# # # # # # # # # # # # # # .       o # # # # # # # # # # # # # # # : D.H.A.B.r.r.~ = * * o o * # # # # # # # # # # # * # # # # ",
"# # , o # # o # # # # # # # o     X ; # # # # # # # # # # # # # # # e D.H.V.B.y.r.u.( 4 o * * o # # # # # # # # # # # # o # # # ",
"* o * o # # # # # # # # # o * # # # # # # # # # # # # # * # # # # # $ ^ x.V.V.V.V.t.y.M.4 * * * # # # # # # # # 1 o # # # # # # ",
"# * o 1 # # # # # * # # # 1 o # # # # # # # # # # # # # # # # * + t n.OX4X:XA.A.A.B.r.c.N.* * o # # # # # # # # o * o # # # # # ",
"# # # o # # # # # o # # # # # # # # # # # # # # # # * o # o # = / 5X7X4X3X).!.Z.Z.A.y.r.OXT + # # o o # # # # # # # # # # # # # ",
"# # # # # # # # # # # # # # # # # # # # # # # # # # # * o * # ( wX8X4X2X).{.!.Z.S.S.B.r.c.W + * # , # * # # # # # # # # # # # # ",
"# # # # # # # # # # # # # o # # # # # # # # # # # # # o o * & [ #.n.P._._.`.(.!.Z.A.k.N b / 4 * * * + X X # # # # # # # # # # # ",
"# # # # # # # # # # # # # # # # # # # # # # # # + = 4 M / E K  X XI I P P C S A V N b c D P.y # o o       # # # # # # # # # # # ",
"# # # # # # # 1 5 u 2 # o # # # o , # # * # = i +.E.oX>X,X( I .X Xg.g.g.j.a.I F > G i.L L /.Q y y * X X   # * * # o * # # # # # ",
"# # # # # # # 6 @.|.+.3 , * # o o # # # * = | fX0X>X~.>X,X^  X Xj.g.g.a.P F F L L i.s.i.D h.XXm.<XoXn.3 O o o # # # # # # # # # ",
"# # # # # 2 9 H sXBXR.i 8 < < 1 # # # # # q fX0XK.K.-X-X-XC  XT.I P F n G L p.p.i.s.s.s.L h.XXn.4X4XG.y h Q Y * # # # # # o # # ",
"# # # # # 6 u M R.|.O.; 5 5 w w , # # o # 9 sX0XK.OX-X-XOXm f r F c L L L p.i.i.s.s.s.L D G E m.:X4X<X<X4XrXeXh # # # # # , # # ",
"# o o # e M r r f f ; ; 2 ; ; 5 w , o # # + ` &X^.K.-X-X;XP.n.~ A B n n n F n c n B C ~ ( m.K.;X3X4X4X4X4XrXuXQ # # # # # # # # ",
"# , # # t M r 9 9 2 ; B e # ; 1 7 w , # # # + u n.K.-X;X;X,X:X1X1X^.^.^.I.I./.!.^.-X:X:X:X:X4X3X4X4X4X4X8XrX+X= # # # # o # # # ",
"# # o , w 6 6 R &X%X%X&X%X/ ; ; 5 w < # # # # o = m ( G.-X:X<X:X1X1X(.2X).(.'.).{.(.4X4X4X4X7X4X4X7X7X7X@XQ 2 o # # # # # # # # ",
"# # o , b r 1 #.cXtXtXiXtXU.o ; ; 5 7 # # # # # o + 4 Y T E n.N.P.K.>X^.(.(.).`.`.`.(.1X,X,X<XOXP.N.( T = + # # # # # # # # # # ",
"# # , < M P 1 E.CXvXyXyXwXQ.; # # 2 < * # # # # # o y b.Z J 8.8.%.X.k k [ +.+.+.| f l f g i R W = @ O o # # # # # # # # # # # # ",
"# # # w 5 5 o #XvXSXCXyX9X9X; $ % ; 7 , # # # # # # 0 b.u.r ..pXlX8.&.*.3.mXbXhX%.&.:.=.a ' { XXT Z w = + # # # # # # # # # # # ",
"# # # w 5 ; # +XiXCXCXcXwX9Xn > : ; 8 1 # # # o # # 3 b.Z f f ) ] d *.=.d o.X.] a *.:.j k } | #XY k.r.A m $ * # # # # # # # # # ",
"# # # < w ; 5 @XuXiXcXvXyXwXB F G $ e 1 # # # # # # , ( V @. .I [ z x ;.j ` M.] <.,.*.d ] } } #XQ Z u.y.oX8 o # # # # # # # # # ",
"# # # 1 w ; 1 Y v.@X*XyXxXY.U j.P 2 < , , # o * o * * Y M }. .-.;.z 3.3.z x x 1.9.,.j k } } } $.XXN r.J._ + o # # # # # # # # # ",
"# # o , w 5 6 H i 5 y ^ O.U j.j.F 5 , ; * o * o * * o = J |.o.o.5.5.%.3. .x -.1.,.&.g } } } } $.XXb l.oX2 o # # # # # # # # # # ",
"# # # # 7 w M dX|.$ : n O.W.W.K n 2 ; e ; # # # # # # + J |.nXZXAXZXZXMXmXjXpXo.x d Q { } } { #X7.V OXh # # # # # # # # # # # # ",
"# # # o # 7 e +.[ % 9 O.5X&XO.Y.h.> + o # # # # o # # # s hXZXZXmX5.%.pXlXmXmXbXgX%.#X#.} } $._ t R T @ # # # # # # # o # # # # ",
"# # # # # # 5 m e 2 2 6 r u t M.Q.f.> + # # # # # # # # O aXVXNXbX4...%.dXjXlXmXlXpX*X$.} #.Q V u.x.T # # # # # # # # , # # # # ",
"# # # # # # # b e w e e 8 7 1 4 E.[.f.; o # # # # # + 8 6 ..NXAXZXzXzXzXjXjXjXjXjXfX*X#.| W / J.D.u.c.) = # # # # # # # # # # # ",
"# # # # # # # # # ; > e * # # # 8 %XW.P ; # # # * = E W N.#.kXDXFXSXVXVXMXMXmXgXfX=X$.{ R ( >X-XK.z.u.L._ = o # # # # # # # # # ",
"# # # o # # # # o ; ; ; # # 1 w , h Q.W.G @ # # = ( c._ 8XY.5.VXFXFXDXDXAXZXmXjXfX$.} g E 1X,X-XK.F.l.r.P.W # * # # # # # # # # ",
"# # # = # # # # # # # # # * O.$XT < y E.h.c + + M _./ <X2X_.| zXSXFXFXDXAXmXjXjX$X{ q 8 M.1X,X~.K.J.C.t.u.oXy o # # # # # # # # ",
"# # # # # # # # # # # # # * %.sXR < * i E.d.: a l / n.7X'.{.Y.aXVXDXDXDXZXbXjXfXX.q E E /.1X,X^.K.F.C.l.r.x.0 o # # # # # # # # ",
"# # # # # # # # # # # # # o 8 m < < # * y Q.d.s 1.h 6X2X{.{._.| kXAXDXDXZXbXjX%.g S k.~ (.1X,X;XK.H.S.l.b - + # # # # # # # # # ",
"# # # # # # # # # # # # # , # * , # # # @ h O.G s #.7XqX`.].'.c.6.VXDXDXMXmXpXk C D.b.V ^ m.N.b.x.~ M d j a # # # # # # # # # # ",
"* o # # # # # # # # # # # # # # # # # # + a 1.x f oX7X].].].(./.{ kXAXSXMXbX .B D.H.F.z.! e x x -.<.<.1.2.&.& * # # # # # * # # ",
"# * o # # # # # # # # # # # # # # # # # = >.w.1.u 7X2X].].].(.(.c.%.MXZXMX8.F D.J.F.C.C.z.g 0.q.9.9.9.9.9.:.p * # # # # # # # # ",
"# # # # # # # # # # # # # # # # o # # # * d 1.z W 8XqX].].].(././.O.hXVXlX] u.I.H.F.C.C.! x 0.0.e.w.q.q.q.2.a + # # # # o * o * ",
"# # # # # # # # # # # # # # # # # # # # * * - j $.8X{.].].].(././.L.| lXbXK I.J.J.F.k.k.! g z 0.e.w.q.q.0.=.a o # # # # * o # # ",
"# # # o o # # # * # # # # # # # # # * o * * # & 0 n.M.Y.Y.Q././.^.^.c.| hX@.D.J.k.V i u 8 w - &.1.>.-.j p p @ + # # # # # # # # ",
"# # o X X o # # # # # # # # # # , * X . . o # # @ d  .J u q C I.^.^.^.L.{  .S x.g 4. .` i 9 - p p p p p % + * * # # # # # # # # ",
"o , #     # # # # # # # # # # # # o         X & l 4.4.[ H u 2 y ! x.x.m.x.t e k 5.4.] ` i u 4 @ + + + # # # # # # # # # # # # # ",
"# # # X # # # # # # # # # # # # # #         X g 6.|...' h i t $ @ @ + $ # @ - X.|.4.] ` i u 8 2 @ # # 1 # # # # # # # # # # # # ",
"# # # # # # # # # # # # # # # , # # o       + l 6.6.| ` H i u 2 @ # # # # # - ..6.%.} ` h u 8 2 @ # * o # # # # # # # # , # # # ",
"# # # # # # # # # # # # # # # o # # o X X o # = l ..} ' g u t 3 $ + # # # # # = g ] g q g 9 $ @ + o o # # # # # # # # # o # # # ",
"# # # # # # # # # # # # # # # # # # # # * # o * $ $ - 9 9 - - & O # # # # * # # # + + @ @ # + # # # # # # # # # # # # # o # # # ",
"# # # # # # # # # # # # # # o # # # # # # # # o # # o = # # = + @ # # # # # # # # # # # # o # # # # # # # o # # # # # # o * # # ",
"# # # # # # # # # # # # # # # # # # # # # # # * # # # # # # # # * # o * o 1 o * # # # # # # # # # # # # o # # # # # # # # # # # ",
"# # # # # # # # # # # # # # # # # # # # # # # # # # # # # * # # # # * o * o * o # # # # # # # # # # # # , # # # # # # # # # # # "
};
