/* XPM */
static char *result[] = {
/* columns rows colors chars-per-pixel */
"64 64 246 2 ",
"   c #151513",
".  c #181715",
"X  c #1A1816",
"o  c #1E1D1A",
"O  c #2F1A0F",
"+  c #251D16",
"@  c #2B1D15",
"#  c #201F1C",
"$  c #2A1D1A",
"%  c #331C17",
"&  c #1B201D",
"*  c #2F2014",
"=  c #22201D",
"-  c #2A231C",
";  c #33241A",
":  c #271E22",
">  c #361A2D",
",  c #3A1937",
"<  c #1F2825",
"1  c #1E302D",
"2  c #232323",
"3  c #2B2423",
"4  c #232A27",
"5  c #2B2A24",
"6  c #25242B",
"7  c #2A232B",
"8  c #212B2B",
"9  c #2C2D2B",
"0  c #352828",
"q  c #2A322D",
"w  c #3C342B",
"e  c #232C31",
"r  c #2C2838",
"t  c #372738",
"y  c #2B3333",
"u  c #293737",
"i  c #363635",
"p  c #3B3B3B",
"a  c #4B2710",
"s  c #593318",
"d  c #6C3A17",
"f  c #552E29",
"g  c #543523",
"h  c #4E3333",
"j  c #463B34",
"k  c #2D443C",
"l  c #76421C",
"z  c #474238",
"x  c #54443A",
"c  c #754B27",
"v  c #704C32",
"b  c #3C0C4C",
"n  c #1E364E",
"m  c #29294A",
"M  c #39264B",
"N  c #283848",
"B  c #353847",
"V  c #242958",
"C  c #3B2C55",
"Z  c #283A57",
"A  c #343658",
"S  c #19366E",
"D  c #2A3867",
"F  c #32346C",
"G  c #48004F",
"H  c #44194A",
"J  c #451958",
"K  c #4C3C43",
"L  c #543C48",
"P  c #4E2D54",
"I  c #4B0D70",
"U  c #4C2664",
"Y  c #522E6B",
"T  c #633061",
"R  c #1F4C54",
"E  c #2B4645",
"W  c #354545",
"Q  c #29495A",
"!  c #315653",
"~  c #30635C",
"^  c #174B75",
"/  c #2A4A67",
"(  c #364869",
")  c #27587A",
"_  c #38656B",
"`  c #2F6B72",
"'  c #434343",
"]  c #4B4648",
"[  c #554B4B",
"{  c #4D4853",
"}  c #4B5758",
"|  c #535353",
" . c #595659",
".. c #674B4B",
"X. c #675955",
"o. c #6A615A",
"O. c #796558",
"+. c #4C4E6D",
"@. c #5A5567",
"#. c #70566C",
"$. c #4E676B",
"%. c #4A7B7A",
"&. c #756C71",
"*. c #904A1A",
"=. c #A7541D",
"-. c #B25A1E",
";. c #86572B",
":. c #8C5630",
">. c #B85E21",
",. c #966534",
"<. c #B76627",
"1. c #A76B32",
"2. c #A9753D",
"3. c #C27330",
"4. c #956554",
"5. c #8E566D",
"6. c #8B706F",
"7. c #877578",
"8. c #34847B",
"9. c #BE8343",
"0. c #91847C",
"q. c #D28F47",
"w. c #CF904A",
"e. c #D89C53",
"r. c #DCA259",
"t. c #E1A760",
"y. c #1D2886",
"u. c #1C338C",
"i. c #173994",
"p. c #23328A",
"a. c #570388",
"s. c #521285",
"d. c #650A8F",
"f. c #680096",
"g. c #543292",
"h. c #6A3286",
"j. c #691FAB",
"k. c #5F35A7",
"l. c #6E2BAA",
"z. c #15508D",
"x. c #194699",
"c. c #175B99",
"v. c #245984",
"b. c #2D5594",
"n. c #196797",
"m. c #296889",
"M. c #236898",
"N. c #356F90",
"B. c #287899",
"V. c #0D53A6",
"C. c #0B5BAD",
"Z. c #165CA5",
"A. c #184DB7",
"S. c #0E5AB1",
"D. c #1354B4",
"F. c #2F52AA",
"G. c #1765AA",
"H. c #1B71A5",
"J. c #1566B4",
"K. c #1A6AB1",
"L. c #1C78BC",
"P. c #2867A5",
"I. c #2776A9",
"U. c #3564BD",
"Y. c #2B71B4",
"T. c #494F82",
"R. c #7B449B",
"E. c #655D9F",
"W. c #4A7791",
"Q. c #6D4CAD",
"!. c #4C6EAC",
"~. c #255AC5",
"^. c #1E7FC3",
"/. c #2A77C9",
"(. c #3371CE",
"). c #3774D7",
"_. c #3C76E1",
"`. c #4869CD",
"'. c #4667D7",
"]. c #4975DD",
"[. c #5071DE",
"{. c #7364C3",
"}. c #4B70E1",
"|. c #8F5F88",
" X c #91748E",
".X c #854CB0",
"XX c #935BC6",
"oX c #369393",
"OX c #308AA8",
"+X c #2987B6",
"@X c #29A0B0",
"#X c #48908E",
"$X c #778891",
"%X c #468CA2",
"&X c #518EB3",
"*X c #43B6B3",
"=X c #71ACAB",
"-X c #1F82C5",
";X c #1E86CB",
":X c #1F8CD5",
">X c #2386C5",
",X c #228BCB",
"<X c #2794C9",
"1X c #268AD6",
"2X c #3587DD",
"3X c #2494D9",
"4X c #259BDC",
"5X c #3692D0",
"6X c #2DA4C9",
"7X c #2DA7D8",
"8X c #2EAAE2",
"9X c #70AFD7",
"0X c #498CE5",
"qX c #51AEEF",
"wX c #30D4EA",
"eX c #5CD1F9",
"rX c #6BD6F7",
"tX c #44E2EE",
"yX c #64E4F6",
"uX c #968F8F",
"iX c #A28A86",
"pX c #9298B0",
"aX c #A394AB",
"sX c #8FA9AE",
"dX c #ABA7A7",
"fX c #B8ADA8",
"gX c #B7B6B8",
"hX c #C7B6B5",
"jX c #C8C3BE",
"kX c #C5BACD",
"lX c #95D3F3",
"zX c #8EEEF8",
"xX c #B6F4FB",
"cX c #C8C6C6",
"vX c #D4C4CF",
"bX c #D2D2D2",
"nX c #DBD9DA",
"mX c #E3D7DA",
"MX c #CCCCE2",
"NX c #E6DDE2",
"BX c #CEF5FD",
"VX c #E4E3E4",
"CX c #EBEAEB",
"ZX c #EDF2F3",
"AX c #F3F3F3",
"SX c #FAF9FA",
/* pixels */
"# # # # # # # # # # # # # # # # # # # # # # # # # # # # # # # # # # # # # # # # # # # # # # # # # # # # # # # # # o # # # # # # ",
"# # # # o # # # # # # # o # # # # # # # # # # # # # # # # # # # # # # # # # # # # # # # # # # # # # # # # # # # # # # # # # # # ",
"# = # # # # # # # # # # # # # # # # # # # # # # # # # # # # # # # # # # # # # # # # # # # # # o o = # # # # # # # # : # & # # # ",
"# o # # # < # # # # # # # # # # & # # # # # # # # # # # # # # # # # # # # # # # # # # # # # < o = # # # # # # # # # # # # # # # ",
"# # # # # # # # # # < # # = o 2 # # # # # # # # # # # # # # # # < # # # # # # # # # # # = o . o o < # # # # # # # # # # # # # # ",
"# # # # # # o = # # o # # # o o # # # # # # # # # # # # # # # # o # # # & # # # # # # = o       o # # # # # # # # # # # # # # # ",
"# # # # X   X o # # # # # # = o # # # # # # # # # # # o # o # # o = # # # # # # # # o = .       o # # # # # # # # # # # # # # # ",
"# # # o       o o # # # # = o = # # # # # # # # # # # < + + # # # o # # # # # # = o = # .       o # # # # # # # # # # # # # # # ",
"# # # # X   X # # # # # # # # # # # # # # # # # # # # = u - # # # # # # # # o # # # # # # o X o # # # o # # # # # # # # # # & # ",
"# # # # o o # # # # # # # # # o # # # # # # # # # # = u H.- # # # # # # # # = # # # # # # 2 = # # # # o # # # # # # # # # # # # ",
"# # # # # # # # # # # # o 2 # # # # # # # # # # # # = ^ G.= # # # # # # # # # # # # # # # o # # # # # < # # # # # # # # # # # # ",
"# # # # # # # # # # # # # o = # # # # # # # # # # # = ^ n.- # # # # # # # # # # # # # # # # # # # # # # # # # # # # # X   o # # ",
"# # # # # # # # # # = o # # # o # # # # # # # # # = = z.c.0 # # # # # # # # # # # # # # o # # # # # # # # # # # # # o     o # # ",
"# # # # # # # # # # # = # # o = # # # # # # # # # o < V.M.5 # # # # # # # # # # # # # # # # # # # # # # # # # # # # o o o # # # ",
"# # # # # # # # # # = o # # 2 o # # & # # # # # # o u C.P.5 # # # # # # # # < # # o # # # # # # # o # o o = o # # # # < # # # # ",
"# : # # o o < # # # o = # # # # o o # # # # # # # o ^ C.P.5 # # # # # # # # o o # < # # # # # # # 2 o = = o = # # # # # # # # # ",
"# # # # # # # # & # # # # # # X   . # # # # # # + m V.S.I.4 # # # # # # # # # # # # # # # # # # # # # # # # # # # # # # # # # # ",
"# # # # # # # # # # # # # = X       & # # # + = V x.C.S.Y.4 # = # # # # # # # # # # # # # # # # # # # # # # # # # # # # # # # # ",
"& # # # # # # # # # # # # # .       # # # + - V y.C.C.J.P.0 # # # # # # # # # # # # # # # # # # # # o = # # # # # # # # # = # < ",
"# # # # # # # # # # # # # # o . . X # # + - / y.y.V.C.J.U.> # o # # # # # # # # # # # # # # # # # # # # # # # # # # # # # o o o ",
"# # # # # # # # # # # # # # = # # # # o 5 ) p.u.i.V.C.S.F.r # o # # # # # # # # # # # # # # # # # # # # # # # # # # # # # # # # ",
"# # # # # # # # # # # # # # # # # # = 5 m.p.i.S.C.C.c.m.F - + = & # # # # # # # # # # # # # # # # # # # # # # # # # # # # # # # ",
"# # # # # # # # # # # # # # # # # # = N.F.y.V.D.D.C.;X4X+XN.y - # # # # # # # # # # # & # # # # # # # o # # # # # # # # # # # # ",
"& # # # # # # # # # # # # # # # o = E +Xy.i.C.D.A.~.2X2X4X7X+X/ 4 # # # # # # # # # # # # # # # # # # 2 # # # # # # # # # # # # ",
"# # # # # # # # # # # # # # # # # * ! c.y.V.A.A.A.(._._.2X3X8XqX` + # # # # # # # # # # # # # # = = o   o # # # # # # o # # # # ",
"# # # # # # # # # # # # # # # # # - _ r V V.V.A.D.).'.'.`.Y.N.$.P % = o + # # # # # # # # # # # = o       o : # # # # # # # # # ",
"# # # # # # # # # # # # # # & & o u Y.G b m n n D F U U U Y s..X.XP R / k w - X o = # # # # # # # .       o 2 # # # # # o = # # ",
"# # # # # # # # # # # # = = - u N ~ !.I I a.J , H U j.j.j.j.l..XXXh.m.;X>XY.#X .w = # # # # # # = .       2 t 7 < o # # = # # # ",
"# # # # # # # # # # X + 4 m.+X,XB.` k.I a.f.a.I J H M U s.j.j.l.XXR./ ;X>XL.>X9XsX@.- = # # o = # o o & 4  . X&.0 # # # o o = o ",
"# # # # # # # = + ! ~ k q OX4X4Xm.oXk.I a.f.f.a.s.s.I b H J J Y |..XA -X>X/.L.L.9XsXw 4 # # < o < 4 1 e p E.MXpX{ 0 : # 2 o # = ",
"# # # # # # # o E wXwX4X<X<X3X:Xn.! J G I f.d.f.a.a.s.s.I I b H , h N >X-X^.L.L.9XpX0 # # # o < 1 e 6 6 : {  X#.B i 9 # # # # # ",
"# # # # # # # o ~ tXwX4X3X4X4X3X:XL.P.) F F P M M J b M C m Z / ^ ) I.;X-X-XL.>X&X' + # # # 6 e 6 6 : : r : K t t t B r # # # # ",
"# # # # # # # # 5 oXwX8X4X3X4X4X4X3X:X3X:X;X;X~.U.(.U.U.(./.1X1X1X,X,X;X;X;XL.m.i # = = o = e 6 : 2 o r A 3 7 0 0 h m y # # # # ",
"# # # # # # # # & 4 ~ @X7X7X7X4X4X4X4X4X4X3X2X}.'.].).2X).).1X3X3X3X;X-XI.) u - o # = o # < 8 6 : 2 / %X%X%X%X&X{ : 6 1 = o o = ",
"# # # # # # # # & = + - E ` B.I.+X>X<X3X1X).'.'.'.).).)./.>X>XI.M.m.Q Z Q - = # # # # # # 8 8 : : : Y.rXrXeXyXzX$.# r u < # = o ",
"# # # # # # # # = & o o +   @ 4 ! W p j x h j @.@.@.@.] z j o.&.0.0.] D n.u # # # # # # < e 6 $ # 7 !.qXyXyXxXxXW.# U A 8 < # # ",
"# # # # # # # # = # = + $ r S E oX} [ s =.-.d 6.gXcXbX4.=.*. XhXiXo.t u.n.1 # # # # # # 2 8 % % % 6 `.9XrXBXZXxX#X2 6 6 e < # # ",
"# # # # # # # # = # - N S u.u.R #X .| z *.>.-.s [ X.o.d -.*.s [ _ j h S n.< # # # # # # 2 e : > , M 0XqXxXBXxXyX@X: : 6 8 o # # ",
"# # # # # # # # # # 5 OXu.y.S _ #X| | [ g =.<.1...b.j c :.:.c ] P | #.Z ) - # # # # # # 2 u 3 J H U 0XrXxXzXyXtX@X< : 6 < # # # ",
"# # # & # # # # # X + ` I.y.V oX%.| | | z d <.w.2.v c c 4.4.c ;.;...|.E R = # # # # # o : 1 0 I l.U W.lXrX6X@X` R 2 6 e 6 # # # ",
"# # & = # # # # # # o 5 OXx.m oX$.| | | | z *.<.2.;.v X.O.6.7.6.O.O. XL - # # # # # # # : < 6 H l.l.Y +.( 8 < p K : 6 e < # # o ",
"# # # # # # # # # # # + E OXZ 8.#X| | | } } g v &.uXgXbXnXVXVXCXCXjX XT + # # # o # # 6 r o 4 t T k.Q.T.H > $  XaXB e 8 o # # # ",
"# # # # # # # # # # = = = k E i 8.%. .| } %.&.dXcXbXbXcXuX6.6.vXVXVXfXa # # # # # # # # o + t k.+.+.&X&X+.t % { @.y 8 # # # # # ",
"# # # # # # # # # = o = - E v.p.N ~ $.| %.*X=XgXbXjXgXaX&.X.&.kXmXNXiX@ # # # # # # # # + > h.`.%Xu i i 0 3 6 e m 6 # # # # # # ",
"# # # # # # # # # # = - _ b.u.x.K.) ! } %.*XsXgXgXgXgXgXkXkXvXNXCXmXX.5 5 $ o # # # # = $ h.{.W.5 2 < 8 e r e r m : # # # # # # ",
"# # # # # # # # # # = ` P.p.Z.L./.>X` ' | %.=XdXdXbXnXnXnXCXAXSXCXhX_ OXQ Q - o # # = @ U Q.W.q + o # 2 > , : 2 = # # # # # # # ",
"# & # # # # # # o + ~ I.y.x.K.L.>X,X,XQ w | #XdXgXbXnXCXZXAXSXSXNX6.T.8X` b.) - # # @ b Q.W.k < 1 < # # : : # # # # # # # o # # ",
"# = # # # # # # o q OXu.u.Z.K.L.^.,X,XB.q w } $XgXgXbXCXAXAXSXAXkX#.`.2X6X( `.W + + b Q.!.u 1 k $X@.= # = o = # # # # # # # # # ",
"# # # # # # # # o q v.y.i.G.J.L.^.;X1X(.Q D w  .sXhXcXCXAXAXSXNX0.b.}.].4XoX( x s > g.!.i # 8 ! pX&.o o # # # # # # # # # # # # ",
"# # # # # # # # = = $ m p.F.J.L.-X,X1X)./ v.F j &.gXcXVXAXAXCXhXX.`.].[.5X6Xz 1.h h.!.u + # 1 1 B 9 o & # # # # # # # # # # # # ",
"# # # # # # # # # + s l x B / v.M.B.M./ Z Z.F.A z uXcXnXAXAXNX7.b.[.[.[.].8X_ g J +.k # # # # < X   X 2 # # # # # # # # = o # # ",
"# # # # # # # # # * *.3.3.1.,.c v v r ^ c.G.G.F.P | cXnXCXCXhX} (.`.].[.}.7XOXt v 2.s o # # # #       X # # # # # # # # o o o < ",
"# # # # # # # # + a >.q.w.q.q.e.e.w.z z.Z.G.G.K.F.P 0.mXVXmX&.b.).).[.[.[.2X7Xi 2.r.1.$ # # # # X   X o 2 o # # # # # # = o # # ",
"# # # # # # # # o s 3.e.r.e.e.t.w.w.v z.Z.Z.G.K.Y.p.[ jXNXfX( (.(.).].[.[.0X8X} :.2.g o # # # # o o = o # # # # # # # # o 2 o # ",
"# # # & # # # # + s <.9.e.e.r.t.w.c j ^ z.z.Z.K.K.F.P cXcX .P.(.(.).[.[.[.0X8X_ l ; # # # # # # 2 # # = # # # # # # # # # # = # ",
"# # # .   # # # # @ a s l ;.,.2.=.; 6 9 i j Q z.K.F.#.fX .b./.(.(.(.!.T.T.N.N.u + # # # # # # # o o # # # # # # # # # # # # # # ",
"# # o   . # # # # # X * a a a a a @ 0 p ' ..5.h z.( [ } G./././.U.Q 0 i L ..f + # # o # # # # # o 2 # # # # # # # # # # # # < o ",
"# # # o o # # # # # # o + = + O @ 4 i p ' { 5.6.K r y v.M.v.v./ y 3 p ' [ 5.5.h $ o = # # # # # # o # # # # # # # # # # # # # o ",
"# # # # # # # # # # # # # # # + 3 9 i p ' { 6. Xo.* + - $ + + @ 3 9 p z ' #. X7.j + # # # # # # # # # # # # # # # # # # # # # # ",
"# # # # # # # # # # # # # # + @ 3 9 i p ' { &.7.X.; # # # # + @ 3 i i B ' X.7.7.x + # # # # # # # # # # # # # o # # # # # # # # ",
"# # # # & # # # # # # # # # # + @ ; 0 w j j x j - # = o # # + - 2 i i z ] | X.x - # # # # o # # # o = o # # # # # # # # # = o = ",
"# # # # # # # # # # # # # # # # # # + = + + + o # # # = # # + O - - 0 0 0 ; @ + # # # # # < # # # = # # # # # # # # # # # o 2 o ",
"# # & # # # # # # # # # # # # # # # # # # # # # # # # # # # # + + # + = + # # # # # # # # # # # # # # # # # # # # # # # # o o # ",
"# # # # # # # # # # # # # # # # # # # # # # # # # # # # # # # # # # o = o # # # # # # # # # # # # # # # # # # # o < # # # = o = "
};
