/* XPM */
static char *result[] = {
/* columns rows colors chars-per-pixel */
"64 64 256 2 ",
"   c #151513",
".  c #181715",
"X  c #191816",
"o  c #1E1D1A",
"O  c #341C0F",
"+  c #251C16",
"@  c #2A1C15",
"#  c #201F1C",
"$  c #2C1B19",
"%  c #351C18",
"&  c #292017",
"*  c #21211D",
"=  c #2A221B",
"-  c #34231A",
";  c #3A2618",
":  c #251F22",
">  c #2B1E27",
",  c #35192A",
"<  c #391A35",
"1  c #321139",
"2  c #1F2827",
"3  c #1E312E",
"4  c #242424",
"5  c #2B2A24",
"6  c #26242B",
"7  c #272828",
"8  c #372928",
"9  c #2C322B",
"0  c #35342C",
"q  c #2C2537",
"w  c #222D32",
"e  c #372936",
"r  c #2B3838",
"t  c #333334",
"y  c #343639",
"u  c #3B3B3B",
"i  c #401F19",
"p  c #472815",
"a  c #542D13",
"s  c #593319",
"d  c #693719",
"f  c #793D17",
"g  c #401B39",
"h  c #483429",
"j  c #583A25",
"k  c #452834",
"l  c #463835",
"z  c #543738",
"x  c #633E23",
"c  c #324339",
"v  c #7C4119",
"b  c #4A423A",
"n  c #57473A",
"m  c #6A4525",
"M  c #774B27",
"N  c #7D5229",
"B  c #724D35",
"V  c #3D1A46",
"C  c #371154",
"Z  c #1C3553",
"A  c #392846",
"S  c #283648",
"D  c #373745",
"F  c #2E2E50",
"G  c #383654",
"H  c #2F1C73",
"J  c #1C2E72",
"K  c #2B2E71",
"L  c #441B49",
"P  c #4D0054",
"I  c #441956",
"U  c #463847",
"Y  c #4F344E",
"T  c #492856",
"R  c #46006A",
"E  c #4C1172",
"W  c #4E2A6D",
"Q  c #622D7A",
"!  c #2B484A",
"~  c #374647",
"^  c #2F534C",
"/  c #294A59",
"(  c #374656",
")  c #2D5759",
"_  c #335755",
"`  c #194972",
"'  c #294C67",
"]  c #384D6F",
"[  c #29546A",
"{  c #2B4B76",
"}  c #285B76",
"|  c #216064",
" . c #326D71",
".. c #434343",
"X. c #464449",
"o. c #4B4B4A",
"O. c #574C48",
"+. c #514D55",
"@. c #535353",
"#. c #555959",
"$. c #6D534E",
"%. c #695B56",
"&. c #685E63",
"*. c #6D5669",
"=. c #506F73",
"-. c #6D6C6F",
";. c #776868",
":. c #8C471A",
">. c #974C1B",
",. c #A8591B",
"<. c #86582C",
"1. c #905A2A",
"2. c #AF5920",
"3. c #B75D21",
"4. c #996633",
"5. c #B37034",
"6. c #C57734",
"7. c #8D5071",
"8. c #886B73",
"9. c #897975",
"0. c #CB833E",
"q. c #92867F",
"w. c #C98B46",
"e. c #CE924B",
"r. c #D5964D",
"t. c #D99D53",
"y. c #DB9D61",
"u. c #DEA865",
"i. c #1E2886",
"p. c #19348A",
"a. c #193A92",
"s. c #252E88",
"d. c #500B86",
"f. c #680096",
"g. c #680F94",
"h. c #552C8E",
"j. c #682D92",
"k. c #691FAB",
"l. c #4F3DAB",
"z. c #6E33AC",
"x. c #13498A",
"c. c #185587",
"v. c #0E4F97",
"b. c #144A96",
"n. c #14579B",
"m. c #2E5590",
"M. c #1A7291",
"N. c #266589",
"B. c #30748B",
"V. c #266897",
"C. c #2A7597",
"Z. c #0C57AA",
"A. c #0B5BAE",
"S. c #145CA2",
"D. c #1B58A8",
"F. c #154EB2",
"G. c #0C5AB1",
"H. c #1454B6",
"J. c #2E56A8",
"K. c #1661A6",
"L. c #1664A9",
"P. c #1867AD",
"I. c #1E72AA",
"U. c #1663B2",
"Y. c #1A6BB2",
"T. c #1B73B8",
"R. c #1D7BBE",
"E. c #2875A7",
"W. c #2C66B1",
"Q. c #2678B7",
"!. c #79498C",
"~. c #457490",
"^. c #7A6C8A",
"/. c #4659AA",
"(. c #5655B2",
"). c #5C57B1",
"_. c #5173B4",
"`. c #1C7DC2",
"'. c #316DCA",
"]. c #2B77C5",
"[. c #3575D8",
"{. c #3F6FE1",
"}. c #3B78E1",
"|. c #4D71D0",
" X c #4A74DC",
".X c #4D6EE2",
"XX c #4673E2",
"oX c #9C5F86",
"OX c #90728B",
"+X c #854BB6",
"@X c #8235C5",
"#X c #9360C7",
"$X c #328D8E",
"%X c #2F8EAE",
"&X c #2483BB",
"*X c #36B0B4",
"=X c #4B898D",
"-X c #5C8BA0",
";X c #4BABA9",
":X c #79A6AE",
">X c #1E82C5",
",X c #1F86CA",
"<X c #1F88CC",
"1X c #1C8AD5",
"2X c #2286C6",
"3X c #218ACD",
"4X c #3593CC",
"5X c #238CD3",
"6X c #2988D7",
"7X c #3784DC",
"8X c #2695D8",
"9X c #259ADC",
"0X c #32A8CF",
"qX c #2AA4DA",
"wX c #2994E0",
"eX c #2DAEE3",
"rX c #498BCD",
"tX c #5DA7DE",
"yX c #58B0F3",
"uX c #33CACD",
"iX c #2FD6E8",
"pX c #32E8F7",
"aX c #57D2F5",
"sX c #6AD8F4",
"dX c #6BE9F6",
"fX c #938F93",
"gX c #AD8C89",
"hX c #A69896",
"jX c #AFA09F",
"kX c #9892AF",
"lX c #A596B4",
"zX c #96AAB3",
"xX c #ABA8A7",
"cX c #B2ACB1",
"vX c #B7B6B7",
"bX c #C3B8B5",
"nX c #83B9DB",
"mX c #B7B1C6",
"MX c #CDBDC8",
"NX c #9CCDEB",
"BX c #93EDF6",
"VX c #B2EFF9",
"CX c #C8C8C8",
"ZX c #D4C8CF",
"AX c #D4D4D4",
"SX c #DBDADC",
"DX c #E4D7DC",
"FX c #DAD8E4",
"GX c #E4DCE0",
"HX c #CDF4FC",
"JX c #E5E3E4",
"KX c #EAE5E8",
"LX c #ECEBEC",
"PX c #EAF6F7",
"IX c #F4F4F4",
"UX c gray98",
/* pixels */
"# # # # # # # o * # # # # # o 4 # # # # # * * * o # # # o * * o & o * * o o * o # # # # # # # # # # # # * o * o * # # # # # * o ",
"# # # # # # # # # # # * # # o o * o # # * o o # * # o # * o * & & o o * * * # * # # # # # # # # # # # # # # # # # # # * # # * * ",
"* * # # # # # # # # * o * o * # # # # # o # # # * o 4 o o o 2 c.r # o o o * # # # # # # # # # # # # # # * # # # # # * o * # o # ",
"o o # # * o # # # # o * # * * o * o * # * # # # * # * o o . ! 1Xr o * * * # # # # # # # # # * * # # # # o # # # # # o * o # # # ",
"* # # # o * # # # * # * # # o * o o * * # # * * o * # # # + ` `.r # o * o # # # # # # # # o . X # # # # # # * # # o * * * # # # ",
"# # # # * o # # # o # o # # o * 4 o # o # * o o # # * o * + ` T.y + * * * # # # # # # # o .   . # # # # # # o * # * o o * o # # ",
"# * # # X   X # # # # * o # * # # # * o # # # # # o * * # 4 v.L.~ # # o # * # o # # # * .       o * # # # # # * * * * * # # * * ",
"# o * o       o # # # # * # # # # # # * * o # # # # # # + w Z.U.~ + # # # o * * # # # # .     . o # # # # # # o * o # # # o * o ",
"# # # # X   X # # * 4 o o o * * # # # # # # # # # # # # + Z G.Y.( + o # # # # # # # # # # o X o # # # # # # # # o # # # # o * o ",
"# # # # o o * # * o o # * # * o # # # o # * # # # # # # + ` G.T.( # # # # # # # # # # # # * * # # # # # o # # # # # # o * * # # ",
"# o # # # # * # o # # # * o # # # # # # # # # # # # # + 6 v.A.Q./ + # # # # # # * * # # # # # # # # # # * * # # # * o * * # # # ",
"# * # # # # o * * # # # * # # # # # # # # # o * # * + 6 p.A.A.&X' + o * # # # # * # # * # # # # # * # # * * * o # * * .   o # # ",
"# o * # # # # * # # # # o # # # # # # # # # # # * @ q i.A.A.A.].' @ # # # # # # * * * * o * # * u Y X.e 8 5 > $ # # o     o o # ",
"# * o # # * # o # # # * * # o # # # # # # # # * + S i.b.A.A.U.].] + # # # # # # * o o * * o # 9 *.lXkX*.y y t G S # # o o * o * ",
"# # * # * o * o # # # o # # * # # # # # # * # $ Z i.H a.A.A.A.'.K + # # # # # # o * * o o # # y ^.FXmX^.A e y D S 6 2 # # # # # ",
"# # # # * o # o 4 o # # # # * # # # # # # + 5 ] a.i.i.a.Z.A.U.'.h.= # # # # # # * o o * # # 2 S ~.OXOXY 8 e e e 6 6 3 2 # # # # ",
"# * o o * * * o # # # # # # # X   . # # + 5  .b.i.F.Z.Z.Z.v.c.m.K + # # # # # # # # # # o 2 w w , A e k 8 8 e 7 : A G 3 3 o # # ",
"* o 4 o # o # * # # # # # # X       o o 9 C.J.i.v.G.Z.Z.A.U.2XC.( = + : # # # # # # o o 2 w 6 4 : : # > t =X^.2 : G W q w 2 # # ",
"o # # # * * # # # # # # # # .       # & B.Q.i.i.G.H.F.F.G.1X9X9X0X%X( 5 + # # # # # # 2 w w 6 : q W 6 _ tXdXVX$X: : > > w w 2 o ",
"* # # # o o # # # # # # # # o . . X o c 0Xs.i.v.H.F.H.F.[.}.7X9X9XwXqX%X! $ # * # # o 2 w > : : 6 G =XaXaXdXHXBX .+ : : 6 w 2 o ",
"o * # # * # # # # # # # # # # # * * + _ Q.J p.G.G.H.H.H.[.XX.X[.wX8XqXyX4Xr + * # # # 2 w > : : [ tXsXsXaXVXPXVXaX| # 4 : w w # ",
"* # # # # # * o # # # # # # # # # * & _ y C p.G.G.H.H.'.}.{..X.X|.&XM.=.+.z @ + + # o w 6 : : # } yXyXsXdXHXUXVXdXuX! * : 6 w # ",
"o * # # # * # # # # # # # # # # # # y 0XC 1 q Z ` J K ] m.W G W T T W Q +Xj.e ' / y 0 5 > $ # # w rXtXyXsXHXHXBXdXiX} * 4 6 w 2 ",
"# # * o # o * # # # # # o * * X @ @ _ 4XR R d.C < , g I W h.j.g.k.k.z.+X#X+XT N.3X2X&X~.=.O.8 + * [ yXyXaXHXVXsXiX| 7 y e 6 w o ",
"# # # o # # # # # # * + o 4 r ) N.)  .|.E P f.f.d.E I g I Q j.k.k.k.k.z.+X#Xj.[ <X>X>X>X4XtXzX-.; 4 _.yXaXVXBXiX$X  O.lXOXq 2 # ",
"# # o 4 # # # # & X X O ! &X8X9X9X} $X(.E R f.f.f.d.d.E C C 1 L W g.j.k.@X#X!.~ >X,X>X`.Q.&XnXNX-X, W tXyXNXsXB.2 . +.lX^.w 2 o ",
"o * o * # # o & ^ | ^ r r $X9X9X5X/ *Xl.E R f.f.f.f.d.d.d.d.E H L < L L W !.!.q &X,X2X`.Q.T.4XnXcXh g m._.:X~.A > $ > e D S 6 o ",
"* * o # o o & _ iXpXeX3X2X2X9X1X1X[ ^ T P P f.f.f.f.f.d.d.d.E d.E E R V i , ; S &X,X>X`.`.R.4XnX-.L Q Q W T Y U G 8 O > w G 6 # ",
"# # # o * # @ $XpXpXqXqX9X9X9X9X5X1XT.V.} / F F A A I L L V V A A A S G { N.E.&X<X2X,X`.R.].rX=., E @X+Xz.z._.rX~.8 4 w w 2 o o ",
"# # # # * # + ^ uXpXeX9X9X9X9X9X9X8X8X1X1X1X1X`.`.T.W.J.J.W.W.W.].].6X6X6X5X5X3X2X,X,X>XR.C.~ 5 * g E j.j.).tX=., 6 q q > # o : ",
"# * o # o # # + ^ *XiXeXqX9X9X9X9X9X9X9X8X9X8X8X6X}.{.{.XX}.[.7X[.6X6X6X5X3X3X5X1X,XT.N.! 4 + 7 3 7 8 Y Y ~ D 7 7 w A 1 , # # # ",
"o * * # * # # o O = ! $X*X9X9X9X9XwX9X9X9X9X9XwXXXXXXXXXXX}.}.}.}.6X5X8X5X&X&XV.[ / ! & + o o * * * A z.|. .5 3 7 4 > > > # # # ",
"# # # # # # # # # # + + = r / [ } B.C.E.E.E.W./.(././.J./.m.J.V.N.}  .) +.@.#.b V ` M.7 # # 6 A * + L z.rXc & # # # # # # # # # ",
"# # # # # # * # # # # # * + + 2 9  .l 0 ; d f m s n ;.;.;.9.;.s v s 9.bXbXvXxXU K b.M.6 # # : : # + T z.rX9 # o # # # # # # # # ",
"# # # # # # # # # # # @ = F J ` ) ;X@.@.h :.3.3.>.B xXvXAXLXgXf 3.:.$.jX9.$.j % K b.M.= # # # # o @ W #X-X* 4 9 t 2 # o # # # # ",
"# # # # # # # # # + t Z J i.a.Z $X$X@.#.o.p >.3.2.f s n O.%.z :.2.,.s z _ ~.n z F v.M.* # # # # # @ Q ).~.4 3 =.kX&.2 o # # # # ",
"# # # # # # # # # @ [ &Xs.i.i.S $X=XO.@.@.b s 2.3.5.v =.V.#.d f <.M N n W ..O.8.e x.} & # # # # # $ Q ). .5 3 =.mX-.4 # # # # # ",
"# * # # # # # # # # 9 %Xn.i.J S ;X=.@.@.@.@.h f 3.w.w.B b b 4.M gXgXm 4.<.<.$.OXY ` S o # # # # # , h._.^ 7 3 c / r # # # # # # ",
"* o # # # # # # # # & ^ 4Xx.H ! uX#.@.@.@.@.o.s >.3.r.e.5.N m s f $.B B $.m O.OX7.S 5 # # # # # + , h._.y * 3 3 3 2 # # * o # # ",
"# # # # # # # # # * * & B.Q.Z ^ uX#.@.@.@.@.#.o.s >.M B $.;.fXvXCXZXAXDXAXbXlXfXoX% + # # # # # X , j._.5 * * * o o # # # * # # ",
"# # # # # * * o # # + @ & ^ t t $X;X#.@.@.@.#.=.n m 9.xXvXAXAXSXSXZXCXDXKXLXKXcX*.- 5 5 - = + o + < z.B.& o # # o o # # # # # # ",
"# # # # # o # * # & r  .B.B.m.m.c _ =X@.@.@.=.$X=.hXCXAXAXAXCXzX*.z z hXFXGXGXZXO.{ Q.Q.W.V.( O O L (.=.+ # # # o 2 # # o # # # ",
"# o * # o * # & ! $X%XJ.a.s.a.a.` S _ =X#.#.=X*X-XxXAXAXvXvXvXfXOX^.8.mXZXGXDXbXu 2X7X6X7X[.m.B <.L )._ + # # # o # # # # # # # ",
"# * o * * * =  .%XJ.p.p.p.b.W.Y.Q.T.! c =.#.=.uX:XxXvXxXvXvXvXvXmXMXMXFXLXKXDX9.t } 3X3X5X6Xm.<.<.I Y B s - # # # # # # # # # # ",
"# # # # * * & [ p.i.i.b.K.Y.T.>X2X3XN.> 0 _ #.=X;XxXxXvXAXAXAXSXSXGXLXUXUXKXbX$.%X! N.<X<X<X( 5.B I B r.r.N # # * o # # # # # # ",
"* # # # o * o > i.s.b.K.P.T.R.>X,X3XV.S / r b @.=X:XxXxXAXJXJXLXLXIXUXUXUXGXgX] 9X%X! I.>XI.b w.j I <.t.t.N o # o * # # # # # # ",
"o * # # # + p a S a.D.L.Y.T.`.].3X6XE.S S.c.r b #.=XzXvXCXCXLXLXLXIXUXUXKXDX$./.7XqXB./ T./ <.<.i g M 1.<.; o # * # # # o # o 4 ",
"# # # o + a ,.3.m F b.P.Y.R.`.>X3X6XE.S n.L.c.y b _ 9.vXvXCXSXLXIXUXUXIXGXjXY  XXXwX0X_ ' j 1.>.p B t.w.N # * # # # # # * * o o ",
"# # o + p ,.6.0.6.v 0 c.Q.R.>X<X1X[.V.S K.K.K.n.A l #.hXvXCXAXPXIXIXUXKXDX$.m. X.X7XeX$X; >.3.>.a N e.e.m X o # # # # # # # # # ",
"# # & O ,.6.e.r.0.0.4.j ' T.<X<X6X}.m.Z n.S.K.L.J.A 0 -.xXCXCXLXIXUXLXDXgX(  X X X.X9XeX~ :.3.:.5.5.N m & * * # # # # # # # # # ",
"* * * a 3.w.t.t.r.e.0.0.N b [ E.W.|./ ` S.S.K.L.D.J.A l fXCXCXJXIXIXKXMXO.J. X X.X.X7XeX$X; d d e.u.5.5 # # * o # # # # # # # # ",
"o o * O :.4.t.t.r.t.t.t.t.w.s 6 S S S x.n.S.K.K.L.P.J.k n cXAXSXIXLXDX8.{ [. X X|..X XqX0X9 @ ; x 4.j # # # # # # # # # # # # # ",
"* o # + O a 1.r.y.y.u.u.r.t.n Z J x.v.v.n.S.S.K.L.P.W.l.q %.AXSXKXGXbX..'.'. X X.X.X.XrXeX_ & + V D + o # # # # # # # # # # # # ",
"* * # # @ p a f 5.t.u.r.5.e.k J p.x.v.v.n.S.S.K.L.P.P.W.l.L q.SXGXDX$.m.[.'.[. X.X.X.XrXeXB.& $ W D + # # # # # # # # # # # # # ",
"o # # * # @ p a a <.6.>.x x , J p.v.v.v.n.n.S.K.L.L.Y.Y.J.h.O.SXJXhXX.'.'.'.'._./.(.|.7XeX*X$ @ W 0 # # # # # # # # # # # # # # ",
"* # o     # + + & a s p F Z J H Z Z J x.v.S.n.S.L.L.P.Y.W.K 9.JXhXX.V.[.'.m.D 0 h z Y ] %X%X= % H - # # # # # # # # # # # # # # ",
"# * o   X # # # * + + + 5 q > 5 8 l z k F x.n.S.D.L.P.Y.W.Y hX9.D W.'.W.G 5 8 u U O.7.7.h 5 @ > G & # # # # * o # # # # # # # # ",
"# o # o o # # # # # o * @ @ 8 u ..X.*.7.$.y x.S.L.L.P.U.D.l O.' T.].Q.S = 7 y u ..o.%.oX8.h @ , V # * # # # o * # # # # # # # # ",
"# # # # # # # # # # # @ @ 5 t y ~ ..+.7.oX;.0 ' ` c.c.V.' % / n.V.N./ $ 6 9 y u ..X.*.8.9.;.p , V # # # # * # * # # # # o * * * ",
"# # # # # # # # # # # @ 6 9 t y l X.O.;.OX9.O.O & = & 4 & + = = # + @ : 7 0 u u ..X.@.8.OX-.b < , # o * o * # # # # # # * o * * ",
"# # # # # # # # # # + = 5 9 t u ....o.;.OX9.%.- 4 o * * # # # # # # @ & 5 t y u b o.%.;.;.n - % @ # # # * o * # # # # o * o * * ",
"# # # # # # # # # # + @ $ 9 t u ..o.o.&.&.O.; + o o * o # # # # # * + @ @ - ; 8 0 8 h 8 - @ # # + # # # * # o # # # # * o * * o ",
"# # # # # # # # # # # + @ @ % - - ; ; ; - & # # # # # # # # # # # # # # # # * + + + # o o # # # # # # # # # * o # # # # * o o * ",
"o # # # # * # # # # # # # # # # # # 2 o * o # # # # * o # # # # # # # # # # # * # # # # # # # # # # # # # # o * * # # # o * * o "
};
