/* XPM */
static char *result[] = {
/* columns rows colors chars-per-pixel */
"64 64 255 2 ",
"   c #151513",
".  c #181715",
"X  c #191816",
"o  c #1E1D1A",
"O  c #341C0F",
"+  c #251C16",
"@  c #2A1C15",
"#  c #201F1C",
"$  c #2C1B19",
"%  c #351C18",
"&  c #292017",
"*  c #21211D",
"=  c #2A221B",
"-  c #34231A",
";  c #3A2618",
":  c #251F22",
">  c #2B1E27",
",  c #35192A",
"<  c #391A35",
"1  c #321139",
"2  c #1F2827",
"3  c #1E312E",
"4  c #242424",
"5  c #2B2A24",
"6  c #26242B",
"7  c #272828",
"8  c #372928",
"9  c #2C322B",
"0  c #35342C",
"q  c #2C2537",
"w  c #222D32",
"e  c #372936",
"r  c #2B3838",
"t  c #333334",
"y  c #343639",
"u  c #3B3B3B",
"i  c #401F19",
"p  c #472815",
"a  c #542D13",
"s  c #593319",
"d  c #693719",
"f  c #793D17",
"g  c #401B39",
"h  c #483429",
"j  c #583A25",
"k  c #452834",
"l  c #463835",
"z  c #543738",
"x  c #633E23",
"c  c #324339",
"v  c #7C4119",
"b  c #4A423A",
"n  c #57473A",
"m  c #6A4525",
"M  c #774B27",
"N  c #7D5229",
"B  c #724D35",
"V  c #3D1A46",
"C  c #371154",
"Z  c #1C3553",
"A  c #392846",
"S  c #283648",
"D  c #373745",
"F  c #2E2E50",
"G  c #383654",
"H  c #2F1C73",
"J  c #1C2E72",
"K  c #2B2E71",
"L  c #441B49",
"P  c #4D0054",
"I  c #441956",
"U  c #463847",
"Y  c #4F344E",
"T  c #492856",
"R  c #46006A",
"E  c #4C1172",
"W  c #4E2A6D",
"Q  c #622D7A",
"!  c #2B484A",
"~  c #374647",
"^  c #2F534C",
"/  c #294A59",
"(  c #374656",
")  c #2D5759",
"_  c #335755",
"`  c #194972",
"'  c #294C67",
"]  c #384D6F",
"[  c #29546A",
"{  c #2B4B76",
"}  c #285B76",
"|  c #216064",
" . c #326D71",
".. c #434343",
"X. c #464449",
"o. c #4B4B4A",
"O. c #574C48",
"+. c #514D55",
"@. c #535353",
"#. c #555959",
"$. c #6D534E",
"%. c #695B56",
"&. c #685E63",
"*. c #6D5669",
"=. c #506F73",
"-. c #6D6C6F",
";. c #776868",
":. c #8C471A",
">. c #974C1B",
",. c #A8591B",
"<. c #86582C",
"1. c #905A2A",
"2. c #AF5920",
"3. c #B75D21",
"4. c #996633",
"5. c #B37034",
"6. c #C57734",
"7. c #8D5071",
"8. c #886B73",
"9. c #897975",
"0. c #CB833E",
"q. c #92867F",
"w. c #C98B46",
"e. c #CE924B",
"r. c #D5964D",
"t. c #D99D53",
"y. c #DB9D61",
"u. c #DEA865",
"i. c #1E2886",
"p. c #19348A",
"a. c #193A92",
"s. c #252E88",
"d. c #500B86",
"f. c #680096",
"g. c #680F94",
"h. c #552C8E",
"j. c #682D92",
"k. c #691FAB",
"l. c #4F3DAB",
"z. c #6E33AC",
"x. c #13498A",
"c. c #185587",
"v. c #0E4F97",
"b. c #144A96",
"n. c #14579B",
"m. c #2E5590",
"M. c #1A7291",
"N. c #266589",
"B. c #30748B",
"V. c #266897",
"C. c #2A7597",
"Z. c #0C57AA",
"A. c #0B5BAE",
"S. c #145CA2",
"D. c #1B58A8",
"F. c #154EB2",
"G. c #0C5AB1",
"H. c #1454B6",
"J. c #2E56A8",
"K. c #1661A6",
"L. c #1664A9",
"P. c #1867AD",
"I. c #1E72AA",
"U. c #1663B2",
"Y. c #1A6BB2",
"T. c #1B73B8",
"R. c #1D7BBE",
"E. c #2875A7",
"W. c #2C66B1",
"Q. c #2678B7",
"!. c #79498C",
"~. c #457490",
"^. c #7A6C8A",
"/. c #4659AA",
"(. c #5C57B1",
"). c #5173B4",
"_. c #1C7DC2",
"`. c #316DCA",
"'. c #2B77C5",
"]. c #3575D8",
"[. c #3F6FE1",
"{. c #3B78E1",
"}. c #4D71D0",
"|. c #4A74DC",
" X c #4D6EE2",
".X c #4673E2",
"XX c #9C5F86",
"oX c #90728B",
"OX c #854BB6",
"+X c #8235C5",
"@X c #9360C7",
"#X c #328D8E",
"$X c #2F8EAE",
"%X c #2483BB",
"&X c #36B0B4",
"*X c #4B898D",
"=X c #5C8BA0",
"-X c #4BABA9",
";X c #79A6AE",
":X c #1E82C5",
">X c #1F86CA",
",X c #1F88CC",
"<X c #1C8AD5",
"1X c #2286C6",
"2X c #218ACD",
"3X c #3593CC",
"4X c #238CD3",
"5X c #2988D7",
"6X c #3784DC",
"7X c #2695D8",
"8X c #259ADC",
"9X c #32A8CF",
"0X c #2AA4DA",
"qX c #2994E0",
"wX c #2DAEE3",
"eX c #498BCD",
"rX c #5DA7DE",
"tX c #58B0F3",
"yX c #33CACD",
"uX c #2FD6E8",
"iX c #32E8F7",
"pX c #57D2F5",
"aX c #6AD8F4",
"sX c #6BE9F6",
"dX c #938F93",
"fX c #AD8C89",
"gX c #A69896",
"hX c #AFA09F",
"jX c #9892AF",
"kX c #A596B4",
"lX c #96AAB3",
"zX c #ABA8A7",
"xX c #B2ACB1",
"cX c #B7B6B7",
"vX c #C3B8B5",
"bX c #83B9DB",
"nX c #B7B1C6",
"mX c #CDBDC8",
"MX c #9CCDEB",
"NX c #93EDF6",
"BX c #B2EFF9",
"VX c #C8C8C8",
"CX c #D4C8CF",
"ZX c #D4D4D4",
"AX c #DBDADC",
"SX c #E4D7DC",
"DX c #DAD8E4",
"FX c #E4DCE0",
"GX c #CDF4FC",
"HX c #E5E3E4",
"JX c #EAE5E8",
"KX c #ECEBEC",
"LX c #EAF6F7",
"PX c #F4F4F4",
"IX c gray98",
/* pixels */
"# # # # # # # # o * * # o o * # # o * # # # # # o o * # o * o + * # # # # # # # # # # * # o o * # # # # # # # o 4 o # o * * # # ",
"# # # # * o # # o * o o * * # # # # # # # # # # * * # # * o # @ & + # # # # # # # * * o # * * o # # 4 o # * # # * o # # * o # # ",
"* * # # o * # # * # # 4 # # # # # # # * # * o # * o # # * * o r } = * # # # # # # o # * # # # * * * o o * o # # # * o # * # # # ",
"o o # # * # # # # # # o * # * o * * # o * o * # # * * o o * o r <XZ * # # # # # # # # o # # # # o o # * o * # # o * * # o # * o ",
"* # # # o * # # # # # # o # o * X X o * o * 4 o # # o * # # * r :X` @ # # # # # * o * * * : # # * # # # o * # # * * * o * # o * ",
"# # # # # # # * # * o # * # * o     . o * o o # # # # # # # # D T.` + # # # # # o * o * o o # # # # # # # # # # o o o o # # # # ",
"# * # * # * o o # * # # # # # o       X * * # # o # # * # * # D A.v.* # # # # # o * o * * o # # # * * # # o * * * o . . * o # # ",
"# o * o # # * # * o # # # # * o       X # # # # * # * o # # + ~ U.A.3 # # # # # * o * * o * # # # o o * # * # o o     . o * # # ",
"# # # # # # # # # o # # # # # * o o o * o * * # # * # # # o # ( T.A.Z X # # # # # o * o # # # # # # o * * o o * o . . . o # # # ",
"# # # # # # # # # * # # # # * o o : o o # # o * # # # # # o + ( T.A.` + o o # # # * o * # # # # # # * * o o 4 o # o o # # # # # ",
"# # # # # # # # # o * # o # # # # o # # # # # * # o o # # # + ( T.A.v.4 @ o o * o * * * # # # # # o # o * # # * # # # # # # # # ",
"# # o   . # # # # : * * * * * # # # # # # # # o o 4 # # # # + ' Q.A.A.x.q + * * * o * o # # # # * * # # # # # # # # # # # # # # ",
"# # o     o # + # 6 > 8 e U U l # # # # # * # # o o * # # # + ' '.A.A.A.p.q + o * o # # # # # # o # # # # # # # # # * * # # o 4 ",
"# # # o o # # S G t t t &.jXkX*.9 * # # # o # # * # # # # # + ] '.U.A.A.a.J F : # * # # # # # # * # # # * o # # # * o o # # o o ",
"# # # # * 2 7 S D e y U !.nXDX^.y * o # * o * # o # # # o * + ] '.U.A.A.a.i.i.G & # # # # # # # o * o * * # # # # # # # * o * # ",
"# # # # 2 w 6 6 e e e y W oXoX=.r 2 4 # # * o * * # # # * o @ h.`.U.A.A.a.i.i.s.[ = + # # # # # * # # # o * # # * o # # # * * o ",
"# # 2 2 w G S : 6 8 e , e k D 6 6 w 2 * * o * o o * * # # # @ K m.c.Z.G.Z.Z.Z.i.m.N.= + # *     o o o # # # # # # # o * # # # # ",
"# # 2 w q W G # 7 *X=Xt > # > > 6 6 w 2 * * o * # # o * # + 5 ( C.%XU.G.Z.G.G.a.i.D.#X9 + #       X 4 # # # # # o # # # # # # # ",
"# 2 3 6 > > > : =.BXsXrX) 6 W q 4 4 6 w * * * * * # o # = ( $XqX8X8X<XH.F.F.G.G.i.i.Q.B.& o       . o o # # # # # * # # # * # o ",
"# 7 w : : # $  .NXGXsXaXpX*X( : : > 6 w 2 o * o o # & / $X0XqX0X8X6X{.`.F.F.H.G.a.i.p.9Xc + X   . o # * # # # # # # # # # o * * ",
"o w w 6 : * ) aXBXLXNXiXaXpXrX[ # : 6 w 3 # o # # + r 3XtX0X8X7X{. X[.].H.F.F.H.G.p.i.Q._ @ # # o * # # # # # # o 4 # # # o * * ",
"2 w 6 : : Z yXsXBXLXGXsXsXaXtX} # : : 6 3 # # + @ @ k +.=.B.$X`. X X.X{.`.H.H.H.G.p.C y _ = # # # # # # # # # # o o # # # # * o ",
"o w 6 : 2 | uXiXNXGXGXMXtXtX}.3 # : $ = = 8 y / / k j.OXj.W I T T T K m.{ K ` ` Z 1 1 H &Xr + * # # # # # # # # * o o * o # # # ",
"* w 6 t u 9 | uXaXBXGXtXtXrX] @ @ 8 O.~.*X%X'.2XV.Y OX@XOXk.k.k.j.g.Q Q T < , < R E C R 3X_ @ & + # # # # # # # # * * # * # # # ",
"# 3 q ^.kX+.4 M.pXNXBXtXtX).4 p -.lXrXeX:X:X:X,X' Q @XOXz.k.k.k.k.k.E L L I E E f.f.R R }.=.' N.) r * # & o o o # # # # # # # # ",
"# 2 w ^.kX+.# #  .sXNXtXtXW % =XMXrX%X%X_.:X:X>X! z.@XOXk.g.j.W L < V H E d.d.f.f.f.R R }.#X} 8X8X7X%X! @ + & & # # # # # # # # ",
"o 6 S t k - % , V ~.;X).m.g k lXMX$XR.Q.R.:X>X%Xe !.XXW L L L C E d.d.H d.d.f.f.f.f.R E z.$X) <X8X8X$Xr 9 ^ | ^ & # # # # # # # ",
"o q G w 4 O < L U T Y T W Q L -.bX3XR.R.:X:X>X%Xr - % < C I E E E E d.d.f.d.f.f.f.f.P P T ^ [ ,X7X8X$X1X2XwXiXuX_ + # # # # # # ",
"* o 4 w w > 8 ~.eX).z.!.z.+XE k =.eX_._._.1X>X,X%XE.N.' G F F q V L A I V I A A F F / } M.%X<X<X8X8X8X8X8X0XuXiX#X+ * * # # # # ",
"o * o > S q > 8 ~.rX(.j.j.Q < 5 4 X.C.R.:X_.,X,X2X<X4X4X5X5X'.'.W.W.W.J.J.W.T.Q._.<X4X<X<X<X8X8X8X8X8X8X8XwXiXuX^ + o o # # * # ",
"4 * # > < q w w > D ~ Y Y 8 7 w 4 + 5 S N.R.1X,X4X,X2X7X5X5X6X{.{.].{.[.[.[.{.7X7X7X7X8X8X8X8X8X8X8X8X0XwXuX&Xc + # o * # # # # ",
"o o # > , > : 2 w 4  .}.l.L 4 * # # # @ $ S / } V.%X>X2X4X5X5X6X6X{.[.[..X.X X{.qX8X8X8X8X8X8X8X8X0X0X$X#X^ * + # # * # # # * o ",
"# # # # # # # # * * c eXz.L + # A 6 # # 5 M.J A j #.@._ _ } N.m.V.J.V././././././.E.E.$XC.C.B. .| ^ r 5 @ # # # # # # # # # # # ",
"# # o # # # # # + * 9 eXz.I @ # 4 : # # 7 C.x.s.O.zXcXcXvX8.d v a 8.9.;.;.;.O.a d f d ; 0 u  .0 4 & @ # * * # # # # # # # # # # ",
"# # # # # # 2 S w 2 - =X@XW @ # # # # # 5 M.x.K % h $.9.zX$.>.3.v fXKXZXvXhXx >.3.3.v b @.@.-X| J J F # = + + * # # # # * # # # ",
"# # # # # : #.jX=.3 5 ~.(.W @ # * o # * * M.v.F z z *X] j d >.2.:.j %.O.O.h f 3.3.>.a o.@.@.*X .Z a.i.J Z 9 + o # # # # o # # # ",
"# # # # # * -.nX-.3 2  .(.Q % # # # # # @ | v.t XXO.U K n <.M <.f s #.V.=.m 6.3.,.d b @.#.O.*X#XZ p.i.p.Q.| + * # # # # * # # # ",
"# # # # # # r _ r 3 4 ^ ).h., # # # # # * S ` Y oX$.1.1.4.M XXu.B 4.z X.B w.0.3.v 0 @.@.@.@.=.&XS J i.m.$X9 * # * # # # # # o # ",
"o # # # # # 2 3 3 3 * y ).h., o # # # o $ 4 t !.oXO.m B B n $.m h m N 5.e.r.6.:.s o.@.@.@.@.#.&X! J a.3X_ & # # o * * # * o * # ",
": # # # # # # # 2 * & 5 ).h., + # # # * # @ % XXdXzXvXZXZXAXVXVXxXgX;.B B :.:.a o.@.@.@.@.@.#.yX^ Z Q.B.& * # # * o o # # * # # ",
"o * # # # o * o # # # = ~.l.< @ # + = = 9 8 - *.xXJXKXJXAXVXVXAXAXAXZXVXgX;.n b =.#.O.#.@.#.-X#Xy u ^ 8 @ + o o # # # # # # # # ",
"* o # * # * # * # # # + =.(.V ; & G m.W.Q.Q.} n CXSXFXAXgXz Y *.gXVXCXZXZXVXgX*X#X=.@.@.=.*X .r { m.N.N. .r = + # # # # # # # # ",
"o * * o o # # # # # o X ( (.I <.m m.{.6X5X5X1Xl vXSXFXCXnXoX*.oXdXxXcXcXVXZXhX;X&X#XO.#.=.) F p.a.a.a.m.D.$X#X! & * * # # # # # ",
"* o o * 4 # # # # + - m m Y I <.4.m.5X2X2X,X} y 8.SXPXKXZXCXmXnXnXcXcXcXcXcXzX;XyX=.@.=.c ! Q.T.Y.D.b.p.i.s.J.$X .= # # # # # # ",
"# * # # o # o * # # M r.r.B I N 5./ 2X,X>XN./ $XO.CXJXIXIXKXHXSXDXZXZXZXxXzXgX-X*X%.@.r = N.4X:X'.R.Y.K.b.p.i.s.[ & * o # # # # ",
"# o # # o * o * # # M t.t.B I j w.n I._.I.! $X7X] fXFXPXIXIXPXPXKXJXAXZXxXzX;X*X#.n c J S C.4X1X:XR.T.P.S.b.a.i.> + * * # # # * ",
"* o * # o # * # # o ; <.1.M k i N <./ T./ B.wX6X/.$.SXKXIXIXPXKXKXHXCXVXcXzX*X@.c 9 ` S.S E.5X2X:XR.T.Y.D.D.b.A s p + o # # # # ",
"# * o * * # # # o : + <.w.t.M p >.4.j ' ^ 0X7X|.}.Y hXFXPXIXIXKXKXHXVXcXcX*X@.b c N.L.S.S I.'.<X>X:XR.Y.D.D.S d 2.,.a + # # # # ",
"# * # # # # o # # # # m e.w.N a >.3.>.; #XwXeX X X/.$.CXJXIXPXPXKXZXvXcXgX#.h A D.L.S.n.S V.].1X>X:X:XT.c.y <.6.6.6.,.p + + # # ",
"# o # # # # * # * # # & j <.5.5.:.3.:.~ wX8X|.|. X|.( fXSXPXIXPXKXZXVXxX-.l A D.L.S.S.S.Z m.{.5X2X>XI.' j 4.6.0.r.r.6.,.O @ # # ",
"* o # # * # o # o * # # - 5.u.e.m d ; #XwX6X X X|.|.W.O.vXJXPXPXAXZXVXdXu e J.L.K.S.S.S.` / `.`.C.} b N 0.w.w.r.t.t.w.3.a o # # ",
"# * o * o * * # * o # # # b 4.m O & 9 9X0X|. X|.|.|.].] 9.SXKXPXAXZXxXO.g J.P.L.L.S.S.S.c.S S F w s w.t.t.t.t.t.t.t.4.:.O # # # ",
"# # # # # # # # # # # # # + u V @ + ) wXeX X X|.|.].`.`.U vXHXJXAXZX%.e l.D.P.L.L.S.S.n.n.v.x.J J j r.r.u.u.y.t.r.1.a O + # # # ",
"# # # * 4 o # # # # # # # o D W + $ B.wX6X X X X X`.].`.m.$.SXFXAXq.e l.W.P.P.L.S.S.S.n.n.v.x.p.H p e.5.r.u.r.5.M a p + * # # # ",
"# # * o o o * * # # # # # + 9 W $ = $XwXeX X/./.).`.].`.`.X.gXFXAX@.h.J.Y.Y.U.L.S.S.n.n.v.v.v.p.J 6 x m 1.6.1.a a p @ # # # # # ",
"# # o * o * * o # # # # # * - H % = -X$X] Y z 0 8 D m.`.`.V.o.gXHX9.W U.Y.P.P.S.S.S.S.n.x.Z Z Z J H J S ; d p O @ + #     # # # ",
"# # # # # # # # # # # # # # & G , @ 5 l $.7.O.U u 0 5 S W.`.P.G 9.gXY U.Y.Y.L.D.S.S.b.Z k z l 8 8 > q 5 & X & # o # o     # * # ",
"# # # # # # # # # # # # # # # V , @ h 8.7.*.X...u y 8 & F Q.'.Y.' O.k D.Y.U.P.L.D.` t $.7.*.X...y 5 @ @ * # o # # # # o X * # # ",
"# # # o # # # # # # # # # # $ e , ; ;.9.8.$.O...u y t 4 = / N.V.V./ - ' n.c.c.` ' 9 ;.XX7.O...u u t 7 $ + * # # # # # # # # # # ",
"# # # # # # # # # # # # # # # , < z -.dX8.*.X...l y t 5 4 @ $ & = = @ $ = = = & ; O.9.9.8.X.X.U u t 9 = @ + # # # # # # # # # # ",
"# * o 4 # # o # # # # # # o # $ @ - n ;.-.%.o...u y 0 5 = @ # # * # # # * + * # - %.9.oX;.o...D y t 9 4 & & # # # # # # # # # # ",
"# # o o # # # # # # # # # : # # * o @ - 8 h 8 8 8 8 = @ @ # # # o # # # * * # * * ; O.&.%.@...b u t 8 = @ * # # # # # # # # # # ",
"# # # # # # # # # # # # # # # # # # # + & * + + + + & # # # # # * o o * # # # # o o @ % 8 p ; 8 - - @ @ & o # # # # # # # # # # ",
"o * o * # # # # # # # # # # # # # # # * * * # # # # # # # # # # # * # # # # # # * o o # # 2 # # # # # * # # # # # # # # # # # # "
};
