/* XPM */
static char *result[] = {
/* columns rows colors chars-per-pixel */
"64 64 243 2 ",
"   c #151513",
".  c #191815",
"X  c #1A1816",
"o  c #1E1D1A",
"O  c #271A0F",
"+  c #241D16",
"@  c #2A1D15",
"#  c #201F1C",
"$  c #291C1A",
"%  c #321B18",
"&  c #22211D",
"*  c #2B221B",
"=  c #39271B",
"-  c #241E21",
";  c #2A1E28",
":  c #361A2A",
">  c #381937",
",  c #1F2723",
"<  c #1F3330",
"1  c #232323",
"2  c #2B2423",
"3  c #282926",
"4  c #25252C",
"5  c #212B2D",
"6  c #2B2B2C",
"7  c #352828",
"8  c #2A322B",
"9  c #38322D",
"0  c #232D31",
"q  c #2A2A36",
"w  c #372A36",
"e  c #283637",
"r  c #383637",
"t  c #482913",
"y  c #59361A",
"u  c #683918",
"i  c #763E19",
"p  c #4A372A",
"a  c #583A21",
"s  c #4B2F36",
"d  c #463835",
"f  c #633D28",
"g  c #31423C",
"h  c #74411E",
"j  c #514236",
"k  c #784C2A",
"l  c #714E35",
"z  c #3C164A",
"x  c #1C3556",
"c  c #2A2944",
"v  c #392748",
"b  c #2B3746",
"n  c #373946",
"m  c #2F3155",
"M  c #253855",
"N  c #1B2D77",
"B  c #2B2E6D",
"V  c #441B4B",
"C  c #450957",
"Z  c #481959",
"A  c #463A44",
"S  c #4F2F53",
"D  c #451665",
"F  c #4E1070",
"G  c #4D2D6B",
"H  c #6E3A74",
"J  c #2D4C49",
"K  c #344447",
"L  c #2B4659",
"P  c #295150",
"I  c #2B5759",
"U  c #345057",
"Y  c #1D4468",
"T  c #194873",
"R  c #18567A",
"E  c #344C69",
"W  c #334A6E",
"Q  c #275369",
"!  c #295877",
"~  c #375876",
"^  c #376866",
"/  c #2E6D70",
"(  c #2B6678",
")  c #3B6675",
"_  c #474647",
"`  c #574944",
"'  c #514A51",
"]  c #4B5857",
"[  c #535353",
"{  c #565F5E",
"}  c #644D4A",
"|  c #66554B",
" . c #6C5255",
".. c #6F6357",
"X. c #4F506C",
"o. c #734D6D",
"O. c #675B64",
"+. c #4E6969",
"@. c #526772",
"#. c #6A6967",
"$. c #79676A",
"%. c #746D75",
"&. c #86461B",
"*. c #954C1C",
"=. c #AF5B1F",
"-. c #84572C",
";. c #875A30",
":. c #B75D21",
">. c #9C612C",
",. c #996835",
"<. c #B46D2E",
"1. c #C27532",
"2. c #885552",
"3. c #B37E41",
"4. c #8F5E73",
"5. c #886F73",
"6. c #A46D65",
"7. c #CC833C",
"8. c #BB8344",
"9. c #91847E",
"0. c #C88A47",
"q. c #D0924B",
"w. c #DB9E53",
"e. c #DBA057",
"r. c #DFA965",
"t. c #1D2A87",
"y. c #173488",
"u. c #183B94",
"i. c #233285",
"p. c #233A92",
"a. c #580389",
"s. c #540E88",
"d. c #670099",
"f. c #631993",
"g. c #533193",
"h. c #6A358E",
"j. c #6E10A8",
"k. c #722DAE",
"l. c #134988",
"z. c #14508C",
"x. c #164A96",
"c. c #155799",
"v. c #2C5490",
"b. c #1C658F",
"n. c #196899",
"m. c #286589",
"M. c #2C768D",
"N. c #246895",
"B. c #0D55A5",
"V. c #0C5AAD",
"C. c #155DA3",
"Z. c #1051AF",
"A. c #1B5DAD",
"S. c #1353B4",
"D. c #3554AD",
"F. c #1764AA",
"G. c #1864AB",
"H. c #1F73AB",
"J. c #1A6BB4",
"K. c #1B6EB9",
"L. c #1C73B9",
"P. c #1D7ABD",
"I. c #2769A8",
"U. c #2477A8",
"Y. c #2865B0",
"T. c #3467B8",
"R. c #2979B9",
"E. c #46538F",
"W. c #467390",
"Q. c #747489",
"!. c #514FAE",
"~. c #624EB1",
"^. c #526FB5",
"/. c #2258C3",
"(. c #1C7CC1",
"). c #3A6CC8",
"_. c #2B72CD",
"`. c #3676D8",
"'. c #3E75E1",
"]. c #4D6ED9",
"[. c #4B75DD",
"{. c #6479C3",
"}. c #446DE3",
"|. c #4D74E1",
" X c #8D748C",
".X c #A36980",
"XX c #8B54B6",
"oX c #9058C5",
"OX c #1E8C98",
"+X c #348689",
"@X c #2B85A8",
"#X c #2A8CB8",
"$X c #2FA8AE",
"%X c #469390",
"&X c #69969A",
"*X c #5A8EAF",
"=X c #4AACAA",
"-X c #1F84C7",
";X c #2288C8",
":X c #2D97C8",
">X c #238BD3",
",X c #2B86DA",
"<X c #3389DD",
"1X c #2A98D2",
"2X c #2293DA",
"3X c #259BDC",
"4X c #2EAFCC",
"5X c #2E91E1",
"6X c #2AAAE2",
"7X c #32A2E1",
"8X c #4A98CD",
"9X c #619DDD",
"0X c #55BEDB",
"qX c #59ABF5",
"wX c #2ECAD0",
"eX c #30DAF2",
"rX c #70C7CE",
"tX c #4FDCF1",
"yX c #6BD4F5",
"uX c #70EBF9",
"iX c #978D90",
"pX c #AB9895",
"aX c #918DA2",
"sX c #A499AF",
"dX c #99A4AC",
"fX c #A8AAAA",
"gX c #B4ADAB",
"hX c #B8B8B8",
"jX c #C5B6B6",
"kX c #C2B9C7",
"lX c #89CEF1",
"zX c #8DECF8",
"xX c #CAC8C8",
"cX c #D5CACB",
"vX c #D3CBD5",
"bX c #D4D4D4",
"nX c #DBD8DA",
"mX c #E6D8DD",
"MX c #E3DCE3",
"NX c #CFF7FC",
"BX c #E8E6E7",
"VX c #F3F3F3",
"CX c #F9F9F9",
/* pixels */
"# # # # # # # # # # # # # # # # o & o 1 o o # # # # # # # # # # # # # # # # # # # # # # # # & o & # # # # o & o o & # # # # # # ",
"# # # # # # # # # # # # # # # # o 1 & o # # # # # # # # , # o # # # # # o # # # o , # # # # # # o # # # # # o 1 & o o # # # # # ",
"o & # # # # o # # o # # # # # - # o # # # # # # # # # # # # & o # # # # # # # # # # # # # & o o # # # # # # # # o # # # # # # # ",
"& o # # # # # # # # # # # # # # # # # # # # # # # # # # # # o & # # # # # # # # # # # # # o 1 # # # # # # # # # # , # # # # # # ",
"# # # # # # # # # # # # # # # # # # # # # # # # # # # # # # o o # # o o # # # # # # # # # o X o # # # # # # # # o o # # # # # # ",
"# # # # # o # , # # # # # # # # # # # # # # # # # # # # # # 1 o # # @ o # # 1 o # # # # o       o # # # # # # # & 1 o # # o # # ",
"# # # # X   X o # # # # # # # # # # # # # # # # # # # o # # # & # + e 2 # o o o # # o & X       o # # # # o o # o & # # # # # # ",
"# # # o       o # # # # # # # # # # o # # # # # # # , o # # # o & + b.Q # & o & # # # o X       # # # # # , # # 1 o # # # # # # ",
"# # # # X   X # # # # # # # # # # # , o & o o # # # # # # # # # # * b.R + & o # # # # # 1 X o o # # # # # # # # o o # # # # # # ",
"# # # # o o # o # # # # # # # # # # o o # # # # # # # # # # # # # 2 n.z.# # # # # # # # o & # o # # # # # # # # # # # # # # # # ",
"# # # # # # # # # # # # # # # # # # # # # # # # # # # # # # # # # 8 n.l.$ # # # # # # # & o o # # # # o # # # # # # # # o # # # ",
"# # # # # # # # # # # # # # # # # # # # # , # # # # # # o # # # o e F.l.$ # # # # # # # o o 1 # # # # # # # # # # # # X   o # # ",
"# # # # # # # # # # # # # # # # # # # # # # # # # # o - # # # # # K J.c., o # # # # o # # # # # # # # # # # # # # # o     o # # ",
"# # # # , o # # # # # # # # # # # # # # # # # # # # # # # # # # + L K.B.5 o # # # # # # # # # # # # # # # # # o # # o o o # o , ",
"# # # o o & o , # # # # # # , o # # # # # # # # # # # # # # # # + W K.V.N $ o # # # # # # # # # # # - o , # & o o & # & # # # # ",
"# # o - & o o # # # # # # # o o o o # # # # # # # # # # # # # # $ m.K.V.B.x + # # # , o # # # # # # # # o & o o 1 o # # # # # # ",
"# # # # # # # # o # # o # # # .     # # # # # # o # # # # # # # 2 v.L.V.V.y.c + # # # # # # # # # # # # # # # # # # # # # # # # ",
"# # # # # # # # o # 2 2 w A r       o # # # # # # # # # # # # # ; D.J.V.B.t.t.c # # # # # # # # # # # # # # # # # # # # # # # # ",
"# # # # # # , o ; 7 6 r %.sXQ.,     o # # # # # # # # # # # # # w D.F.B.Z.t.t.i.e + # # # # # # # # # # # # # # # # # # # # # # ",
"# # # # # o o 1 m n r v  XvXXXe o . , o # # # # # # # # # # # + 4 W N.B.V.V.B.t.v.8 & # # # # # # # # # # # # # # # # # # # # # ",
"# # # # # # , < q w w s ' o.' q e , # # # # # # o & o , # - e ) #X1X3X(.S.V.V.u.p.m.3 & # # # # # # # o & # # # # # # # # # # # ",
"# # # # o 1 0 4 4 7 w 7 w 4 ; - 4 0 , # # # # # & & & o 1 M.8X7X3X3X,X`./.S.S.Z.t.I./ @ # # # # # # # o # # # # # # # # # # , # ",
"# # o # # 5 c G 4 4 &XW.n - c ; - 4 0 # # 1 # o # + + + w W.1X3X3X'.}.}./.S.S.V.p.p.@X* # # # # # # # o # o # # o # # # # # o o ",
"# # # # 1 5 q b $ +.zXyX0XW.X.4 - 4 0 , + * 9 g K L Q q h.o.' E D.!.].'./.S.S.V.u.N ( 8 & # # # # # # , 1 o # # # # , # # o & o ",
"# # # # , 0 ; - e rXNXuXtXyX0X~ o - 4 9 #.&X*X:X_.-XU.G XXoXk.f.G Z G W W l.l.l.B > Y g * # # # # # #   X # # # # # # # # # # # ",
"# # # # 5 4 - - M.zXNXNXuXyXqXm.# - 7 aXlX8X(.(.R.-XR H oXk.k.k.j.k.f.s.Z 7 > V C z D.I + # # & # o       # # # # # # # o # # # ",
"# # # , 5 4 & x wXuXNXNXlXqX9Xb & 1 9 dX9X#XP.P.-X-XL XXXXk.f.s.G D V V z D F a.a.C !./ 3 3 + & # .       # # # # # # # # # # # ",
"# # # # < 4 $ e $XtXzXNXyXqX].2 # 2 3 @.8XP.P.-X-XR.r s S V V z D D F F s.a.d.d.a.F !./ M.U.! e * X       # # # # # # # # # # # ",
"# # # # 5 4 S A < OXtXzXlXqXE.% % % 1 7 @.(.P.-X-X-XN.I c v z D F F s.s.a.d.d.d.a.F k.+Xn.3X3X@X8 O O   o # # # # # # # # # # - ",
"# # # # , q Q.sXe , ( rXlX8XB V > % 4 < 2 L H.-X-X-X>X-X;XI.v.W M v z Z D F F F C C m U H.2X2XM.Q / / g & # # # # # # # # # # # ",
"# # # # , 0 ' O.2 : > X.X.S G F V 2 0 , # # 6 Q U.-X>X2X>X,X,X,X`._.T.D.v.N.m.m.b.N.H.-X>X2X3X3X6X6XeXwX8 # # # # # # # # # # # ",
"# o # # o c b 1 % w X.E.f.k.XXf.: 4 q # # # + * e L m.U.;X>X,X`.'.`.'.}.}.`.2X,X2X2X2X2X3X3X3X3X3X6XeXwX8 # # # # # # # # # # # ",
"# # # # o 4 q 0 2 9 E.8X~.h.G > 6 , , # # o 3 R N v $.#.] ) m.N.R.).`.}.}.}.'.2X3X3X3X3X3X3X3X3X6XeX4XI & # # # # # # # # # # # ",
"# # # # - # # q c 6 3 K U X.G w , 1 # # # o e n.v.v ..pXxXgXh h d O.X.X.X.E.E.D.R.#X;X:X;X:X$X#XOXI 8 & # # # # # # # # # # # # ",
"# # # # o # - : > 4 5 5 e *X~.v & 4 6 # # # e n.N s p ] | ..*.:.l xXcXgXiXa &.k a 9 K ^ g x b * O + & + # # # # # # # # # # # # ",
"# # # # # # o - - # o o # ) ~.S + & & # # # 3 n.x o.} W X.y &.*.i ......f *.:.=.u j [ +XP y.N N J * # # # o # # # # # # o # # # ",
"# # # # # # # # # # # # # K {.h.$ # # # # # * R A .X` k k ;.6.2.h _ m.] &.:.:.h j [ [ %XI N t.p.U.3 # # o # # # # # # # # # # # ",
"# # # # # # # # # # r _ < 6 ^.h.: # # # # # + 8 H  X| l ;.j 2.l k k l ,.0.:.&.p [ [ [ %XI N t.U.^ & # # # # # # # # # # # # # # ",
"# # # # # # # # - - Q.dXJ , @.~.z + # # # # + O o.pXcXcXbXxXfXiX..l ,.0.<.*.p [ [ [ ' %X^ N x.@X3 # # # # # # # # # # # # # # # ",
"# # # # # # # o o - U Q.e < K ^.Z $ # # # # # + } vXBXBXxXjXcXnXbXgX5.l h a ' [ [ [ ' %X^ c ! g & + # # # # # # # # # # # # # # ",
"# # # # # # # # # # , < < , 2 W.g.% # # # + 1 3 ` cXmXvX XS  .pXcXnXbXfX..{ +.[ [ [ +.$XI U ! U g * # o # # # # # # # # # # # # ",
", # # # # # # # # # , , , o + ) ~.: # $ b ~ I.R.U jXBXMXkXpX XaXgXhXxXbXfX%X%X[ [ +.%XU B p.x.v.U.M.J & # # # # # # # # # # # # ",
"o o , o # # & o # # # # o # o g !.V y r ).<X,XR.b pXBXCXBXnXkXkXhXhXhXhXfX=X$X[ +.^ J m.K.G.c.u.i.x.@X^ + # # # # # # # # # # # ",
"o o o o # # # , # # # # o o # 2 E.S -.l ).>X;XQ ^ 5.mXCXCXCXVXMXMXbXhXfXdX=X+.] U 3 ( >X-XP.K.F.l.t.t.J & # # # # # # # # # # # ",
"# o # # # # # o # # # # # # 2 h l S l ,.( >Xb./ ;X{ cXVXCXVXVXBXMXbXhXfX&X+.' K L M m.>X-X(.L.F.C.u.N : O + o # # # # # # # # # ",
"# # # # # # # # # # # # # # a q.q.S s <.` n.I :X,XX.pXVXCXVXVXBXbXhXhX&X^ j r R G.x N.,X;X(.L.J.A.v.s &.y O o # # # # # # # # # ",
"# # # # # # # # # # # # # # = 3.3.f : u >.g M.6X[.^.$.mXVXCXVXMXxXhXdX{ p n c.F.F.T m.,X>X;XP.J.v.d >.<.<.u # # # # # # # # # # ",
"- # # # # # # # # # # # # # # a ,.0.y u =.j :X<X[.].X.jXBXVXVXbXhXhX{ p m G.J.F.C.T ! '.>X-XP.! j <.1.q.7.=.t # # # # # # # # # ",
"o # # # # # # o # # # # # # o = 8.q.k k &.^ 6X8X}.|.E. XmXVXBXbXxX%.d B Y.F.F.C.C.z.M ).R.m.K -.1.0.q.e.w.<.u + & o # # # # # # ",
"# # # # # # # # # # # # # # # # t k 8.8.y @X7X[.|.|.].{ cXBXBXbXiXd G A.J.F.F.C.c.c.x x c 7 8.w.e.e.w.w.8.&.t + o & # # # # # # ",
"# # # # # # , o # # # # # # # # o a q.,.g 4X5X|.|.|.).W pXMXMXgXA g.Y.J.F.F.F.C.C.c.z.l.N s 0.q.r.r.e.8.u t + # # # # # # # # # ",
"# # # # # # # & # # # # # # # # # + p s 9 / X.!.].].`.T.#.nXbX .i.Y.K.J.J.F.F.C.c.c.x.u.t.c ,.>.0.0.-.u t @ # # # # # # # # # # ",
"# # # # # # & o # # # # o # # # # o * d  .2.S 9 A ^.`.).~  XnX .!.K.K.J.J.G.C.c.B.c.x.l.y.N q 9 i &.t % O + # # # # # # # # # # ",
"# # # # # # o o # # # # # # o & o * ` 5..Xo.` _ 9 w T._.).E 9.$.v.Y.K.G.G.G.C.C.c.l.x.l.t.N B 4 @ + + # # & # & # # # # # # # # ",
"# # # o o # # o # # # # # # 1 o # = #. X4._ _ r r * E _._.(.~ j v.K.J.J.G.G.z.B n q < x c ; + + # # # # # # # # # # # # # # # # ",
"# # o .   # # , # # # & o # # o # * p $.#._ K r r 4 & L Q ! v.0 m b.v.z.R T n  .} n r - @ + # # # # # # # # # # # # # # # # # # ",
"o 1 o   . o # # # # # # # # # # 1 o   = j _ j r r 3 * + + + + & @ & & & * 7 4.4.' K r r 3 + # & # # # # # # # # # # # # # # # # ",
"o # o o o # # # o , o # # # # # o o     O 7 7 w 6 3 @ + & & & # & & o & * ..5.4._ j d r 6 * + o # # # # # # # # # # # # # # # # ",
"# # # # o , # # # # # # # # # # # & X   O $ O $ @ @ + & o 1 # # # # # o = #.iX$.[ _ r r 8 3 @ & # # o # # # # # # # # # # # # # ",
"# # # # o o # # # # # # # # # # # & o X . + # # # # o & o o # o # # # # + = ` } _ d r 9 2 $ @ # # # o o , # # # # # # # # # # # ",
"# # # # # # # # o o # # # 1 o o # # # # # # # # # # # # & o 1 & # # # # # # + @ $ * @ @ + # # & # # # # # # # # # # # # # # # # ",
"# # # # # # # # & 1 o # # o # # # # # # # # # # # # # # o & o o & # # # # # # # # # & # # # # o # # # # # # # # # # # # # # # # ",
"& o # # # # # # o & # # # # # # # # # # # # # # # # # # # o # # # # # # # # # # # # # # # # # # # # , o # # # # # # # # # o # # ",
"# # # # # # # # # # # # # # # # # # # # # # # # # # # # # # # # # # # # # # # # # # # # # # # # # # # o # # # # # # # # # o , # "
};
