/* XPM */
static char *result[] = {
/* columns rows colors chars-per-pixel */
"64 64 246 2 ",
"   c #151513",
".  c #191614",
"X  c #1A1916",
"o  c #1E1D1A",
"O  c #251D16",
"+  c #2B1D15",
"@  c #201F1C",
"#  c #2A1D1A",
"$  c #321C16",
"%  c #2F2014",
"&  c #22201D",
"*  c #2A231C",
"=  c #332419",
"-  c #271E22",
";  c #361A2D",
":  c #3A1937",
">  c #1F2724",
",  c #1E302D",
"<  c #232323",
"1  c #2B2322",
"2  c #232A26",
"3  c #2B2A24",
"4  c #25242B",
"5  c #2A232B",
"6  c #222B2B",
"7  c #2B2C2B",
"8  c #342829",
"9  c #3B332B",
"0  c #222C31",
"q  c #2C2838",
"w  c #372738",
"e  c #2A3536",
"r  c #373737",
"t  c #4B2710",
"y  c #593318",
"u  c #6C3A17",
"i  c #552E29",
"p  c #533525",
"a  c #4C3433",
"s  c #463A36",
"d  c #2D443C",
"f  c #76421C",
"g  c #474239",
"h  c #534339",
"j  c #754B27",
"k  c #704C32",
"l  c #3C0C4C",
"z  c #1E364E",
"x  c #29294A",
"c  c #39264B",
"v  c #283848",
"b  c #353847",
"n  c #242958",
"m  c #3B2C55",
"M  c #283A56",
"N  c #353458",
"B  c #19366E",
"V  c #2A3867",
"C  c #32346C",
"Z  c #44194A",
"A  c #451958",
"S  c #4A3B45",
"D  c #4F3451",
"F  c #4B0D70",
"G  c #4C2664",
"H  c #522E6B",
"J  c #633061",
"K  c #1F4C54",
"L  c #2B4645",
"P  c #354545",
"I  c #294858",
"U  c #315653",
"Y  c #30635C",
"T  c #174A75",
"R  c #2B4968",
"E  c #374769",
"W  c #33536E",
"Q  c #27587A",
"!  c #38656B",
"~  c #2F6B72",
"^  c #424242",
"/  c #4B4849",
"(  c #564B48",
")  c #4A4853",
"_  c #544A52",
"`  c #4B5758",
"'  c #535353",
"]  c #58575B",
"[  c #684C4D",
"{  c #665B55",
"}  c #726358",
"|  c #4C4E6D",
" . c #5A5567",
".. c #71586A",
"X. c #4E676B",
"o. c #4A7B7A",
"O. c #716D6E",
"+. c #7B6773",
"@. c #904A1A",
"#. c #A7541D",
"$. c #B25A1E",
"%. c #86572B",
"&. c #8C5630",
"*. c #B85E21",
"=. c #966534",
"-. c #B76627",
";. c #A76B32",
":. c #A9753D",
">. c #C27330",
",. c #815653",
"<. c #A0685A",
"1. c #90576D",
"2. c #8A7173",
"3. c #34847B",
"4. c #BE8343",
"5. c #91847C",
"6. c #D28F47",
"7. c #CF904A",
"8. c #D89C53",
"9. c #DCA259",
"0. c #E1A760",
"q. c #1D2886",
"w. c #1C338C",
"e. c #173994",
"r. c #23328A",
"t. c #570388",
"y. c #521285",
"u. c #650A8F",
"i. c #680096",
"p. c #543292",
"a. c #6A3286",
"s. c #691FAB",
"d. c #5F35A7",
"f. c #6E2BAA",
"g. c #15508D",
"h. c #194699",
"j. c #175A99",
"k. c #245984",
"l. c #2D5594",
"z. c #196B83",
"x. c #196797",
"c. c #296889",
"v. c #34708D",
"b. c #236898",
"n. c #287899",
"m. c #0D53A6",
"M. c #0B5BAD",
"N. c #165CA5",
"B. c #184DB7",
"V. c #0E5AB1",
"C. c #1354B4",
"Z. c #3053A9",
"A. c #1765AA",
"S. c #1B71A5",
"D. c #1566B4",
"F. c #1A6AB1",
"G. c #1C78BC",
"H. c #2867A5",
"J. c #2776A9",
"K. c #3564BD",
"L. c #2B72B3",
"P. c #4A5082",
"I. c #7B449B",
"U. c #655D9F",
"Y. c #4A7791",
"T. c #6D4CAD",
"R. c #4D6FAD",
"E. c #255AC5",
"W. c #1E7FC3",
"Q. c #2A76C9",
"!. c #3470CD",
"~. c #3774D7",
"^. c #3C76E1",
"/. c #4667D7",
"(. c #4A6AD0",
"). c #4277DB",
"_. c #4D74DD",
"`. c #5172DD",
"'. c #7364C3",
"]. c #4B6EE1",
"[. c #4675E1",
"{. c #8F5F88",
"}. c #90758F",
"|. c #854CB0",
" X c #935BC6",
".X c #369393",
"XX c #308AA8",
"oX c #2987B6",
"OX c #2BA5A6",
"+X c #29A0B0",
"@X c #48908E",
"#X c #778891",
"$X c #468CA2",
"%X c #518EB3",
"&X c #43B6B3",
"*X c #71ACAB",
"=X c #1F82C5",
"-X c #1E86CB",
";X c #1F8CD5",
":X c #2386C5",
">X c #228BCB",
",X c #2794C9",
"<X c #268AD6",
"1X c #3587DD",
"2X c #2494D9",
"3X c #259BDC",
"4X c #3692D0",
"5X c #2DA4C9",
"6X c #2DA7D8",
"7X c #2EAAE2",
"8X c #5899DE",
"9X c #70AFD7",
"0X c #51AEEF",
"qX c #38D8E3",
"wX c #30D4EA",
"eX c #5CD1F9",
"rX c #6BD6F7",
"tX c #44E2EE",
"yX c #64E4F6",
"uX c #968F8F",
"iX c #A28A86",
"pX c #9298B0",
"aX c #A394AB",
"sX c #8FA9AE",
"dX c #ABA7A7",
"fX c #B8ADA8",
"gX c #B7B6B8",
"hX c #C7B6B5",
"jX c #C8C3BE",
"kX c #C5BACD",
"lX c #95D3F3",
"zX c #8EEEF8",
"xX c #B6F4FB",
"cX c #C8C6C6",
"vX c #D4C4CF",
"bX c #D2D2D2",
"nX c #DBD9DA",
"mX c #E3D7DA",
"MX c #CCCCE2",
"NX c #E6DDE2",
"BX c #CEF5FD",
"VX c #E4E3E4",
"CX c #EBEAEB",
"ZX c #EDF2F3",
"AX c #F3F3F3",
"SX c #FAF9FA",
/* pixels */
"@ @ @ @ @ @ @ @ > o @ @ @ @ @ @ @ @ @ @ @ @ @ @ @ @ @ @ @ @ @ @ @ @ @ o @ @ @ @ @ @ @ @ @ @ @ @ @ @ @ @ @ @ @ @ @ @ @ o @ @ @ @ ",
"@ @ @ @ @ @ @ @ @ o @ @ @ @ @ @ @ @ @ @ @ @ @ @ @ @ @ @ @ @ @ @ @ @ @ @ @ @ & @ @ @ @ @ @ @ @ @ @ @ @ @ @ @ @ @ @ @ @ @ @ @ @ @ ",
"& o @ @ @ @ @ @ @ @ @ @ @ o @ o @ @ @ @ @ @ @ @ @ @ @ @ @ @ @ @ @ @ @ @ @ @ o & @ @ @ @ @ @ @ @ @ @ @ @ @ @ @ @ @ @ @ @ @ @ @ @ ",
"@ @ @ @ @ @ @ @ @ @ @ @ & < o & @ @ @ @ @ @ @ @ @ @ @ @ @ o @ > @ @ @ @ @ o < o @ @ @ @ @ @ @ > @ @ @ @ @ @ @ @ @ @ @ @ @ @ @ @ ",
"@ @ @ @ @ @ & @ @ @ @ @ o & o < & o & o > @ @ @ @ @ @ @ @ & @ @ @ @ @ @ @ @ @ @ @ @ @ @ @ @ X X @ @ @ @ @ @ @ @ X @ @ @ @ @ @ @ ",
"@ @ @ @ @ @ o & @ @ @ @ & o @ o o & o < o @ @ @ @ @ @ @ & o @ @ @ @ @ @ @ @ @ @ @ @ @ @ @       @ @ @ @ @ @ @ @ @ @ @ @ @ @ @ @ ",
"@ @ @ @ X   X o @ @ @ @ @ @ @ @ @ @ @ @ @ @ @ @ @ @ > @ o @ @ @ @ @ o & @ @ @ @ @ @ @ @         @ @ @ @ @ @ @ @ @ @ @ @ @ @ @ @ ",
"@ @ @ o       o @ @ @ @ @ @ @ @ @ @ @ o @ @ @ @ @ @ o o @ @ @ @ @ @ O O @ @ @ @ @ @ @ @ X       @ @ @ @ @ @ @ @ @ @ @ @ @ @ @ > ",
"@ @ @ @ X   X @ @ @ @ @ @ @ @ @ o o o @ @ @ @ @ @ @ @ @ @ @ @ @ @ @ & e & @ @ @ @ @ @ @ @ @ X @ X @ @ @ @ @ @ @ @ @ @ @ @ @ @ @ ",
"@ @ @ @ o o @ @ @ @ @ @ @ @ @ @ > @ @ @ @ @ @ @ @ @ @ @ > @ @ @ @ @ < S.e & @ @ @ @ @ @ @ @ @ @ @ @ @ @ @ @ @ @ @ @ @ @ @ @ @ @ ",
"@ @ @ @ @ @ @ @ @ @ @ @ @ @ @ @ @ @ @ @ @ @ @ @ @ @ @ @ o o @ @ @ @ * S.T & @ & @ @ @ @ @ @ @ @ @ @ @ @ @ @ @ @ @ @ @ @ @ @ @ @ ",
"@ @ @ @ @ @ @ @ @ @ @ @ @ @ @ @ @ @ @ @ @ @ @ @ @ @ @ @ @ @ @ @ @ o 1 x.T O @ o @ @ @ @ @ @ @ @ @ @ @ @ @ @ @ @ @ @ @     @ @ @ ",
"@ @ @ @ o o @ @ @ @ @ @ @ @ @ @ @ @ @ @ @ @ @ @ @ @ @ @ @ @ @ @ @ @ 8 j.g.< o & @ @ @ @ @ @ @ @ @ @ @ @ @ @ @ @ @ @ @     o @ @ ",
"@ @ @ @ > @ @ @ @ @ @ @ @ @ > @ @ @ @ @ @ @ @ @ @ @ @ @ @ @ @ @ @ > 3 b.m.6 @ @ @ @ @ @ @ @ @ @ @ @ @ @ @ @ @ @ @ @ @ o @ @ @ @ ",
"@ @ @ & @ @ @ @ @ @ @ @ & o o o @ @ @ @ @ @ @ @ @ @ @ @ @ @ @ @ o @ 3 H.M.0 @ @ @ @ @ @ @ @ @ @ @ @ @ @ @ @ @ @ @ @ @ > @ @ @ @ ",
"@ @ > o @ @ @ @ @ @ @ @ @ & o & o @ @ @ @ @ @ @ @ @ @ @ @ @ @ @ @ @ 1 H.M.T @ @ @ @ @ @ @ @ @ @ @ @ @ @ @ @ @ @ @ @ @ @ @ @ @ @ ",
"@ @ @ @ @ @ @ @ @ @ @ @ @ @ @ X   X @ @ @ @ @ @ @ @ @ @ @ @ @ @ & & 3 H.M.m.x O o @ @ @ @ @ @ @ @ @ @ @ @ @ @ @ @ @ @ @ @ @ @ @ ",
"@ @ @ @ @ @ @ @ @ @ @ @ o > X       o @ @ @ @ @ @ @ @ @ @ @ @ @ o & 3 L.V.M.h.n * & @ @ @ @ @ @ @ @ @ @ @ @ @ @ @ @ @ @ @ @ @ @ ",
"@ @ @ o @ @ @ @ @ @ & o @ @ .       o @ @ @ @ @ @ @ @ @ @ @ @ @ & o 4 L.D.M.m.q.M # & @ @ @ @ @ @ @ @ @ @ @ @ @ @ @ @ @ @ @ @ @ ",
"@ @ @ @ @ @ @ @ @ @ @ & @ @ o     X - @ @ @ @ @ @ @ @ @ @ @ @ @ @ @ 4 K.D.M.m.q.q.V * o @ @ @ @ @ @ @ @ @ @ @ @ @ @ @ @ @ @ @ @ ",
"@ @ @ @ @ @ @ @ @ > o o @ @ @ @ @ @ @ @ @ @ @ @ @ @ @ @ @ @ @ @ @ @ 5 Z.A.M.m.e.w.w.Q 1 & @ @ @ @ @ @ @ @ @ @ @ @ @ @ @ @ @ @ @ ",
"@ @ @ @ @ @ - o @ @ o & @ @ @ @ @ @ @ @ @ @ @ @ @ @ @ @ @ @ @ o @ @ ; E c.m.M.M.M.w.r.c.3 & @ @ > @ @ @ @ @ @ @ @ @ @ @ @ @ @ @ ",
"@ @ @ @ @ @ @ @ @ @ @ @ @ @ @ @ @ @ @ @ @ @ @ @ @ @ & o @ @ @ @ + 7 ~ :X3X-XC.V.C.m.r.l.v.* @ @ @ @ @ @ @ @ @ @ o @ @ @ @ @ @ @ ",
"@ @ @ @ @ @ @ @ @ @ @ @ @ @ @ @ @ @ @ @ @ @ @ @ @ & o & o & @ 3 W 4X7X3X2X^.E.B.C.V.e.q.oXL @ @ @ @ @ @ @ @ @ @ @ @ @ @ @ > @ @ ",
"@ @ @ @ @ @ o @ @ @ @ @ @ @ @ @ @ @ @ @ @ @ @ @ @ @ @ @ & o % Q 7X7X3X1X).[.!.B.C.V.m.q.h.U O o o & o . X @ @ @ @ @ @ @ @ @ @ @ ",
"@ @ @ @ @ @ @ @ @ @ @ @ @ @ @ @ @ @ @ @ @ @ @ @ @ @ o @ & * # ) X.v.H.(.(./.^.B.B.m.m.n q ! 3 & & o       o @ & @ @ @ @ @ @ @ > ",
"@ @ @ @ @ @ @ @ @ @ @ @ @ @ @ @ @ @ @ @ @ @ & & O 1 8 P R I D |.|.H F H D H C C n z x l l L.r @ o X   .   @ & o @ @ @ @ @ @ @ @ ",
"@ @ @ @ @ @ @ @ 5 r < @ @ @ @ @ @ @ @ @ @ @ O 9  .@XL.oX<Xc.H  X|.s.s.s.s.u.H Z : A t.F F K.Y r d * X .   @ & o @ @ @ @ @ @ @ @ ",
"@ @ @ @ @ @ @ 8 ..}.] 3 & & @ @ @ @ @ @ @ & ' sX9X:XW.=X-XR I. Xf.s.s.p.G c l F F t.i.t.F d.~ J.,XoXz.7   X o o @ @ @ @ @ @ @ @ ",
"@ @ @ @ @ < 8 / pXMXU.v 0 , > < @ @ @ @ @ 9 sXlXG.G.W.=X=XN |.I.a.A Z l A F y.y.t.i.i.i.F d..Xc.3X3Xn.e L Y U O @ @ @ @ @ @ @ X ",
"@ @ @ @ @ 7 r b U.}._ - 4 4 6 0 > @ @ @ @ 8 sX8XG.G.:X=X=Xv a ; l A F F y.y.t.t.i.u.i.F l A U b.2X3X,X>X3XwXqXL @ @ @ @ @ @ @ @ ",
"@ @ @ @ q b w w a a ; 5 5 < 4 4 0 > @ @ @ @ g %XG.G.:X:X>XJ.Q R V x x c x l c c m G N V Q x.G.-X2X3X3X3X3XwXtXY @ @ @ @ @ @ @ @ ",
"@ @ @ @ 0 b w w 8 1 @ m q o - - 4 0 > @ @ @ O r c.G.-X=X-X>X>X;X<XQ.Q.Q.K.K.K.K.Q.:X>X;X<X2X2X3X3X3X3X3X7XwXOX* @ @ @ @ @ @ @ @ ",
"@ @ @ > 6 5 1 ) %X$X$X%X$XW @ - 4 0 > @ @ @ @ @ * e Q S.-X>X2X;X<X1X~.1X~.1X^.].].~.2X3X3X3X3X3X3X3X7X6X+XY * & @ @ @ @ @ @ @ @ ",
"@ @ @ > q q @ X.zXrXyXrXeXH.- @ - 4 0 @ @ @ @ @ @ @ 3 I L R Q n.J.oX:XQ.~.~.~./././.).:X>X>X,XoXJ.n.~ d & & @ @ @ @ @ @ @ @ @ @ ",
"@ @ @ > N H @ Y.BXxXyXrX0XR.< O # < 0 @ @ @ @ @ o @ 0 x.V / uX2.5.] s g )  . . .] S a h s r P U * + X X @ @ @ @ @ @ @ @ @ @ @ @ ",
"@ @ > , 4 5 - @XxXZXBXrX0X_.4 # $ - 7 < @ o @ @ & @ 0 x.r.w } uXhX2.@.@.,.bXcXgX2.f $.#.y h { .XL B q - o o @ @ @ @ @ @ @ @ @ @ ",
"@ @ o , 4 - @ OXyXBXBXzX0X8Xc : ; - 0 < @ @ @ @ @ & 2 x.B a a X.[ i @.#.u } } h y #.*.@.g ' ` @XK g.q.C v * @ @ @ @ @ @ @ @ @ @ ",
"@ @ o , 4 < > +XtXyXzXxXrX8XG Z A - e > @ @ @ @ @ @ * z.z ..[ ) _ j &.&.j S v.( =.-.#.y ' ' ' @XY B w.e.J.3 @ @ @ @ @ @ @ @ @ @ ",
"@ o o 4 0 4 4 K z.+X&XrXlXP.D f.F 5 , @ @ @ @ @ @ @ @ K b {.[ %.%.j <.<.j k k :.7.-.f g ' ' ' o.3.n q.F.~ % @ @ @ @ @ @ & @ @ @ ",
"@ @ @ > 0 - 5 D r < 0 E | J f.|.Z 3 > & & & o & @ @ @ * D }.} } 2.2.2.} [ k %.:.-.@.g ( ' ' ' o.OXx h.XX3 @ @ @ @ @ @ @ @ @ @ @ ",
"@ @ @ @ > 0 b aX}.- ; Z | T.d.G w 3 @ q 4 o & o @ @ @ O J }.cXVXCXVXVXnXbXgXuX} k h ` ' ' ' ' @X3.I XXd & @ @ @ @ @ @ @ @ @ @ @ ",
"@ @ @ @ & 6 e  ._ $ 8 | %X%XW P.d.l & o & @ @ @ @ @ & O p fXNXNXvX2.} uXjXbXnXcXdXO.@X` ' ' o.~ 9 L d & o @ @ @ @ @ @ @ @ @ @ @ ",
"@ @ @ @ o & 6 x 4 5 8 5 q v r Y.R.a.; % o @ @ @ & o & & $ 5.NXmXkX2.{ 2.pXgXkXbXjX*X&Xo.' X.Y M r.k.P & o @ @ @ @ @ @ @ @ @ @ @ ",
"@ @ @ @ & o < x 0 0 q q 6 , * 7 v.'.a.# @ @ @ @ @ @ O 3 3 { mXAXVXkXkXgXgXgXgXgXfXsX&Xo.' U Q S.h.e.H.! * O @ @ @ @ @ @ @ @ @ @ ",
"@ @ @ @ o & & & - - : q < @ @ @ r $XT.G # @ @ @ # # I R n.| hXAXSXZXCXNXnXnXbXdXdX*Xo.( g ~ -X=XL.h.r.H.~ & @ @ @ @ @ @ @ @ @ @ ",
"@ @ @ @ @ @ & o @ - - - o o @ 6 6 e R.T.Z % @ @ * Q l.! 6Xl.2.NXSXSXAXAXCXNXbXgXsX@X' d U <X>XQ.G.F.h.q.n.Y @ @ @ @ @ @ @ @ @ @ ",
"@ @ @ @ @ & o & @ @ @ @ @ &  .#XP , d Y.d.l O O b !.W 5X4X(.{ kXZXSXAXZXCXbXgXgX#Xg g 3 H.<X>XW.G.F.N.w.w.XXd @ @ @ @ @ @ @ @ @ ",
"@ @ @ @ @ @ @ @ @ @ @ @ @ @ X.pXP , > e R.p.: y a E v.6X).].P.iXNXSXAXAXCXcXgXdX] a V I !.<X>X=XG.A.N.h.q.k.8 @ @ @ @ @ @ @ @ @ ",
"@ @ @ @ @ @ @ @ @ @ @ @ @ @ 7 P , , @ O d R.p.a ;.g 5X1X`._.(.` jXCXAXAXVXcXgXO.r C k.I ~.<X-X=XG.F.N.e.n $ O @ @ @ @ @ @ @ @ @ ",
"@ @ @ @ @ @ @ @ @ @ @ @ o @ - < > @ @ @ % d | A p X.7X1X_._._.l.2.NXZXZXnXcXuXg m Z.A.M E c.n.x.k.R b s f y O & @ @ @ @ @ @ @ @ ",
"@ @ @ @ @ @ @ @ @ @ @ @ & @ @ o @ @ @ @ O y :.k w XX7X`.`._./.!.` hXCXZXnXcX{ A Z.D.A.N.T q k k %.=.:.>.>.@.% o @ @ @ @ @ @ @ @ ",
"@ @ @ @ @ @ @ @ @ @ @ @ @ @ @ @ @ @ @ @ & ;.0.:.r 6X1X`.`.`.~.!.l.+.mXVXNX5.S Z.D.A.A.N.j.s 7.9.8.6.6.6.6.-.t & @ @ @ @ @ @ @ @ ",
"@ @ @ @ @ @ @ @ @ @ @ @ @ @ @ @ @ @ @ @ @ y :.j U 7X).`.`._.~.~.!.E fXVXjXD r.K.F.A.A.N.T k 7.7.0.8.8.8.6.>.y o @ @ @ @ @ @ @ @ ",
"@ @ @ @ @ @ @ @ @ @ @ @ @ @ @ @ @ @ @ @ & & % j X.7X1X`.`._.!.!.!.H.{ jXjXD Z.F.A.A.g.g.T 9 j 4.0.9.9.7.4.*.y O @ @ @ @ @ @ @ @ ",
"@ @ @     @ @ @ @ @ @ @ @ @ @ @ @ @ o X . o @ % d ~ | | ) | Z.!.!.Q.l.] fX..Z.D.k.I r 9 r 4 = #.;.=.&.j y y + O @ @ @ @ @ @ @ @ ",
"o < o   . o @ @ @ @ @ @ @ @ @ @ @ o         X @ $ a ,.[ S 9 8 R Q.Q.Q.A.) ( Q k.s 1.[ ^ r w + t t t t t $ @ @ @ @ @ @ @ @ @ @ @ ",
"& o o o o @ @ @ @ @ @ @ @ @ @ @ @ @         . + h {.1.( P r r * M k.k.c.k.e q s 2.1._ ^ r r 7 + + O O @ o @ @ @ @ @ @ @ @ @ & o ",
"o & @ & & o @ @ @ @ @ @ o o @ @ @ @ X       @ a +.}.+./ ^ r r < + + & & < O $ { }.2.) ^ d r q 1 + o @ @ & @ @ @ @ o @ @ @ @ o & ",
"@ @ @ @ o < @ @ @ @ @ @ @ > @ @ o > o X . @ @ = } 2.../ ^ r r 7 * O o @ @ - # { 2.+.' ^ s r 7 3 + @ @ @ @ @ @ @ o < @ @ @ @ @ @ ",
"@ @ @ @ @ @ @ @ @ @ @ @ @ o & @ @ @ o & @ @ @ @ = g h g r r r 5 * + @ @ @ @ @ # a s s 9 9 8 % + O @ @ @ @ @ @ @ @ @ @ @ @ @ @ @ ",
"@ @ @ @ @ o o @ @ @ @ @ @ @ @ @ @ @ & @ @ @ @ & @ & & % % $ = + + + @ @ @ @ @ @ @ O % % O O @ @ @ @ @ @ @ @ @ @ @ @ @ @ @ @ > @ ",
"@ @ @ @ @ > @ @ @ @ @ @ @ @ @ @ @ @ @ @ @ @ @ @ @ @ & & @ @ @ O O @ @ @ @ @ @ @ @ @ @ @ @ @ @ @ @ @ @ @ @ @ @ @ @ @ @ @ @ @ o @ ",
"@ @ @ @ @ @ @ @ @ @ @ @ @ @ @ @ @ @ @ @ @ @ @ @ @ @ @ @ @ @ @ @ @ @ @ @ @ @ @ @ @ @ @ @ @ @ @ @ @ @ @ @ @ @ @ o @ @ @ @ @ @ @ @ "
};
