/* XPM */
static char *result[] = {
/* columns rows colors chars-per-pixel */
"64 64 245 2 ",
"   c #151513",
".  c #181715",
"X  c #1A1816",
"o  c #1E1D1A",
"O  c #281A0F",
"+  c #241D16",
"@  c #2A1D15",
"#  c #201F1C",
"$  c #2A1D1B",
"%  c #321B18",
"&  c #23211D",
"*  c #2B221B",
"=  c #39271A",
"-  c #241E21",
";  c #2A1E28",
":  c #361A2A",
">  c #381937",
",  c #1F2623",
"<  c #1F3330",
"1  c #232323",
"2  c #2B2423",
"3  c #282926",
"4  c #25252C",
"5  c #212B2D",
"6  c #2B2B2C",
"7  c #362928",
"8  c #2A322B",
"9  c #38322D",
"0  c #232D31",
"q  c #2A2A36",
"w  c #362A35",
"e  c #283637",
"r  c #383738",
"t  c #482913",
"y  c #59361A",
"u  c #683918",
"i  c #763E19",
"p  c #4A372A",
"a  c #583A21",
"s  c #4B2F36",
"d  c #463835",
"f  c #633D28",
"g  c #31423C",
"h  c #74411E",
"j  c #514236",
"k  c #784C2A",
"l  c #714E35",
"z  c #3C164A",
"x  c #1C3556",
"c  c #2A2944",
"v  c #392748",
"b  c #2B3746",
"n  c #373946",
"m  c #2F3155",
"M  c #253855",
"N  c #1B2D77",
"B  c #2B2E6D",
"V  c #441B4B",
"C  c #450957",
"Z  c #481959",
"A  c #463A44",
"S  c #4F2F53",
"D  c #451665",
"F  c #4E1070",
"G  c #4D2D6B",
"H  c #6E3A74",
"J  c #2D4C49",
"K  c #344447",
"L  c #2B4659",
"P  c #295150",
"I  c #2B5759",
"U  c #345057",
"Y  c #1D4468",
"T  c #194873",
"R  c #18567A",
"E  c #344C69",
"W  c #334A6E",
"Q  c #275369",
"!  c #295877",
"~  c #375876",
"^  c #376866",
"/  c #2E6D70",
"(  c #2B6678",
")  c #3B6675",
"_  c #474647",
"`  c #574944",
"'  c #514A51",
"]  c #4B5857",
"[  c #535353",
"{  c #565F5E",
"}  c #644D4A",
"|  c #66554B",
" . c #6C5255",
".. c #6F6357",
"X. c #4F506C",
"o. c #734D6D",
"O. c #675B64",
"+. c #4E6969",
"@. c #526772",
"#. c #6A6967",
"$. c #79676A",
"%. c #746F72",
"&. c #86461B",
"*. c #954C1C",
"=. c #AF5B1F",
"-. c #84572C",
";. c #875A30",
":. c #B75D21",
">. c #9C612C",
",. c #996835",
"<. c #B46D2E",
"1. c #C27532",
"2. c #885552",
"3. c #B37E41",
"4. c #8F5E73",
"5. c #886F73",
"6. c #A46D65",
"7. c #CC833C",
"8. c #BB8344",
"9. c #91847E",
"0. c #C88A47",
"q. c #D0924B",
"w. c #DB9E53",
"e. c #DBA057",
"r. c #DFA965",
"t. c #1D2A87",
"y. c #173488",
"u. c #183B94",
"i. c #233285",
"p. c #233A92",
"a. c #580389",
"s. c #540E88",
"d. c #670099",
"f. c #631993",
"g. c #533193",
"h. c #6A358E",
"j. c #6E10A8",
"k. c #722DAE",
"l. c #134988",
"z. c #14508C",
"x. c #164A96",
"c. c #155799",
"v. c #2C5490",
"b. c #1C658F",
"n. c #196899",
"m. c #286589",
"M. c #2C768D",
"N. c #246895",
"B. c #0D55A5",
"V. c #0C5AAD",
"C. c #155DA3",
"Z. c #1051AF",
"A. c #1B5DAD",
"S. c #1353B4",
"D. c #3554AD",
"F. c #1764AA",
"G. c #1864AB",
"H. c #1F73AB",
"J. c #1A6BB4",
"K. c #1B6EB9",
"L. c #1C73B9",
"P. c #1D7ABD",
"I. c #2769A8",
"U. c #2477A8",
"Y. c #2865B0",
"T. c #3467B8",
"R. c #2979B9",
"E. c #46538F",
"W. c #467390",
"Q. c #776F86",
"!. c #514FAE",
"~. c #624EB1",
"^. c #526FB5",
"/. c #2258C3",
"(. c #1C7CC1",
"). c #3A6CC8",
"_. c #2B72CD",
"`. c #3676D8",
"'. c #3E75E1",
"]. c #4D6ED9",
"[. c #4B75DD",
"{. c #6479C3",
"}. c #446DE3",
"|. c #4D74E1",
" X c #8D748C",
".X c #A36980",
"XX c #8B54B6",
"oX c #9058C5",
"OX c #1E8C98",
"+X c #348689",
"@X c #2B85A8",
"#X c #2A8CB8",
"$X c #2FA8AE",
"%X c #469390",
"&X c #6A969A",
"*X c #5A8EAF",
"=X c #4AACAA",
"-X c #1F84C7",
";X c #2288C8",
":X c #2D97C8",
">X c #238BD3",
",X c #2B86DA",
"<X c #3389DD",
"1X c #2A98D2",
"2X c #2293DA",
"3X c #259BDC",
"4X c #2EAFCC",
"5X c #2E91E1",
"6X c #2AAAE2",
"7X c #32A2E1",
"8X c #4A98CD",
"9X c #619DDD",
"0X c #54BDDB",
"qX c #59ABF5",
"wX c #2ECAD0",
"eX c #30DAF2",
"rX c #70C7CD",
"tX c #4FDCF1",
"yX c #6BD4F5",
"uX c #70EBF9",
"iX c #978D90",
"pX c #AB9895",
"aX c #928DA3",
"sX c #A499AF",
"dX c #99A4AC",
"fX c #A8AAAA",
"gX c #B4ADAB",
"hX c #B8B8B8",
"jX c #C5B6B6",
"kX c #8FAEC1",
"lX c #C2B9C7",
"zX c #89CEF1",
"xX c #8DECF8",
"cX c #B2F3FA",
"vX c #CAC8C8",
"bX c #D5CACB",
"nX c #D3CBD5",
"mX c #D4D4D4",
"MX c #DBD8DA",
"NX c #E6D8DD",
"BX c #E3DCE3",
"VX c #CFF7FC",
"CX c #E8E6E7",
"ZX c #F3F3F3",
"AX c #F9F9F9",
/* pixels */
"# # # # # # # # # # o 1 o o # # # # # # # # # # # o # # # # # # # # # # # # # # # # # # # # # # # # # # # # # # # # # # # # # # ",
"# # # # # # # # , # & o o & # # # # # # # # # # # , # # # # # # # # # # # # # # # # # # # # # # # # # # # # # # # # # , # # # # ",
"& o # # # # # # o # # # # # # # # # # # # # # # # # # # # # # # # # # # # # # # # # # # # # # # # # # # # # # # # # # # # # # # ",
"# & o # # # # # o # # # # # # # # # # # # # # # # # # # # # # # # # # # # # # # # # # # # # # , # # # # # # # # # # # # # # # # ",
"# # # # # # # # # # o # # # # # # # # # # # # # # # # # # # # # # # # # # # # # # # # # # # X X # # # # # # # # # # o # # # # # ",
"# # # # # o # # # # # # # # , # # # # # # # # # # # # # # # # # , # # # # # # # # # # # o       # # # # # # # # # # # # # o # # ",
"# # # # X   X # # # # # # # o # # # # # # # # # # # # # O + o # o # # # # # # # # # # # X       X & # # # # # # # # # # # # # # ",
"# # # o       o # # # # # # # # # # # # # # # # # # # , g o # # # # # # # # # # # # # # X       # # # # # # # # # # # # # # # # ",
"# # # # X   X # # # # , # # # # # # # # # # # # # o & Y b.+ # # # # # # # # # # # # # # # o X o # # # # # # # # # # # # # # # # ",
"# # # # # o # # # # # # # # # # # # # # # # # # # + & l.n.$ # # # # # # # # # # # # # # # # , # # o , # # # # # # # # # # # # # ",
"# # # # # # # # # # # # # # o # # # # # # # # # # # + R n.2 # # # # # # # # # # # # # # # # , # # # # # # # # # # # # , o # # # ",
"# # # # # # # # # # # # # # # # # # # # # # # # # # $ R F.6 # # # # # # # # # # # o o , # o o # # # # # # # # # # # # .   o # # ",
"# # # # # # # # # o # # # # # # # # # # # # # # # # & z.G.e - # # # # # o # # # # # # # # # # # # # # # # # # # # # o     o # # ",
"# # # # # # # # # - o # # # # # # # # # # # # # # # , c.J.K # # # # # # , # # # # # # # # # # # o # # # # # # # # # # o o # # # ",
"o & # , # # # # # # # # # # # # # # # # # # # # # o , B.K.L # # # # # # o # # # # # # # # # # # # # # # # # # # # # # # # # # # ",
", o o o # # # # # # # # # # # # o o # # # # # # # & N V.L.W + o # # # # o # # # # # # # # # # # # # # # # # # # # # # # # # # # ",
"# # # # # # # # o # # # # # # X   X # # # o o # $ x Z.V.J.m.+ - # # # # # # # # # # # # # # # # # # # # # # # # # # # # # # # # ",
"# # # # # # # # & o # # o 1 X       o # # , # + c y.B.Z.K.v.- # # # # # # # # # # # # # # # # # # # # # # o # o o & # # o # # # ",
"# # o # # # # # o & # # o # .       o # o & + b t.t.V.V.K.D.; # # # # # # # o # # # # # # # # # r A 8 2 * # # & & # # # # # # # ",
"# # # # # o # # o 1 o # & # o   . X # # & * e i.t.t.B.V.A.D.: o # # # # # # & o # # # # # # # e Q.sXQ.r w 6 1 & o , # # # # # # ",
"# # # # # # - # # # # # # # # , # # # # + 8 v.t.x.V.V.B.N.W 6 + o & # # # # # & # # # # # # , r  XnX XA r n m 1 # # # # # # # o ",
"# # # # # # # # # # # # # # # # # # # + 3 M.p.u.V.V.S.(.3X1X#X( e & # # # # # o # # # # o 5 0 q G Q.S w w w q < , # # # # # # # ",
"# # # # # # # # # # # # # # # # # # # & ( Y.t.B.S.S.S.`.<X3X3X7X1XM.2 # # # o & # # # # , 0 4 - ; 4 7 w w : 4 0 0 , # # - # # # ",
"# # # # # # # # # # # # o # # # # # # * @Xp.y.Z.S.S./.'.}.}.5X3X8XW.9 + + + # # o # o 1 0 4 - 4 v - e W.&X4 ; G c < # # o # # # ",
"# # # # # # # # # # # # & o & # # # o * m.N x.V.S.S./.}.].!.D.W ' h.h.6 Q L K n r 2 & 3 5 2 # ; X.M.0XyXcX^ , c q 4 1 o # # # # ",
"# # # # # # # # # # # # o o o # # # & g B > x l.l.y.v.W m G F h.k.oXoXv U.;X;X#X*X&X#.r 1 1 # ) 0XyXtXxXVXrXe o 1 4 5 # # # # # ",
"# # # # # # # # # # # # # , # # # & & ^ !.z C V > t V F f.k.j.k.k.k.oXo.! ;X(.(.R.8XzXdX7 - # v.qXyXuXcXVXxX+X. 1 4 5 o # # # # ",
"# # # # # # # # # # # # # # # & & & 8 / !.C a.d.F F Z V Z D G f.f.k.oXXXm ;X;X(.P.U.9XkX9 $ o b 9XqXxXVXVXuXwXx - 4 0 # # # # # ",
"# # # # # # # # # # # # # + & e ( U.M.+X!.C F d.d.s.s.F F D z z z V S s n ;X-X-XP.P.8X@.$ $ @ ; ].qXyXVXxXtX$Xb - 4 5 , # # # # ",
"# # # # # # # o o , # + + O 3 @X3X3XN.+Xk.F d.d.d.d.a.a.s.s.F D z z w L N.-X-X-X-XR.@.6 ; % % : v.qXzXcXtXOX< A A 0 , & # # # # ",
"# # # # # # # o o # # g / / Q N.3X2XH.P m C C F F C Z V c z m T m.I.;X>X>X-X-X-XH.L $ < 4 % > > m 8XyXrX/ # w sXQ.q , o # # , o ",
"# # # # # # # , o # 8 wXeX6X6X3X3X2X-X-XJ.N.N.m.b.N.D.D.Y.).`.`.,X,X>X>X2X;XH.Q 6 + # 1 0 2 V s.G G X.G > : 7 X.' q 1 # # # # o ",
"# # # # # # # # o o g wXeX3X3X3X3X3X3X2X2X2X2X3X>X'.'.'.'.`.`.<X,X,X-X@X( L 3 @ + # # # 0 0 : f.k.k.h.X.~ v % 2 b q # # # # # # ",
"# # # # # # # # o + O I wXeX6X6X3X3X3X3X3X3X3X3X`.}.}.'.`.).).N.m.) +.#.$.n N R 3 o # # & 5 2 > H h.^.8X@.w ; 4 q 4 # # # # # # ",
"# # # # # # # # # # # + 3 I +X#X#X:X:X;X;X#XU.D.D.E.X.X.X.#.j i f jXjXpX .v p.n.e o # # 1 & 5 w G E U n 4 q q q - & o # # # # # ",
"# # # # # # # # # # # # o & + * b M g U g 9 y k &.y iXgXbXvX-.:.&.| ..] p d N n.e o # # q 4 + v ~.*Xw 0 , 4 > : - o & o # # # # ",
"# # # # # # # # # # # # o * b B y.l.P +X[ _ u =.:.*.f .... .i *.&.y X.~ | o.x c.3 & & # - # % Z ~.) $ # # , ; - # # # # # # # # ",
"# # # # # # # # # # # # # 3 @Xu.t.N I +X[ [ j u :.:.&.' m._ h 2.6.;.k k }  Xn Q & # # # # - % h.{.K + + # o o o # # # # # # # # ",
"# # # # # # # # # # # # # & / I.N N ^ %X[ [ [ p &.<.0.,.l l k k 2.j l ;.}  XH 8 + # # # # # : h.^.8 8 U r o o 1 o & # # # # # # ",
"# # # # # # # # # # # # # # 3 @Xx.N / %X[ [ [ ` p *.1.0.,.l ..iXgXvXbXbXvXpXo.% # # # # & + V ~.) 3 J dXQ.1 & o # # o o , # # # ",
"# # # , # # # # # # # # # # $ g ~ c / %X[ [ [ [ [ y h l 9.fXmXMXbXjXmXCXCXbX .O # # # # # $ D ^.J , b @.] 1 - o # # # # # # # # ",
"# # # # # # # # # # # # # * g I ~ M I =X+.[ [ [ +.] ..gXmXmXvXiX} s iXmXNXbX} * * # o # + ; g.W.* 5 0 < , # o # # # # # # # o # ",
"# # # # # # # # # # # * J M.I.v.x.p.B I +X+.[ [ %X%XdXmXvXhXfXaX XaXlXBXCXjXE R.I.~ b * $ : g.@.* # , , # # # # # # # o # # # # ",
"# # # # # # # # # # + ^ @Xx.i.p.x.Y.J.N.J +.+.[ =X=XfXhXhXhXhXvXnXMXCXAXCXpXe #X,X<X).r t V ^.g o # # # # # # # # # # , # # # # ",
"# # # # # o # # o # + M t.i.x.G.K.P.;X>X( 6 U ] +.=XdXfXhXmXMXCXZXZXAXAXNX5.! Q ;X>X(.l ;.G E.= & # # # # # # # # # # # # # # # ",
"# o , # # # # # o o + % N x.c.G.L.P.;X>Xm.M Y g ' +.&XdXhXmXCXCXZXZXAXZXbXO.:X( m.>X( ,.l Z l f * # # # # # # # # # # # # # # # ",
"# # # # # # # # o @ u &.s x.A.J.L.-X;X2XN.Y F.! e _ { &XfXhXvXCXZXZXAXBXpXX.5X:XL H.j 3.V ` q.q.a # # # # # # o # # o , o o # # ",
"# # # # # # # # @ y :.1.>.d z.K.P.-X;X,Xv.Y C.C.n.b j { dXhXvXCXZXZXZXNX5.!.'.6XM.9 ;.h : f 3.3.= # # # # # # # # # & o & 1 o # ",
"# # # # # # # o t =.7.7.7.<.j Q P.-X>X`.! T C.F.F.G.m d #.gXvXmXZXAXZXjXX.].|.<X$Xj =.u j 8.,.y & # # # # # # # # # # # # # # # ",
"# # # # # # # o h <.w.w.w.7.8.k _ m.R.).L l.c.F.F.F.Y.B d %.vXvXCXAXNX5.E.|.].[.6X^ &.h -.0.8.= # # # # # # # # # # # # # # # # ",
"# # # # # # # o t h 7.w.e.e.e.e.3.7 c x M x.C.F.F.F.J.Y.B s iXmXBXCXbX[ ].].|.|.7X@Xy 3.8.-.t , X   X # # # # # # # # # # # # # ",
"# # # # # # # # O = h 3.e.r.r.q.8.w t.l.c.c.B.c.F.F.J.K.A.g.d fXNXCXpX~ `.[.|.|.5X4Xg ,.0.y + o       o # # # # # # # # # # # # ",
"# # # # # # # # # O t u ;.7.q.,.>.q t.u.x.c.c.C.C.F.G.K.J.T.g.} MXmX..T.`.}.].E.X.M.9 s p * o o X   X # # # # # # # # # # # # # ",
"# # # # # # # # # + O = t &.h g > N y.l.x.x.C.c.C.F.G.J.J.K.D. .MX9.W ).`.^.A w S 2. .s * & & o o o # # # # # # # # # # # # # # ",
"# # # # o # # # # # # + & O O 8 N N y.x.z.z.x.C.F.F.F.J.J.J.v.4.iXE _._.).r 9 _ '  ..X5.` * # # # # # # # # # # # # # # # # # # ",
"# # o     o , # # # # # & # # O o - c x 0 0 n M z.F.G.K.J._.v.s E _._._.L * r r _ ' 4. X#.= o # # # # # # # # # # # # # # # # # ",
"# # o     # # # # # # # # # # # # + O * r j H  .K T z.z.z.b.M e ! m.Q L & 3 r r K ' O.$.p * # # # # # # # # # # # # # # # # # # ",
"# # # o # # # # # # # # # # # # # @ 2 r r K ' 4.4.t * * * * * & + + + @ @ 3 r r d _ j 7 & # # # # # # # # # # # # # # # # # # # ",
"# # # # # # # # # # # # # # # # + * 3 9 r _ _ $.5...* # # # # # o o # # * 2 6 9 7 = * # o o & # # # # # # # # # # # # # # # , # ",
"# # # # # # # # # # # # # # # # * 1 6 r d _ [ $. X#.= # # # # # o & # & + @ @ @ + @ + # & o # # # # # # # # o , # # # # # # # # ",
"# # # # # # # # # # # # # # # # + * * 9 r r j | j 7 * & & o # # # # # # # # # # # o # # # # # # # # # # # # # o # # # # # # # # ",
"# # # # # # # # # # # # # # # # # + + * * * & * * * o o o & # # # # # # # # # # # # # # # # # # # # # # # # # # o # # # # # # # ",
"# # # # # # # # # # # # # # # # # # # # * # # # # # & o # o # # # # # # # # # # # # # # # # o # # # # # # # # # # # # # # # # # ",
"# o , o # # # # # # # # # # # # # # # # # # # # # # # & # # # # # # # # # # # # # # # # # # o , # # # # # # # # # # # # # # # # "
};
