/* XPM */
static char *result[] = {
/* columns rows colors chars-per-pixel */
"64 64 246 2 ",
"   c #151513",
".  c #1A1616",
"X  c #1A1816",
"o  c #1E1D1A",
"O  c #241D16",
"+  c #2A1D16",
"@  c #201F1C",
"#  c #2B1D1A",
"$  c #2E2015",
"%  c #22201D",
"&  c #2A221C",
"*  c #352419",
"=  c #281D24",
"-  c #371C2B",
";  c #371A36",
":  c #1F2827",
">  c #1E312E",
",  c #232323",
"<  c #2A2423",
"1  c #282728",
"2  c #222B2C",
"3  c #2C2D2C",
"4  c #382928",
"5  c #2B322A",
"6  c #38322E",
"7  c #2C2734",
"8  c #232C31",
"9  c #372A36",
"0  c #283637",
"q  c #333334",
"w  c #393535",
"e  c #3C3C3C",
"r  c #482915",
"t  c #522A12",
"y  c #56341C",
"u  c #673919",
"i  c #763D17",
"p  c #4B312E",
"a  c #573B24",
"s  c #463937",
"d  c #653D30",
"f  c #30423F",
"g  c #4E4234",
"h  c #57473B",
"j  c #694426",
"k  c #774A27",
"l  c #795133",
"z  c #7F603A",
"x  c #3D1844",
"c  c #3E0B57",
"v  c #1E3758",
"b  c #26294A",
"n  c #392547",
"m  c #293947",
"M  c #383646",
"N  c #332654",
"B  c #29395A",
"V  c #333658",
"C  c #1E267C",
"Z  c #1A3770",
"A  c #252869",
"S  c #273270",
"D  c #431A46",
"F  c #480F57",
"G  c #461958",
"H  c #46284A",
"J  c #453543",
"K  c #49315B",
"L  c #4D0F6F",
"P  c #4F2C6E",
"I  c #612F7C",
"U  c #2B464A",
"Y  c #364648",
"T  c #2A4757",
"R  c #354A54",
"E  c #2D5455",
"W  c #32595B",
"Q  c #184B75",
"!  c #194E74",
"~  c #284A63",
"^  c #3A4364",
"/  c #29556B",
"(  c #354579",
")  c #275975",
"_  c #355673",
"`  c #196771",
"'  c #2D656A",
"]  c #326A70",
"[  c #327A79",
"{  c #484746",
"}  c #544948",
"|  c #534756",
" . c #4A5456",
".. c #535353",
"X. c #5A5559",
"o. c #525B5B",
"O. c #6A4B4E",
"+. c #625656",
"@. c #78655B",
"#. c #4B4D6E",
"$. c #565468",
"%. c #725369",
"&. c #4F6363",
"*. c #566568",
"=. c #47667C",
"-. c #796669",
";. c #706B73",
":. c #8A4618",
">. c #964C1A",
",. c #9E501C",
"<. c #A7551D",
"1. c #855026",
"2. c #865D33",
"3. c #B15D22",
"4. c #8E663B",
"5. c #9C6A36",
"6. c #B26F33",
"7. c #A6733B",
"8. c #C57430",
"9. c #A26A59",
"0. c #895075",
"q. c #836E70",
"w. c #867776",
"e. c #C9833D",
"r. c #AC8461",
"t. c #CA8C47",
"y. c #D6964D",
"u. c #D99C52",
"i. c #DBA15B",
"p. c #E1AB68",
"a. c #1C2A86",
"s. c #18368B",
"d. c #1C3A94",
"f. c #212786",
"g. c #2E3C8F",
"h. c #570489",
"j. c #550E88",
"k. c #680098",
"l. c #5B2F8D",
"z. c #6D388B",
"x. c #6A1FAF",
"c. c #712DB1",
"v. c #0F478F",
"b. c #114789",
"n. c #1B5887",
"m. c #124A96",
"M. c #13559B",
"N. c #14569B",
"B. c #285989",
"V. c #315193",
"C. c #176694",
"Z. c #2B6A89",
"A. c #276799",
"S. c #164DAD",
"D. c #0D55A8",
"F. c #0C5CAE",
"G. c #155DA3",
"H. c #1C5CA9",
"J. c #0D5AB2",
"K. c #1252B3",
"L. c #3257AF",
"P. c #1664A9",
"I. c #1966AB",
"U. c #176CB2",
"Y. c #1B6BB3",
"T. c #1B6BB8",
"R. c #1C74B7",
"E. c #1D7ABD",
"W. c #296BA8",
"Q. c #2574A6",
"!. c #2F6EB5",
"~. c #2377BA",
"^. c #4B5296",
"/. c #714284",
"(. c #456F8E",
"). c #747588",
"_. c #4D53B0",
"`. c #6851B4",
"'. c #4E6BAA",
"]. c #1E7FC3",
"[. c #2C6FCB",
"{. c #3578D9",
"}. c #3D73E1",
"|. c #4B6ADA",
" X c #7D61C4",
".X c #4B6EE3",
"XX c #4275E2",
"oX c #8D748B",
"OX c #A26680",
"+X c #8C54BD",
"@X c #9A65CC",
"#X c #1B929B",
"$X c #2E8385",
"%X c #3CA39D",
"&X c #2987B8",
"*X c #3EAEAA",
"=X c #458A88",
"-X c #419C97",
";X c #749093",
":X c #5AA1AE",
">X c #1E81C5",
",X c #1F86C9",
"<X c #2286C8",
"1X c #238CD2",
"2X c #2F8ED0",
"3X c #2B85D8",
"4X c #2495D7",
"5X c #259ADC",
"6X c #2DA8D0",
"7X c #2E8CE0",
"8X c #2CA6E1",
"9X c #34AFE4",
"0X c #4E95CA",
"qX c #5FAFE1",
"wX c #2DC7E9",
"eX c #32DDE8",
"rX c #55D5F1",
"tX c #77DAF6",
"yX c #63E0E7",
"uX c #73E7F8",
"iX c #958E8C",
"pX c #AC9A97",
"aX c #AAA39E",
"sX c #9196A9",
"dX c #A597B8",
"fX c #A7A5A6",
"gX c #B5ADA8",
"hX c #B5AAB1",
"jX c #B9B7B7",
"kX c #85B0C8",
"lX c #BCAFC5",
"zX c #D2BDC1",
"xX c #8DEAF8",
"cX c #B5F1FB",
"vX c #C8C7C9",
"bX c #D3C9CE",
"nX c #D9D8D9",
"mX c #E2D8DB",
"MX c #CCC8E0",
"NX c #E7DCE0",
"BX c #D0F7FC",
"VX c #E4E3E4",
"CX c #EBE8EA",
"ZX c #ECF6F8",
"AX c #F3F3F3",
"SX c #FAFAFA",
/* pixels */
"@ @ @ @ o @ @ @ @ @ @ @ @ @ @ @ @ @ @ @ @ @ @ @ @ @ @ @ @ @ @ @ @ @ o % o @ @ @ @ @ @ @ @ @ @ @ @ @ @ @ @ @ @ @ @ @ @ @ @ @ @ @ ",
"@ @ @ @ o : @ @ @ @ @ @ @ @ o @ @ o @ @ @ @ @ @ @ @ @ @ @ @ @ @ o : % o @ @ @ @ @ @ @ @ @ @ @ @ @ @ @ @ @ @ @ @ @ @ @ @ @ @ : @ ",
"@ @ @ o @ @ @ @ @ o @ @ o % % o o o @ @ @ @ @ @ @ @ @ @ @ @ @ @ o @ @ % @ o @ @ @ @ @ @ @ @ @ @ @ @ : o @ @ @ @ @ @ @ @ @ @ o o ",
"@ % o % @ @ @ @ @ @ @ @ % o o , : @ @ @ @ @ @ @ @ @ @ @ @ @ @ @ o @ @ @ @ : @ @ @ @ @ @ @ @ % @ @ @ @ o @ @ @ @ @ @ @ @ @ @ @ @ ",
"@ @ @ @ @ @ @ @ @ @ @ @ @ @ @ @ @ @ @ @ @ @ @ @ @ @ o o o o @ @ @ @ @ @ @ @ @ @ @ @ @ @ o o X o @ @ @ @ @ @ @ @ @ @ @ @ @ @ @ @ ",
"@ @ @ @ @ @ @ @ @ @ @ @ @ @ @ @ @ @ @ @ @ @ @ @ @ @ : @ @ @ @ @ @ @ @ @ O @ @ @ @ @ @ @ o       o @ @ @ @ @ @ @ @ @ @ @ @ @ @ @ ",
"@ @ @ @ X   X o : o @ @ @ @ @ @ @ @ @ @ @ @ @ @ @ @ @ @ @ @ @ @ @ @ @ @ & , @ @ @ @ @ % X       o @ @ @ @ @ @ @ @ @ @ @ @ @ @ @ ",
"@ @ @ o       o @ o @ @ @ @ @ @ @ @ @ @ @ @ @ @ @ @ @ @ @ @ @ @ @ @ @ o T / O @ @ @ @ o X       @ @ @ @ @ @ @ @ @ @ @ @ @ @ @ @ ",
"@ @ @ @ X   X @ @ @ @ @ @ @ @ o @ @ o @ @ @ @ @ @ @ @ @ @ @ o % @ @ @ % ! C.% @ @ @ @ @ @ o X o @ o : @ @ @ @ @ @ @ @ @ @ @ @ @ ",
"@ @ @ @ @ o @ @ @ @ @ @ @ @ o % @ @ = o @ @ @ @ @ @ @ @ @ @ @ @ @ @ % & C.n.% @ @ @ @ @ @ @ , o @ o o @ @ @ @ @ @ @ @ @ @ @ @ @ ",
"@ @ @ @ @ @ @ @ o @ @ @ @ % , o @ @ @ @ @ @ @ @ @ : @ @ @ @ @ @ o o @ q F.Q O @ @ @ @ @ @ @ @ @ @ @ @ @ @ @ @ @ @ @ @ @ @ @ @ @ ",
"@ @ @ @ @ @ @ @ @ @ @ @ @ o % o @ @ @ @ @ @ @ @ @ o @ @ @ @ @ @ % o # U P.Q O @ @ @ @ @ @ @ @ @ @ @ @ @ @ @ @ @ @ @ @ X   o @ @ ",
"@ @ @ @ @ @ @ @ o % o % @ @ @ @ : o = < < < = @ @ @ @ @ @ @ @ @ @ @ + _ U.Q @ @ @ @ @ @ @ @ @ @ @ @ @ @ @ @ @ @ @ @ o     o @ @ ",
"@ @ @ @ @ @ @ @ o o % o @ @ @ @ : : m M q 9 w K 3 @ @ @ @ @ @ @ @ @ & A.F.Z O o @ @ @ @ : @ @ @ @ @ @ @ @ @ @ @ @ @ @ o o @ @ @ ",
"@ @ @ @ @ @ @ @ % o % o @ % : 8 > 8 9 9 9 M ).dX;.< @ @ @ @ @ @ @ @ 3 !.F.b.@ O @ @ @ @ o % @ @ @ @ @ @ @ @ @ @ @ @ @ @ : @ @ @ ",
"@ @ @ @ @ @ @ @ @ % o % @ 2 2 b P = 1 - 9 J oXMXoXq @ @ @ @ @ @ @ @ m ].F.F.v O @ @ @ @ o o @ @ @ @ @ @ @ @ @ @ @ @ o o o @ @ @ ",
"@ @ @ @ @ @ @ @ @ @ @ o : 2 2 = b . 6 o.9 4 | ).$., o o @ @ @ @ O + ( [.F.J.s.7 @ @ @ @ % o % o @ @ @ @ @ @ @ @ : o @ @ @ @ @ @ ",
"@ @ @ @ @ @ @ @ @ o @ , 8 2 , .   b :XtX=.# = - 2 8 : o @ @ @ @ o = V.T.F.J.s.A & @ @ @ @ % o @ @ @ @ @ @ @ @ @ o o @ @ @ @ @ @ ",
"@ @ @ @ @ @ : o @ @ : : 8 = .   ' yXBXxXrXU ; 7 = 8 > @ @ @ o @ @ 7 L.J.F.D.a.a.B O @ @ @ @ @ @ @ @ @ @ @ @ @ @ o @ @ @ @ @ @ @ ",
"@ @ @ @ @ @ @ o @ @ @ : 1 = 8 #XrXcXBXuXrXqXV 7 = 2 2 @ @ @ @ O O 9 ) n.D.D.d.a.g.0 @ @ @ @ @ @ @ @ @ @ @ @ @ @ % @ @ @ @ @ @ @ ",
"@ @ @ @ @ @ @ @ o o @ 2 9 9 > 6XuXcXZXuXrXuX0X: = , 8 @ % & e _ Q.2X6X1XK.J.J.D.a.B.1 o @ @ @ @ @ @ @ @ @ @ @ @ @ @ @ @ @ @ @ @ ",
"@ @ @ @ @ @ @ @ = @ : 2 $.sXM ` rXxXBXxXqXqX!., # < 2 o + R 6X9X8X5X4X2X[.K.K.J.s.V.] % @ @ @ @ @ @ o o @ @ @ @ @ @ @ @ @ @ @ @ ",
"@ @ @ @ @ @ @ @ @ @ = 0 | oXs 8 *XxXcX0X=.$...{ Y Y U q - K (.&X4X7XXX.X[.S.K.J.m.f.~.5 @ @ @ % @ @ @ o @ @ @ @ @ o @ @ : @ @ @ ",
"@ @ @ @ @ @ @ @ @ @ , V 7 4 # = ] uXkX*.sXkX0X2X<X<X<X~ z.+Xz.K ( _.|.XX}.K.K.K.S.f.Q.W @ @ @ o @ @ @ : @ @ @ @ o % o o o @ @ @ ",
"@ @ @ @ @ @ @ @ @ @ @ : 8 # 9 p V ;X;.sXkX0X].~.>X,XQ.K +X+Xc.x.j.P P V.V.S.K.J.D.C m.E O o o % @ @ o X o @ @ @ % @ @ @ @ o @ @ ",
"@ @ @ @ @ @ @ @ @ @ @ , 7 7 M '.^.K n ).qXR.].].,X,X/ z.@Xc.c.x.x.x.l.I G n b Q v ; N Y O o o % @ o       o @ @ @ @ @ @ @ : o @ ",
"@ @ @ @ @ @ @ @ @ @ @ ; ; 7 < (.0X`.z.| 0XR.].>X<X].m %./.I L P P G G G c x x G L c ^.Z.O % o o @ X       o % @ @ @ @ @ @ @ @ @ ",
"@ @ @ @ @ @ @ @ @ @ o = = , 2 q #.P z.L Y Q.].>X,X].) 1 - D G c F F L L L L j.k.k.c l.[ $ @ @ % @ X       o @ @ @ @ @ @ @ @ @ @ ",
"@ @ @ @ @ @ @ @ @ @ @ @ % o : , Y ^.P 4 = m A.,X<X<X1X&XB.B x G L L L h.h.k.k.k.k.F _.[ ` / 1 @ @ o o o o o o @ o , @ @ @ @ @ @ ",
"@ @ @ @ o : @ @ @ @ o o @ @ o o ' '.P 1 , @ , / E.1X1X1X1X3XW.V.B N G L L k.k.k.L L _.Z.&X5X&X/ & % % o , o % o @ o @ @ @ @ o @ ",
"@ @ @ @ o @ @ @ @ @ @ o 3 0 , O &.`.G # % 1 @ + 3 ) ~.2X1X3X3X7X{.[.L.( V V N G x F V E ~.5X5X' $ O @ @ o % @ % o % @ @ @ @ @ @ ",
"@ @ @ @ @ @ @ @ @ @ @ : ;.sXY , (. XH @ , < # , @ h *.W A.<X3X{.{.}.}.}.{.<X<X~.R.Q.Q.R.1X5X5XQ.Z.$X[ < @ @ @ o % o @ @ @ @ @ @ ",
"@ @ @ @ @ @ @ @ @ % o : *.;Xf % (.`.; @ o 5 ) Z S g aXgXr...W A.!.}.}..X.X{.5X5X4X4X4X4X5X5X5X5X8XwXeX[ O o o o % @ @ @ @ @ @ @ ",
"@ @ @ @ @ @ @ @ @ o % % > 0 > 5 (.l.- O o > P.g.H y } ;.jXO.:.u +.$._ L._.}.7X5X8X5X5X5X5X5X5X5X5XeXeX[ % % o % @ @ % @ @ @ @ @ ",
"@ @ @ @ @ @ @ @ @ @ o % : : 2 5 '.l.# % % 5 C.S O.O.=.#.p :.3.:.hXbXaXr.J J K Z.Q.&X4X4X5X8X8X8XeX6X#X% o % % o @ @ @ @ @ @ @ @ ",
"@ @ @ @ @ @ @ @ @ @ % o o o % 5 '.P % o o > n.H oXO.j J k k :.u O.-.w.@.:.<.,.i r f E E ! ' ) ' f 5 % % o % o % @ @ @ @ @ @ @ @ ",
"@ @ @ @ @ @ @ @ @ @ @ @ % o o 0 '.G + O o % m %.oXh 2.1.j r.9.k J B.{ u 3.3.,.y } ..=XU Z A S Z.5 O % o o % o % @ @ @ @ @ @ @ @ ",
"@ @ o : @ @ @ @ @ @ @ @ % o o f `.D O O # O * 0.fXhXgXpXq.@.d 1.k O.4.e.8.,.y } ....%XT C f.A./ O O % % % o % o @ @ @ @ @ @ @ @ ",
"@ @ o @ @ @ @ @ @ @ @ @ % % $ Y _.p r 3 R 0 4 w.NXCXCXVXVXbXfX@.l 7.y.8.,.a { ......-Xm b m W W W E 5 % o % o % @ @ @ @ @ @ @ @ ",
"@ @ @ @ @ @ @ @ @ @ @ @ % j 7.4.L j 2.V.{.{._ w.NXnXbX-.q.jXnXnXaX@.1.:.y { ......o.%XU _ A.A.A.A.Q./ % % o % o @ @ @ @ @ @ @ @ ",
"@ @ @ @ @ @ @ @ @ @ @ @ @ 2.i.7.D 1.z W.1X1XQ.q.NXNXbXOXK %.fXvXnXjXr.g  .o.......o.%XR d.d.s.a.a.f.b $ $ O o % @ @ @ @ @ @ @ @ ",
"@ @ @ @ @ @ @ @ @ @ @ @ % y 5.k D 2.z Q.1X,XQ.;.mXAXCXMXlXhXhXjXvXbXfX;X=X&.....o.=X%XT H.I.P.H.M.d.m :.>.u * % @ @ @ @ @ @ @ @ ",
"@ @ @ @ @ @ @ @ @ @ % o % j t.7.- i 2.B.>X>XP.} bXAXSXAXnXbXvXjXgXvXjX:X*X*...&.$X] E Q.>XE.R.U.H.m.f 3.e.3.<.t @ @ @ @ @ @ @ @ ",
"@ @ @ @ @ @ @ @ o % o % @ j t.7.t >.1./ R.R./ g zXAXSXAXAXCXVXnXjXfXfX:X%Xo.&.W Y 7 ) ,X<X>XR.T.W.B.k e.y.y.8.i o @ @ @ @ @ @ @ ",
"@ @ @ @ @ @ @ @ @ @ @ o % $ l 7.k <.<.s I.n.) ] gXCXSXSXZXCXnXnXjXfX:X=XX...Y T s.S B <X1X<X].R.Y.M 6.t.u.u.7.t o @ @ @ @ @ @ @ ",
"@ @ @ @ @ @ @ @ @ @ o % % O 7.i.5.>.>.r Q T 6XW.w.NXAXAXAXCXvXjXjX;X*...f U n.G.m.f.b W.3X1X<X].n.1.e.y.i.u.i * o @ @ @ @ @ @ @ ",
"@ @ @ @ @ @ @ @ @ @ @ @ o @ a l r r + O < Z.8X'.+.bXAXSXCXnXjXjXsX&.g w / P.P.G.N.s.A T {.2X1XQ.h t.u.i.i.7.t * @ @ @ @ @ @ @ @ ",
": @ @ @ @ @ @ @ @ @ @ @ @ @ 9 n O o % @ 6 6X7X.X$.jXCXSXCXvXvXaXo.6 R N.U.P.P.N.G.m.a.b B.{.W.q 5.u.i.p.t.u t % % @ @ @ @ @ @ @ ",
"o @ @ @ o o o @ @ @ @ @ @ o M x O % o O ' 8X{..X^.iXVXAXnXbXfX} s ( Y.U.U.P.G.G.N.m.s.C b R < O a t.7.6.<.r O o o % @ @ @ @ @ @ ",
"o o @ @ : o @ @ @ @ @ @ @ o M ; O % $ * Y ] '.|.'.;.mXVXnXhX} H V.T.Y.U.P.P.G.G.N.M.s.f.C Z.< o $ j y t r O % % % o @ @ @ @ @ @ ",
"@ @ @ @ @ @ @ @ @ @ @ @ @ O n - $ 6 +.0.0.O.s K '.$.zXNXjX} P L.[.T.Y.I.P.P.G.N.M.v.v.a.f.Q.U o X   o % @ % @ @ o % @ @ @ @ @ @ ",
"@ @ @ @ @ @ @ @ @ @ @ @ @ # n = * +.w.w.0.} } p #.( iXVX;.l.L.T.T.T.U.U.P.P.G.N.M.M.b.a.C H.W @       o o % o @ % o @ @ @ @ @ @ ",
"@ @ @ @ @ @ @ @ @ @ @ @ @ @ x # % s w.-.{ { f w 1 V.^ gXw.^.[.T.T.!.T.I.P.G.G.N.M.M.b.s.C d./ $ X   X @ @ @ @ @ @ @ @ @ @ @ @ @ ",
"@ @ @ @ @ @ @ @ @ @ @ @ @ # ; O % % h X.{ { s q 1 ^ L.X.@.V.].[.T.T.Y.I.P.G.N.N.b.v.b.s.C A 0 % @ @ @ @ @ @ @ @ @ @ @ @ @ @ @ @ ",
"@ @ @ o o @ @ @ @ @ @ @ @ O + O @ o $ p { e w q 1 m {.A.9 V.[.].T.T.Y.H.P.G.D.M.m.b.Z 8 = # O @ @ @ @ @ @ @ @ @ @ @ @ @ @ @ @ @ ",
"@ @ o X X o @ @ @ @ @ @ @ @ @ @ @ o X @ * q q 3 < & T / 0 ~ B.n.B.n.n.n.! ! v m q 9 6 & + O % @ @ @ @ @ @ @ @ @ @ @ @ @ @ @ @ @ ",
"@ @ @   X o @ @ @ @ @ @ @ @ @ @ @ o       O & < $ + @ @ $ % % % , @ % % & O + r 0.%.s M q & O @ @ @ @ @ @ @ @ @ @ @ @ @ @ @ @ @ ",
"@ @ @ X o @ @ @ @ @ @ @ @ @ @ @ @ @         O + O @ @ @ o % % @ @ @ @ @ @ @ 4 -.OX+.J g q 6 $ @ @ @ @ o @ @ @ @ @ @ @ @ @ @ : @ ",
"@ @ @ @ @ @ @ @ @ @ @ @ @ @ @ @ @ @ o       @ @ @ @ @ @ @ @ @ @ @ @ = @ o % } oXq.X.{ Y w 3 1 + o @ o o @ @ @ @ @ @ @ @ @ @ o o ",
"@ @ @ @ @ @ @ o @ @ = o @ @ @ @ @ @ o X X @ @ @ @ @ @ @ @ @ @ @ @ @ o % o $ h w.q...{ g w q 1 $ % @ : @ @ @ @ @ @ @ @ @ @ @ @ @ ",
"@ @ @ @ @ @ @ o @ @ @ @ @ @ @ @ @ @ @ @ % o % o @ @ @ @ @ @ @ @ @ @ @ o % o $ 6 s s p 6 6 * $ O o o % @ @ @ @ @ @ @ @ @ @ @ @ @ ",
"@ @ @ @ @ @ @ : @ @ @ @ @ @ @ @ @ @ @ @ @ % o @ @ @ @ @ @ @ @ @ @ @ @ % o % % o @ O $ % @ @ @ @ o % @ @ @ @ @ @ @ @ @ @ @ @ @ @ ",
"@ @ @ @ @ @ @ @ @ @ @ @ @ @ @ @ @ @ @ @ @ @ @ @ @ @ @ @ @ @ @ @ @ @ % o % o o % @ @ @ o @ @ @ @ @ @ @ @ @ @ @ @ @ @ @ @ @ @ @ @ ",
"@ @ @ @ @ @ @ @ @ @ @ @ @ @ @ @ @ @ @ @ @ @ @ @ @ @ @ @ @ @ @ @ @ @ o % o o % o @ @ @ @ @ @ @ @ @ @ @ @ @ @ @ @ @ @ @ @ @ @ @ @ "
};
