/* XPM */
static char *result[] = {
/* columns rows colors chars-per-pixel */
"64 64 128 2 ",
"   c #030301",
".  c #080705",
"X  c #060800",
"o  c #0B0A00",
"O  c #050609",
"+  c #0C0C0B",
"@  c #110F00",
"#  c #100E0B",
"$  c #141202",
"%  c #1D1500",
"&  c #1E1900",
"*  c #12120D",
"=  c #1C1D08",
"-  c #0D0D13",
";  c #131211",
":  c #181712",
">  c #1A1917",
",  c #161618",
"<  c #18171A",
"1  c #1D1C1A",
"2  c #201700",
"3  c #231B00",
"4  c #281E00",
"5  c #221B08",
"6  c #201F1C",
"7  c #2D2200",
"8  c #272803",
"9  c #2B2C05",
"0  c #212109",
"q  c #29210A",
"w  c #2D2C0A",
"e  c #322502",
"r  c #372802",
"t  c #3D2D02",
"y  c #343404",
"u  c #3B3B06",
"i  c #33330B",
"p  c #3F3F0D",
"a  c #21201D",
"s  c #1C1E22",
"d  c #262626",
"f  c #2A2B2B",
"g  c #2B2B30",
"h  c #3E3B30",
"j  c #333439",
"k  c #39393B",
"l  c #453302",
"z  c #493702",
"x  c #4D3902",
"c  c #533D03",
"v  c #434306",
"b  c #4B4C06",
"n  c #46470E",
"m  c #49490E",
"M  c #574003",
"N  c #5A4203",
"B  c #535407",
"V  c #52520E",
"C  c #614703",
"Z  c #644903",
"A  c #6A4D03",
"S  c #6F5004",
"D  c #765605",
"F  c #7A5905",
"G  c #646509",
"H  c #6A6B0B",
"J  c #73730B",
"K  c #777809",
"L  c #7B7C0B",
"P  c #646412",
"I  c #6A6A12",
"U  c #747514",
"Y  c #434345",
"T  c #45464B",
"R  c #4B4B4D",
"E  c #535354",
"W  c #5F5F61",
"Q  c #636363",
"!  c #67676A",
"~  c #6E6E6E",
"^  c gray45",
"/  c #7C7C7C",
"(  c #815E06",
")  c #866106",
"_  c #936B06",
"`  c #996F07",
"'  c #9C7107",
"]  c #A37507",
"[  c #A67807",
"{  c #A97A07",
"}  c #7F8013",
"|  c #8A8B0C",
" . c #91900B",
".. c #828315",
"X. c #8C8D17",
"o. c #8E8F18",
"O. c #939417",
"+. c #9B9B15",
"@. c #949618",
"#. c #9A9A18",
"$. c #A4A30C",
"%. c #B3B30D",
"&. c #BDBD0F",
"*. c #A3A312",
"=. c #A4A519",
"-. c #A9A91A",
";. c #BDBD11",
":. c #BEBE1C",
">. c #C1BF0E",
",. c #CCCC11",
"<. c #C5C51D",
"1. c #C9C91D",
"2. c #D3D315",
"3. c #DBDB17",
"4. c #D4D41D",
"5. c #DCDC1C",
"6. c #ECEC1F",
"7. c #F1F21F",
"8. c #DCDC20",
"9. c #E2E221",
"0. c #EAEA21",
"q. c #F1F221",
"w. c #FAFA22",
"e. c #808080",
"r. c #878788",
"t. c #8A8A8A",
"y. c #959595",
"u. c #9D9D9D",
/* pixels */
"6 6 6 6 6 6 6 6 6 6 6 6 6 6 6 6 6 6 6 6 6 6 6 6 6 6 6 6 6 6 6 6 6 6 6 6 6 6 6 6 6 6 6 6 6 6 6 6 6 6 6 6 6 6 6 6 6 6 6 6 6 6 6 6 ",
"6 6 6 6 6 6 6 6 6 6 6 6 6 6 6 6 6 6 6 6 6 6 6 6 6 6 6 6 6 6 6 6 6 6 6 6 6 6 6 6 6 6 6 6 6 6 6 6 6 6 6 6 6 6 6 6 6 6 6 6 6 6 6 6 ",
"6 6 6 6 6 6 6 6 6 6 6 6 6 6 6 6 6 6 6 6 6 6 6 6 6 6 6 6 6 6 6 6 6 6 6 6 6 6 6 6 6 6 6 6 6 6 6 6 6 6 6 6 6 6 6 6 6 6 6 6 6 6 6 6 ",
"6 6 6 6 6 6 6 6 6 6 6 6 6 6 6 6 6 6 6 6 6 6 6 6 6 6 6 6 6 6 6 6 6 6 6 6 6 6 6 6 6 6 6 6 6 6 a a 6 6 6 6 6 6 6 6 6 6 6 6 6 6 6 6 ",
"6 6 6 6 6 6 6 6 6 6 6 6 6 6 6 6 6 6 6 6 6 6 6 6 6 6 6 6 6 6 6 6 6 6 6 6 6 6 6 6 6 6 6 6 6 1 , > 6 6 6 6 6 6 6 6 6 6 6 6 6 6 6 6 ",
"6 6 6 6 a 1 6 6 6 6 6 6 6 6 6 6 6 6 6 6 6 6 6 6 6 6 6 6 6 6 6 6 6 6 6 6 6 6 6 6 6 6 6 6 1 : : : 6 6 6 6 6 6 6 6 6 6 6 6 6 6 6 6 ",
"6 6 6 a > : > a 6 6 6 6 6 6 6 6 6 6 6 6 6 6 6 6 6 6 6 6 6 6 6 6 6 6 6 6 6 6 6 6 6 6 6 6 > ; ; , 1 6 6 6 6 6 6 6 6 6 6 6 6 6 6 6 ",
"6 6 6 1 : ; ; 1 6 6 6 6 6 6 6 6 6 6 6 6 6 6 6 6 6 6 6 6 6 6 6 6 6 6 6 6 6 6 6 6 6 6 6 6 > : : : 6 6 6 6 6 6 6 6 6 6 6 6 6 6 6 6 ",
"6 6 6 6 > : > 6 6 6 6 6 6 6 6 6 6 6 6 6 6 6 6 6 6 6 6 6 6 6 6 6 6 6 6 6 6 6 6 6 6 6 6 6 6 1 > 1 6 6 6 6 6 6 6 6 6 6 6 6 6 6 6 6 ",
"6 6 6 6 1 1 6 6 6 6 6 6 6 6 6 6 6 6 6 6 6 6 6 6 6 6 6 6 6 6 6 6 6 6 6 6 6 6 6 6 6 6 6 6 6 a a a 6 6 6 6 6 6 6 6 6 6 6 6 6 6 6 6 ",
"6 6 6 6 6 6 6 6 6 6 6 6 6 6 6 6 6 6 6 6 6 6 6 6 6 6 6 6 6 6 6 6 6 6 6 6 6 6 6 6 6 6 6 6 6 6 6 6 6 6 6 6 6 6 6 6 6 6 6 6 6 6 6 6 ",
"6 6 6 6 6 6 6 6 6 6 6 6 6 6 6 6 6 6 6 6 6 6 6 6 6 6 6 6 6 6 6 6 6 6 6 6 6 6 6 6 6 6 6 6 6 6 6 6 6 6 6 6 6 6 6 6 6 6 6 : : 1 a 6 ",
"6 6 6 6 6 6 6 6 6 6 6 6 6 6 6 6 6 6 6 6 6 6 6 6 6 6 6 6 6 6 6 6 6 6 6 6 6 6 6 6 6 6 6 6 6 6 6 6 6 6 6 6 6 6 6 6 6 6 1 : ; 1 6 6 ",
"6 6 6 6 6 6 6 6 6 6 6 6 6 6 6 6 6 6 6 6 6 6 6 6 6 6 6 6 6 6 6 6 6 6 6 6 6 6 6 6 6 6 6 6 6 6 6 6 6 6 6 6 6 6 6 6 6 6 6 1 6 6 6 6 ",
"6 6 6 6 6 6 6 6 6 6 6 6 6 6 6 6 a 6 6 6 6 6 6 6 6 6 6 6 6 6 6 6 6 6 6 6 6 6 6 6 6 6 6 6 6 6 6 6 6 6 6 6 6 6 6 6 6 6 6 a a 6 6 6 ",
"6 6 6 6 6 6 6 6 6 6 6 6 6 6 6 6 1 1 6 6 6 6 6 6 6 6 6 6 6 6 6 6 6 6 6 6 6 6 6 6 6 6 6 6 6 6 6 6 6 6 6 6 6 6 6 6 6 6 6 6 6 6 6 6 ",
"6 6 6 6 6 6 6 6 6 6 6 6 6 6 1 > , > a a 1 a 1 a a 1 a a a a 6 6 a 1 a 1 1 a 1 a 6 6 6 6 6 6 6 6 6 6 6 6 6 6 6 6 6 6 6 6 6 6 6 6 ",
"6 6 6 6 6 6 6 6 6 6 6 6 6 a > : ; : 1 a a a a a a a a 1 a 1 6 a a a a a a a a a 6 6 6 6 6 6 6 6 6 6 6 6 6 6 6 6 6 6 6 6 6 6 6 6 ",
"6 6 6 6 6 6 6 6 6 6 6 6 6 6 > ; ; : 1 a a a 1 a a 1 a a a a a a a 1 a a a a 1 a 6 6 6 6 6 6 6 6 6 6 6 6 6 6 6 6 6 6 6 6 6 6 6 6 ",
"6 6 6 6 6 6 6 6 6 6 6 6 6 6 1 : , > a 1 6 1 a a a a 1 a a 1 a 1 a a 1 a a 1 a a 6 6 6 6 6 6 6 6 6 6 6 6 6 6 6 6 6 6 6 6 6 6 6 6 ",
"6 6 6 6 6 6 6 6 a 6 6 6 a a a a 1 a a a 6 a 1 a a a a 1 6 6 6 6 a 1 a a a a 1 a 6 6 6 6 a 6 6 6 6 6 a a a 1 a 6 6 6 6 6 6 6 6 6 ",
"6 6 6 6 6 6 6 6 6 1 > > > > > > > > > > > > > > > 1 > > > > < 1 > > > > > 1 > > > > > > > > > > > > > > > > > 6 6 6 6 6 6 6 6 6 ",
"6 6 6 6 6 6 6 6 1 + . . . O . . . . . . . . . . . . . . . . . . . . . . . . . . . . . . . . . . . . . . . . * 1 6 6 6 6 6 6 6 6 ",
"6 6 6 6 6 6 6 1 : & & & 2 & 2 & 2 & & & 3 & 2 & 2 2 2 2 2 5 2 2 & 3 5 2 2 & 2 & 2 & & 5 & & & & & & & & & 2 % , > 6 6 6 6 6 6 6 ",
"6 6 6 6 6 6 1 # @ c D D D D D D D D D D D D D D D D D D D F F D F F F F F D D D D D D D D D D D D D D D D D c @ * 1 a a a a a 1 ",
"6 6 6 6 6 1 : 5 l F { { [ [ [ [ [ [ [ [ [ [ [ [ [ [ ] ( Z C C C C N N C ( [ [ [ [ { [ [ [ [ [ [ [ { ] { { { F l 5 : > a 1 a a a ",
"6 6 6 6 6 # @ x ) _ ` ` ` ` ` ' ` ` ' ' ` ` ` ` ` ] _ l @ o @ $ $ @ + @ l _ ' ` ` ` ` ` ` ' ` ` ` ` ` ` ` ` _ ( z @ * 1 6 6 1 a ",
"6 6 6 > # .   4 c x z x z z z z z z z z z z z z z x l % . s j j j j s   % z x z z z z z z z z z z z z z z x x c 7     ; > 6 6 a ",
"6 6 6 ;       o o o o o @ o o o o o o o @ o o @ o o X   ; E t.t.t.r.E ;   X o @ o o @ o @ o o o o o o @ o @ o o o       ; 1 a a ",
"6 6 1 ;   % r r r r r e e r r e r r r r e r r r e % . s R e.u.u.u.u.e.R s . % e r r e e e e r r r r e e r r r e r r % X * a 1 a ",
"6 6 6 ; X 4 c C c N N N N N N N M M N c c N N N c 4 # Y t.t.e./ e.e.r.t.Y + 4 c N N N N N c N N c c N N c N N N N c 4 X * a a a ",
"6 6 6 *   @ 3 3 2 2 2 2 3 3 2 & & & & & 3 3 3 3 & o + R t.E f d d f E t.R + @ 3 2 2 2 2 3 3 2 2 4 & & & % % & 2 2 2 o   ; a a 1 ",
"1 a 1 ;       o & & $ X     o $ & & = = .     o = $ O k W d   * # . d W k O     $ & & @   o = $   $ 0 0 0 0 0 & & $ @   ; a 6 6 ",
"a a a ;     X v J L B $     8 H L } +...0     i X.V X - < O * T Y ; . < -     X v K K b o i X.m + m =.-.=.=.@.L K J y o ; a 6 6 ",
"a a 6 *   @ y K &.,.*.V w i J ;.$.| 4.5.I 0 . m 4.-.p w w o , ~ ~ < o 9 i i q y } >.,.+.m U 0.@.n #.w.w.7.w.q.2.,.%.b X ; 6 6 6 ",
"a 1 6 ; X u | $.&.3.9.<.:.<.8.8.H w O.q.8...= p 4.0.<.1.-.i , ! ! , i -.1.:.*. .$.<.3.8.1.4.q.8.<.9.6.2.,.6.w.0.3.%.b X * 6 6 6 ",
"a a a * o r G H H } o.O.O.O.@...i + n X.#.P = 0 U @.@.@._ w - k k - 9 } #.O.} H G H } X.o.X.X.o.O.o...H H } o.o.} G 9 X ; 6 6 6 ",
"1 a 1 ;   o $ $ $ $ = * = $ = @ o . @ $ $ $   X $ = # = * . O + + . X * = $ $ @ $ $ $ = = = $ $ = $ $ $ $ $ $ $ $ $ o   ; 6 6 6 ",
"a 1 a ;   @ 3 4 7 0 3 3 4 4 3 4 7 7 0 3 7 4 7 7 4 o   < f ; # d d + - g <   $ 3 7 4 4 4 2 4 4 4 3 0 4 7 q 0 4 4 3 3 @   ; 6 6 6 ",
"a a 1 ; X 7 C C N N N N N N N N N N N N N N N N N 8 + Y ^ f , W W , f ^ Y + 7 N N N N N N N N N N N N N N N N N C C 7   * 6 6 6 ",
"a 1 a ; X e C z e 4 4 4 3 4 4 4 7 3 3 0 4 4 4 4 4 @ + R e.g > ~ ~ < f e.R + @ 4 4 4 4 4 3 4 4 4 4 4 4 4 4 4 4 7 z C e X ; 6 6 6 ",
"a a 1 ; X r N 4   o @ @ @ @ @ $ $ $ @ $ $ @ @ @ @ o . R / f , E E : f / R . X @ @ @ @ @ @ $ $ @ @ @ @ @ @ @ o   7 N r X ; 6 6 6 ",
"a a a ; X e N 2 o t N N N N N N N N N N N N N N c 7 # T / d   > 1   f / T # 4 N N N N N N N N N N N c N c Z t o & N e X # 6 6 6 ",
"1 a 1 ; X e N 3 @ Z [ ' ' ' ' ' ' ' ' ' ' ' ' [ ` l # T e.Y : , , ; Y e.T # x ` [ ' ' ' ' ' ' ' ' ] ] ` ] ] Z @ 3 N e X ; 6 6 6 ",
"6 6 6 ; o e c 3 @ Z [ ] ' ' ' ' ' ' ' ' ' ' ] ] ` x # Y t./ Q Q Q Q / t.T + z ` [ ' ' ] ' ' ] ' ' ] ' ' ] ] Z $ 3 C e   ; 6 6 6 ",
"6 6 6 # X r N 3 $ Z ] ` ' ' ' ' ' ' ' ' ' ' ' ' ` l # f Q r.u.u.u.u.r.Q f + z ` ] ` ' ' ' ` ' ` ' ` ` ' ` ] Z @ 3 c e o ; 6 6 6 ",
"6 6 6 ; X e N 3 $ C ' ' ' ' ' ` ' ' ' ` ` ' ' ' ` x . O s Q y.y.y.y.E d O o x ` ' ` ' ` ' ` ' ' ' ' ' ' ' ] Z $ 3 N e X ; 6 6 6 ",
"6 6 6 ; X r N 3 $ C ] ' ' ` ` ' ' ` ' ` ' ' ' ] ` x o o 5 h E E E E h 0 o o x ` ] ` ` ' ` ' ' ` ` ` ' ` ` ] Z @ 3 N e X ; 6 6 6 ",
"6 6 6 ; o e c 3 @ Z ' ' ` ' ` ' ' ` ' ' ` ' ` ] ` x @ 4 c 5 # # + # q c 7 o z ` ] ' ' ` ` ` ` ` ' ' ` ' ' ] C $ 3 N e X ; 6 6 6 ",
"6 6 6 ; X e C 2 @ Z ] ' ' ` ` ' ` ' ' ` ` ' ` ] ` l @ e C l 4 4 4 3 l C r o z ` ] ' ` ' ` ] ` ` ` ' ' ` ' ' Z @ 2 N r o ; 6 6 6 ",
"6 6 6 ; o e N 3 $ Z ] ' ` ' ' ` ` ' ' ` ' ' ` ' ` z @ 4 Z A Z Z Z Z A Z 7 o z ` ' ` ` ' ` ] ` ] ` ' ' ` ' ] Z @ 3 N e X # 6 6 6 ",
"6 6 6 ; X e N 3 $ Z ' ' ' ` ' ' ' ` ' ' ` ' ' ] ` x o e A S A A S A S A 7 @ z ` ] ` ' ` ` ` ` ` ' ' ` ' ' ] Z $ 3 N e X ; 6 6 6 ",
"6 6 6 ; X e N 3 @ Z ] ' ' ` ' ' ` ' ` ` ` ' ` ] ` l @ 7 A A A A A Z A A e o z ` ' ' ` ' ] ` ` ] ` ' ` ' ' ] C @ 2 C e o ; 6 6 6 ",
"6 6 6 ; o e N 3 @ C ] ' ` ' ' ` ' ' ' ' ' ' ` ' ` x o 7 Z A Z A A A A Z e o z ' ] ` ' ` ` ` ` ` ` ' ' ' ' ' C % 3 c e o ; 6 6 6 ",
"6 6 6 #   e c 3 @ A ] ' ' ' ' ' ' ' ' ' ' ' ' [ ` x o e A A A A A A A A e o z ' ] ' ' ' ' ' ' ` ' ' ' ' ] ] C @ 3 N e   ; 6 6 6 ",
"6 6 6 + o e C 2 @ Z ] ] ] ' ] ] ' ] ' ] ' ] ' [ ` x @ 7 Z A A A Z A A A e o z ' ] ] ' ] ` ] ] ] ] ' ] ' ] ] Z $ 3 N e X ; 6 6 6 ",
"6 6 6 . X r N 2 @ l A Z Z Z Z Z Z Z Z Z Z Z Z Z Z 7 o e A A Z A A A A A e o e C A Z Z Z Z Z Z Z Z Z Z Z Z Z l o 3 N e o ; 6 6 6 ",
"6 6 6 ; o r c 3   o $ @ @ @ $ @ $ @ @ $ $ @ $ $ @ o o e Z A A A Z A A Z r   o @ $ @ @ @ $ @ $ @ @ $ @ @ $ @ o   3 N e o # 6 6 6 ",
"6 6 6 # o e C l 4 3 3 3 3 3 3 3 3 3 3 2 3 3 3 3 2 @ o r A S S A A A S A e o @ 3 3 3 3 4 3 3 3 3 3 3 3 3 2 3 4 4 l C e X ; 6 6 6 ",
"6 6 6 ; o 4 C Z c N N N N C c N N N N c c C c C c 7 o 7 Z A Z Z Z A A Z e o e c N C c c c C c C N N N N N N C c Z C 7 X ; 6 6 6 ",
"6 6 6 ;   $ 7 e e e e e e e e e r 7 r r r r 7 r r % o @ 7 e 7 7 7 e e 7 $ o % e r r 7 r e e e e e e e e e e e e r 4 @   ; 6 6 6 ",
"6 6 6 ; .   o o   o o   X o o X o X   o     o o o     o   o o o X   o o         o     o o o   o o X X o X o o   X o   . ; 6 6 6 ",
"6 6 6 > ; # ; ; # ; ; ; ; ; ; # ; # ; ; ; ; ; # ; ; # ; ; ; ; ; ; # ; ; ; # ; ; ; ; # ; # ; ; ; ; ; ; # ; ; ; ; ; # # ; > 6 6 6 ",
"6 6 6 6 6 6 6 6 6 6 6 6 6 6 6 6 6 6 6 6 6 6 6 6 6 6 6 6 6 6 6 6 6 6 6 6 6 6 6 6 6 6 a 6 6 6 6 6 6 6 6 6 6 6 6 6 6 6 6 6 6 6 6 6 "
};
