/* XPM */
static char *result[] = {
/* columns rows colors chars-per-pixel */
"64 64 58 1 ",
"  c #020101",
". c #080601",
"X c #0B0A00",
"o c #05060A",
"O c #0B0B0A",
"+ c #110F00",
"@ c #100E0B",
"# c #151100",
"$ c #1C1500",
"% c #1F1900",
"& c #12110E",
"* c #131211",
"= c #181715",
"- c #1A1816",
"; c #1D1C1A",
": c #231B00",
"> c #281E00",
", c #221B08",
"< c #201F1C",
"1 c #2D2200",
"2 c #29210A",
"3 c #322502",
"4 c #3C2C02",
"5 c #21201D",
"6 c #1B1C20",
"7 c #292825",
"8 c #26272A",
"9 c #27292D",
"0 c #2B2B2C",
"q c #2D2E31",
"w c #3E3B30",
"e c #3E3D3C",
"r c #443102",
"t c #493702",
"y c #4D3802",
"u c #523C03",
"i c #5B4203",
"p c #604703",
"a c #644903",
"s c #6A4C03",
"d c #6F5004",
"f c #715204",
"g c #424344",
"h c #45464B",
"j c #4A4B4C",
"k c #525355",
"l c #636363",
"z c gray42",
"x c #727272",
"c c #7B7B7B",
"v c #996E07",
"b c #9C7107",
"n c #A37507",
"m c #828282",
"M c #878788",
"N c #8E8E8E",
"B c #959595",
"V c #9B9B9B",
/* pixels */
"<<<<<<<<<<<<<<<<<<<<<<<<<<<<<<<<<<<<<<<<<<<<<<<<<;55<<<<<<<<<<<<",
"<<<<<<<<<<<<<<<<<<<<<<<<<<<<<<<<<<<<<<<<<<<<<<<<<<55<<<<<<<<<<<<",
"<<<<<<<<<<<<<<<<<<<<<<<<<<<<<<<<<<<<<<<<<<55<<<<55;5<<<<<<<<<<<<",
"<<<<<<<<<<<<<<<<<<<<<<<<<<<<<<<<<<<<<<<<<<5;<<555;55<<<<<<<<<<<<",
"<<<<<<<<<<<<<<<<<<<<<<<<<<<<<<<<<<<<<<<<5;555;=;<<<<<<<<<<<<<<<<",
"<<<55;<<<<<<<<<<<<<<<<<<<<<<<<<5<<<<<<<<5555;=*=;<<<<<<<<<<<<<<<",
"<<<5-=-5<<5<<<<<<<<5<<;<<5<<<555<<55<<<<5;<<-==*;555<<<<<<<<<<<<",
"<<<;=**;;;;;;;;;;;;;;;;;;;;;;577775<;;;;;;;;=&**;;;;;;;;;<<<<<<<",
"<<<<-*-*OOOOOOOOOOOOOOOOOOOO&ellllw*OOOOOOOOOO.OOOOOOOOO&555;5;5",
"<<<<---O                   O;lBBBBl;O                   O=;55555",
"<<<=OO.                   oqlmBBBBml0o                   o&;;5;5",
"<<<& .#$########$+$####$$.OjNczlzzcNjOX#####$+$###$######$$==;55",
"<<<@.:yuuuuuuuuuuuuuuuuuu:Ojmg-===gmjO>uuuuuuuuuuuuuuuuuuy>XO;55",
"<<<*.:rrrrrrrrrrrrrrrrrrr$Oqj-o-; ;jqO$rtrrrrrrrrrrrrrrrrr%.*;<5",
"<<<@ .X++X+XX+X++XX++++XX. O@o=kk*o*O XXXX++X+X+X+X+X++XX#X *<<<",
"<<<*.#::::::::::::::::::>>>>,.=xx;.$>>>:>:::::::::::::>:::# *<<<",
"<<<*.1iapppppppppppppppppapsu$=ll*$uappppppppppppppppppppp3.@<<<",
"<<<*.3sfddsddsdddssddddssssfa$O09O$pfdsdddsddsddsdsdsdddds3.*<<<",
"<<<*.1asssssssssssasasssssssi>..O.>pdsssasssssssssssssssda3.*<<<",
"<<<*X3adsasssssassssssssssssayr33ryassassssssaasssssassssa1.*<<<",
"<<<*.1assssssssssssasssasssssssssssssssssssasssssssasssssa1.*<<<",
"<<<*X1afssasssasssssssssasssssssdsssssssssssssssssssssassa3.*<<<",
"<<<*.1assssssssssssssssssssssssasssssassassssasssassssssfa3.*<<<",
"<<;*X3afassssasasasssassssssssssassssssssssssssssssssasssa1.*<<<",
"<<<&X1adssssssssssssssssassssssssssssssssassssasssssasssfa1.&<<<",
"<<<*.3assssssassssssssssssssassssssssassssssssssssssssssda3.*<<<",
"<<<*X1sssssassssssassassssssssssssasssssssasassssasasssssa1X*<<<",
"<<;*.1afsssssssssssssssssssasssassssssasssssssssssssssasds1.&<<<",
"<<<&.1assssssssasasssssssssssssssssssssasasssssasssssssssa1X*<<<",
"<<<*X1afassassssssssssasasassssssasssssssssssssssssassssda1.*<<<",
"<<<*X1assssssssssssaasssssssssssssssassssssssassasssssssda1X*<<<",
"<<<*.1adsssssasssssssssssssssasssssssssssasssssssssssssssa1X@<<<",
"<<<*X1adssssssssssssssssssassssssassssssssssssssssssssssdp1X*55<",
"<<<*X3addssdssssssdssdsdssddsssdssssssdsdsssdsdsssdsdsssds1.&5<<",
"<<<&.1ifssssssssssssssssssdssssssasssasssdssssssssssssssdp1X&<<<",
"<<<*.$44444444444444444444444444rrr34r4r444444444444444444%.&<<<",
"<<<& XXXXXXXXXXXXXXXXXXX+XXXOX+O@XX+..XXXXXXXXXXXXXXXXXXXX. &;55",
"<<<*.#1111111111111111111+o6q&O88O*q<o#111111111111111111:#.&5;5",
"<<<*X1iaiiiiiiiiiiiiiiiii1Ogx0*ll*0xgO1uiiiiiiiiiiiiiiiiai1.&555",
"<<<*X3a411:11:111:21>>1:1#Ojm0-xx-0mjO#>>>1>>>>11:1:1>>1ta3.*5;5",
"<<<&.3i1.X++++##X+##++++X.Ojc0&kk*0cjO.#+#++#+#X+++#++X.1i3.*555",
"<<<*.3i%X4iiiiiiiiiiiiiii1Ojc0o;;o0cjO>upupuiiiiiiiiii4X%i3.*5<<",
"<<<*X3i%#annbbbbbbbbbbbnbt@hcg*-==emh@tbnbbbbbbbbbbbbna#%i1X&<<<",
"<<<&.1i:#snbbbbbbbbbbbbnbt@hNcllllcNh@tvnbbnbbnbbbbbnnp#:i3X&<<<",
"<<<*X3i:+abbbbbvbbbvbbbbvtO9lMVVVVMlqOyvnvbbvbbbbbbbbbs#%i3X&555",
"<<<*X1i:#abbvvbbvvbbbbbbbtXo6lBBBBl6o.yvnbvbvbvbbbvbbna#:i3.&;5;",
"<<<*X3i%+abbbvbvbbbbbbbbvtX.,wkjkkw,XXyvnvvvbbbbbvbbbbp#:i3O&555",
"<<<*X1i:#abbbbbvbvbbbbbnvtX2i2*OO@,u1Xyvbvnvbvbvbbbvbba#%i1.*5;5",
"<<<*X1i:+abbbbbbbvbbvbbbbtX3a411:14p1+tvbbbvvbbvvbvbbbs#:i3X*<<<",
"<<<*X3i:#abbbbbbbbvbvbbbbt+1asaapasa1Xtvbbvbbvbbbbvbbba#:i1.*<<<",
"<<<*X1i:#abbvbbbbbbbbbvbv4+1sdddddds3+tvbbvbbvbbbvbbbba#:i3X*<<<",
"<<<&X1i:+abbbbvbbbbbvbbbvi+1asssssds1X4vbbbvbbbbvbbvbba#%i3X&<<<",
"<<<*.1i%$anbbbvbbbbbbbbbvt+1adsassda1+tvnbbbbbbbbbbbbba+:i1.*<<<",
"<<<*X3i:#anbbbbbbbbbbbbnviX1adsasada1+ivnbbbbbbbbbbbbna#:i3X*<<<",
"<<<*X3i%#annbbbbbbbbbnbnvi.1adadssda1Xibnbbbbnbbbbbbnns#:i3X&<<<",
"<<;O.3i:X4aaaaaaaaaaaaaai1X1addassda1X2asaaaaaapiasasa4+%i1.*<<<",
"<<;OX3i1.X###+###+#+#++##XX3sssassda3XX##########+++#++ 1i3X*<<<",
"<<<&.3ir1::,:::%:%:::::::+X3sdddsddd3X+%%1%::%:::::::%:14i1.*<<<",
"<<<*X1iaiiiiiiiiiiiiiiiii1X1aaaaaasa1X1iiiiiiiiiiiiiiiiiaa1X*<<<",
"<<<&.#1311333331333333333#X#13111111$.$1331113333333333131$.&<<<",
"<<<*  XXX.XXXX.X.X XXX XX  X.X.X..X.. ....X.X.X...X...X.X.. *<<<",
"<<<-*&*&*&*&**&*&&**&&*&&&&&**&*&&*****&*&*&*&***&&**&*&**&*-<<<",
"<<<<<<<<<<<<<<6<<<<565<<<<5<<<<<<<<<<<<<<<<<<<<<<<<<<<<<<<<<<<<<",
"<<<<<<<<<<<<<<<<<<<555<<<<<<<<<<<<<<<<<<<<<<<<<<<<<<<<<<<<<<<<<<"
};
