/* XPM */
static char *result[] = {
/* columns rows colors chars-per-pixel */
"64 64 61 1 ",
"  c #020200",
". c #080701",
"X c #0A0900",
"o c #05060A",
"O c #0C0C0B",
"+ c #110F00",
"@ c #100E0B",
"# c #141000",
"$ c #1A1400",
"% c #12110E",
"& c #131211",
"* c #181715",
"= c #1A1916",
"- c #1D1C1A",
"; c #231B00",
": c #281E00",
"> c #221B08",
", c #201F1C",
"< c #2D2201",
"1 c #29210A",
"2 c #322502",
"3 c #372901",
"4 c #3A2B02",
"5 c #21201D",
"6 c #242424",
"7 c #2C2C2D",
"8 c #2C2E31",
"9 c #3E3B30",
"0 c #453302",
"q c #493702",
"w c #4C3802",
"e c #523C04",
"r c #5A4203",
"t c #614703",
"y c #644903",
"u c #6A4D03",
"i c #6F5005",
"p c #705104",
"a c #7F5C05",
"s c #434344",
"d c #45464B",
"f c #4A4B4C",
"g c #515255",
"h c #5D5D5D",
"j c #646464",
"k c #727272",
"l c #7B7B7B",
"z c #866206",
"x c #8B6506",
"c c #8F6806",
"v c #906806",
"b c #996E07",
"n c #9C7107",
"m c #A37507",
"M c #A87907",
"N c #AC7B08",
"B c #808080",
"V c #878788",
"C c gray54",
"Z c gray58",
"A c #9A9A9A",
/* pixels */
",,,,,,,,,,,,,,,,,,,,,,,,,,,,,,,,,,,,,,,,,,,,,,,,,,,,,,,,,,,,,,,,",
",,,,,,,,,,,,,,,,,,,,,,,,,,,,,,,,,,,,,,,,,,,,,,,,,,,,,,,,,,,,,,,,",
",,,,,,,,,,,,,,,,,,,,,,,,,,,,,,,,,,,,,,,,,,,,,,,,-,,,,,,,,,,,,,,,",
",,,,,,,,,,,,,,,,,,,,,,,,,,,,,,,,,,,,,,,,,,,,,,555,,,,,,,,,,,,,,,",
",,,,,,,,,,,,,,,,,,,,,,,,,,,,,,,,,,,,,,,,,,,,55=-55,,,,,,,,,,,,,,",
",,,,5-,,,,,,,,,,,,,,,,,,,,,,,,,,,,,,,,,,,,,5-&&*5-,,,,,,,,,,,,,,",
",,,5===,,,,,,,,,,,,,,,,,,,,,,,,,,,,,,,,,,,55*&*&-55,,,,,,,,,,,,,",
",,,-&&&,,,,,,,,,,,,,,,,,,,,,,,,,,,,,,,,,,555**&*-5,,,,,,,,,,,,,,",
",,,,=&=,,,,,,,,,,,,,,,,,,,,,,,,,,,,,,,,,,,,,,-=-,,,,,,,,,,,,,,,,",
",,,,,-5,,,,,,,,,,,,,,,,,,,,,,,,,,,,,,,,,,,,,,55,,,,,,,,,,,,,,,,,",
",,,,,,,,,,,,,,,,,,,,,,,,,,,,,,,,,,,,,,,,,,,,,,,,,,,,,,,,,,,5-5,,",
",,,,,,,,,,,,,,,,,,,,,,,,,,,,,,,,,,,,,,,,,,,,,,,,,,,,,,,,,,,*%-,,",
",,,,,,,,,,,,,,,,,,,,,,,,,,,,,,,,,,,,,,,,,,,,,,,,-5-5,,,,5-,%*-55",
",,,,,,,,,,,,,,,,,,,,,,,,,,,,,,,,,,,,,,,,,,,,,,,,5555,,,,555--555",
",,,,,,,,,,,,,,,,,,,,,,,,,,,,,,,,,,,,,,,,,,,,,,,,55-5,,,,,,,55,5-",
",,,,,,,,,,,,,,,,-,,,,,,,,,,,,,,,,,,,,,,,,,,,,,,,-5-5,,,,,,,,,,55",
",,,,,,,,,,,,,,-=**5-5,,,,,,,,,,,,,,,,,,,,,,,,,,,5-5555--55>,,,,,",
",,,,,,,,,,,,,5=&&*-55,,,,,,,,,,,,,,,,,,,,,,,,,,5555-5-55=555,,,,",
",,,,,,,,,,,,,,***&-5,,,,,,,,,,,,,,,,,,,,,,,,,,-5-555555-5555,,,,",
",,,,,,,,,,,,,,-***55,,,,,,,,,,,,,,,,,,,,,,,,,,55555-5-55555-,,,,",
",,,,,,,,,,,,,,5,,,,,,,,,,,,,,,,,,,,,,,,,,,,,5-5-5-555-55,,,,,,,,",
",,,,,,,,,,,,,,,,,,,,,,,,,,,,,,,,,,,,,,,,,,,,555555-555-5,,,,,,,,",
",,,,,,,,,,,,,,5,,,,,,,,,,,,,,,,,,,,,,,,,,,,,5-5555555555,,,,,,,,",
",,,,,,,,,,,,,,5-,,,,,,,,,,,,,,,,,,,,,,,,,,,,5-55-5-55--5,,,,,,,,",
",,,,,,,,-=&&&&&&&&&&&&&&&&&&&&&&&&&&&&&&&&&&*&&&&&&@%&*-,,,,,,,,",
",,,,,,,,=@..XoXX...X..X.X..XXXX...XXXX.X........X.....+-,,,,,,,,",
",,,,,,,*%<444333343443444444440444444434433344343344431**,,,,,,,",
",,,,,,-O$yvvcccccccccccccccxzzzzzzxzxccccccccccccvvvvvr$O-,,,,,,",
",,,,,*%3rxNNMMMMNMMMMMMMMNmi04444440imNNMMMMMMMMNMMMMNxr3%*,,,,,",
",,,,=OXqzxzzzzzzzzzzzzzzzxa3.O&&%OO.3axzzzzzzzzzzzzzzzzzqXO--,,,",
",,,*O  $<<<<<<<<<<<<<<<11<<Xo8gggg8oX<1<<<1<<<<<<1<<<<<<$  O*,,,",
",,,% X#+++X#X#X#X#X#X#X##X O5jZZZAj5O X###X##XX##X#X#X+++#X %,,,",
",,,@.;qwqqqqqqqqqqqqqqqwq;o7jVAAAAVj8o:qwqqqqqqqqqqqqqqqwq;.@,,,",
",,,&.;qwqwqqqqqqqwwqwwwwq:OfZljjjjlZfO:qewqwwwwqqwwwwqqwwq;.&,,,",
",,,% X++###+####+++++++++.ofBs&&&&sBfO.+#X+##++++++#++###+X &,,,",
",,,&                      o8s*o--o=s7o                      &,,,",
",,,&         X             OO *hh* @O             .         %,,,",
",,-&.#:<<<<<<<<<<<2<<2<2<$o-7%*kk=&7=.#<<<2<2<<<<<<<<<<<<:+.%-,,",
",,,&X<rrrrrrrrrrrrrrrrrtr:Osk7&jh&7ksO<rrrrrrrrrrrrrrrrryr<.&,,,",
",,,&X3y0<:<<;<<<:::<:::::+OfB8O66O8BfO+:<;<;<<;<::::<::<qy2.%,,,",
",,,&.2r:XX+#++++X###+++++.ofl7    8lf..#++++#+++++####X.:r2.%,,,",
",,,%.2r;X4rrrrrrrrrrrrrrr:Ofl7    8lfO:etrrrrrrrrrrrrr4X;r2X&-,,",
",,,%X2r;#yMnnnnnnnnnnnnmnq@dBs*=*=sBd@wbmnnnnnnnnnnnnmy#;r2.&,,,",
",,,%X2e;$unmnnnnnnmnnnnmbq@dCljjjjlCd@qbmnnmmnnnnnnnmmy#;r2.&,,,",
",,-%.2r;+ynnbnnbbnnnnnnnbqO7jVAAAAVj7Oqbmbnbnnnbnnnnnny#;r2.&,,,",
",,,&X2r;+tnnnnbnnnbbnnnnbwXo-jZZZZj6o.wbmnnbnbnbnnnbnmy#;r2X@,,,",
",,,&.2r;#ynnbnbnnbnnnnnnbwXX>9gggg9>XXwbnnbnnnbnbnbnnmy#;r2.&,,,",
",,-&.2r;#unnbnnnbnnnnnnmbwX<e1OO&O>e:+qbnnnnbnnnnnbnnny#$r2.&,,,",
",,,&X2r;+ymnnnnnnnbbnbnnnqX3y0::;<4y2+qbnbbnnbbnnnbnnmu#;r2X%,,,",
",,-&.2r;+ynnnbnbbnnnnnnnnq+<yuyyruuy<Xqbnnnnnnnnbnbnnny#;r2X%,,,",
",,,&X2r;#ynnnnnbbnnnbbnnbqX2yiiipipu<+qbnnnbbnnnbnnnnnr#;r<X%,,,",
",,,&X2e;#ymnbbnnnnnnnnbnbqX2yiuyuuuu<Xqbnnnnbnnnnnbnnnu#;r2X%,,,",
",,,&.2r;#ymnnnnbnnnnnnnnbqX2yiuuuuur<+qbnnnnnnnnnbnnnny#;r<X&,,,",
",,,%.2r;#ymnnnnnnnnnnnnmnq+<yuuyuuiu<+qnmnnnnnnnnnnnnmy#;r2X%,,,",
",,,&X2r;#ymmmnnnnnnnnmmmnq+2yiyiuuuu<+rnMnnnnnnnnmnnmnu#;r2X&,,,",
",,-O.2r;#4yyyyyyyyyyyyyyr3X2yiiyyuiy<X<ruruuyyyyyruyuu4+;r2 &,,,",
"55-O.2r<.X######+++###+##XX2yiyuuuiy3.X##+#+##+######$X ;r2X&,,,",
",55%.3r0<;;;$:;;;;;;;;;:;+X3upiiiuiu2X#$<$$<<$<$;;;;;$;<qr2X&,,,",
",,5@.<ryrrrrrrrrrrrrrrrrr:X<yuyyryuy<X<rrrrrrrrrrrrrrrrrrr2X&,,,",
",,5% $<2<222222<222222222$.$<<<<22<<$.$33222<2223<13<3233<$ %,,,",
",,,%  X.....X...........X. ...X.....  ....X...........X .X  &,,,",
",,5=&%&%%&%%&&&%%&&&&&&%&@%%&@&&%&%%&%&%%%&%%&&@&%%&%&&%%&&&=,,,",
",,,,,,,,55,,,,5-,,,,,,,,,,-5,,,,55,,,,5,,,,,55,,,,55,,,,5,,,,,,,",
",,,,,,,,,,,,,,55,,,,,,,,,,,,,,,,,,,,,,,,,,,,,,,,,,,,,,,,,,,,,,,,"
};
