/* XPM */
static char *result[] = {
/* columns rows colors chars-per-pixel */
"64 64 181 2 ",
"   c #030301",
".  c #080600",
"X  c #070801",
"o  c #0C0A00",
"O  c #04040A",
"+  c #0D0C0B",
"@  c #110F01",
"#  c #100E0A",
"$  c #141202",
"%  c #1D1600",
"&  c #1E1C03",
"*  c #13120C",
"=  c #18170E",
"-  c #1C1D08",
";  c #0E0F13",
":  c #100F14",
">  c #131211",
",  c #1A1916",
"<  c #14151C",
"1  c #181718",
"2  c #1E1D1A",
"3  c #231B00",
"4  c #281E00",
"5  c #221B08",
"6  c #201F1C",
"7  c #252502",
"8  c #2E2200",
"9  c #2C2C05",
"0  c #25260A",
"q  c #29210A",
"w  c #2C2C09",
"e  c #322502",
"r  c #362A02",
"t  c #3B2C02",
"y  c #332C0A",
"u  c #343406",
"i  c #3A3A06",
"p  c #32320B",
"a  c #37380C",
"s  c #3C3C0C",
"d  c #21201D",
"f  c #393910",
"g  c #1A1A20",
"h  c #25252A",
"j  c #2B2B2C",
"k  c #2B2B31",
"l  c #333333",
"z  c #3E3B30",
"x  c #39393C",
"c  c #443202",
"v  c #493702",
"b  c #4C3802",
"n  c #553F03",
"m  c #3E4005",
"M  c #484705",
"N  c #4D4E05",
"B  c #43430C",
"V  c #4B4A0B",
"C  c #5A4203",
"Z  c #4F5008",
"A  c #555607",
"S  c #575807",
"D  c #5F5F05",
"F  c #54540C",
"G  c #5D5E0B",
"H  c #464B14",
"J  c #545510",
"K  c #565810",
"L  c #5D5D11",
"P  c #614703",
"I  c #644903",
"U  c #6B4D03",
"Y  c #79430B",
"T  c #6F5105",
"R  c #715205",
"E  c #7D5B04",
"W  c #656506",
"Q  c #696905",
"!  c #636409",
"~  c #6A6B0A",
"^  c #73730C",
"/  c #616111",
"(  c #6C6D12",
")  c #6D7113",
"_  c #747513",
"`  c #777915",
"'  c #797A11",
"]  c #434444",
"[  c #45464B",
"{  c #4B4B4D",
"}  c #4D4D52",
"|  c #525355",
" . c #636364",
".. c #6C6C6C",
"X. c #6E6E70",
"o. c #717272",
"O. c #7B7B7B",
"+. c #CC3410",
"@. c #8C6606",
"#. c #946B06",
"$. c #996E07",
"%. c #9C7107",
"&. c #A37607",
"*. c #A87907",
"=. c #BA6E10",
"-. c #BE7511",
";. c #D75513",
":. c #D66514",
">. c #8B8B0A",
",. c #93920D",
"<. c #98970D",
"1. c #9B9B0C",
"2. c #838414",
"3. c #8A8B16",
"4. c #929216",
"5. c #999917",
"6. c #A3A20C",
"7. c #AAAA0E",
"8. c #B4B30E",
"9. c #BBBB0F",
"0. c #A4A314",
"q. c #A8A815",
"w. c #A9A91A",
"e. c #B4B412",
"r. c #BBBB11",
"t. c #B5B41A",
"y. c #BCBD1C",
"u. c #9CB435",
"i. c #E48518",
"p. c #DBA417",
"a. c #C2BD13",
"s. c #C8BA16",
"d. c #E7A91C",
"f. c #AFC230",
"g. c #C9C90F",
"h. c #C4C514",
"j. c #CBCB14",
"k. c #C2C21B",
"l. c #C7C81E",
"z. c #CCCD1B",
"x. c #D5C31C",
"c. c #D5D516",
"v. c #D8D816",
"b. c #D4D41D",
"n. c #DBDA1A",
"m. c #E7C41D",
"M. c #E3CC1D",
"N. c #E0DF19",
"B. c #E9D81F",
"V. c #DEE21A",
"C. c #E3E316",
"Z. c #E3E31B",
"A. c #E7EB1C",
"S. c #EAEC1C",
"D. c #EEF21F",
"F. c #F4F01D",
"G. c #D8D920",
"H. c #ECDC21",
"J. c #DFE121",
"K. c #DFF234",
"L. c #DEF83D",
"P. c #E7E821",
"I. c #EDED21",
"U. c #F4E121",
"Y. c #F4ED22",
"T. c #EAF229",
"R. c #ECF72C",
"E. c #F4F422",
"W. c #F9F721",
"Q. c #F4FC23",
"!. c #FCFC23",
"~. c #EAFC34",
"^. c #89D47E",
"/. c #A5E56F",
"(. c #A9EC70",
"). c #808080",
"_. c #878788",
"`. c gray55",
"'. c #929292",
"]. c #9C9C9C",
"[. c #9AE680",
/* pixels */
"6 6 6 6 6 6 6 6 6 6 6 6 6 6 6 6 6 6 6 6 6 6 6 6 6 6 6 6 6 6 6 6 6 6 6 6 6 6 6 6 6 6 6 6 6 6 6 6 6 6 6 6 6 6 6 6 6 6 6 6 6 6 6 6 ",
"6 6 6 6 6 6 6 6 6 6 6 6 6 6 6 6 6 6 6 6 6 6 6 6 6 6 6 6 6 6 6 6 6 6 6 6 6 6 6 6 6 6 6 6 6 6 6 6 6 6 6 6 6 6 6 6 6 6 6 6 6 6 6 6 ",
"6 6 6 6 6 6 6 6 6 6 6 6 6 6 6 6 6 6 6 6 6 6 6 6 6 6 6 6 6 6 6 6 6 6 6 6 6 6 6 6 6 6 6 6 6 6 6 6 6 6 6 6 6 6 6 6 6 6 6 6 6 6 6 6 ",
"6 6 6 6 6 6 6 6 6 6 6 6 6 6 6 6 6 6 6 6 6 6 6 6 6 6 6 6 6 6 6 6 6 6 6 6 6 6 6 6 6 6 6 6 6 6 d d 6 6 6 6 6 6 6 6 6 6 6 6 6 6 6 6 ",
"6 6 6 6 6 6 6 6 6 6 6 6 6 6 6 6 6 6 6 6 6 6 6 6 6 6 6 6 6 6 6 6 6 6 6 6 6 6 6 6 6 6 6 6 d 2 , 2 6 6 6 6 6 6 6 6 6 6 6 6 6 6 6 6 ",
"6 6 6 6 d 2 6 6 6 6 6 6 6 6 6 6 6 6 6 6 6 6 6 6 6 6 6 6 6 6 6 6 6 6 6 6 6 6 6 6 6 6 6 d 2 = > , 2 6 6 6 6 6 6 6 6 6 6 6 6 6 6 6 ",
"6 6 6 d , , , 6 6 6 6 6 6 6 6 6 6 6 6 6 6 6 6 6 6 6 6 6 6 6 6 6 6 6 6 6 6 6 6 6 d d d d , > > > 2 d 6 6 6 6 6 6 6 6 6 6 6 6 6 6 ",
"6 6 6 2 > > > 6 6 6 6 6 6 6 6 6 6 6 6 6 6 6 6 6 6 6 6 6 6 6 6 6 6 6 6 6 6 6 6 6 2 d d d , > , > 2 d 6 6 6 6 6 6 6 6 6 6 6 6 6 6 ",
"6 6 6 6 , > , 6 6 6 6 6 6 6 6 6 6 6 6 6 6 6 6 6 6 6 6 6 6 6 6 6 6 6 6 6 6 6 6 6 6 6 6 6 6 , , 6 6 6 6 6 6 6 6 6 6 6 6 6 6 6 6 6 ",
"6 6 6 6 6 2 6 6 6 6 6 6 6 6 6 6 6 6 6 6 6 6 6 6 6 6 6 6 6 6 6 6 6 6 6 6 6 6 6 6 6 6 6 6 6 6 d d 6 6 6 6 6 6 6 6 6 6 6 6 6 6 6 6 ",
"6 6 6 6 6 6 6 6 6 6 6 6 6 6 6 6 6 6 6 6 6 6 6 6 6 6 6 6 6 6 6 6 6 6 6 6 6 6 6 6 6 6 6 6 6 6 6 6 6 6 6 6 6 6 6 6 6 6 6 6 2 2 6 6 ",
"6 6 6 6 6 6 6 6 6 6 6 6 6 6 6 6 6 6 6 6 6 6 6 6 6 6 6 6 6 6 6 6 6 6 6 6 6 6 6 6 6 6 6 6 6 6 6 6 6 6 6 6 6 6 6 6 6 6 6 , = 2 d 6 ",
"6 6 6 6 6 6 6 6 6 6 6 6 6 6 6 6 6 6 6 6 6 6 6 6 6 6 6 6 6 6 6 6 6 6 6 6 6 6 6 6 6 6 6 6 6 6 6 6 6 6 6 6 6 6 6 6 6 6 6 > 1 2 6 6 ",
"6 6 6 6 6 6 6 6 6 6 6 6 6 6 6 6 6 6 6 6 6 6 6 6 6 6 6 6 6 6 6 6 6 6 6 6 6 6 6 6 6 6 6 6 6 6 6 6 6 6 6 6 6 6 6 6 6 6 6 2 2 2 6 6 ",
"6 6 6 6 6 6 6 6 6 6 6 6 6 6 6 6 6 6 6 6 6 6 6 6 6 6 6 6 6 6 6 6 6 6 6 6 6 6 6 6 6 6 6 6 6 6 6 6 6 6 6 6 6 6 6 6 6 6 6 d d 6 6 6 ",
"6 6 6 6 6 6 6 6 6 6 6 6 6 6 6 6 2 6 6 6 6 6 6 6 6 6 6 6 6 6 6 6 6 6 6 6 6 6 6 6 6 6 6 6 6 6 6 6 6 6 6 6 6 6 6 6 6 6 6 6 6 6 6 6 ",
"6 6 6 6 6 6 6 6 6 6 2 2 2 2 6 , > , 6 2 2 6 2 2 2 2 6 6 6 2 6 6 6 6 6 2 2 6 , 6 2 6 , 6 6 6 6 6 2 6 2 2 6 6 6 6 6 6 6 6 6 6 6 6 ",
"6 6 6 6 6 6 6 6 2 > + + + # + O O X + + + + + + # + + + # + + + + + + # + # # # + # # + + + + + + + + + + + > 2 6 6 6 6 6 6 6 6 ",
"6 6 6 6 6 6 6 6 , $ o o @ o o o @ o o X o o @ o o o o o o $ o $ o o @ @ @ o @ @ o @ @ @ @ o o @ o o $ o o @ $ , 6 6 6 6 6 6 6 6 ",
"6 6 6 6 6 6 6 > * t C C C n C C C C C C C n C C n C C C C C C C C C P n n n n n n n n n n n n n C n n C n C t # * 6 6 6 6 6 6 6 ",
"6 6 6 6 6 6 , $ 4 T %.%.%.%.%.%.%.%.%.%.%.%.%.%.&.%.%.@.E E E E @.E E E @.%.&.%.%.%.%.%.%.&.$.&.%.%.%.%.%.&.T 7 * , 2 6 6 6 6 6 ",
"6 6 6 6 6 > * c R #.*.*.*.&.*.&.&.&.&.&.&.&.&.&.&.*.%.C 4 3 & 3 % 3 3 3 n %.*.&.&.&.&.&.&.&.&.&.&.*.&.&.&.*.#.R c $ > 6 6 6 6 6 ",
"6 6 d 2 , O . t T T U U U U U U T T T T T T T T U R I 4   ; 2 g g g :   4 I T U U U U T U U U U U T T T T T T T t . + > 2 6 6 6 ",
"6 6 d >       @ % % $ $ % $ $ $ $ $ $ $ $ $ $ $ $ % $ . O ] X.o.o.o.x + . % $ % $ % $ $ % $ $ $ $ $ $ $ $ $ $ % o     O > 6 6 6 ",
"6 6 6 *   @ 3 3 % % % 3 % % % % % % % % 3 % % 3 % @   : l X.].].].].X.l >   o % 5 % % % 3 % 3 3 % 3 % 3 % % % % 3 3 @   * 6 6 6 ",
"6 6 2 > . 4 n C n C n n C C C C C C C C C n n C n 4 + x O.`.'.'.'.'.`.O.x + 4 n C C n C n n n n n n n n C n C C C n 4 . > 6 6 6 ",
"6 6 6 >   % r r e t t e e e e r e e 8 e e t r t e $ + { '...[ ] ] ] ..'.{ + $ e e e r r e e e e e e e e e e r e e e $ . > 6 6 6 ",
"6 6 2 >     . o @ . . @ @ $ o o @ @ $ o o . . o @ . + ] o.l + + + + l o.[ + . @ $ o o o @ @ # @ @ @ $ @ o @ o o @ @ o   > 6 6 6 ",
"6 6 2 >       9 i $ * Z ( F N Z / ) _ K *     - L a O 1 k > + k j + ; j < O p ( ` F @ * J _ ) ) ( _ ) K N N N N L ) p X > 6 6 6 ",
"6 6 2 >     - ^ ,.r y t.V.8.7.8.z.I.Q.k.B o o F z.2.- * *   1  . .,   * $ - #.I.!.t.a m k.W.I.I.I.H.M.a.8.8.8.8.j.G./ X # 6 6 6 ",
"6 d d >   a 3.z.s.Y Y x.A.9.j.A.F.!.!.P.w.3.3.t.I.l.4.3.` 7 , X.o.1 7 ` 3.4.l.Q.S.h.5.w.P.!.!.!.U.i.;.p.V.A.S.S.A.h.F X > 2 6 6 ",
"6 2 , = - ' E.!.B.-.=.M.V.r.8.y.G.Q.W.W.!.R.~.K.E.E.W.!.b.B > } } > B b.!.Q.T.J.0.<.z.I.E.E.E.Q.U.:.+.d.T.z.y.y.h.e.T - = 2 2 6 ",
"d , + w ^ r.E.!.E.M.m.I.Z.8.~ s 3.I.!.!.!.L.[./.T.W.W.!.G.B   < < O B G.!.E.N.7.M i ,.v.I.E.E.E.Y.m.d.U.l.F 0 w _ z.e.^ 9 + , d ",
"d >   m e.D.I.k.t.J.!.!.Z.9.Q u ' n.k.q.0.u.^.(.R.F.Z.S.z.( p 7 7 7 ! z.!.E.v.1.M i ,.v.I.!.Q.W.E.I.S.D.y.F -   B z.C.7.i   = d ",
"d >   V b.!.J./ s w.!.!.Z.9.1.>.7.7.F - - H f.~.R.n.h.9.r.k.t.1.>.>.1.8.n.I.c.7.,.1.z.E.E.E.E.Q.T.c.a.9.h.k.` * u 7.g.6.i   > d ",
"d , * f 2.5.` 0 + J 4.3.' ! W ~ ~ A %     - ~ 4.3.' W D Q 2.3.' W Q W W ^ 3.^ W W ^ 2.3.3.3.3.3.3.^ ! D ~ 3.G $ % S ~ G w # , 6 ",
"d 6 2 , * $ * o   $ $ = $ $ @ $ $ @ o     o $ * $ $ $ $ @ * $ $ $ $ $ $ $ * $ $ $ $ $ * $ * = $ $ $ $ $ $ * # o o @ @ @ = 2 6 6 ",
"d 6 6 *   o 4 8 8 4 4 4 4 8 7 4 4 4 8 7 8 8 4 4 4 @   g k > O h h O : k g   @ 7 4 4 4 4 7 4 4 4 4 7 4 4 7 4 4 8 8 4 o   > d 6 6 ",
"6 6 6 * o 8 I C C C C C C C C C C C C C C C C P C 4 + [ o.j >  . .> j o.] + 4 C C C C C C C C C C C C C C C C C C C 8 o * 6 6 6 ",
"6 6 2 > X e I c 8 4 4 4 4 4 4 4 4 4 4 4 4 4 4 4 4 @ O } ).j , o.X.< j ).{ + @ 4 7 4 4 4 4 8 4 4 4 4 4 4 4 4 4 8 b I e X > 6 6 6 ",
"6 6 6 > . e C 4   o @ @ @ @ $ @ $ @ $ $ o $ @ @ @ . + { O.j : | | > j O.{ + . @ @ $ @ @ $ $ @ @ @ @ @ @ @ @ o . 8 C e o ; 6 6 6 ",
"6 6 2 > . e C 3 o t P C C C C C C C C C C C C C n 4 + [ O.j   6 2 O j O.[ + 4 C C C C C C C C C C C C C C C t o % C e X * 6 6 6 ",
"6 6 6 >   e C 3 $ I &.%.%.%.%.%.%.%.%.%.%.%.%.&.%.v # [ ).] > , 1 , ] ).[ # c %.&.%.%.%.%.%.%.%.%.%.%.%.&.&.I $ 3 C e o > 6 6 6 ",
"6 6 6 > o e C 3 $ I &.&.%.&.%.%.%.&.%.%.%.&.%.&.$.v # [ `.O. . . . .O.`.[ # v %.&.%.&.%.%.%.%.%.%.&.%.$.&.&.I @ 3 C e X > 6 6 6 ",
"2 d 2 > o e C 3 $ I %.%.%.$.#.%.%.%.%.%.%.%.%.%.$.v # k  ._.].].].]._. .k + v $.%.%.%.$.%.%.$.%.%.%.%.$.%.&.I $ 3 C e o > 2 6 6 ",
"d d 2 * X e C 3 $ I %.%.%.%.$.%.%.%.#.$.%.%.%.%.$.b o O g  .'.'.'.'. .d O o b $.%.%.%.$.%.$.%.%.%.$.%.%.%.%.I @ 3 C e   * 2 6 6 ",
"d 6 d > o e C 3 $ I &.%.$.%.%.$.%.#.%.%.%.%.%.%.$.v o o 5 z | | | | z 5 o o b $.&.%.%.%.%.%.#.%.$.%.$.%.%.&.I $ 3 C e o > 6 6 6 ",
"6 6 2 > X e C % $ I %.%.%.$.%.%.%.%.$.%.%.%.%.%.$.v @ 8 n 5 + # + # q b 8 o v $.%.%.$.%.$.%.%.%.%.%.$.%.%.%.I $ % C e X > 6 6 6 ",
"6 6 6 > X e C 3 $ I &.%.$.%.%.$.%.$.%.%.%.$.$.%.$.b o e I c 4 4 4 4 c I 9 @ v $.%.$.$.%.$.%.%.%.%.%.$.%.%.&.P @ 3 C e o ; d 2 d ",
"6 6 2 > o e C 3 $ C %.%.%.$.%.%.%.%.%.$.%.%.%.&.$.b o 8 I U I P I I I I 8 o v $.%.%.%.%.%.%.$.$.$.%.$.%.%.%.I @ 3 C e . * 2 2 d ",
"6 6 6 > X e C 3 $ I %.%.$.%.$.%.%.$.%.$.$.$.%.%.$.v @ 8 I R T T U T R I 8 o v $.&.%.%.$.%.$.%.%.%.%.%.%.%.&.I $ 3 C e o > 2 d d ",
"6 6 2 > o e C % $ I &.%.%.%.$.%.%.$.%.%.%.%.%.%.$.b @ 8 I T I U I U U I e @ b $.%.%.%.$.%.%.$.%.%.%.%.#.$.&.I @ 3 C e . > d d 2 ",
"6 6 d > o 8 C 3 $ I &.%.%.$.%.%.$.$.$.$.$.%.$.&.$.v o e I U U I U U T I 8 @ b #.%.%.%.%.%.%.$.%.$.%.%.%.%.&.I @ 3 C e X > 2 d d ",
"6 6 2 > o e C 3 @ I &.%.%.%.%.%.&.$.&.$.%.%.%.&.$.b o 9 I T U U U I T I e o b %.&.%.%.%.%.$.%.%.%.%.%.%.%.&.I $ 3 C e o > 2 6 6 ",
"6 6 6 >   e C 3 @ I &.&.&.%.%.%.$.&.%.&.&.%.%.&.%.b @ 8 I U U I I U T I 8 o b %.*.%.%.%.%.&.%.&.%.%.%.%.&.&.I $ 3 C e o > 6 6 6 ",
"6 6 2 + o e C 3 o c I I I I I I I I I I I I I I C e o e U U U U U U T I e o 8 I I I I I I I I I I I I I I I c o 3 C e   > 6 6 6 ",
"6 d 2 +   e C 3   o $ @ $ @ @ $ @ @ $ $ $ @ @ @ @ o o e I U I U U U U U e . o $ $ $ @ $ @ @ $ @ @ $ @ $ $ $ o   3 C e o > 2 2 d ",
"6 6 6 # o e I c 4 3 3 3 3 3 3 3 3 3 3 3 3 3 3 3 3 @ o e U R T U U U U U e o @ 3 3 3 3 3 3 3 3 3 3 3 3 3 3 3 4 4 c I 8 o > 2 2 d ",
"6 6 6 > o 8 P I C C C C C C C C C C C n n n n P n e o e I U I I I P I P e . 4 n C C C C C C C C C C C C C C C C I P 8 o > 6 d d ",
"6 6 2 *   $ 8 e e e e e e e e e e e e e t e t e e $ o $ 4 e 8 e e e e e $ . 3 e e e e e e e e e e e e e 8 e e e 8 8 $   > 6 d 2 ",
"6 6 6 >     . . . . . . . . . o o . o . o o o o . . . . o . . . o o o o .   . o . o   o X o   o . . o .   o o   o X     > d 6 6 ",
"6 6 6 , > * > > > > > > > > * > > # > > : # : : # : # : > # > > : # : : > # # : > > > > * > > > > * > > > > > > > > * > , 2 6 6 ",
"6 6 6 6 6 6 6 6 6 6 6 6 6 6 6 6 6 6 6 6 6 6 6 6 6 6 6 6 6 6 6 6 6 6 6 6 6 6 6 6 6 6 6 6 2 6 6 6 6 d 2 2 6 6 6 6 2 2 6 6 6 6 6 6 ",
"6 6 6 6 6 6 6 6 6 6 6 6 6 6 6 6 6 6 6 6 6 6 6 6 6 6 6 6 6 6 6 6 6 6 6 6 6 6 6 6 6 6 6 6 6 6 6 6 6 2 d d 6 6 6 d d 2 6 6 6 6 6 6 "
};
