/* XPM */
static char *result[] = {
/* columns rows colors chars-per-pixel */
"64 64 216 2 ",
"   c #030301",
".  c #080600",
"X  c #060800",
"o  c #0B0A00",
"O  c #05060A",
"+  c #0D0C0B",
"@  c #110F00",
"#  c #100F0C",
"$  c #0F1101",
"%  c #131101",
"&  c #1A1500",
"*  c #1C1B02",
"=  c #12110F",
"-  c #0D0D13",
";  c #100F14",
":  c #131211",
">  c #181715",
",  c #1A1916",
"<  c #181718",
"1  c #1D1C1A",
"2  c #221B00",
"3  c #291E00",
"4  c #231C08",
"5  c #201F1C",
"6  c #222302",
"7  c #2D2201",
"8  c #2C2C03",
"9  c #252509",
"0  c #2A290A",
"q  c #322502",
"w  c #3C2D02",
"e  c #333304",
"r  c #3A3B05",
"t  c #33340A",
"y  c #21201D",
"u  c #1C1C20",
"i  c gray15",
"p  c #2A2A2B",
"a  c #2C2C31",
"s  c #383734",
"d  c #39393E",
"f  c #7D100A",
"g  c #412F01",
"h  c #443202",
"j  c #4A3702",
"k  c #423905",
"l  c #4D3902",
"z  c #523D03",
"x  c #482F37",
"c  c #424406",
"v  c #474905",
"b  c #4B4B06",
"n  c #43420C",
"m  c #4B4A09",
"M  c #574604",
"N  c #5A4203",
"B  c #535406",
"V  c #5D5C06",
"C  c #53540B",
"Z  c #5A560B",
"A  c #5C5B0A",
"S  c #4E4A14",
"D  c #545513",
"F  c #614703",
"G  c #644903",
"H  c #6B4D03",
"J  c #6E5004",
"K  c #605F0B",
"L  c #715204",
"P  c #7B5905",
"I  c #655B15",
"U  c #636205",
"Y  c #636409",
"T  c #676809",
"R  c #6B6C09",
"E  c #73730A",
"W  c #7B7B0C",
"Q  c #6B6D12",
"!  c #757313",
"~  c #78682B",
"^  c #4A2B41",
"/  c #424244",
"(  c #45464B",
")  c #4B4B4D",
"_  c #535354",
"`  c #636363",
"'  c #6C6C6D",
"]  c gray45",
"[  c #7B7B7B",
"{  c #BB3C10",
"}  c #C3060C",
"|  c #CF3510",
" . c #95470B",
".. c #815E06",
"X. c #B6500C",
"o. c #856106",
"O. c #8C6606",
"+. c #8F6806",
"@. c #936B06",
"#. c #996E07",
"$. c #9C7107",
"%. c #A37507",
"&. c #A77907",
"*. c #B26B18",
"=. c #BC7311",
"-. c #C9470F",
";. c #D06B14",
":. c #E64430",
">. c #D46823",
",. c #36E51C",
"<. c #5AE40E",
"1. c #7CE41C",
"2. c #77D82A",
"3. c #78E73C",
"4. c #4BF84B",
"5. c #86850A",
"6. c #8B8B0B",
"7. c #93930C",
"8. c #98970B",
"9. c #9B9B0C",
"0. c #848414",
"q. c #8C8C13",
"w. c #8F9415",
"e. c #989716",
"r. c #A5970B",
"t. c #9FA00E",
"y. c #A4A40D",
"u. c #ABAB0D",
"i. c #B0A80D",
"p. c #ABB40F",
"a. c #B4B30E",
"s. c #B7BA0F",
"d. c #BBBB0F",
"f. c #A4A312",
"g. c #AAAA17",
"h. c #B8AF10",
"j. c #A8B51A",
"k. c #B5B512",
"l. c #B5B715",
"z. c #BCBC11",
"x. c #BCBD1B",
"c. c #C78B18",
"v. c #C99215",
"b. c #EA8F19",
"n. c #CCB413",
"m. c #EAA71C",
"M. c #ECB31D",
"N. c #F38930",
"B. c #C8BF20",
"V. c #E4B520",
"C. c #91EB19",
"Z. c #93CF21",
"A. c #91FA39",
"S. c #A1E12B",
"D. c #C3C30F",
"F. c #C3C312",
"G. c #CCCC13",
"H. c #C6C619",
"J. c #CCCD1C",
"K. c #D6CC16",
"L. c #CAD716",
"P. c #DBDB16",
"I. c #D2D31B",
"U. c #D9D618",
"Y. c #DDDD1A",
"T. c #E7C71D",
"R. c #EBD51E",
"E. c #D3EA1C",
"W. c #E6E418",
"Q. c #E3E41C",
"!. c #E5EA1D",
"~. c #ECEC1E",
"^. c #EFF21E",
"/. c #F2F31E",
"(. c #FEFE1F",
"). c #DBD925",
"_. c #CCD132",
"`. c #EBDE21",
"'. c #D5E724",
"]. c #DAED38",
"[. c #E6E722",
"{. c #ECEC21",
"}. c #F3E721",
"|. c #EDF226",
" X c #F4F422",
".X c #F9F421",
"XX c #F7FD24",
"oX c #FCFC23",
"OX c #FEF136",
"+X c #A88548",
"@X c #C09459",
"#X c #D3BA47",
"$X c #E4BA5D",
"%X c #BBD657",
"&X c #8ED36D",
"*X c #ACE669",
"=X c #B1E366",
"-X c #DBC141",
";X c #E7CA53",
":X c #C9EC4D",
">X c #C7C57D",
",X c #B27988",
"<X c #AD67A5",
"1X c #C87C9A",
"2X c #B967C8",
"3X c #7DB6A6",
"4X c #72ECB2",
"5X c #65CEC9",
"6X c #828282",
"7X c #878788",
"8X c gray54",
"9X c #959595",
"0X c #9D9D9D",
"qX c #C98A87",
"wX c #C986A4",
"eX c #99E583",
/* pixels */
"5 5 5 5 5 5 5 5 5 5 5 5 5 5 5 5 5 5 5 5 5 5 5 5 5 5 5 5 5 5 5 5 5 5 5 5 5 5 5 5 5 5 5 5 5 5 5 5 5 5 5 5 5 5 5 5 5 5 5 5 5 5 5 5 ",
"5 5 5 5 5 5 5 5 5 5 5 5 5 5 5 5 5 5 5 5 5 5 5 5 5 5 5 5 5 5 5 5 5 5 5 5 5 5 5 5 5 5 5 5 5 5 5 5 5 5 5 5 5 5 5 5 5 5 5 5 5 5 5 5 ",
"5 5 5 5 5 5 5 5 5 5 5 5 5 5 5 5 5 5 5 5 5 5 5 5 5 5 5 5 5 5 5 5 5 5 5 5 5 5 5 5 5 5 5 5 5 5 5 5 5 5 5 5 5 5 5 5 5 5 5 5 5 5 5 5 ",
"5 5 5 5 5 5 5 5 5 5 5 5 5 5 5 5 5 5 5 5 5 5 5 5 5 5 5 5 5 5 5 5 5 5 5 5 5 5 5 5 5 5 5 5 5 5 y y 5 5 5 5 5 5 5 5 5 5 5 5 5 5 5 5 ",
"5 5 5 5 5 5 5 5 5 5 5 5 5 5 5 5 5 5 5 5 5 5 5 5 5 5 5 5 5 5 5 5 5 5 5 5 5 5 5 5 5 5 5 5 y 1 < , 5 5 5 5 5 5 5 5 5 5 5 5 5 5 5 5 ",
"5 5 5 5 y 1 5 5 5 5 5 5 5 5 5 5 5 5 5 5 5 5 5 5 5 5 5 5 5 5 5 5 5 5 5 5 5 5 5 5 5 5 5 y 1 > = > 1 5 5 5 5 5 5 5 5 5 5 5 5 5 5 5 ",
"5 5 5 y , > > 1 5 5 5 5 5 5 5 5 5 5 5 5 5 5 5 5 5 5 5 5 5 5 5 5 5 5 5 5 5 5 5 5 5 5 y y > = > > 1 5 5 5 5 5 5 5 5 5 5 5 5 5 5 5 ",
"5 5 5 1 > : > 1 5 5 5 5 5 5 5 5 5 5 5 5 5 5 5 5 5 5 5 5 5 5 5 5 5 5 5 5 5 5 5 5 5 y y y > > : > 5 y 5 5 5 5 5 5 5 5 5 5 5 5 5 5 ",
"5 5 5 5 1 : , 5 5 5 5 5 5 5 5 5 5 5 5 5 5 5 5 5 5 5 5 5 5 5 5 5 5 5 5 5 5 5 5 5 5 5 5 5 5 1 1 1 5 5 5 5 5 5 5 5 5 5 5 5 5 5 5 5 ",
"5 5 5 5 1 1 5 5 5 5 5 5 5 5 5 5 5 5 5 5 5 5 5 5 5 5 5 5 5 5 5 y 5 5 5 5 5 5 5 5 5 5 5 5 5 5 5 5 5 5 5 5 5 5 5 5 5 5 5 5 5 5 5 5 ",
"5 5 5 5 5 5 5 5 5 5 5 5 5 5 5 5 5 5 5 5 5 5 5 5 5 5 5 5 5 5 1 1 5 5 5 5 5 5 5 5 5 5 5 5 5 5 5 5 5 5 5 5 5 5 y y 5 5 5 y 5 y 5 5 ",
"5 5 5 5 5 5 5 1 > > > > > > > > > > < < > > > > > > > > > > < < > > < > > > > < > > > > > > < < > > > > > > < < , y 5 > = 1 5 5 ",
"5 5 5 5 5 5 1 #       O         O         O         O                       O       O       O         O         # 5 1 > > 1 y y ",
"5 5 5 5 5 1 > 2 7 7 7 7 7 7 7 7 7 7 7 3 7 7 q 7 7 7 7 %                 @ 7 7 7 7 7 7 7 7 7 7 7 7 7 7 7 7 7 7 7 4 = 1 1 1 y 5 y ",
"5 5 5 5 5 = + j ..o...............................o.P q                 q P ................................o...j @ = 1 y 5 5 5 ",
"5 5 5 , = O   7 z z z z z z z z z z z z z z z z z z l 2   1 s s s s u   2 z z z z z z z z z z z z z z z z z z z 7   o = > 5 5 5 ",
"5 5 5 =     . o o o @ o o @ o @ o @ o @ o o @ o o o o   : _ 7X7X7X7X_ >   o o o @ o o @ o o @ o o o @ o @ o @ @ o .     = 5 5 5 ",
"5 5 5 =   & 7 q 7 7 7 7 7 7 7 7 7 7 7 7 7 7 3 q 7 %   y ) [ 0X0X0X0X[ ) u   & 7 q q q q q q 7 7 7 7 7 7 7 7 3 7 q 7 &   = 5 5 5 ",
"5 5 5 = o q G J H H H H H H H H H H H H H H H J G q # ^ 8X8X6X6X+X6X8X8X/ + 7 N N z z N N F G H H H H H H H H H H H 7 . : 5 5 5 ",
"5 5 5 = o w ..@.O.O.O.+.@.@.O.O.O.@.@.@.@.@.@.@.O.r # ) 8X_ p p a a _ 8X) + o 2 2 2 2 2 2 j O.#.+.@.@.@.o.O.O.+.+.o.w o # 5 5 5 ",
"5 5 1 : . h @.%.$.%.#.o.P P O.#.+.P P P P P P O.@.l + d ` i   + - O i ` d + o % & & * %   2 J ..P P ..@.$.$.$.$.%.@.h o : 5 5 5 ",
"5 5 y : o h @.%.$.%.P w * 2 M @.F 3 & * 2 2 2 l O.z o ; < + : / ( - O u -   r E E E W C $ o 2 2 2 & q L %.%.%.%.%.@.h o : 5 5 5 ",
"5 5 1 : o g @.%.#.P l o     7 N 7   $ 6 6 %   & N w   % * o < ' ' <   * 6 8 E a.D.d.7.b o     $ * o o g H J H H o.#.h o : 5 5 5 ",
"5 5 1 : o h #.&.o.w @       o % . o b 6.6.V %   % o o c E 8 < ' ' < 6 E 6.6.9.d.W.x.n @       r E e   o & & & & j O.h o ; 5 5 5 ",
"5 5 5 : o h @.P j o   6 e e *   % r +.D.I.y.b e 8 e e B A * - d d - e 8.8.R V E J.I.Q t e 8 e E u.W n t 6       & z 7   = 5 5 5 ",
"5 5 1 : o h o.h @   6 E y.7.v o c 7.p.s.Y.L.y.7.7.9.6.v & . O # -   r 8.T * $ 9 e.{.).x.y.7.8.t.u.H.H.a.E *     o o .   : 5 5 5 ",
"5 5 y : . 2 h r r r Y k.P.s.B o c p.Z.2.1.C.L.f.T q.H.w.S ^ ^ S C D 0.z.e.K m I +X$XOXoXW.Y.U.7.Z T 0.x.k.Y c c 6       = 5 5 5 ",
"5 5 1 =     & Y u.y.l.U.R.h.Z > B j.3.4.,.<.E.e.9 A Y./.).,X<X#XQ.Q.[.{.[.).'._.qX1X-XQ.Y.[.Q.! *   9 e.Q.a.r.r.K %     : 5 5 5 ",
"5 1 #     * B f.P.Q.K.c.;.>.*.! 6.p.S.A.C.C.!.l.K q.{.oXOXwX2X;XoXoXoX X:X>XeXeXeX@X..C D 0.z.7.v $ # w.R.;.{ X. .Z 6 X : 5 5 5 ",
"1 >     % Z a.Q.{.{.n.*.{ :.N.`.L.d.U.|.|.|. XP.z.G.{.!._.,X<X-X^.~./.|.:X3X5X4X:Xx.x % & m f.F.f.k 4 e.M.-.} } X.r.b o = 5 5 5 ",
"5 =   6 Y f.Y. XR.v.=.v.c.c.V.oX^.Y.~..X.X.X.X/.Q.~.[.0.n ~ +XH.G.G.U.~.].%X*X=X'.z.e.0.0.f.J.[.K. .f v.}.M.b.b.m.i.v   = 5 5 5 ",
"5 >   r y.P.|.XXR.=.=.R.Q.s.p.x.Y. X X X X|.].]. X.X[.! 0 Z 7.6.7.u.G.~. X(./.P.f.9.J.{. XXX XXX}.;.| m.[.J.x.x.F.a.Y 2 : 1 1 5 ",
"1 >   r y.Y. XoX XT.T./.Q.s.R n w. XoX|.(.:XeX*X|.oX XJ.w.m 6 2 c 7.G./.oX.XW.a.b r 7.U..XoXXXXX.XT.M.}.H.D 0 t Q J.k.E 8 + , 5 ",
"1 < o r y.U.Y.x.g.I.!.!.U.s.B o n g.I.!.!._.&X&X'.W.Q./.).Y *   6 5.G.P.J.g.6.R r r 5.D.Y.J.g.B.Q.!.~.}.l.v * 6 T I.W.y.r   : 5 ",
"y > X r t.D.u.C t 5.D.d.d.a.Z $ X 0 W D.D.s.j.j.l.z.d.D.k.r.T & 6 5.D.d.R 9 & 6 K 7.u.s.d.E t K a.D.d.D.a.7.5.6.t.s.F.y.r X > 5 ",
"y :   6 V R B * o r Y Y T Y e X     e U Y U U U Y Y Y U U R Z % % B R V 8     X r T T T Y e   6 V T K U Y T R R Y Y T A 6   : 5 ",
"1 >   o o % % o   $ % % % % o       o % % % % % % @ % % % % @ . X $ $ $ +       o % % % % o   o $ % % % $ % % % % % % o o   > 1 ",
"y , =     @ 2 7 7 7 3 3 3 3 7 7 7 7 7 7 3 3 2 7 3 @   u a # + p p - ; a u X % 7 7 7 6 3 7 7 7 7 7 2 3 7 7 2 3 3 2 2 @   X - , 5 ",
"y y 1 = X 7 N G N N N N N N N N N N N N N N N F N 3 + / ` y : ` ` < i ' / # 7 N N N N N N N N N N N N N N N N N G N 7 o = 1 y 5 ",
"1 y 1 : o q G h 7 7 2 7 3 3 7 2 7 2 7 2 3 3 3 3 4 @ + ) 3Xp < ] ' < i ,X) + @ 2 7 3 3 7 2 3 3 2 7 2 7 2 3 2 7 7 j G q o : 5 5 5 ",
"y y y : o q N 3   o % % @ @ % % @ % % @ @ @ @ @ % . + ) [ p : _ _ ; p [ ) + . @ @ @ @ @ % % % @ @ @ @ @ @ @ o . 3 N q o : y y 1 ",
"5 5 1 :   q N 2 o w N N N N N N M N N N N N N N z 3 + ) [ p X , u X p [ ( # 3 z F N N N N N M N N N N N N N w @ 2 N q . # 1 y y ",
"5 5 5 = o q N 2 % G %.%.$.$.$.$.#.$.$.$.$.$.$.%.$.j # ( [ ^ , > > < / 6X( # l #.%.$.%.#.$.$.$.$.$.$.$.$.%.%.G @ 2 N q o : y 1 y ",
"5 5 5 : o q N 2 % G %.%.$.%.$.$.$.%.$.$.$.$.%.%.#.h # ( 8X[ ' ` ` ` [ 8X/ # j #.%.$.$.%.$.$.$.$.$.%.$.#.%.%.G % 2 N q X : 1 y y ",
"5 5 1 :   q N 2 % G $.$.$.$.$.#.$.$.#.$.$.$.$.$.#.j # p ` 7X9X0X0X0X7X` a + j #.%.#.$.$.#.$.$.$.$.$.$.$.$.$.G % 2 N q o : y 1 y ",
"5 y y : o q N 2 % G $.$.#.#.$.$.#.#.$.$.$.$.$.$.#.l o O u ` 9X9X9X9X` u O o l #.%.#.#.$.$.$.#.$.$.#.$.#.$.%.G % 2 N q   : 1 5 y ",
"5 5 1 : X q N 2 % G $.$.$.#.$.#.$.$.$.#.$.$.$.$.#.l o @ 4 s _ _ _ _ s 2 o o l #.$.#.$.$.#.#.$.$.$.$.$.#.$.$.G % 2 N q o : 5 5 5 ",
"5 5 1 : o q N 2 % G $.$.$.$.$.#.$.#.$.#.$.$.$.%.#.j o 3 z 0 # + + + 9 v 7 o l #.%.$.$.#.$.$.$.#.#.#.$.$.$.$.G % 2 N q . : 5 5 5 ",
"5 5 5 : o q N 2 % G %.$.$.$.$.#.$.#.$.$.$.#.$.$.$.l o q G g 3 3 2 3 h F q $ j #.$.#.$.#.$.#.$.#.$.$.$.$.$.%.G @ 2 N q o : 1 y y ",
"5 5 1 : o q N 2 @ G $.%.$.#.$.$.$.#.$.#.$.$.$.$.$.h o 8 G H F G G F H G 7 o j #.$.$.$.$.$.$.$.$.$.#.$.#.#.%.G @ 2 N q . = 1 5 5 ",
"5 5 5 :   q N 2 % G $.$.$.$.#.$.$.$.$.#.#.#.$.$.#.j @ q G L H H H J J H 8 o j #.%.$.#.$.#.$.#.$.#.$.$.#.$.%.G % 2 N q o : 5 5 5 ",
"5 y 1 : o q N 2 @ G $.$.#.#.$.$.$.#.$.$.$.$.$.$.#.l o 7 H H H H H H H H 7 @ j #.$.$.$.$.#.$.$.$.$.$.#.$.$.$.G % 2 N q . : 5 5 5 ",
"5 5 5 = o q N 2 % G %.$.$.$.#.$.$.$.$.$.#.#.#.$.#.l @ q G J G H H G H H q o l #.$.$.$.$.#.$.$.#.$.#.$.$.$.%.G % 2 N q o : 1 y y ",
"5 5 y : . q N 2 % G %.$.$.$.$.$.$.$.$.$.$.%.$.%.$.j o 7 G H H H H H H G q o l $.%.$.$.$.$.$.$.$.$.$.$.$.$.%.G % 2 N q o : 1 y 1 ",
"5 5 5 = o q N 2 % G %.%.%.$.$.$.$.$.%.$.%.$.%.%.$.j o q H H H H H H H H q o l $.%.$.$.%.$.%.$.%.$.$.$.$.%.&.G % 2 N q   = y y y ",
"5 5 1 +   q N 2 o h G G G G G G G G G G G G G G G 7 o q G H H H G H H H q o 7 G G G G G G G F H G G G G G G w @ 2 M q o : y y 1 ",
"5 5 1 + . q N 2   o % @ % % @ & @ @ @ % % @ @ & @ o o q H J H H H H H H q . o @ % @ % % @ & % @ @ % @ @ % % @   2 N q . : 5 5 5 ",
"5 5 5 = o q G h 3 2 2 2 2 2 2 2 2 2 2 2 2 2 2 2 2 @ . q H J H H H H J H q o @ 2 2 2 2 2 2 2 2 2 2 2 2 2 2 2 2 2 h F q o = 5 5 5 ",
"5 5 5 = o 7 F F N N N N N N N z N N N N N N N F N 7 . q G H G G G G H G q o 3 N N N N N N z N N N N N N N N N N F F 7 . : 5 5 5 ",
"5 5 5 =   % 7 q q q q q q q q q q q q q q q q q q & . & 7 7 7 q q 7 q 3 % o & q q q q q q q q q q q q q q q q q q 7 &   = 5 5 5 ",
"5 5 5 =     o o o . o . o . . . . o . o o . . o . .   . . . o . . . . o .   . . . . o o . o o . o o . . . o . . o .     : 5 5 5 ",
"5 5 5 , : = : # : = : : : : = : = ; = : : = : : : # # ; : # : ; : : : : # : # : : : : # : # : : : # : : : : : = : = = : , 5 5 5 ",
"5 5 5 5 5 5 5 5 5 5 5 5 5 5 5 5 5 5 5 5 5 5 5 5 5 5 5 5 5 5 5 5 5 5 5 5 5 5 5 5 5 5 5 5 5 5 5 5 5 5 5 5 5 5 5 5 1 5 5 5 5 5 5 5 ",
"5 5 5 5 5 1 5 5 5 5 5 5 5 5 5 5 5 5 5 5 5 5 5 5 5 5 5 5 5 5 5 5 5 5 5 5 5 5 5 5 5 5 5 5 5 5 5 5 5 5 5 5 5 5 5 5 5 5 5 5 5 5 5 5 "
};
