/* XPM */
static char *result[] = {
/* columns rows colors chars-per-pixel */
"64 64 65 1 ",
"  c #040301",
". c #080600",
"X c #0B0900",
"o c #05060A",
"O c #0C0B0B",
"+ c #110F00",
"@ c #100E0B",
"# c #151100",
"$ c #1B1500",
"% c #1F1901",
"& c #11100E",
"* c #0D0E10",
"= c #131211",
"- c #181715",
"; c #1A1916",
": c #1E1D1A",
"> c #231B00",
", c #281E00",
"< c #221B08",
"1 c #201F1C",
"2 c #2D2200",
"3 c #29210A",
"4 c #322502",
"5 c #342804",
"6 c #3E2E02",
"7 c #21201D",
"8 c #242425",
"9 c #2A2B2C",
"0 c #353637",
"q c #3E3B30",
"w c #37383A",
"e c #463402",
"r c #493602",
"t c #4D3902",
"y c #533D03",
"u c #5A4203",
"i c #614703",
"p c #644903",
"a c #6A4D03",
"s c #6F5004",
"d c #715204",
"f c #7A5805",
"g c #414141",
"h c #45464B",
"j c #4A4A4C",
"k c #525354",
"l c #636364",
"z c #6A6A6A",
"x c #727272",
"c c #7B7B7B",
"v c #835F05",
"b c #846006",
"n c #8D6606",
"m c #946B07",
"M c #996E07",
"N c #9C7107",
"B c #A37507",
"V c #A67807",
"C c #A87907",
"Z c #AB7B08",
"A c #808080",
"S c #878788",
"D c #8C8C8C",
"F c #939393",
"G c #9B9B9B",
/* pixels */
"1111111111111111:7777:111111111111111111111111111111111111111111",
"1111111111111111777:77111111111111111111111111111111111111111111",
"11111111111111117:1111111111111111111111711111111111111111111711",
"11111111711111117:7111111111111111111111111111771111111111111111",
"1111111117771111111111:7111111111111111111111:-:1111111111111111",
"11177:1117::11111111177111111111111111111117:-=-1111111111111111",
"1117;-;7111711111111111111111111111111171117;=-=:111111111111111",
"111:===1111111111111111111111111111111111117;==-1111111111111111",
"1111;=;17::7711111111111111111111111111111111:::111111:711111111",
"11117:11777711111111111111111111111117111111171:1111177711111111",
"11117111::7:1111111111111111111111111111111111111111117:1111:711",
":7111111777711111111111111111111111111111111111111111177111;=:11",
"777:11111111111111111111111111111711111111171111111177::11:=-:77",
"7:77111111171111171111111111111111111111111111111111:777777::717",
"777:111111:777117111111111111111111111111111111111111117:7177111",
"1:7711111177:7:7::11111111111111111111111111111111111117:7111111",
"11111111:771117;=;7711111111111111111111111111111111111111111111",
"11111111771117:=-=:111111111111111111111111111111111111111111111",
"111111117:1111-===1111111111111111111111111111111111111111111111",
"1111111177:111:--;7111111111111111111111111111111111111111111111",
"1111111111111171111111111111111111111111111111111111111111111111",
"1111111111111111111111111111111111111111111111111111111111111111",
"11111111771111111111111111111111111111111111117:1111111111111111",
"11111111:7111117111111111111111111111111111111771117711111111111",
"111111111771:11:1:7:1111:::711111111:111111:7:7717:;:17711111111",
"11111111:&&&==&&&&&&&*&&&=&&&&@&&&&&&&&&&=&&&&&&&&OOO&=111111111",
"11117777;&XXXXXXXXXXXXXXXXXXXXXXXXXXXXXXXXXXXXXXXXXXXX#;11111111",
"1111777&#5rreeeerrrrereerrrrttttttttteeeereeeereeeeeee5&-1111111",
"11111:;&%aNMMMMMmMMMmMMMMMMnbbvvbbbbnMMMMMMMMMMMMMMMMNp%#:::1111",
"11177=&5anCVVVVVVVVVVVVVVCNp52232224pNZVVVVVNVVVVVVVVVmp6&=71111",
"1117;OXeffffffffffffffffffd2 *=-=-* 2sffffffffffffffffff6XO-:111",
"111=X  +>>%%%%%%%%%%%%%%%>>XOwllllwOX%3%%%%%%%%%%%%%%%3%#  O=111",
"11:= X$#########$##+###+#X *9zGGGGz9O X############$$###$$X &717",
"111&X,tuyyuyuyyuyyyyyyyyy>O0xDFFFFDx0O,tuyutyuyuyyyyyyyyuy,.&77:",
"117= %6e66e66666e6e6e6eee$OjFxkkkkxFjO%6r66666e66e66666666% &17:",
"11:& XXXXXXXXXXXXXXX+XX+X .jc0****wcjO XXXXXXXXXX+XX+XXXXXX =177",
"111= #,222222222,22,,4,,,#O80=o88o=w8X#222222222222222222,# =77:",
"11:=X2uiuuuuuuuuyiyiuuuiy4O.* -ll- OO 2uuuuuuuuuuuuuuuuuiu2X&:77",
"777=X2ir222,2>>2,,,,,,,,,+.8w=:xx;=w8.+,2,,,>,,,,2,2>,,2ri4X=111",
":::=X4u, X#X+++#+++++++++.Ojc9=kk=9cjO.+++++++##X#X#++X ,u4 =111",
"777=X4u>X6uuuuuuiyuuuuuuy,@jc9 ::o9cjO,yiyuuuuuuuuuuuu6X>u4X=111",
"11:& 4u>#pBNNNNNBBNNNNBBMr@jAg-;--gAh@tMBBNBNNNNNNNNNBi#>u4X&:11",
"111=X4u>#pVBNNBNMBBBNNNBNr@hDclllzcDh@rNBBBMNNNNNBNNBVp#>u4 =111",
"111= 4u>#iNNNNNNMMMMNNMBMtX9lDGGGGSl9OrMBMNMNNNNNNNNNNi#%u4X=111",
"11:=X4u>#iNNNMMNNMMNNNNNMtOo:lFFFFl:o.tMNMNMNNMNNNMNNBp#>u4 =111",
"17:=X2u>#iBNNNNNNNNNNMMBMtXX<qkkkkq<X.tMBNNNNMNNNNNMNNp#>u4X&:11",
"111=X4u>#iNNMNNMMNNMNMNNMr+,y<O@*O3y4+rMNNMMNNMMNNNMNBu#>u4X=111",
"11:=X2u>#iBNMNNMNNNMNNNBMtX5ie,,>,ei4XrMBMNNMNNNMMNNNNp#>u2X=111",
"111=X2u>#pBNNNNNNNMMNNNNMrX4paippisp2+eMNNNMNMMNNNNMNNp#>u4X*111",
"11:=X4u>#pNNNNNMMNNNNMNNMtX2adassssp4XrMNMNNNNNNNMNNNBp#>u2X=111",
"111=X2u%+pNNNNNMMNNNNNMNNr+4paaapssp2+rNNNMNMNNNMNMNNNi#>u4X=111",
"11:=X4u>#pNNMMNNNNMNMNNBNtX2aapaapsp4XeNNNNNMNNNNNMNNBi#%u4X=111",
"11:=X4u>#pBNNNNNNNNNNNNVNr#2aaaapsap4+rNVNNNNNNNNNNNNVi#>u2X&111",
"117=X4u%#pVVNNNBNBBNNBNVNrX2pspaspsp2XrNVNNBNNNBNNNVBVp#>u4X=111",
"111= 4u>X6aupuapppppppppu4X4paaaaasp4X4upppppppppppupp6X>u4X&111",
"11:OX4u, X#######+#+#++##XX4psaapasp4XX#####+#########XX>u2X=111",
"17:OX5ir2>>>>>>%>>>>>>>>>+.5asassada5X+>>>>>>>>%>>>%>%>,ep2X=111",
"11:&X2uiuuuuuuuuuyuuuuuuu,X4papppppi2X,uuuuuuuuuuuuuuuuupu2X=:11",
"117= #2442424444544444454$.#24224242#.%4444422442444442442# =111",
"11:=   XXXXXXX XX.....X... .....X.XX.  .XX XXXXXXXXX XXXXX  =111",
"111;=&=========&=&&&&=&&==&=&=&=&=&&&=&==&=====&===*=&===&==;111",
"11111111:1:1:11:11771111111111771111111111:7:7:1:11711:11111:111",
"1111111111111111111111111111171111111111111171111111111111111111",
"1111111111111111111111111111111111111111111111111111111111111111"
};
