/* XPM */
static char *result[] = {
/* columns rows colors chars-per-pixel */
"64 64 212 2 ",
"   c #020201",
".  c #080601",
"X  c #060806",
"o  c #0B0A00",
"O  c #0B0B0A",
"+  c #110F00",
"@  c #100F0C",
"#  c #0F1101",
"$  c #141101",
"%  c #1A1500",
"&  c #1D1A02",
"*  c #12110E",
"=  c #100F14",
"-  c #131211",
";  c #181715",
":  c #1A1916",
">  c #1D1C1A",
",  c #231B00",
"<  c #291E00",
"1  c #241B08",
"2  c #201F1C",
"3  c #212203",
"4  c #2D2200",
"5  c #2C2C04",
"6  c #252509",
"7  c #2A290A",
"8  c #322502",
"9  c #352802",
"0  c #3C2D02",
"q  c #323304",
"w  c #3A3A05",
"e  c #33340A",
"r  c #21201D",
"t  c #1B1B20",
"y  c #252527",
"u  c #292825",
"i  c #2B2B2B",
"p  c #2B2C31",
"a  c #3E3C36",
"s  c #7D100A",
"d  c #433102",
"f  c #493702",
"g  c #423905",
"h  c #4D3902",
"j  c #523C03",
"k  c #414406",
"l  c #474905",
"z  c #4B4B06",
"x  c #43420C",
"c  c #4B4A09",
"v  c #574604",
"b  c #5B4203",
"n  c #4F510B",
"m  c #535406",
"M  c #5D5907",
"N  c #54540C",
"B  c #5C5B09",
"V  c #505111",
"C  c #614703",
"Z  c #644903",
"A  c #6A4D03",
"S  c #6E5004",
"D  c #605F0B",
"F  c #725304",
"G  c #7C5A05",
"H  c #655B15",
"J  c #646305",
"K  c #636309",
"L  c #676809",
"P  c #6B6C09",
"I  c #73730A",
"U  c #7B7B0C",
"Y  c #656413",
"T  c #6F7112",
"R  c #757313",
"E  c #78682B",
"W  c #424344",
"Q  c #45464B",
"!  c #4A4B4C",
"~  c #525355",
"^  c #5C5C5C",
"/  c #636363",
"(  c gray42",
")  c #727272",
"_  c #7B7B7B",
"`  c #BB3C10",
"'  c #C3060C",
"]  c #CF3510",
"[  c #95470B",
"{  c #815E05",
"}  c #866206",
"|  c #8D6606",
" . c #946B06",
".. c #996E07",
"X. c #9C7107",
"o. c #A27407",
"O. c #A77807",
"+. c #A87907",
"@. c #B26B18",
"#. c #BC7311",
"$. c #8E7139",
"%. c #C9470F",
"&. c #D06B14",
"*. c #E64430",
"=. c #D46823",
"-. c #36E51C",
";. c #5AE40E",
":. c #7CE41C",
">. c #77D82A",
",. c #78E73C",
"<. c #4BF84B",
"1. c #86850A",
"2. c #8B8B0B",
"3. c #93930C",
"4. c #9A9A0C",
"5. c #848515",
"6. c #8C8C13",
"7. c #8F9415",
"8. c #999817",
"9. c #A5970B",
"0. c #9FA00E",
"q. c #A4A40D",
"w. c #ABAB0D",
"e. c #B0A80D",
"r. c #ABB40F",
"t. c #B4B30E",
"y. c #B7BA0F",
"u. c #BBBC0E",
"i. c #A4A312",
"p. c #AAAA17",
"a. c #B8AF10",
"s. c #A8B51A",
"d. c #B5B512",
"f. c #B5B715",
"g. c #BCBC11",
"h. c #BCBD1B",
"j. c #C78B18",
"k. c #C99215",
"l. c #EA8F19",
"z. c #CCB413",
"x. c #EAA71C",
"c. c #ECB31D",
"v. c #F38930",
"b. c #C8BF20",
"n. c #E4B520",
"m. c #91EB19",
"M. c #93CF21",
"N. c #91FA39",
"B. c #A1E12B",
"V. c #C3C30F",
"C. c #C3C312",
"Z. c #CCCC13",
"A. c #C6C619",
"S. c #CCCD1C",
"D. c #D6CC16",
"F. c #CAD716",
"G. c #DBDB16",
"H. c #D2D31B",
"J. c #D8D618",
"K. c #DDDD1A",
"L. c #E7C71D",
"P. c #EBD51E",
"I. c #D3EA1C",
"U. c #E3E31B",
"Y. c #E6E418",
"T. c #E5EA1D",
"R. c #ECED1E",
"E. c #EFF21E",
"W. c #F2F41E",
"Q. c #FEFE1F",
"!. c #DBDD23",
"~. c #DCD22E",
"^. c #CCD132",
"/. c #EBDE21",
"(. c #E7DA30",
"). c #D5E724",
"_. c #DAED38",
"`. c #E5E621",
"'. c #ECEC21",
"]. c #F3E721",
"[. c #EDF226",
"{. c #F3F422",
"}. c #F9F421",
"|. c #F7FD24",
" X c #FBFC23",
".X c #FEF136",
"XX c #A88548",
"oX c #C29851",
"OX c #D3BE47",
"+X c #E4BA5D",
"@X c #BBD657",
"#X c #8ED36D",
"$X c #ACE669",
"%X c #DCC14A",
"&X c #E3C748",
"*X c #CBEF4D",
"=X c #C7C57D",
"-X c #A77689",
";X c #A468A7",
":X c #C87C9A",
">X c #B15FC6",
",X c #7DB6A6",
"<X c #72ECB2",
"1X c #65CEC9",
"2X c #828282",
"3X c #878788",
"4X c #8E8E8E",
"5X c #959595",
"6X c #9B9B9B",
"7X c #C78787",
"8X c #C481A4",
"9X c #99E583",
/* pixels */
"2 2 2 2 2 2 2 2 2 2 2 2 2 2 2 2 2 2 2 2 2 2 2 2 2 2 2 2 2 2 2 2 2 2 2 2 2 2 2 2 2 2 2 2 2 2 2 2 2 2 2 2 2 2 2 2 2 2 2 2 2 2 2 2 ",
"2 2 2 2 2 2 2 2 2 2 2 2 2 2 2 2 2 2 2 2 2 2 2 2 2 2 2 2 2 2 2 2 2 2 2 2 2 2 2 2 2 2 2 2 2 2 2 2 2 2 2 2 2 2 2 2 2 2 2 2 2 2 2 2 ",
"2 2 2 2 2 2 2 2 2 2 2 2 2 2 2 2 2 2 2 2 2 2 2 2 2 2 2 2 2 2 2 2 2 2 2 2 2 2 2 2 r r r r 2 2 2 2 2 2 2 2 2 2 2 2 2 2 2 2 2 2 2 2 ",
"2 2 2 2 2 2 2 2 2 2 2 2 2 2 2 2 2 2 2 2 2 2 2 2 2 2 2 2 2 2 2 2 2 2 2 2 2 2 2 2 r > r > 2 2 r r 2 2 2 2 2 2 2 2 2 2 2 2 2 2 2 2 ",
"2 2 2 2 2 2 2 2 2 2 2 2 2 2 2 2 2 2 2 2 2 2 2 2 2 2 2 2 2 2 2 2 2 2 2 2 2 2 2 2 r > r r r > : : 2 2 2 2 2 2 2 2 2 2 2 2 2 2 2 2 ",
"2 2 2 r r > 2 2 2 2 2 2 2 2 2 2 2 2 2 2 2 2 2 2 2 2 2 2 2 2 2 2 2 2 2 2 2 2 2 2 r r r r > ; - ; > 2 2 2 2 2 r r 2 2 2 2 2 2 2 2 ",
"2 2 2 r : ; ; 2 2 2 2 2 2 2 2 2 2 2 2 2 2 2 2 2 2 r 2 2 2 r 2 2 2 2 r 2 2 2 2 2 r > r r : ; ; - > r r 2 2 r 2 r 2 2 2 2 2 2 2 2 ",
"2 2 2 > ; - ; : > > > > > > > > > > > > > > > : > > > > 2 r u u u u r 2 : 2 > > > > > : ; * - - > > > > > > > : > 2 2 2 2 2 2 2 ",
"2 2 2 2 ; ; ; - O o O O O O O O O O O O O O O O O O O O = W / / / / a * O O O O O O O O O O X O O O O O O O O O * r 2 2 2 2 2 2 ",
"2 2 2 2 : : ; O                                       O > ^ 5X5X5X5X^ 2 O                                       o : 2 2 2 2 2 2 ",
"2 2 2 ; O X o                                       X i / 2X5X5X5X5X3X/ i X                                       o ; 2 2 2 2 2 ",
"2 2 2 @   o $ $ $ $ $ $ $ $ $ $ $ $ $ $ $ $ $ $ $ . O ! 4X_ ( / ( ( _ 4X! O . $ $ $ $ $ $ $ $ $ $ $ $ $ $ $ $ $ $ $ * * * 2 2 2 ",
"2 2 2 @ . , h j j j j j j j j j j j j j j j j j j < O ! 2XW : ; ; ; W 2X! O < j j j j j j j j j j j j j j j j h j h < o O 2 2 2 ",
"2 2 2 - . , d d d d d d d d d d d d d d d d d d d % o p ! t X > :   > ! p O % d f d d d d d d d d d d d d d d d d d , . @ 2 2 2 ",
"2 2 2 -   . o + o o o + + o o + o + + o + + + o O o   O =   = ~ ^ - X = O . . + + o + o o + o + + o o + + + + + + o o   * 2 2 2 ",
"2 2 2 - . % 9 9 9 9 9 9 9 9 9 9 9 9 9 9 9 9 9 9 9 9 0 9 4 o > ) ) ; o < 9 9 9 9 9 9 9 9 9 9 9 9 9 9 8 9 9 9 8 8 9 8 $ . - 2 2 2 ",
"2 2 2 - . d {  .| | | | | | | |  .| | | | |  .| | | | ..G < ; / / ; < G ..| | | |  .| | | | | | | | | | | | | |  .} d . * 2 2 2 ",
"2 2 2 - . f ..+.o.o.O.o.o.o.o.o.o.o.o.o.o.o.o.o.o.o.o.+.| < X i y X 4 | +.+.+.+.+.+.+.+.+.O.o.o.O.o.o.o.o.O.o.o.+.X.d o - 2 2 2 ",
"2 2 2 @ . d ..o.X.X.X.......X.X...X.X.X.X.....X.X.X.X.o.} 0 o + O o 9 } X.| } } } } } } | | ..X.X.X...X.X...X...o. .d . - 2 2 2 ",
"2 2 2 - o d  .o...X.X.o.O.o.X.X.X.o.o.o.o.o.O.X.X.X...X...F b b b v G ..S 9 4 4 4 4 4 4 4 b ..O.o.o.o.X.X...X.X.o. .d o * 2 2 2 ",
"2 2 2 @ o d  .o.X.X. .{ G G | ..| G G G G G G } ..X...| G G G G G G G G 0 o o % % & % #   < S { G G {  .X.X...X.O. .d o = 2 2 2 ",
"2 2 2 - . d  .o.X.o.{ 0 % , v  .b < & & % , , f  .+...b < % , , , , , 1 o   q I I I U n $ . & , , % 8 F o.O.o.o.o. .d o * 2 2 2 ",
"2 2 2 - o d  .O...{ h o     4 b 4   # 3 3 %   % b F Z < . $ 3 3 3 3 $   o 5 I t.Z.y.3.m #     o & o o 0 A S A F {  .d o * 2 2 2 ",
"2 2 2 * . d  .O.} 0 +       o $ o o z 1.2.B $   $ % $ . # c 1.1.1.1.l # q 1.q.u.G.h.x o       w I q   o $ % $ % f | d o - 2 2 2 ",
"2 2 2 - o f  .G d + . 3 q q & . $ w 1.u.H.q.c 5 q q 5 o # L u.Z.Z.u.J o 3 K L I Z.H.Y e q 5 q I w.U x e 3 .     , j 4 . - 2 2 2 ",
"2 2 2 - o d } d +   & I q.3.l o k 3.q.u.K.H.q.3.3.4.2.w $ B u.U.U.g.K # o $ # 6 8.W.!.h.q.3.4.0.r.A.A.w.I &     . o o   = 2 2 2 ",
"2 2 2 - . & d w w w D f.G.u.m O l r.M.>.:.m.F.i.K 6.C.7.H $.oX(.R.J.0.Y N N N H XX+X.X XU.K.J.3.B Y 6.h.d.K l k 3       * 2 2 2 ",
"2 2 > @   . & K w.q.d.K.J.a.M & m r.,.<.-.;.I.7.6 D K.W.~.7X:X&XW.{.'.`.!.!.!.^.7X:X%XP.K.'.T.R $   6 8.K.d.9.9.D +     * 2 2 2 ",
"2 : - X   & N i.G.U.D.j.&.=.@.R 2.r.B.N.:.m.T.f.K 6.'. X.X8X>X+X|.}. X X*X=X9X9X9XoX$.V N 5.h.3.z $ * 7.P.&.` ` [ N 3 . * 2 2 2 ",
"2 ;     $ N t.K.'.R.z.@.` *.v./.H.g.J.{.{.{.{.K.g.Z.'.T.^.-X;XOXE.R.W.[.*X,X1X<X*Xh.d o $ c q.C.q.g 1 8.L.%.' ' %.9.z o - > 2 2 ",
"2 -   , K i.K.{./.k.#.k.k.j.n. XE.K.R.}. X}.}.W.U.R.`.5.c E XXA.Z.Z.J.'._.@X$X$X).g.8.5.5.p.H.T.D.[ s k.].x.l.l.z.e.l   - 2 2 2 ",
"2 ; . w q.G.{.|.P.#.#.L.U.y.p.h.K.{.{.{.{.[._._.[. X`.R 7 M 3.2.3.q.Z.R.W.Q.W.K.i.3.S.{.{.{.{.{.].&.] x.'.S.h.b.C.a.K 3 * : 2 2 ",
"2 - . w q.K.{.|.{.L.L.'.U.y.P x 7.{. X|.W.*X9X$X[.Q.[.H.7.c 3 3 k 3.Z.W. X XY.t.l w 3.G.{. X X|.{.L.c.].A.V 7 e T S.f.I 5 @ : 2 ",
"2 ; . w q.J.K.h.s.H.T.T.J.y.m # x p.H.U.T.^.#X#X).Y.U.E.H.K &   3 2.Z.K.S.i.2.P w w 1.C.P.S.s.h.U.R.R.].f.l & 6 L S.G.w.w . * 2 ",
"2 ; . w q.V.w.N e 1.V.g.u.t.B o X 7 U V.V.y.s.s.f.g.u.V.y.i.P & 3 2.V.u.T 6 $ 6 B 4.w.y.u.I e D y.V.g.V.t.4.1.1.0.y.g.q.w . ; 2 ",
"2 -   3 B P m & o w K J L J q .     q K K K J K D K J K K P m # $ z P M 5     o w P K K J q   3 B K J D K L P P L K L B 3   * 2 ",
"2 ;   o + $ # o . + $ $ $ # o     . o $ $ $ $ $ + $ + $ # # # X X o $ $ o     . o $ $ # # o   o # $ $ # # $ $ $ $ # $ # o   ; 2 ",
"2 : -     o , 4 4 < < < < < 4 4 4 4 4 4 < < < 4 < +   t p = O p i O = p > X $ 4 4 4 4 < 4 4 4 4 < < < < < 4 < < < < o   X @ : 2 ",
"2 2 > - o 4 b Z b b b b b b b b b b b b b b b b b < O Q ( y - / / - i ) W O 4 b b b b b v b b b b b b b v b b b C b 4 o @ 2 2 2 ",
"2 r > - o 8 Z d 4 < < < < < < < 4 < < , < < < < < + O ! -Xi ; ( ( : i 2X! O + < < < < < < < < 4 < < < < < < < < d Z 4 o - 2 2 2 ",
"2 2 r - o 8 b < . o + $ o $ $ $ o # $ $ # o $ $ $ . O ! _ i - ^ ^ = i _ ! O   + + + + + $ $ $ o + + + + + + o . 4 b 8 o - 2 2 2 ",
"2 2 > - . 8 b , o 0 b b b b b b b b b b b b b b j < @ Q _ i   2 >   i _ ! O < b b b b b b b b b b b b b b b 0 o , b 8 . @ 2 2 2 ",
"2 2 2 - o 8 b & $ Z O.X.X.X.X.X.X.X.X.X.X.X.X.o...f @ Q 2XW ; ; ; ; W ,XQ @ f X.O.X.o.X.X.X.X.X.X.X.X.X.o.o.Z $ , b 8 . - 2 2 2 ",
"2 2 2 - . 8 b , $ Z o.O.X.X.o.X.X.X.X.o.o.X.X.o...f @ Q 3X_ / / / / ) _ Q @ f ..o.X.o.X.X.X.X.X.X.o.X.X.o.o.Z $ , b 8 . - 2 2 2 ",
"2 2 2 @ . 8 b , $ Z X.X...X.X.X...X.X.X.X.X.X.X...f @ i / 3X6X6X6X6X-X/ p X f ..X...X...X.X.X.X.X.X...X.X.X.Z $ & b 8 . - 2 2 2 ",
"2 2 2 - o 4 b , $ Z X.X.X.X.....X.X.....X.X.X.X...f . X t ^ 5X5X5X5X^ t X o h ..o.X.X.....X.X...X.X...X.X.o.Z $ , b 8 o - > 2 2 ",
"2 2 2 - o 8 b , $ Z X.X.X.....X...X.X.X.X.X.X.X...h . + 1 a ~ ~ ~ ~ a 1 o o f ..X.X.X.X.X.X.X.X...X.X.X.X.o.C $ , b 8 o - 2 2 2 ",
"2 2 2 - . 4 b , $ Z X.X...X.X.X...X.X.X.X.X.X.X...f + < j 7 @ O @ @ < j 4 o f ..o.....X.X.....X.X.X.X...X.X.C $ , b 4 . - 2 2 2 ",
"2 2 2 - . 8 b , $ C X.X.X...X.X...X.X.X.X...X.X...d o 9 Z d < < < < d Z 9 # f ..X.X...X.X.....X.X.X...X.X.X.Z $ , b 8 o * > r r ",
"2 2 > - o 8 b & $ Z o.X.X.X.X...X.X.X...X.X.X.o...h o 9 Z A Z C C Z A Z 4 o f ..X.X.X.X.X.X.X.X...X...X.X.o.Z $ , b 8 . - > 2 2 ",
"2 2 2 - . 8 b & $ Z X.X.X...X.X.X...X.......X.X...f o 8 A A A A A A F Z 4 o h ..X.X.X...X...X...X...X.X.X.o.Z + , b 8 . - 2 2 2 ",
"2 r > - o 8 b , + Z o.X.X.X.X...X...X.X.X.X.X.X...h # 4 A A A Z A A A Z 8 # d ..X.X.X...X.X.X.X.X.X.X...X.X.Z $ , b 8 . - 2 2 2 ",
"2 2 r - o 8 b , $ C o.X...X.X.X.X.X.X.X.......o...f o 8 Z S A A A A A Z 8 o h ..o.X.X.X.X.X.X.....X.X.X.X.X.Z $ & b 8 o - > r r ",
"2 2 > - . 8 b , $ Z o.X.X.X.X.X.X.X.X.X.o.o.X.o...h # 4 A A A Z A A A Z 4 # h X.o.X.X.X.X.X.X.X.X.X.X.X.X.O.Z $ , b 8 . - > > r ",
"2 2 2 - o 8 b , $ A O.o.X.o.X.o.o.X.X.o.X.o.X.o.X.h o 4 Z A A A A A A A 4 o h X.O.X.X.o.X.o.X.o.X.X.o.X.o.O.Z $ , b 8 . - r r r ",
"2 2 2 O . 4 b , o 0 Z Z Z C Z C C Z Z C Z C Z A b 9 o 8 A A A A Z A A A 8 o 8 C Z Z Z C Z Z Z Z C Z Z Z Z Z d o , b 8 o - r > r ",
"2 r > O o 8 b < . o + + $ + + $ + + + + $ $ + $ + o . 8 A A A A A A A A 8 . . $ $ $ $ + $ + + + + $ + $ $ $ o . < b 8 o - r 2 2 ",
"2 2 2 - o 8 C d < , , , , , , , , , , , , , , , , + . 9 A F A A A A S A 9 . + , , , , , , , , , , , , & , , , , d b 8 . O r 2 2 ",
"2 2 > - . 4 C C b b b b C j b b b b b b b b b b b < o 8 C A Z Z Z Z A Z 8 . < b b b b b b b b b b b b b b b b b C C 4 o - 2 2 2 ",
"2 2 > * . $ 4 8 8 8 8 8 8 8 8 9 8 8 8 9 8 8 8 9 9 % . $ < 8 4 8 8 4 8 < $ . % 9 9 8 4 8 8 8 8 8 8 8 8 8 8 8 8 8 9 4 $ . - 2 2 2 ",
"2 2 2 -     o . o . o . . . o . . o . . o . . . . .   . . . o . . . o . .   . . . o . . . . o . . . o . . o . . . . .   - r 2 2 ",
"2 2 2 : - * - = - @ - * - @ - - - @ - * - - - @ - @ - - - - * - * - - - @ - @ - - - * - * - * - - * - * - - * - * - - - : > 2 2 ",
"2 2 2 2 2 2 2 2 2 2 2 2 2 2 2 2 2 2 2 2 2 2 2 2 2 2 2 2 2 2 2 2 2 2 2 2 2 2 2 2 2 2 2 2 > r 2 2 2 2 2 2 2 2 2 2 > 2 2 2 2 2 2 2 ",
"2 2 2 2 2 2 2 2 2 2 2 2 2 2 2 2 2 2 2 2 2 2 2 2 2 2 2 2 2 2 2 2 2 2 2 2 2 2 2 2 2 2 2 2 2 r 2 2 2 2 2 2 2 2 2 2 2 2 2 2 2 2 2 2 "
};
