/* XPM */
static char *result[] = {
/* columns rows colors chars-per-pixel */
"64 64 205 2 ",
"   c #030301",
".  c #080501",
"X  c #070900",
"o  c #0A0900",
"O  c #05060B",
"+  c #0C0B0B",
"@  c #110E00",
"#  c #100E0C",
"$  c #0F1200",
"%  c #131101",
"&  c #1A1500",
"*  c #171800",
"=  c #1B1B03",
"-  c #12110E",
";  c #100F14",
":  c #131311",
">  c #181715",
",  c #1A1916",
"<  c #181718",
"1  c #1D1C1A",
"2  c #231B00",
"3  c #291E00",
"4  c #241B08",
"5  c #201F1C",
"6  c #232303",
"7  c #2D2201",
"8  c #2D2E04",
"9  c #242509",
"0  c #2A290A",
"q  c #322502",
"w  c #362802",
"e  c #3B2C02",
"r  c #2F3005",
"t  c #323204",
"y  c #3A3B05",
"u  c #33340A",
"i  c #3D3C0B",
"p  c #21201D",
"a  c #1B1B20",
"s  c #22222A",
"d  c #2A2A2C",
"f  c #2B2C31",
"g  c #3E3B30",
"h  c #7D100A",
"j  c #402E01",
"k  c #463302",
"l  c #493602",
"z  c #423C06",
"x  c #4D3902",
"c  c #513B04",
"v  c #3F430A",
"b  c #434406",
"n  c #474905",
"m  c #4B4B06",
"M  c #42430D",
"N  c #4A490B",
"B  c #5A4203",
"V  c #4F510E",
"C  c #545506",
"Z  c #5C5907",
"A  c #55550C",
"S  c #5C5C0A",
"D  c #575910",
"F  c #614703",
"G  c #644903",
"H  c #6A4D03",
"J  c #6A5506",
"K  c #705205",
"L  c #636205",
"P  c #636309",
"I  c #696A08",
"U  c #6B6B0A",
"Y  c #73730B",
"T  c #7C7D0D",
"R  c #6B6C12",
"E  c #757313",
"W  c #746723",
"Q  c #424243",
"!  c #45464A",
"~  c #4A4B4C",
"^  c #4F5053",
"/  c #525255",
"(  c gray35",
")  c #5E5E62",
"_  c #636364",
"`  c gray43",
"'  c #6F6F71",
"]  c gray45",
"[  c #7B7B7B",
"{  c #BB3C10",
"}  c #C3060C",
"|  c #CF3510",
" . c #95470B",
".. c #815E06",
"X. c #866106",
"o. c #8B6506",
"O. c #916906",
"+. c #996E07",
"@. c #9C7107",
"#. c #A37507",
"$. c #A87907",
"%. c #AC7B08",
"&. c #B26B18",
"*. c #BC7311",
"=. c #C9470F",
"-. c #D06B14",
";. c #E64430",
":. c #D46823",
">. c #36E51C",
",. c #5AE40E",
"<. c #7CE433",
"1. c #4BF84B",
"2. c #87860B",
"3. c #8B8B0B",
"4. c #94940C",
"5. c #999A0C",
"6. c #838415",
"7. c #8C8C14",
"8. c #8F9718",
"9. c #969415",
"0. c #9A9917",
"q. c #A5970B",
"w. c #9EA00E",
"e. c #A4A30D",
"r. c #AAAA0D",
"t. c #B0A80D",
"y. c #ABB40F",
"u. c #B3B20E",
"i. c #B7BA0F",
"p. c #BBBC0F",
"a. c #A7A715",
"s. c #B8AF10",
"d. c #A8B51A",
"f. c #B5B513",
"g. c #B5B715",
"h. c #BCBC11",
"j. c #BCBD1B",
"k. c #C78B18",
"l. c #C99215",
"z. c #EA8F19",
"x. c #D0B214",
"c. c #EAA71C",
"v. c #ECB31D",
"b. c #F38930",
"n. c #BDC119",
"m. c #82ED1E",
"M. c #9CED16",
"N. c #98D421",
"B. c #91FA39",
"V. c #A1E12B",
"C. c #C3C30F",
"Z. c #C3C311",
"A. c #CDCD14",
"S. c #C2C31B",
"D. c #C6C81D",
"F. c #CCCD1C",
"G. c #D7CB18",
"H. c #CBD816",
"J. c #DBDB16",
"K. c #D2D21C",
"L. c #D9D618",
"P. c #DDDD1A",
"I. c #E7C71D",
"U. c #EBD51E",
"Y. c #D3EA1C",
"T. c #E6E71A",
"R. c #E3E41C",
"E. c #ECEC1D",
"W. c #EFF31F",
"Q. c #F6F71E",
"!. c #CAD62B",
"~. c #D8D921",
"^. c #EBDE21",
"/. c #D3E825",
"(. c #DBEE38",
"). c #E5E722",
"_. c #ECEC21",
"`. c #F3E721",
"'. c #ECF327",
"]. c #F4F422",
"[. c #FAF422",
"{. c #F7FD24",
"}. c #FCFC24",
"|. c #F2E937",
" X c #C09459",
".X c #BDD955",
"XX c #B6F058",
"oX c #8ED36D",
"OX c #ACE669",
"+X c #CFCF4E",
"@X c #EEC658",
"#X c #C0F554",
"$X c #E2F348",
"%X c #C4C17C",
"&X c #C87C9A",
"*X c #7DB6A6",
"=X c #72ECB2",
"-X c #65CEC9",
";X c #818181",
":X c #878788",
">X c #8C8C8C",
",X c #959595",
"<X c #9B9B9B",
"1X c #CF9188",
"2X c #97E383",
/* pixels */
"5 5 5 5 5 5 5 5 5 5 5 5 5 5 5 5 5 5 5 5 5 5 5 5 5 5 5 5 5 5 5 5 5 5 5 5 5 5 5 5 5 5 5 5 5 5 5 5 5 5 5 5 5 5 5 5 5 5 5 5 5 5 5 5 ",
"5 5 5 5 5 5 5 5 5 5 5 5 5 5 5 5 5 5 5 5 5 5 5 5 5 5 5 5 5 5 5 5 5 5 5 5 5 5 5 5 5 5 5 5 5 5 5 5 5 5 5 5 5 5 5 5 5 5 5 5 5 5 5 5 ",
"5 5 5 5 5 5 5 5 5 5 5 5 5 5 5 5 5 5 5 5 5 5 5 5 5 5 5 5 5 5 5 5 5 5 5 5 5 5 5 5 5 5 5 5 5 5 5 5 5 5 5 5 5 5 5 5 5 5 5 5 5 5 5 5 ",
"5 5 5 5 5 5 5 5 5 5 5 5 5 5 5 5 5 5 5 5 5 5 5 5 5 5 5 5 5 5 5 5 5 5 5 5 5 5 5 5 5 5 5 5 5 5 5 5 5 5 5 5 5 5 5 5 5 5 5 5 5 5 5 5 ",
"5 5 5 5 5 5 5 5 5 5 5 5 5 5 5 5 5 5 5 5 5 5 5 5 5 5 5 5 5 5 5 5 5 5 5 5 5 5 5 5 5 5 5 5 5 5 > 5 5 5 5 5 5 5 5 5 5 5 5 5 5 5 5 5 ",
"5 5 5 5 p 1 5 5 5 5 5 5 5 5 5 5 5 5 5 5 5 5 5 5 5 5 5 5 5 5 5 5 5 5 5 5 5 5 5 5 5 5 5 5 5 : : : 5 5 5 5 5 5 5 5 5 5 5 5 5 5 5 5 ",
"5 5 5 p , > , 5 5 5 5 5 5 5 5 5 5 5 5 5 5 5 5 5 5 5 5 5 5 5 5 5 5 5 5 5 5 5 5 5 5 5 5 5 , : : > 5 5 5 5 5 5 5 5 5 5 5 5 5 5 5 5 ",
"5 5 5 1 : : : 5 5 5 5 5 5 5 5 5 5 5 5 5 5 5 5 5 5 5 5 5 5 5 5 5 5 5 5 5 5 5 5 5 5 5 5 5 5 : : : 5 5 5 5 5 5 5 5 5 5 5 5 5 5 5 5 ",
"5 5 5 5 , : , 5 5 5 5 5 5 5 5 5 5 5 5 5 5 5 5 5 5 5 5 5 5 5 5 5 5 5 5 5 5 5 5 5 5 5 5 5 5 5 5 5 5 5 5 5 5 5 5 5 5 5 5 5 5 5 5 5 ",
"5 5 5 5 5 5 5 5 5 5 5 5 5 5 5 5 5 5 5 5 5 5 5 5 5 5 5 5 5 5 5 5 5 5 5 5 5 5 5 5 5 5 5 5 5 5 5 5 5 5 5 5 5 5 5 5 5 5 5 5 5 5 5 5 ",
"5 5 5 5 5 5 5 5 5 5 5 5 5 5 5 5 5 5 5 5 5 5 5 5 5 5 5 5 5 5 5 5 5 5 5 5 5 5 5 5 5 5 5 5 5 5 5 5 5 5 5 5 5 5 5 5 5 5 5 5 5 5 5 5 ",
"5 5 5 5 5 5 5 5 5 5 5 5 5 5 5 5 5 5 5 5 5 5 5 5 5 5 5 5 5 5 5 5 5 5 5 5 5 5 5 5 5 5 5 5 5 5 5 5 5 5 5 5 5 5 5 5 5 5 5 > - 5 5 5 ",
"5 5 5 5 5 5 5 5 5 5 5 5 5 p p p 5 5 5 5 5 5 5 5 5 5 5 5 5 5 5 5 5 5 5 5 5 5 5 5 5 5 5 5 5 5 5 5 5 5 5 5 5 5 5 5 5 5 5 - : 5 5 5 ",
"5 5 5 5 5 5 5 5 5 > : : : : : : : : > : : > : : : : > : : > > : > : : : > : : : > : : : > : : : : : > : : : , 5 5 5 5 5 5 5 5 5 ",
"5 5 5 5 5 5 5 5 , + . . . . o o . . . . . . . . . . . . . . . . . . . . . . . . . . . . . . . . . . . . O . # , 5 5 5 5 5 5 5 5 ",
"5 5 5 5 5 5 5 > - 7 w w w w w w w w w w w w w w w w w w e e e j e e e e e w w w w w w w w w w w w w w w w w 3 & > 5 5 5 5 5 5 5 ",
"5 5 5 5 5 5 , # & G O.O.O.o.o.O.o.O.o.o.O.o.O.o.o.O.o.o.........o.X.X...o.O.o.O.O.o.O.o.o.O.o.o.o.o.o.O.O.O.F 2 + 5 5 5 5 5 5 5 ",
"5 5 5 5 5 > - q c o.%.%.$.$.$.$.$.$.$.$.$.$.$.$.%.%.#.K l k j j e j j l K #.%.%.$.$.$.$.$.$.$.$.%.%.#.%.%.%.o.c q # > 5 5 5 5 5 ",
"5 5 5 5 , + o l ..o.o...o.o.X.o.o.o.o.o.X.o.o.o...O...w . + # - ; # + . w ..O...o.X.o.X.o.o.o.o.o.....o...o.o...k . # , 5 5 5 5 ",
"5 5 5 > +   . & q q 7 q 7 7 7 3 3 7 3 7 7 3 7 7 7 q 7 @ O d ^ ^ / ^ f   @ 7 w 3 7 7 7 7 7 3 3 7 q 7 7 q 7 7 q q 2     + > 5 5 5 ",
"5 5 5 # . o @ @ @ @ @ @ @ @ o @ @ @ @ @ # @ @ @ @ . . + p ) ,X,X,X,X) 5 + . o @ # @ @ @ @ @ @ @ @ @ @ @ @ @ @ @ @ @ o   # 5 5 5 ",
"5 5 5 :   2 l l l k k k l l l l k l k l l k l l k 2 . f _ :X<X<X<X<X>X_ f . 2 j l l k k l l k l k l l l l l l l l k 2 . : 5 5 5 ",
"5 5 5 : o 2 l c c c x x l l l x x x x x l l l l l 3 + Q ,X[ _ _ _ _ [ >X~ + 2 l l l l l l l x l l l l l l c l c c l 2 o - 5 5 5 ",
"5 5 5 #   o @ @ @ % @ @ @ @ % % @ @ @ @ @ @ @ @ @ . + g *XQ < < > > Q :X~ + . @ @ @ @ @ @ % @ % @ @ @ @ @ @ @ @ @ @ o . - 5 5 5 ",
"5 5 5 :   & 2 o       6 w 8 *   & 8 w t v v r r r * X d ! < X < < . 1 ! d X = v N M z i r 0 r r u i v u 6 X     .       + p 5 5 ",
"5 5 5 ; o e K w     = Y e.4.N $ z 4.5.5.n.C.w.5.4.n + O ; . < ( ( <   ; O + R F.L.G.K.j.w.4.4.4.4.g.S.y.Y =             : 1 5 5 ",
"5 5 5 - o 2 x z z y P g.J.p.C @ n y.N.<.<.M.H.a.P A S D N % < ' ' < % N V P g.[.@X@X|.}.T.J.K.4.S U 7.n.f.P n b 6       : 5 5 5 ",
"5 5 1 -     * P e.r.f.J.L.s.Z : C d.<.1.>.,.Y.9.9 D K.[.n.i < ) ) : i S.).~.).$X1X&X+XR.R._.R.E *   9 0.U.u.q.q.Z %     : 5 5 5 ",
"5 , # O   = C e.J.T.G.k.-.:.&.E 3.y.V.B.m.M.Y.h.S 7.].}.).M O s s O z ~.$X2X2X2X%X XW V A 6.h.4.N $ $ 8.U.-.{ {  .A 6 X ; 5 5 5 ",
"5 > .   % C u.P._._.x.&.{ ;.b.^.H.p.K.].'.'.W.U.h.H._._.j.N % % % # A ~.+X*X-X=XXXj.M * % N a.Z.e.z 4 0.I.=.} } =.q.m X - 5 5 5 ",
"5 :   6 P a.P.].^.l.*.l.l.k.v.}.W.P.E.[.Q.[.Q.E.U.W.T.6.M S U U L I 9.R.(..XOX#X!.Z.0.6.6.a.F.).G. .h k.`.c.z.z.x.t.n   : 5 5 5 ",
"5 :   y e.J.].{.U.*.*.I.Y.i.u.j.~.[.[.].[.'.(.(.'.}.).E 0 S 3.3.4.r.Z._.[.[.].^.e.5.F.].].].[.{.`.-.| c._.F.j.j.Z.i.J 6 : , 1 5 ",
"p :   y e.J.].{.].I.I._.T.f.U v 7.{.Q.W.'.$X2XOX'.[._.F.9.N 6 6 n 4.A.W.}.Q.T.s.m y 9.L.Q.}.}.}.[.I.v.`.D.D 0 0 E F.g.Y r + , p ",
"5 > o y e.L.P.j.d.K.E.T.J.i.C $ v a.L.T.T.!.oXoX/.T.T.W.~.P *   6 3.H.P.F.a.3.I y y 2.C.P.F.d.S.U.E.E.E.g.N = 6 P K.J.r.y   - 5 ",
"5 :   y e.C.u.A u 2.Z.p.p.u.Z o + 0 T n.n.n.d.d.j.x.h.Z.f.e.I * 6 3.C.i.U 9 * 9 S 4.r.i.p.Y u S i.n.h.n.u.4.2.3.w.i.C.e.y X > p ",
"p :   6 S U C * o y P L P P t X     t L L L L L L L L L L U C * % m U J 8     o y I I P L t   6 Z P L L P I I I P P I S 6   - 5 ",
"p >   o o % % o o @ % % % % o       o * % % % % $ % % + - % o X X % % % o       o % * % % o   o $ % % % $ % % % % % % o o   : p ",
"p , # .   @ 2 7 3 3 3 3 3 7 7 7 7 7 7 2 3 7 2 7 6 o   1 f # + d d O : d a o % 7 7 3 3 3 6 7 7 7 3 3 3 3 3 6 3 3 2 2 @   . ; , p ",
"p 1 1 : o 7 B F B B B B B B B B B B B B B B B B B 7 + ! ] d > ) ) < d ] ! + 7 B F B B B B B B B B B B B B B B B G B 7 o - 1 p 5 ",
"p p 1 : o q G l 7 3 3 3 2 3 3 3 3 3 3 3 2 3 3 7 2 @ + ~ ;Xd < ` ` < d ;X~ + @ 2 3 3 3 3 3 3 7 2 3 2 7 3 3 3 3 7 l G q X : 5 5 5 ",
"1 p 1 : o q B 3 o o @ @ % @ % % % o % $ @ @ % o @ . + ~ [ d : ( ( < d [ ~ o o @ @ @ @ @ * o % % % @ @ @ @ @ o . 3 B q   - 5 5 5 ",
"p p 1 : X q B 2 o e B B B B B B B B B B B B B B B 3 # ! [ d . , <   d [ ~ + 3 c F B B B B B B B B B B B B B e @ 2 B q o : 5 5 5 ",
"1 p 1 :   q B 2 % G #.@.@.@.@.@.@.@.@.@.@.@.@.$.+.l # ! ;XQ > > > < Q [ ! # l @.#.@.@.@.@.@.@.@.@.@.@.@.#.#.G % 2 B q o : 5 5 5 ",
"p p p : o q B 2 % G #.#.@.#.@.@.#.@.@.#.#.@.@.#.+.l # ! >X[ _ _ _ _ [ >X! # l @.#.@.@.#.@.@.@.@.@.@.@.@.#.#.G @ 2 B q X - 5 5 5 ",
"5 5 5 - o q B 2 % G @.@.+.@.@.+.+.@.@.+.@.@.@.@.+.l # d _ :X<X<X<X<X:X_ f + l +.#.@.@.+.@.@.+.@.@.@.@.@.@.#.G % 2 B q o : 5 5 5 ",
"5 5 5 ; o q B 2 % G @.@.@.@.+.@.@.+.@.@.@.@.@.@.+.x o O a _ ,X,X,X,X_ 1 O o x +.@.@.@.+.@.+.@.@.@.@.@.+.@.@.G % 2 B q   ; 5 5 5 ",
"5 5 5 # o q B = % G @.@.@.+.+.@.@.+.+.@.@.@.@.@.+.l o + 4 g ^ ^ ^ / g 4 o o x +.@.@.@.@.@.@.@.+.@.@.@.+.@.#.G @ 2 B q o - 5 5 5 ",
"5 5 5 ; o q B 2 * G @.@.@.@.@.@.+.@.@.@.@.@.@.@.+.k @ 7 c 7 # # ; + 9 c 7 o l +.#.@.+.@.+.@.+.@.+.+.@.@.@.@.G @ 2 B q o - 5 5 5 ",
"5 5 5 -   q B 2 @ G @.@.@.@.@.+.+.@.@.@.+.@.@.@.@.l o q G j 3 3 3 2 k G w o l +.@.+.+.@.@.+.@.+.@.@.+.@.@.@.G % 2 B q o : p 5 5 ",
"5 5 5 : o q B 2 @ G #.@.@.+.@.@.@.@.+.@.+.@.@.@.@.l $ 7 G H G G G G H G 7 o l +.@.@.@.@.@.@.@.@.@.+.+.@.@.#.G % 2 B q o # 1 5 5 ",
"5 5 5 # o q B 2 % G #.@.@.@.+.@.@.+.@.@.@.@.+.@.@.l o q G K H K H K K G 7 $ l @.#.@.+.@.+.@.+.@.+.@.@.+.@.#.G % 2 B q o : 5 5 5 ",
"5 5 5 : o q B 2 @ G #.+.+.+.@.@.@.+.@.@.+.@.@.@.+.l $ 7 G H H H G H K G q o l +.@.@.@.@.+.@.@.@.@.+.@.@.@.@.G % 2 B q   : 5 5 5 ",
"5 5 5 - o q B 2 % G #.@.@.@.+.@.@.@.@.@.+.+.+.@.+.l $ q G H H H H G H H q o l @.@.@.@.@.+.@.@.+.@.+.@.@.@.#.G % 2 B q o ; 5 5 5 ",
"5 5 5 ; o q B 2 % G #.@.@.@.@.@.@.@.@.@.@.#.@.#.@.l o q H H G H H H H G q o l @.#.@.@.@.@.@.@.@.@.@.@.@.@.#.G % 2 B q o - 5 5 5 ",
"5 5 5 - o q c 2 @ G $.#.@.@.@.#.@.@.#.@.#.@.#.#.@.x o 7 G H H H H H H H 7 $ l @.#.@.@.#.@.#.@.#.@.@.@.@.#.$.G % 2 B q   - 5 5 5 ",
"5 5 5 + o q B 2 @ j G G G G G G G G G G G G G G B q o w G K G H H G K G q o q G G G G G G G F G G G G G G G e % 2 B q o : 5 5 5 ",
"5 p 1 + o q B 2 . o @ @ % % @ % @ @ % @ % @ @ & @ @ . q G H H G G H K G q . @ @ @ % % @ & @ @ & % @ @ & % @ o . 2 B q o ; 5 5 5 ",
"5 5 5 + o q F k 2 2 2 2 2 2 2 2 2 2 2 2 2 2 2 2 2 @ . q H K K K K K K G w . @ 2 2 2 2 2 2 2 2 3 2 2 2 2 2 2 2 2 k F q o - 5 5 5 ",
"5 5 5 : o 3 F F B B B B B c B B B B B B B B B B c q @ 7 G G G G G G G G q . 3 B B B c B B B B c B B B c B B B B F F 7 o - 5 5 5 ",
"5 5 5 -   & 7 q w q q q w q q w q q q q w q q q w & . % q q 7 7 q 3 q q & o & q q w w q q q q q q w q q q w q q q 7 %   - 5 5 5 ",
"5 5 5 :   .   o o o o o . o o o o o o o o o o o o o . . o o o o o o o o . . .   o o   o o o o o o o o o o o   o o o   . : 5 5 5 ",
"5 5 5 , : # - : ; : # : - : # ; : # ; # ; - ; # ; # ; # - - ; # ; # ; - # - ; : : # - : ; : # : ; # # ; : - - : ; : # : > 5 5 5 ",
"5 5 5 5 5 5 5 5 5 5 5 5 5 5 5 5 5 5 5 5 5 5 5 5 5 5 5 5 5 5 5 5 5 5 5 5 5 5 5 5 5 5 5 5 5 5 5 5 5 5 5 5 5 5 5 5 1 5 5 5 5 5 5 5 ",
"5 5 5 5 5 5 5 5 5 5 5 5 5 5 5 5 5 5 5 5 5 5 5 5 5 5 5 5 5 5 5 5 5 5 5 5 5 5 5 5 5 5 5 5 5 5 5 5 5 5 5 5 5 5 5 5 5 5 5 5 5 5 5 5 "
};
