/* XPM */
static char *result[] = {
/* columns rows colors chars-per-pixel */
"64 64 247 2 ",
"   c #110C09",
".  c #151513",
"X  c #1A1612",
"o  c #1A1815",
"O  c #1E1D1A",
"+  c #25150D",
"@  c #3F170E",
"#  c #231710",
"$  c #251C16",
"%  c #2A1D15",
"&  c #201F1C",
"*  c #281F19",
"=  c #381511",
"-  c #321B14",
";  c #2E2016",
":  c #21201D",
">  c #2D211A",
",  c #33241B",
"<  c #39271B",
"1  c #242323",
"2  c #2B2624",
"3  c #2C2B2B",
"4  c #332B27",
"5  c #3B2C23",
"6  c #3B312B",
"7  c #322F31",
"8  c #343434",
"9  c #3A3735",
"0  c #3B3B3B",
"q  c #5A070D",
"w  c #570D11",
"e  c #4B1010",
"r  c #4C1211",
"t  c #451814",
"y  c #5B1816",
"u  c #680812",
"i  c #720015",
"p  c #7C0114",
"a  c #760A12",
"s  c #681616",
"d  c #721115",
"f  c #472B1A",
"g  c #562B14",
"h  c #4B321C",
"j  c #57361A",
"k  c #6C3619",
"l  c #452B26",
"z  c #522D2D",
"x  c #433125",
"c  c #47362B",
"v  c #563A25",
"b  c #433B37",
"n  c #4B3C34",
"m  c #563C36",
"M  c #663D27",
"N  c #74372C",
"B  c #70431C",
"V  c #5D432D",
"C  c #46433B",
"Z  c #4C423C",
"A  c #5D4633",
"S  c #52443B",
"D  c #564539",
"F  c #5A493C",
"G  c #694628",
"H  c #754B27",
"J  c #7C532D",
"K  c #664B38",
"L  c #754C35",
"P  c #675038",
"I  c #755639",
"U  c #563C42",
"Y  c #693B4D",
"T  c #434343",
"R  c #4B4542",
"E  c #4D4844",
"W  c #4C4C4B",
"Q  c #574547",
"!  c #544B45",
"~  c #5A4C43",
"^  c #544E4B",
"/  c #5A4F4A",
"(  c #55514E",
")  c #5C524C",
"_  c #535352",
"`  c #5C5454",
"'  c #5A5856",
"]  c #5C5B5B",
"[  c #654D49",
"{  c #62544C",
"}  c #6A5649",
"|  c #765D47",
" . c #664B53",
".. c #764857",
"X. c #665C53",
"o. c #655A58",
"O. c #745956",
"+. c #76604D",
"@. c #6B625C",
"#. c #76655A",
"$. c #755563",
"%. c #5F6060",
"&. c #636363",
"*. c #6A6562",
"=. c #6C6C6C",
"-. c #756A63",
";. c #786B67",
":. c #7A726A",
">. c #6D7371",
",. c #747474",
"<. c #797977",
"1. c #7C7C7C",
"2. c #840114",
"3. c #8C0014",
"4. c #930015",
"5. c #9C0016",
"6. c #851B1A",
"7. c #901716",
"8. c #AC0A0C",
"9. c #A40016",
"0. c #A50118",
"q. c #AE0019",
"w. c #B5001B",
"e. c #AD3612",
"r. c #9B1E21",
"t. c #AF1822",
"y. c #B91C26",
"u. c #853A32",
"i. c #A12C35",
"p. c #F5000B",
"a. c #FA000E",
"s. c #FA0D0F",
"d. c #FB1912",
"f. c #FA2815",
"g. c #EF3216",
"h. c #CC0823",
"j. c #DA162A",
"k. c #E7162C",
"l. c #834B1E",
"z. c #8E571A",
"x. c #A5641D",
"c. c #884B2E",
"v. c #865529",
"b. c #955725",
"n. c #875B33",
"m. c #A45828",
"M. c #8D612E",
"N. c #986325",
"B. c #8D6032",
"V. c #926232",
"C. c #986634",
"Z. c #9C6B35",
"A. c #A66826",
"S. c #B6662A",
"D. c #B9752A",
"F. c #A9753B",
"G. c #B4793B",
"H. c #F9441A",
"J. c #F8581B",
"K. c #F86C17",
"L. c #F76519",
"P. c #F76B1B",
"I. c #F7731A",
"U. c #F7791C",
"Y. c #CA4920",
"T. c #F75825",
"R. c #C5712F",
"E. c #C97932",
"W. c #F87922",
"Q. c #F47331",
"!. c #855158",
"~. c #977145",
"^. c #836C58",
"/. c #A9774A",
"(. c #89706C",
"). c #857877",
"_. c #8A7D76",
"`. c #AE7979",
"'. c #CC7077",
"]. c #BD8339",
"[. c #F9831E",
"{. c #D9893A",
"}. c #F88422",
"|. c #F88A28",
" X c #F8962C",
".X c #EA8C31",
"XX c #FA8436",
"oX c #F98C3C",
"OX c #FB973A",
"+X c #FBA234",
"@X c #B88347",
"#X c #B38954",
"$X c #8B837D",
"%X c #94827B",
"&X c #C58C48",
"*X c #CD924C",
"=X c #D4994F",
"-X c #FA8D42",
";X c #E99745",
":X c #F99A46",
">X c #FAA648",
",X c #F9AA51",
"<X c #D4A96B",
"1X c #DDAD6B",
"2X c #647C81",
"3X c #D57980",
"4X c #4B818C",
"5X c #7C8583",
"6X c #838484",
"7X c #8B8582",
"8X c #8C8B8B",
"9X c #938B88",
"0X c #95928E",
"qX c #8A9090",
"wX c #8A9797",
"eX c #939393",
"rX c #969998",
"tX c #9B9C9C",
"yX c #A39C9C",
"uX c #B89C9E",
"iX c #96A09D",
"pX c #A7A19E",
"aX c #99A6A6",
"sX c #98B0AF",
"dX c #89BAB8",
"fX c #9BB7B6",
"gX c #A4A4A4",
"hX c #ACA7A4",
"jX c #A4ABAB",
"kX c #ACACAC",
"lX c #B4ACAA",
"zX c #A0B0AF",
"xX c #A7B7B7",
"cX c #B4B4B4",
"vX c #B9B7B6",
"bX c #B1BCBC",
"nX c #BCBCBC",
"mX c #CD9295",
"MX c #D8B78B",
"NX c #C7A9AA",
"BX c #C4B3B5",
"VX c #96C3C2",
"CX c #ADC7C6",
"ZX c #C4C4C4",
"AX c #CACACB",
"SX c #DBDADA",
"DX c #E2E2E2",
/* pixels */
"& & & & & & & & : & & & & & & & & & & & & & O : O : : O & & & & & & & & & & & & & & & & & & & & & & & & & & & 1 O O & & & & & & ",
"& & & & : & & & & & & & & & & & & & & & & & : : : O O : $ & & & & & & & & & & & & & & & & & & & & & & & & & & & 1 O & & & & & & ",
": O & & & & & & & : & & & & & & & & & & & : : O O : : O & & & & & & & & & & & & & & & & & & & & & & & & & & & & O & & & & & & & ",
"& : : O & & & & & & & & & & & & & & & : O : % $ : O : : & & & & & & & & & & & & & & & & & & 1 & & & & & O O 1 & O & & & & & & & ",
"& & & & & & & & & & & & & & & & : & & O & % e s w t $ & & & : & & & & & & & & & & & & & : O o O & & 1 O O & & & & & & & & & & & ",
"& & & & & & & & : & & & & & & & & $ % $ $ : % 2.9.9.6.f & & & & & & : & & & & & & & & & O . . . O & & & & & O & & & & & & & & & ",
"& & & & o . o O & & & & : : * y r.t.y.r.d f $ s q.9.w.y.r : : & & & & & & & & & & & O : . . . . O & & & & & & & & & & & & & & & ",
"& & & O . . . O & & & & & g y.k.k.j.j.k.k.j.r.t.q.9.9.h.y.; : & & & & & & & & & & & : : o . . . O & & & & & & & & & & & & & & & ",
"& & & & o . o & & & O * d j.h.w.0.0.0.0.w.h.k.h.9.9.9.q.k.s $ & & & & & & & & & & & & & & O O O & & & & & & & & & & & & & & & & ",
"& & & & O O & : O : * s y.w.9.9.9.0.0.9.0.0.q.0.9.9.9.0.k.r.$ & & & & & & & & & : & & & & : O O & & & & 1 & & & & & & & & & & & ",
"& & & & & : & & : O r 9.0.9.9.9.0.9.9.0.5.4.3.5.9.9.0.0.k.y.* & & & & & & & & & & & : & & & & & & & & & O O & & & & & 1 O & & & ",
"& & & & & & & & & - u d 2.9.0.4.2.p 4.4.p i i i 2.9.0.q.k.y.* : & & & : & & & & & & & & : & & & & & O & & & & & & & & . . O & & ",
"& & & & & & & & $ % % % w 9.3.i i p 3.i i u w t r p 2.s 6.6.* & & & & & & & & & & & & & & & & & & O O & & & & & & & O . . O & & ",
"& & & & & & : & $ : : - 3.5.i i i 2.p i w % $ O $ - 5 b Q z $ O & & & & & & & & & & & & & & & & 1 O & & & & & O O O O O O & & & ",
"& & & & & & & & & & $ w 9.2.u q i p i w $ $ $ * ; 9 ^ <.8X`.N % & & & & & & & & & & & & & & : & & & & & O & & & & & & 1 & O & & ",
"& & & & & & & & & & - 3.4.i r r i i w % O O % 2 b ] 8XtXyXyX`.u.: & & & & & & & & & & & & & & & & & & & O 1 & & & & & & & 1 & & ",
"& & & & & & & & & & e 5.3.u % e i i = O $ % 4 0 W eXkXjXgXgXgX'.u.- O O & & & & & & & & & & & & & & & & O : : & & & & & & & & & ",
"& & & & & & & & & & u 9.p e X e i e $ & * 4 0 T >.gXcXkXkXcXkXuX3X| % $ & & & & & & & & & & & & & & 1 O : O O : & & & & & & & & ",
"& & & & & & & & : % p 9.i @ X e u + $ % 2 8 C %.1.rXvXnXvXvXcXcXmXmXK $ & & & & & & & & & & & & : O O O & : & & & & & & & & & & ",
"& & & & 1 & & & : - 3.5.u - O = e X & % 3 0 W <.$XeXcXnXnXnXnXcXvXmX%X< & & & & & & & & & & & & : & & : & & & & & & & & & & O & ",
": O : O O & & & : - 4.5.u % : $ % O * * 3 U %.1.6XqXgXnXZXnXnXnXvXNXNX[ : & & & & & & & & & & & O : & & & & : & O O : : : 5 C X.",
": & & O O O & & : = 4.5.u $ & $ * O $ * 8 W >.5X6XeXtXkXZXAXAXZXnXBXNX_.> : & & & & & & & & & & & & & O & & & & : ; , C *.5X0XiX",
"O : 1 O & & & & & % 3.9.u * & & & & # 1 9 ( <.5X8XeXtXgXkXBXAXAXZXBXBXuX6 & & & & & & : & & & & & & & O & & & & ; > _ <.6X0XjXrX",
"& & & & & & & & O % 2.0.u & & & & & $ 3 0 ' =.~ #.<.eXgXjXcXBXCXnXvXNXlX^ O & : & & & & & & & & & & & 1 : & & & : E <.7XqXjXsX0X",
"& & & & & & & & & O y 9.u $ : : & $ $ 3 0 &.) H z.H G ;.kXkXvXtX(.O.} yXO.$ : & & & & & & & & & & & & o O O : % C >.6X8XjXfXsXeX",
"& & & & & O & & & & t 5.a ; : : & $ $ 8 T =.A S.E.E.A.| gXkXcX| l.A.H 9X;.: & & & & & & & & & & & O . . . & % 8 =.6X8XjXCXdXzX9X",
"O O & & & & & & & & $ p a : & & & $ & 8 R &.G R.b.k l.L gXkXgXJ D.E.c.7X:.$ & : & & & & & & & & & o . . . # 4 &.$X8XaXCXVXfXxX$X",
"& 1 & & & & & & & & & t u $ & & & $ : 8 W ] H E.v.j V.I tXjX0XH B b.l.7X:.$ : O & & & & & & & & & o . . # , ' 5X6XrXZXdX5XfXkX~ ",
"& & & & & & & & & & & : @ $ & & $ # 1 0 _ ` v.R.v.n.F.I qXgX<.V.G h G $X#.& O O & & & & : O : : & & O $ > W <.6XrXAXnXdXVXVX*.: ",
"& & & & & & O 1 & & & & $ $ & & * # 1 0 ' ^ b.S.#.4XD v.P | P v.n.C.J 7X#.$ & : & & & & O : O O & & O ; C ,.6XeXAXSXcXfXVX5X> 1 ",
"& & & & & & & & & & & & : & $ & * # 3 0 ] ! b.A.^.' P &X&X@XF.C >.} H 7X{ & & & & & & O : : : : : : # 9 =.5XqXZXDXAXcXfX5X, & & ",
"& & & & & & & & & & & & : : & & $ O 7 0 ] ( H S.M.J J *X@X=XG.D >.^.G 7XD O & & & & & O $ : % : : # 7 &.$X8XnXDXAXnXbX0X6 O & & ",
"O : : O : O : : & & & & & & & & ; O 8 0 ] %.S G C.G.*XZ.n.n.Z.v.J G K 9XC & & & O : : O : < ; & : > ] 5X$XcXSXcXnXnXpXC # & & & ",
": : O : : : O O & & & & $ & & & $ ; 8 T ] &.&.] ) m J N /.~.B.M.J V X.rXh $ & & : O O : h F.< & ; C { X.).SXbXgXvXkXD $ & & & & ",
"& & O : O : : : & & $ l n , $ $ # ; 7 T ] %.&.=.=.) B.Z.n.n.n.K =.,.<.0XS < ; & O : : : ~.<XG $ ; G M.N.H $XjXkXcX} : & & & & & ",
"& & : : O : O $ $ 5  .%X9X).} l > > ; C ' %.%.&.=.F F.c.V.~.F.F >.>.1.9X~ F { { , : : h <X<XF.; h F.J b.x.+.kXcX-.; & & & & & & ",
"& & & & & # % 5 U (.)...[ ).yXyX9X#.F S S Z ^ @.@.A @XM.f j F.A =.=.1._.! @.X.tX;.< O v Z.v V j M.v.i.u.z.+.cX$X, O & & & & & & ",
"& & & * 4 c  .$.;. .N m.R.v.L #.0XkXnXvXlX$XS %._ L =X=X*X*X{.S =.=.:.{ _ *.{ rXqXo.< f x b ] D Z.N.k B x.+.$X5 O & & & & & & & ",
"O O < U  . . .m N m.Q.;XoXoXQ.S.b.I +.^.pXlXZ ( ! j Z.F.@X*XG.D &.^ n ! &.@.{ 8X6X@.C Z c E &.( v.].x.x.B , > & & & & & & & & & ",
"& O l  .m M c.S.Q.-X-X:X:X:X:XOXXX.X;XA.^.hXn n x ) X.F D V v x n < W &.&.{ o.1.<.~ E _ W 5 Z h G z.z.j # O & & & & & & & & & & ",
"& & 5 Y v ;X:XXXQ.-X:X:X:X:XOX.XI.|.OX.X#.hX{ =.=.6XqX5X,.>.` Q =.~ ! %.o.S =.,.=.n ( _ n t g v _ S h H ; $ $ : & & & & & & & & ",
"& & 5 Q G ;X:XoX-X:X,X,X,X>X X[.K.}.OX{.^.hXX.$X6XwXwX5X5X5X1.qXtXX.! ( n ) &.=.' c _ E t u q Z &.( ; J @XP h % & & & & & & & & ",
"O & 4 Y m .X>XoXoX:X,X,X>X X|.}.I.}.oXE.#.hX#.gXkXbXbXxXsXgXeXrXrX) ; < E ] ] ( m v C f q p y n S 6 o H 1XMXP : & & & & & & & & ",
"& & - Q m *X>XOXoX:X,X>X+X X|.}.I.[.oXR.(.yX#.jXbXnXbXxXjXgXeXrXeXD & ; 5 ! ] D *X#Xv w i a D ] S ; ; #XMX+.: & & & & & & & & & ",
"& & * U F G.>X:XoX:XOXOX X X|.}.P.W.Q.S.$X0X:.cXbXbXxXxXjXtXeXrX9Xx O & $ > 4 h #X<X].g u h Z ' C $ < G c & O & : & & & & & & & ",
"& & * n Q V.>X:X-XoX X|.|.|.[.U.I.W.Q.m.9X%X$XbXbXxXxXjXaXrX8XtX<.; & & & & & $ h F.].z.h ' ^ x > & : : & & & & & & & : & & & & ",
"& & $ 6 ' J >X>XXX}.|.|.|.}.}.U.P.T.Q.v.pX:.qXxXxXxXzXaXiXqX8XeXF $ & & & & & & : h x.D.H _ ' > & & & & & & : & & & & & & & & & ",
"& & $ , ' A {.>XW.W.W.W.}.U.U.I.J.T.T.I gX#.iXzXzXzXaXaXwX6X6X<., O & & & & & & O : f x.].I < : & & & & & & & & & & & & & & & & ",
"& & & * E / Z.+XU.I.W.W.W.I.I.L.H.H.Y.#.pXX.iXiXaXwXwX5X,.>.1.S : & & & & & & & & & & h #X~.: & & & & & & & & & & & & & & & & & ",
"& & & & 5 ( G .XU.P.I.I.P.I.P.H.H.H.i.9X$XC ) >.2X<.>.>.@.) F % & & & & & & & & & & & O > : & & & & & & & & & & & & & & & & & & ",
"& & & & > T n x.[.L.P.P.P.P.g.f.f.g.L hX+.@.) Z F ' ( Z S X.$XS $ & & & & & & & & & & & & & & & . . o & & & & & & & & & & & & & ",
"& & & & $ x W G [.K.P.P.L.g.f.f.f.e.;.0XD ,.1.:./ x { <.9XeXgX7X, & & & & & & & & & & & & & & O . . . O & & & & & & & & & & & & ",
"& & & & & > E n z.U.L.H.f.s.d.d.g.M tX#.R _ ] =.) F ,.>.>.,.1.gX-.; O O & & & & & & & & 1 O O & o . o & & & & & & & & : & & & & ",
"& & & O O * 6 _ v e.d.a.a.a.s.s.6.).9Xn _ W W b 5 W ' ] &.=.>.<.0XD $ O & & & & & & & & & & & & & & & & & & & & & & & & & & & & ",
"& & & O O 1 $ C ' j w.a.a.a.a.8.} tX~ 3 0 U T 6 , R W W ( W W _ ,.)., & & & & & & & & & & & O 1 & & & & & & & & & & & & & & & & ",
"& & O o . O & ; ! ] v 8.p.a.8.K eX#.; > 1 1 4 % ; 2 8 8 8 9 0 c x x l < ; : & & & & & & & & O O & & & & & & & & & & & & : & & & ",
"& & O . . & & & , ^ *.D 6.7.K 8X;.z z # # % % & * % 2 2 , * % # $ 1 U ....9 * & O & & & & & 1 O O 1 & & & & & & & & & & & & & & ",
"& & & O O & & & $ ; ! >.o.o.6X@.4 Y ..# . X # & $ $ % $ $ : #   : : 2 U !. .6 * & & & & & & O & & & & & O & & O & & & & & & & & ",
"& & & : & & & & & & ; c *.<.~ 2 7 ..O., . X O & O : : O : $   . 1 1 1 8 ..%.U * & & & & & & & & & & & & & & 1 O & & & & & & & & ",
"& & & & & & & & & & & O , x ; 4 W $. ., o & & & : O : : : #   . O 1 1 3 Q  .5 & & & & & & & & & & & & & & & & & & & & & & & & & ",
"& & & & & & & & & : & & $ O * , b ` T , O & : : : : O : & +     O : 1 3 9 5 $ & & & & & & & & & & & & & 1 O O & & & & & & & & & ",
"& & & & & & & & : O : : & & O $ * > , % & : O O O : : O & +     O & & - % & & & & & & & & & & & & & & & O O & & & & & O & & & & ",
"& & & & & & & & O : : O & & & & : O O : : O : : : : : O & $ + + $ $ $ & & & & & & & & & & & & & & & & & O 1 & & & & & & & & & & ",
"& & & & & & & & & & & & & & & & : O : : O : O : O O : : O O O * * & & & & & & & & & & & & & & & & & & & & & & & & & O 1 & & & & "
};
