/* XPM */
static char *result[] = {
/* columns rows colors chars-per-pixel */
"64 64 244 2 ",
"   c #0D0B0A",
".  c #130D09",
"X  c #151513",
"o  c #1A1511",
"O  c #1A1816",
"+  c #1E1D1A",
"@  c #28160D",
"#  c #241710",
"$  c #251C15",
"%  c #2B1D15",
"&  c #201F1C",
"*  c #291F18",
"=  c #3B1611",
"-  c #331B13",
";  c #3A1B16",
":  c #2D2017",
">  c #22201D",
",  c #2C221A",
"<  c #34241B",
"1  c #37261B",
"2  c #242424",
"3  c #2C2523",
"4  c #2C2C2C",
"5  c #342A23",
"6  c #342927",
"7  c #3A2C22",
"8  c #3C312A",
"9  c #382C32",
"0  c #343434",
"q  c #3A3534",
"w  c #3B3B3B",
"e  c #4F110F",
"r  c #590C11",
"t  c #481714",
"y  c #581613",
"u  c #69000E",
"i  c #6A0413",
"p  c #630C12",
"a  c #730015",
"s  c #7B0213",
"d  c #760A11",
"f  c #681717",
"g  c #761D19",
"h  c #472917",
"j  c #52291C",
"k  c #57371B",
"l  c #72261A",
"z  c #683B19",
"x  c #422C23",
"c  c #462B26",
"v  c #502A21",
"b  c #443124",
"n  c #43342B",
"m  c #49372D",
"M  c #573B23",
"N  c #463C37",
"B  c #4A3C33",
"V  c #543D35",
"C  c #673424",
"Z  c #73441B",
"A  c #5E452E",
"S  c #4A423D",
"D  c #584437",
"F  c #53443A",
"G  c #5B4A3C",
"H  c #6C4421",
"J  c #67472C",
"K  c #754A24",
"L  c #744C2A",
"P  c #7D532A",
"I  c #654A36",
"U  c #775638",
"Y  c #523846",
"T  c #673A48",
"R  c #3C6263",
"E  c #434242",
"W  c #4A4742",
"Q  c #4C4B4B",
"!  c #544B45",
"~  c #5A4C43",
"^  c #594649",
"/  c #534E4B",
"(  c #5B5048",
")  c #5C534D",
"_  c #535353",
"`  c #5D5555",
"'  c #5D5956",
"]  c #5C5C5C",
"[  c #614949",
"{  c #61544B",
"}  c #69574D",
"|  c #735946",
" . c #6D4956",
".. c #675A55",
"X. c #735A5C",
"o. c #7B6149",
"O. c #6B655D",
"+. c #76675C",
"@. c #5F5F60",
"#. c #765864",
"$. c #646363",
"%. c #6B6664",
"&. c #6B6B6B",
"*. c #766A65",
"=. c #74726F",
"-. c #7C726C",
";. c #62787C",
":. c #747474",
">. c #7C7873",
",. c #7C7C7C",
"<. c #830115",
"1. c #8B0014",
"2. c #930015",
"3. c #9B0015",
"4. c #931212",
"5. c #BF1F0F",
"6. c #A40016",
"7. c #A50218",
"8. c #AD0018",
"9. c #B9001D",
"0. c #912D15",
"q. c #941D21",
"w. c #A71E23",
"e. c #B81B25",
"r. c #89392E",
"t. c #E5040B",
"y. c #FA000E",
"u. c #F9050D",
"i. c #FA0E11",
"p. c #FA1812",
"a. c #CE3417",
"s. c #FA2915",
"d. c #F93518",
"f. c #C70421",
"g. c #CE1326",
"h. c #D8192B",
"j. c #E4182C",
"k. c #EF1A30",
"l. c #8D571C",
"z. c #AB511C",
"x. c #9C631F",
"c. c #844D26",
"v. c #8B4C2B",
"b. c #875728",
"n. c #965926",
"m. c #855A33",
"M. c #A45C28",
"N. c #97632B",
"B. c #8F6133",
"V. c #946736",
"C. c #9C6B36",
"Z. c #A76528",
"A. c #B6662C",
"S. c #B9732B",
"D. c #AE7636",
"F. c #A8743B",
"G. c #F74B1B",
"H. c #F85918",
"J. c #F66817",
"K. c #F76B1B",
"L. c #F7721B",
"P. c #F8791B",
"I. c #FB5625",
"U. c #C97832",
"Y. c #D37332",
"T. c #ED702E",
"R. c #F87924",
"E. c #FB7A34",
"W. c #B8565A",
"Q. c #8E684D",
"!. c #A7744D",
"~. c #824A62",
"^. c #847368",
"/. c #8E7576",
"(. c #847B75",
"). c #A76061",
"_. c #BE8639",
"`. c #F8821E",
"'. c #D2883A",
"]. c #E78B23",
"[. c #F88627",
"{. c #F88B24",
"}. c #F9972D",
"|. c #F98939",
" X c #FA9838",
".X c #F9A43A",
"XX c #AC814C",
"oX c #B78346",
"OX c #87817C",
"+X c #8B817A",
"@X c #948374",
"#X c #C58B48",
"$X c #D3974E",
"%X c #CB9C5B",
"&X c #FA8C41",
"*X c #E89845",
"=X c #FA9B44",
"-X c #F99847",
";X c #FAA64A",
":X c #FAAB51",
">X c #D3A96F",
",X c #E2AC67",
"<X c #937F86",
"1X c #7B8282",
"2X c #6597A3",
"3X c #838383",
"4X c #888A87",
"5X c #8B8B8B",
"6X c #948B88",
"7X c #95918F",
"8X c #9A918C",
"9X c #8A9696",
"0X c #949493",
"qX c #999795",
"wX c #9C9C9C",
"eX c #B48F92",
"rX c #A29B98",
"tX c #91A29D",
"yX c #A6A29F",
"uX c #9BA6A5",
"iX c #85BFBD",
"pX c #99B7B6",
"aX c #A5A5A5",
"sX c #A9A7A7",
"dX c #A3ADAC",
"fX c #ACACAC",
"gX c #B7A8A9",
"hX c #A9B7B7",
"jX c #B4B4B4",
"kX c #B5BBBB",
"lX c #BCBCBC",
"zX c #CD9094",
"xX c #E3BC86",
"cX c #CEA7AA",
"vX c #C4B1B3",
"bX c #8DC0BF",
"nX c #ADC0BF",
"mX c #9EC1C1",
"MX c #B1CAC8",
"NX c #C4C4C4",
"BX c #C7C7C8",
"VX c #CCCCCC",
"CX c #D7D7D8",
"ZX c #E2E2E2",
/* pixels */
"& & & & & & & & & & & & & & & & & & & & & & > & & & & & & & & & & & > + > & & & & & & & & & & & & & & & & & & & & & & & & & & & ",
"& & & & & & & & & & & & & & & & & & & & & & > > & & $ - % % & & & & + > & & & & & & & & & & & & & & & & & & & & & & & & & & & & ",
"& > & + & & & & & & & & & & & & & & + + & > & 2 > > $ t d p t - & & & & & & & & & & & & & & & & & & & & & & & & & & & & & & & & ",
"& + > > & & & & & & & & & & & & & & > + * ; t t ; @ & & f 8.7.q.t & & & & & & & & & & & & 2 & & & & & & & & & & & & & & & & & & ",
"& & & & & & & & > + > & & & & & & $ - g e.h.j.j.h.e.g - f 8.6.8.g.h + & & & & & & & & & + + O + & & & & & & & & & & & & & & & & ",
"& & & & & & & & & > + & & & & & & h e.h.h.f.9.9.f.h.k.e.g.8.6.6.f.e.: & & & & & & & & & + X X X & & & & & & & & & & & & 2 & & & ",
"& & & & O X O & & & & & + + & & y e.f.8.6.6.6.6.6.6.f.h.9.6.6.6.8.j.f & & & & & & & & & O X X X & & & & & & & & & & & & & & & & ",
"& & & + X X X + & & & & & 2 & ; 3.8.6.6.6.7.7.7.6.6.6.6.7.6.6.6.8.j.q.> & & & & & & & + O X X X & & & & & & & & + & & & + & & & ",
"& & & & O X O & & & & & & + % d 1.3.7.6.3.3.2.3.7.2.<.<.2.6.6.7.6.j.w.% & & & & > & & & & + + + > O & & & & & & 2 + & & & > > > ",
"& & & & + + & & & & & & & > % - - p 7.3.<.a s 2.<.a a u a <.6.7.8.k.w.$ & & & & & & & & + 2 + & > > & & & & & & 2 + & & + , 1 $ ",
"& & & & & & & & & & & & & & & & - 1.3.s a a <.<.a a r t = t d <.p q.g $ & & & & + > & > & & & & > & & & & & & & + & & > n -.} > ",
"& & & & & & & & & & & & & > + $ p 7.s i i a <.a p = > O + $ - 7 S ~ j & & & & & > + > + & & & & & & & & & & & & + + 3 / OXyX>.> ",
"& & & & & & & & & & & & & > + = 2.2.a r r a a i = & > & : 5 S ' 1X0X).h & & & & + > & & & & & & & & & & & & & & & < ' 3X0XdX4X1 ",
"& & & & & & & & & & > & & & $ y 7.<.r - r a i = O + $ % 9 W &.0XwXwXqXW.j $ & & & & & & & & & & & & & & & & & & % Q ,.4XwXpXtXm ",
"& & & & & & > > & & & & & & % <.3.a t % p a e & & $ < q E $.aXfXaXaXaXeXW.v & & & & & & & & & & & & & & & & > & 5 &.3X5XdXpXdX~ ",
"& & & & & > + + & & & & & > = 2.2.i @ % r i - > $ : 0 E _ 3XfXfXfXjXfXsXzXW.c O & & & & & & & & & & & & & & & $ E >.4XwXmXpXhX*.",
"& & & & & & & & & & & & & & e 6.2.r $ $ r e O > % 4 w Q :.3XfXkXjXlXjXjXgXzX).- & & & & & & & & & & & & & & $ , ] 3X4XhXbXiXkX*.",
"& & & & & & & & & & & & & & r 7.1.e & & = % & % > 0 E &.1X4XwXlXvXnXlXjXgXgXzXI & & & & & & & & & & & & & & # q :.4XwXMXiXpXdXB ",
"& & & & & & & & & & & & & & r 7.1.t O & % > & % 2 w _ :.<X4X0XfXBXNXNXlXlXgXcX/., & & & & & & & & & & & > & : Q 1X4XjXnXiXmX4X, ",
"& & & & 2 & & & & & & & & & r 7.<.= > & & > $ # 4 w @.,.1X4X0XaXkXBXBXNXNXvXcXgXS + & & & & & & & & & & > $ 4 &.3X0XVXfXiXmX( > ",
"& & & & + & & & & & & & + + y 6.1.= & & & & $ $ 0 E &.,.3X7XwXaXsXjXNXBXBXvXvXvX} $ & & & & & & & & & & > # E ,.4XgXCXjXhX9X5 & ",
"& & & & & & & & & & & & & + t 3.2.- & & & & % > q Q =.G G O.OXwXsXfXjXNXMXlXvXvX+X$ & & & & & & & & & & > , @.OX7XCXCXjXhXO.+ & ",
"& & & & & & & & & & & & & & % 1.2.- & & > > # 2 w _ %.H Z.c.K I yXfXjXjX7X+X^.8X8X: & & & & & & & & & > @ q :.3XfXZXBXlXyX8 & & ",
"& & & & & & & & & & & & & & & p 2.- > + > $ # 4 w ] ) n.U.U.S.L 0XfXkX@XH l.Z +.8X1 & & & & & & & & & > , _ 1X5XVXVXlXnX+X> & & ",
"& & > & & & 2 + + & & & & & & * s - > > + : o 4 S $.G Z.Z.k Z K 7XfXfX+.Z.Y.Z.+.8X5 & & & & & & & + + # 4 &.3XaXCXjXlXgXF > + > ",
"& & & & & & + 2 + & & & & & & + e - + > > # > 0 E $.J S.Z.H b.m.4XaXaXU l.n.n.+.7X5 & & & & & & + & o $ S ,.5XVXBXaXnX@X, > > + ",
"& & & & & & & & + 2 & & & & & & : @ > + > @ > q Q ] K U.P U V.B.OXsX0XU K h z +.+X5 & & & & & + : O o , ] %.| @XsXfXjX{ > > + > ",
"& & & & & & & & + & & & + & & & + > & > > > 2 q _ ) c.S.Q.2XE b.I } { P C.N.b.-.OX, & & & & + , 1 O o 5 D P N.K +XfXqX7 + + > + ",
"& & & & & & & & & & & & & & & & & & > + : o 4 w _ ) c.A.U ..D oX#XoXF.A R | K -.-.$ + & & + + A C.: O : N.B.b.N.U jX+.$ > + > + ",
"& & & & & & & & & & & & & & & & & & + > : o 4 w ' ] M Z.F.m.P #X#X$X#XG ;.@XL OX} + & & & + + V.,XU : k N.r.v.l.U 4Xb & + > + > ",
"& & & & & & & & & & & & & & & & & + > + > % 0 w ' $.` A P F.#XF.P m.V.P J U J 4XG + & & & & , XX,XXXM H C.l l x.H 1 > & > + > + ",
"& & & & & & & & & & & & & & 2 + & > $ > $ % 0 w ] @.$.$.' F L K !.).B.C.P H G 7XF $ $ $ + & $ XXU 8 G J _.D.x.l.: & & > > > + > ",
"& & & + & & & & & & & & + > + + ; [ ..c : : 3 Y ] ] $.%.&.) B.F.B.m.m.J O.O.:.qXF b ( ~ 7 : : M b ! @.! P S.x.k # + + : + & & & ",
"& & & & & & & & & & & & > $ , V ^.<X6X8X^.( b n W / ' ] %.G C.b.B.F.!.I :.:.,.6X~ ! -.wXOX~ 1 8 n B ' B M A k H m.J U b + + & & ",
"& & & & & & & & & & + $ 6 V #./.#.I L #.6XsXsX8X-.O.{ D _ J #Xb.h k C.I =.&.1XOX! O.{ 0X5X=.N _ / n 1 k ~ @.B - F.xX>X7 & & & & ",
"& & & & & & & & % 1 n T #.#.X.C v.Y.Y.A.c.U ^.8XgXnXNX8XS P ,X$X#X#X_.G &.&.OX} ) %.) 4X3X=.B _ _ b e y W ] B & U xXo.+ & & & & ",
"& + > + & & & $ x [  .[ V C n.Y.&X&X&X&X XY.A.N.m.U 7XaXb M B.F.oX$XF.G $.' F F @.O.( OX,.%.N _ / h a p m B 1 : V.Q.< & & & & & ",
"& > + > & & & & c ^ V c.D.T.E.&X&X-X-X-X=X|.E.}..XU.^.yXb O.} G D J M m S 7 S ] O.) ' :.&.O.n _ m r s j ] ' 1 % 7 > & & & & & & ",
"& & > + & & & & 9 T L -X=X|.E.-X-X;X;X;X X{.L.{. X'.^.yX) 1X1X1X:.&.! B %.G / $.] F O.&.&./ M m t u s v / ~ , > & & & & & & & & ",
"& & & > & & & & 7 [ J *X=X&X&X-X;X:X:X X`.`.L.`. XU.^.rX..9XtX4X1XOX,.5XwX..! / m Q ] @._ I %XXXH y y / S 7 > > & & & & & & & & ",
"& & & & & & & & < T V *X;X|.&X-X:X:X.X}.{.`.L.[.&XU./.rX-.nXkXhXuXuX0XqXwX) < - < S Q / _ J %X%X_.l.M _ @.5 & & & & & & & & & & ",
"& & & & & & & & < ^ V *X;X X&X;X;X X}.}.{.[.L.R.E.A.(.8X/.MXnXhXhXuX0XwX0XF $ & & % < 1 < : M V._.S.N.A S > & & & & & & & & & & ",
"& & & & & & & & * ^ D D.:X=X|.=X X}.}.}.{.`.L.L.E.M.6X3X+XnXhXhXuXuX0XqX5Xb & & & & & + & & + , 1 l._.%XU $ & & & & & & & & & & ",
"& & & & & & & & * V ^ N.:X=X|.|.[.}.[.[.[.R.K.K.E.n.rX-.qXnXhXdXuXqX5XwX>.: & & & & & > & & & & $ @ k B.b + & & & & & & > & & & ",
"& & & & & & & & & n ` L ;X;XR.R.[.[.[.[.P.P.J.I.T.U aX*.uXhXpXuXuX5X4X0X~ $ & & & & & & & & & & + & + $ & & & & & & & & & & & & ",
"& + & & & & & & & < ` V '..XR.R.R.R.L.P.P.L.G.I.G.| aXX.uXdXuXuX9X3X3X>.< + & & & & & & & & & & + + & & & & & & & & & & & & & & ",
"& & & & & & & & & % W ~ N..XP.R.R.R.R.L.L.H.d.I.z.^.8XO.tXtX9X1X:.&.,.F & & & & & & & & & & & & & & & & & & & & & & & & & & > & ",
"& & + + 2 & & & & & 5 ! A ].P.K.K.K.L.L.H.d.d.G.c.yX*.] 1X;.:.&.$.` G : & & & & & & & & & & & & & & & & & & & & & & & & & & & & ",
"& 2 + + 2 + & & & & : W N x.`.J.J.J.J.H.s.s.d.a.| sXG B F ' ~ F F } +XF & & & > & & & & & & & & & & & & & & & & & & & & & & & & ",
"& & & & & & & & & & $ 8 Q M L.J.J.J.H.s.p.s.s.0.4X(.{ :.( b { >.5XqXsX+X1 & & > & & & & & & & & & & & & & & & & & & & & & & & & ",
"& & & + & & & & & & & > S S Z J.H.s.i.i.i.p.5.| wX~ / &.) ~ :.:.=.:.,.aX+.> O > & & & & & & & & X X O & & & & & & & & & & & & & ",
"& & & & & & & & & & & + 7 / D 0.u.y.y.y.i.t.C 7X-.N Q N 7 Q _ @.$.&.&.,.7XD $ & & & & & & & & & X X X + & & & & & & & & & & & & ",
"& & & & & & & & & & & & > S ' m 4.u.y.y.t.g >.6XB N E 8 < W Q Q Q Q Q _ :.(.< & & & & & & & & & + X O & & & & & & & & & & & & & ",
"& & & & & & & & & & & & & : S O.F 4.t.t.4.*.0XV 3 4 6 * $ 6 0 0 0 w q n n 7 % & & & & & & & & & + + & & & & & & & & & & & & & & ",
"& 2 + + & & & & & & & & & + : S $.) l l %.5X~ < ; * * $ & % , 3 : - : < c < & & & & & & & & & & + & & & & & & & & & & & & & & & ",
"& & + X X & & & & & & & & + + : S &.&.:.1XF , 9 T ; * & & % $ % @ o 2 3 Y | n & & & & & & & & & & & & & & & & & & & & & & & & & ",
"& & + X X & & & & & & & & & & & @ < { O.n $ 2 0 ~.T : > > O & #   O 2 2 9 #. .6 & & & & & & & & & & + + & & & & & & & & & & & & ",
"& & & + + & & & & & & & > & & & & @ # , > 2 2 0 #...< O > > $ .   + 2 2 4 [ #.Y & & & & & & & & & & + 2 & & & & & & 2 & & & & & ",
"& & & & & & & & & & & & & & & & & > # $ 2 2 4 Y X. .8 > > > #   X & & 2 4 ^ ` 8 & & & & & & & & & & 2 + & & & & & & & & & & & & ",
"& & & & & & & & & & & & & & & & & + + $ # % 6 ^ ` Q 1 $ > + $ .   + & 2 3 n 5 $ & & & & & & & & & & & & & & & & & & & & & & & & ",
"& & & & & & & & & & & & & & & & + > & > > $ % % < < % & & & & $ # % $ % $ $ & + & + & & & & & & & & & & & & & & & & & & & & & & ",
"& & & & 2 & & & & & & & & & & & > + & & & & > & & & & & & & & & & & > & > > & > & & & & & & & & & & 2 & & & & & & & & & & & & & ",
"& & & & & & & & & & & & & & & & & > & & & & & & & & & & & & & & & & & & & & & & & & & & & & & & & & + + & & & & & & & & & & & & ",
"& & & & & & & & & & & & & & & & & & & & & & & & & & & & & & & & & & & & & & & & & + 2 & & & & & & & & & & & & & & & & & & & & & "
};
