/* XPM */
static char *result[] = {
/* columns rows colors chars-per-pixel */
"64 64 249 2 ",
"   c #0F0B08",
".  c #151513",
"X  c #1A1611",
"o  c #1A1816",
"O  c #1E1D1B",
"+  c #24150D",
"@  c #39160F",
"#  c #201710",
"$  c #251C16",
"%  c #2A1D15",
"&  c #201F1C",
"*  c #291F18",
"=  c #3A1613",
"-  c #321A14",
";  c #2E2016",
":  c #21201D",
">  c #2D221A",
",  c #33241B",
"<  c #3A271B",
"1  c #242323",
"2  c #2B2625",
"3  c #2C2B2B",
"4  c #342A23",
"5  c #332A26",
"6  c #3B2C23",
"7  c #3A312B",
"8  c #332F31",
"9  c #333434",
"0  c #3B3937",
"q  c #3B3B3B",
"w  c #5A070D",
"e  c #4B110F",
"r  c #570D11",
"t  c #4C1211",
"y  c #451814",
"u  c #5C1715",
"i  c #680812",
"p  c #720015",
"a  c #7C0114",
"s  c #760A12",
"d  c #681616",
"f  c #721115",
"g  c #452A1A",
"h  c #522C15",
"j  c #4B321C",
"k  c #58371A",
"l  c #693618",
"z  c #442B26",
"x  c #532E2D",
"c  c #443125",
"v  c #43352B",
"b  c #4A362B",
"n  c #563A25",
"m  c #443B36",
"M  c #4B3C34",
"N  c #563C36",
"B  c #663D27",
"V  c #75372C",
"C  c #78451C",
"Z  c #5C432D",
"A  c #46433B",
"S  c #4C423C",
"D  c #534236",
"F  c #52443B",
"G  c #5A4738",
"H  c #684628",
"J  c #754A26",
"K  c #7B532D",
"L  c #644B39",
"P  c #754C35",
"I  c #765639",
"U  c #573C43",
"Y  c #663B4D",
"T  c #434343",
"R  c #4C4642",
"E  c #4D4844",
"W  c #4C4C4C",
"Q  c #544B45",
"!  c #5A4C43",
"~  c #584448",
"^  c #544E4B",
"/  c #5A4F4A",
"(  c #56514E",
")  c #5C524C",
"_  c #535353",
"`  c #5C5453",
"'  c #5B5955",
"]  c #5C5B5B",
"[  c #664D49",
"{  c #62544B",
"}  c #6A5649",
"|  c #755D48",
" . c #664B54",
".. c #655A57",
"X. c #745055",
"o. c #77604D",
"O. c #6C625C",
"+. c #75655A",
"@. c #755462",
"#. c #5F6060",
"$. c #636363",
"%. c #6C6865",
"&. c #6C6C6C",
"*. c #756A63",
"=. c #786B68",
"-. c #7B716B",
";. c #6D7371",
":. c #747474",
">. c #797977",
",. c #7C7C7C",
"<. c #8D110D",
"1. c #840015",
"2. c #8B0014",
"3. c #930015",
"4. c #9D0015",
"5. c #851A1A",
"6. c #AC0A0C",
"7. c #A40016",
"8. c #A50118",
"9. c #AE0019",
"0. c #B4001B",
"q. c #933019",
"w. c #AD3612",
"e. c #951E21",
"r. c #BE0C20",
"t. c #A61E23",
"y. c #BA1C26",
"u. c #853A32",
"i. c #A22B36",
"p. c #F5000B",
"a. c #FA000E",
"s. c #FA0D0F",
"d. c #FB1912",
"f. c #FA2815",
"g. c #EF3216",
"h. c #CC0823",
"j. c #DA162A",
"k. c #E7162C",
"l. c #834B1E",
"z. c #8D561A",
"x. c #9C621F",
"c. c #AF681C",
"v. c #864E28",
"b. c #865528",
"n. c #955725",
"m. c #865B33",
"M. c #A45828",
"N. c #8E632F",
"B. c #996426",
"V. c #8D6032",
"C. c #936332",
"Z. c #9C6B35",
"A. c #A66826",
"S. c #B6662A",
"D. c #B9752A",
"F. c #A9753B",
"G. c #B4793B",
"H. c #F9441A",
"J. c #F86C17",
"K. c #F76519",
"L. c #F76B1B",
"P. c #E57E1A",
"I. c #F7731A",
"U. c #F7791C",
"Y. c #CA4920",
"T. c #F75825",
"R. c #C5712F",
"E. c #C97932",
"W. c #F87922",
"Q. c #F47331",
"!. c #884843",
"~. c #926E46",
"^. c #836C58",
"/. c #A57B47",
"(. c #AC744C",
"). c #89556A",
"_. c #89706C",
"`. c #877A75",
"'. c #AE7979",
"]. c #CC7277",
"[. c #768078",
"{. c #BE8339",
"}. c #F9831E",
"|. c #D9893A",
" X c #F88422",
".X c #F88A28",
"XX c #F8962C",
"oX c #EA8C31",
"OX c #FA8436",
"+X c #F98C3C",
"@X c #FB973A",
"#X c #FBA234",
"$X c #B6864D",
"%X c #8A827B",
"&X c #94817C",
"*X c #C58C48",
"=X c #CD924C",
"-X c #D4994F",
";X c #FA8D42",
":X c #E99745",
">X c #F99A46",
",X c #FAA648",
"<X c #F9AA51",
"1X c #D3A86A",
"2X c #DDAD6C",
"3X c #647C81",
"4X c #D77980",
"5X c #7D8484",
"6X c #838383",
"7X c #8B8683",
"8X c #8C8C8B",
"9X c #938B88",
"0X c #96918E",
"qX c #8C9190",
"wX c #8A9797",
"eX c #939393",
"rX c #969997",
"tX c #9B9C9C",
"yX c #A19B97",
"uX c #A49C9C",
"iX c #B89C9E",
"pX c #96A09D",
"aX c #A7A19E",
"sX c #99A6A6",
"dX c #99B0AF",
"fX c #89BAB9",
"gX c #9AB7B6",
"hX c #A5A5A5",
"jX c #AAA7A4",
"kX c #A4ABAB",
"lX c #ACACAC",
"zX c #B4ACAB",
"xX c #A0B0AF",
"cX c #A8B6B6",
"vX c #B4B4B4",
"bX c #B9B7B6",
"nX c #B1BCBC",
"mX c #BCBCBC",
"MX c #CD9296",
"NX c #D8B78B",
"BX c #C7A9AA",
"VX c #C4B3B5",
"CX c #9AC1BF",
"ZX c #92C2C1",
"AX c #ABC7C6",
"SX c #C4C4C4",
"DX c #CACACA",
"FX c #D8D7D7",
"GX c #E1E1E1",
/* pixels */
"& & & & & & & & & & & & & & & & O : : O : O O : O O : O : & & & & & & & & & & & & & & & & & & & & & & & & & & & & O & & & & & & ",
"& & & & & & & & : & & & & & & & : O O : : : : O : : O : O : & & & & & & & & & & & & & & & & & & & & & & & & & & & : & & & & & & ",
"O : & & & & & & & & & & & & & & O : : O O O O : O : : : O : : O & & & & & & & & & & & & & & & & & O & & O O O & & O : & & & & : ",
": : O & & & & & & & & : & & & & : O : $ ; $ : O : O : O : O : : & & & & & & & & & & & & & & 1 & & & & & 1 & & & & : O : : & & & ",
"& & & & & & & & : O : : & & & & O O : % e f u = ; O : O : O O : & & : & & & & & & & & & & & o o & & & & O & & & : O : : O & : O ",
"& & & & & & & & : : O : & & & & $ ; : O % s 8.7.<.< O O : : : O & & & & & & & & & & & : O . . . O & & & & & & & O : O O : & & : ",
"& & & & o . o O O : : : % u e.t.y.e.f g $ d 9.7.0.y.y O O O : : & & & & & & & & & & & : . . . . O & & O & & & & : O : : : : & : ",
"& & & O . . . O : O : u y.k.k.k.k.k.k.k.e.y.9.7.8.h.j.; : : O : & & & & : & & & & & & & o . . . O & & 1 & & & & : : O : O O : O ",
"& & & & o . o O O ; f j.j.0.7.7.4.8.9.h.k.h.7.7.8.8.k.d & & & & & & & & & & O O & & & & & o o O & & & & : O O & O : : : O : O : ",
"& & & & O O : O : d r.9.4.7.7.7.8.8.8.8.9.8.7.7.8.8.k.t.$ & & & & & & & & & 1 O & & & & & 1 1 & & & & & O : : & : O O : : O O : ",
"& & : & O : O $ e 7.7.7.7.7.7.7.8.8.4.3.2.3.8.8.8.8.k.y.* & & & & & & & & & 1 & O O & & & & & & 1 O & & : & & & O O : O O O : O ",
"& & O : O : O - u s 1.7.7.3.1.1.3.3.a p p p 1.7.8.8.k.h.$ & & & & & & & & O O & & 1 O & & & & & & O & & & & & & : : O o . O : : ",
"& & & & & & & % % % r 4.2.p p a 3.p p i e e e p 1.d f 5.$ & & & & & & & & & & & & & & & & & & & & & & & O 1 O & & & O . . O : O ",
"& & & & & & & : O - 2.4.a p p 1.a p r - $ O * - z A / n % $ & & & & & & & & & & & & & & & & & & & & & & : & O & & O O O O : O : ",
"& & & & : & O O : u 7.a p r p p p r % : & $ * m _ :.eX'.V - O & & & & & & & & & & O O & & & & & & & & & & & & O & & : 1 : O : O ",
"& & : & O : O $ - 2.3.p e e p p w $ & & $ , 0 ] 8XtXtXtX'.u.> & & & & & & & & & & 1 O & & & & & & & & & & & & & & & O : O 1 O : ",
"& & & & & & & & y 7.2.i % e p i @ . $ % 5 m W eXkXhXhXhXuX].!.- O & O : : & & & & & & & & & & : & & & & O : : O : O : O : O : : ",
"& & & & & & & O i 8.a e $ t p r X . $ 5 q T ;.hXvXvXzXvXlXiX4X!.: & : O & & & & & & & & & & & & & & & & : O O : O : : O O : : O ",
"& & & & & & & ; a 4.a @ & y i + . # > 9 U $.3XuXvXvXmXvXvXvXMXMXN & & : & & & & & & & : & & & & & & & & : : : : : : O : : : O : ",
"& & : & & & O % 2.4.p - & @ e X X $ 3 q W >.6X0XvXSXmXmXmXvXzXMX'.4 & : O & : & & & & & & & & & 1 & & & O : O : : O : O # $ $ : ",
"& & & & & & & - 3.4.i % O $ % & $ * 3 T #.`.8XqXhXmXSXSXVXmXbXBXBX[ : : & : & & & & & & & & & & O & & & & & : : : > < b G +.c O ",
": & & & & & & - 3.4.i * & $ * : $ : 9 W ;.3X7XeXtXlXSXSXDXSXmXVXBX&X; : & & & & : & & & & & & & & & & & & & : $ 4 E %.[.wXpXv O ",
"& & & & : O & - 2.7.i $ & & O : $ 2 0 W >.6X8XeXtXhXlXmXDXDXSXmXVXjXv O & & & & & & & & & & O : & & & & & O O 3 _ [.%XrXxXwX6 : ",
"& & & : O : O % a 7.i * & & O & $ 2 q ] %.[ ..>.0XhXlXvXVXAXmXvXBXzXG O & & & & & & & & & & : O & O & & 1 O : W [.7X0XxXdXqX4 : ",
"& O : & & & & O d 8.s & & & & $ $ 3 q $.{ l.v.J H ^.lXlXvXyX-.o.| yX+.$ O & O : & & & & & & & : & & O X o % A :.6X8XxXcXgXqX, O ",
"& : O : & & & & = 4.s $ & & & * $ 8 T &.Z S.E.E.A.} lXlXvX} z.M.J 7X=.* O & : & & & & & & & & & : O . X % 0 ;.5X8XkXCXdXcX7X> : ",
": : : O & & & & % s s $ & & : + : 9 T $.H D.B.l l.} hXlXhXP D.|.v.7X-.$ & & O : & & & & & & & & : o X $ 5 $.6X8XhXAXfXfXcX%X: : ",
"O O : : & & & & & y i $ : : $ $ 1 9 W $.J E.b.k C.I tXhX0XJ C z.J &X-.$ & & : O & & & & & & & & O o # 2 ] 6X6XtXSXfXZXCXhXD : : ",
": O & & & & & & & * @ % & & & $ 1 0 _ ` v.R.b.I F.P rXkX`.N.H j H %X+.& & & & & & & & & & & & & & # > _ [.6XpXFXbXfXZXcX{ $ O : ",
": : & & & & & & & & $ * & & $ $ 1 q _ / n.S.*.3XG b.L } L K N.N.K 6X+.$ & & & & & & & & & & & & * * T >.%X0XDXGXvXgXZX%.; : : O ",
"O & : & & & & & & & & & & & * # 3 q ] Q n.A.o.' L *X*X{.F.F [.| J 6X{ & & & & & & & & & & & & $ * m ;.6XqXDXGXSXvXcX[.> : O O : ",
": & O : & & & & & & & & & & $ X 8 q #.( J D.C.K K =X*X=XG.D ;.+.H 7XF O & & & & & & & & $ & $ $ 8 *.3X8XmXGXDXmXbXqX4 : O : O : ",
"& & & & & & & & & & & : & & * $ 9 q ] $.F H N.{.=XZ.m.I Z.m.P J L 0XM & & & & & O : : ; % O $ 4 #.[.qXmXFXvXmXmXyXv O & & & & & ",
"& & & & & & & & & & $ : & & $ * 9 T ] $.$.] ( D K V (.(.V.V.J n ..rXb $ & & & & O O j $X< O $ m ) } `.FXvXkXbXjXD $ & & & & & & ",
"& & & & & & & & $ z N * $ $ $ - 8 T ] ] $.&.;.) m.Z.C.m.V.Z &.:.>.0XD < % * & & O ; /.2XH o ; H N.N.C %XkXvXzX) $ & & & & & & & ",
"& & & & & & $ 4  .&X9X`.} c , * > A ' ] $.$.&.G Z.m.N.Z.F.G :.;.>.9X! ! { { , & O g 1X1X$X; k F.K z.x.| lXvX+.> & & & & & & & & ",
"& & & & * z [ _.`.@.[ `.uXuX9X*.G D S S _ $.O.Z *XV.h k Z.L ;.&.%X`.^ ....yX=.< : n Z.k Z n N.b.i.v.z.| vX`.> : & : & & & & & & ",
"$ * , x  .@.@.[ V n.R.v.P +.9XzXmXbXzX`.F ] _ P -X-X=X-X*XG &.%.:.{ ` %.{ eXqX.., g 6 m ' G Z.B.l l B.o.%X< O & & & & & & & & & ",
"4 U  . . .N B M.Q.;X;X+XE.R.n.I o._.aXzXN ( Q n C.F.$X=XG.D $.Q v Q $.%.{ 8X8XO.A S A F $.^ b.D.A.c.l , > : O & & & & & & & & & ",
"z  .N B l.S.Q.;X>X;X>X;X>X@XOXoXoXA.+.zXM M c ) { ! Z Z n c M z ^ #.$.{ ..[.>.Q E _ E 6 A j Z z.x.k $ O & & & & & & & & & & & & ",
"6 Y B :X>XOXQ.>X>X>X>X>X>X.XI. X#X|.^.jX{ ;.%.6X5X5X:.;.' F %./ ^ $...F &.;.;.A Q _ A y h Z _ F j J < : O O & & & & & & & & & & ",
"4 ~ B :X>XOXOX>X<X<X<X,X.X XI. X@X|.^.jX} 6X6XwXwXqX5X5X3X8XtX..S ( v ( %.&.' v _ E y w w S $.( % K $XI b O & & & & & & & & & & ",
"- ~ B :X,X;X;X>X<X<X,XXX.X XU. X@XE.^.aX+.hXlXnXnXcXkXsXyXtXtX) , < Q ] #.) Z Z M < w 1.u M S v # J NXNXL ; & & & & & & & & & & ",
", ~ N =X<X;X;X>X<X#X#XXX.X}.I.}.OXR._.uX=.hXmXAXnXcXkXsXeXyXeXN * ; 7 E ] G $X$Xk w a s F #.F ; > $X1XI : O & & & & & & & & & & ",
"$ U N G.<X>X;X>X>XXXXXXX.X}.I.Q.Q.S.%X0X-.cXnXnXcXcXkXtXqXtX9X7 O O $ > < g $X1XF.l d b D ' m $ < H v : & & & & & & & & & & & & ",
"& N ~ C.<X#X;X@X.X.XXX.X X}.J.L.Q.M.9X%X%XnXnXcXcXxXsXrX8XtX-.; & & : : & O j G.D.x.j ' ^ 6 > & O O O O & & & & & & & : & & & : ",
"$ v ` J ,X,XOX X.X.X.X XU.U.K.T.Q.n.aX-.qXcXcXcXxXsXtXqX8XrXG : & & : O & & : g B.D.H ) ( , : & : O : : & & 1 & & & & & & & & & ",
"& 4 ' D |.,XW.W.W. XW.U.U.U.T.T.T.m.lX+.pXkXkXdXsXsXwX5X%X>., : & & O : & & O & g A.{.I < : & & : : O : & & & & & & & & & & & & ",
"& $ ~ ! B.#XU.I.U.W.W.U.I.L.H.T.Y.^.jX..rXsXsXwX5X5X>.;.,.F : O & & & & : O : O O j $X~.& O & & O : O : O : O : : O O : : O : O ",
"& & 6 ^ H oX}.J.W.I.I.I.L.g.f.H.q.7X%Xb ' ;.[.,.5X;.#._ G ; O : & & & & : : O : O O > : O 1 & & : O O : : O : O O : : O O : : : ",
"& : * T A c.}.J.L.L.L.L.g.f.f.H.H hXO.O.) M F { ^ F F ..%XN & O & & & & O : O : O : & & & & & & . . o : : : O : : : O : & : O : ",
"& : $ v W l P.J.K.K.K.g.f.f.f.w._.rXG >.,.;./ c { -.8XrXhX9X, : & & : O : O : O : O & & & & & O . . . O O : : O O : : O & O : O ",
"& & & , R S z.J.K.H.f.d.d.d.j.J tX+.R _ ] &.( ! >.:.:.:.>.hX*.% & : O : : O : : : : O : & & & O o . o : O : : : & & & & & & & & ",
"& & & & 7 _ Z w.d.a.a.a.s.s.5.`.0XM _ W T A 6 W _ ] $.&.;.,.eXF O : : O : O : O O : : O & & & & O O : O O : O : & & & & & & & & ",
"& & & & $ m ] x 6.a.a.a.a.6.| rX! 5 q T T 7 - R W W W W W W >.-.< : : O : : : O : : : O & & O 1 O O : : : : O O & & & & & & & & ",
"& & O . X > Q ] n 6.p.p.6.L eX+.- > 2 3 5 % $ 5 9 9 9 q m v c z g 6 ; & O O : : O O : : & & O O : : O : O : : : & & & & & & & & ",
"& & O . . & , / %.N 5.<.L 8X*.N x + + $ % X $ % 2 4 - * * + O 1 m X.X.7 % O O O & & & & & & & & & & & & & & & & : & & & & & & & ",
"& & O O O & O > ~ &.O...6XO.5 Y X.% o X X . X $ % * : O + . O 1 1 Y ).] 7 % : O & & & & O 1 & & & & & & & & & & & & : & & & & & ",
"& & & & & & & & % M %.>./ 2 8 X.@., o . X . & & & & & $ X . O 1 1 8  .@.U - : O O O & & O O O & & & & & & & & & & & & & & & & & ",
"& & & & & & & & : $ , < - 3 U @. .4 & o o & & & & & O +   . O 1 1 8 Y ` 5 $ O : O 1 & & O 1 & & & & & & & & & & & & & & 1 & & & ",
"& & & & : : O & & & & & $ , M ( R 4 & & & & & & & & & +     O 1 1 3 v 4 & & & & & & & & & & & & & & & & & 1 O & & & & & & & & & ",
"& & & & O & : & & & & & & & * - - * & & & O & & & & O +     O O * % % & O & & & & & & & & & & & & & & & & & O & & & & & & & & & ",
": O & & & & & & & & & & & & : & & & & & & & & & & & O $ + + % $ * $ & & & & O : & & & & & & & & & & & & & & & & & & & & & & & & ",
"& : : O & : O & & & & : & & & & & & & & & & & & & & & & & $ & & : : & & & & & & & & & & & & & & & & & & & & O & & & & & & & & & "
};
