/* XPM */
static char *result[] = {
/* columns rows colors chars-per-pixel */
"64 64 246 2 ",
"   c #0D0B0A",
".  c #130D09",
"X  c #151513",
"o  c #1C1612",
"O  c #1A1816",
"+  c #1E1D1A",
"@  c #24150D",
"#  c #38150F",
"$  c #241610",
"%  c #251C15",
"&  c #2B1D15",
"*  c #201F1C",
"=  c #2A1F18",
"-  c #3C1611",
";  c #331B13",
":  c #391B16",
">  c #2D2017",
",  c #22201D",
"<  c #2C221A",
"1  c #37261B",
"2  c #33251C",
"3  c #242423",
"4  c #2C2623",
"5  c #2C2C2C",
"6  c #342A24",
"7  c #342927",
"8  c #3B2C23",
"9  c #3C3129",
"0  c #372C33",
"q  c #343434",
"w  c #3A3634",
"e  c #3B3B3B",
"r  c #50110E",
"t  c #580C11",
"y  c #461513",
"u  c #4B1B16",
"i  c #581614",
"p  c #69000E",
"a  c #690413",
"s  c #630C12",
"d  c #730015",
"f  c #7B0213",
"g  c #740A11",
"h  c #681717",
"j  c #761D19",
"k  c #462917",
"l  c #522A1C",
"z  c #57371B",
"x  c #712619",
"c  c #673C1A",
"v  c #422C23",
"b  c #462A26",
"n  c #443124",
"m  c #43342B",
"M  c #49372D",
"N  c #583B23",
"B  c #463C37",
"V  c #4A3C33",
"C  c #543D35",
"Z  c #693024",
"A  c #75461B",
"S  c #5B442E",
"D  c #4A423B",
"F  c #53443A",
"G  c #584438",
"H  c #5B4A3C",
"J  c #674529",
"K  c #754A24",
"L  c #744C2A",
"P  c #7D532B",
"I  c #664A35",
"U  c #785739",
"Y  c #523846",
"T  c #673B48",
"R  c #3C6263",
"E  c #434242",
"W  c #4C4642",
"Q  c #404D41",
"!  c #4C4C4B",
"~  c #544B45",
"^  c #5A4C43",
"/  c #594548",
"(  c #544D4B",
")  c #5A504A",
"_  c #5C534D",
"`  c #535353",
"'  c #5C5555",
"]  c #5D5956",
"[  c #5C5C5C",
"{  c #614949",
"}  c #61554C",
"|  c #67564C",
" . c #755A46",
".. c #6D4956",
"X. c #665A55",
"o. c #73585C",
"O. c #6B645D",
"+. c #76675C",
"@. c #5F5F61",
"#. c #765764",
"$. c #5F6060",
"%. c #646363",
"&. c #6A6664",
"*. c #6B6C6C",
"=. c #766A65",
"-. c #7B726C",
";. c #62787C",
":. c #747474",
">. c #7D7671",
",. c #737B7B",
"<. c #7C7C7C",
"1. c #830115",
"2. c #8B0014",
"3. c #930015",
"4. c #9B0015",
"5. c #931212",
"6. c #BF1F0F",
"7. c #A40016",
"8. c #A30419",
"9. c #AD0018",
"0. c #BA001C",
"q. c #912D15",
"w. c #951E20",
"e. c #A71E23",
"r. c #B81C25",
"t. c #89392E",
"y. c #E5040B",
"u. c #FA000E",
"i. c #F9050D",
"p. c #FA0E11",
"a. c #FA1812",
"s. c #CE3417",
"d. c #FA2915",
"f. c #F93518",
"g. c #C70321",
"h. c #C91525",
"j. c #D8192B",
"k. c #E4182C",
"l. c #EF1930",
"z. c #8D571C",
"x. c #AB511C",
"c. c #9D641F",
"v. c #844D26",
"b. c #8B4C2B",
"n. c #865628",
"m. c #975827",
"M. c #835B33",
"N. c #885A32",
"B. c #A45C28",
"V. c #97632A",
"C. c #8F6133",
"Z. c #946735",
"A. c #9C6B36",
"S. c #A76528",
"D. c #B6662C",
"F. c #BD732C",
"G. c #AE7432",
"H. c #A9753A",
"J. c #F74B1B",
"K. c #F85918",
"L. c #DB661E",
"P. c #F66817",
"I. c #F76B1B",
"U. c #F7721B",
"Y. c #F8791B",
"T. c #FB5625",
"R. c #C97832",
"E. c #D37332",
"W. c #ED702E",
"Q. c #F87924",
"!. c #FB7A34",
"~. c #B8565A",
"^. c #916A49",
"/. c #A87350",
"(. c #834A62",
"). c #837468",
"_. c #8E7576",
"`. c #847B76",
"'. c #A76061",
"]. c #BE853A",
"[. c #F8821E",
"{. c #D2883A",
"}. c #E78B23",
"|. c #F88424",
" X c #F88B24",
".X c #F9892A",
"XX c #F9972D",
"oX c #F98939",
"OX c #FA9838",
"+X c #F9A43A",
"@X c #AC814C",
"#X c #B78346",
"$X c #87827C",
"%X c #8B817A",
"&X c #938273",
"*X c #C58B48",
"=X c #CE9650",
"-X c #D49E56",
";X c #FA8C41",
":X c #E89845",
">X c #FA9B44",
",X c #F99847",
"<X c #FAA64A",
"1X c #FAAB51",
"2X c #E3AD68",
"3X c #937F86",
"4X c #7B8282",
"5X c #72ABB0",
"6X c #838383",
"7X c #888A87",
"8X c #8B8B8B",
"9X c #948B88",
"0X c #95918F",
"qX c #9A918C",
"wX c #899796",
"eX c #949493",
"rX c #999896",
"tX c #9C9C9C",
"yX c #B48F92",
"uX c #A29B98",
"iX c #9AA39F",
"pX c #A6A29F",
"aX c #9BA5A5",
"sX c #89BFBE",
"dX c #99B7B6",
"fX c #A5A5A5",
"gX c #A9A7A7",
"hX c #A3ACAC",
"jX c #ACACAC",
"kX c #B7A8A8",
"lX c #A9B7B7",
"zX c #B4B4B4",
"xX c #B6BABA",
"cX c #BCBCBC",
"vX c #CD9094",
"bX c #E3BC86",
"nX c #CFA7AA",
"mX c #C4B1B3",
"MX c #9FC0BF",
"NX c #B3C0BF",
"BX c #9EC1C1",
"VX c #B1CAC9",
"CX c #C4C4C4",
"ZX c #CDCDCD",
"AX c #D7D7D7",
"SX c #E2E2E2",
/* pixels */
"* * * * * * * * * * * * * , , , * * * * * * * * * * * * * * * * * + * * * * * * * * * * * * , + , + , + * * * * * * * * * * * * ",
"* * * * * * * * * * * * * * + , * * * * * * * * * * * * * * * * * , * * * * * * * * * * , + + , + , + , * * * * * * * * * * * * ",
"* * * + * * * * * * * * + , , , * * + , * * * * * * * * * * * * * * * * * * * * * , * * + , + + * * , + 3 + * * * * * * * * * * ",
"* * * , * * * * * * * * , + , + , + , * * * * * * * * * * * * * * * * * * * * * * * * * , + 3 , * * + , * * * * * * * * * * * * ",
"* * * * * * * * * * * * + , + , * + * * + , + , = = & % * * * * * * * * * * * * * , , * * + O + * * * * * * * * * * * * * * * * ",
"* * * * * * * * * * * * , + , + * * * * + + , , % y g g u = + + * * * * * * * * * * * , + X X X + * + + * * * * * * * * * * * * ",
"* * * * O X O * * * * * + , + , + * > k u u : % + , h 7.7.5.u + * * * * * * * * * * * * O X X X + * * 3 * * * * * * * * * * * * ",
"* * * + X X X + * * * + , + , + & x r.j.k.k.j.r.h ; j 9.7.9.h.l * * * * * * * * * * * + O X X X + * * * * * * * * * * * * * * * ",
"* * * * O X O * * * * * * * * k r.j.j.g.0.0.g.k.l.r.h.9.7.7.g.r.2 * * * * * * * * + * * * + O + + , , + , + , + * * * * 3 * * * ",
"* * * * * + * * * * * * * * u r.g.9.7.7.7.7.7.7.g.j.0.7.7.7.0.k.h * * * * * * * * * * * * 3 * * , , + , + , + , * * * * + * * * ",
"* * * * * * * * * + + * * y 8.9.7.7.8.8.7.7.7.7.7.7.7.7.7.7.9.k.w.+ * * * * * * , + , + * * * * , + + , , + , + * + * * + * * * ",
"* * * * * * * * * 3 * + & g 2.4.7.7.7.4.3.7.7.3.1.1.3.7.7.7.7.k.e.+ * , * * * * * , + , * * * * + , , , + , + , * 3 * X X + * * ",
"* * * * , * * * + , + , & ; ; s 8.4.f d d 3.2.d d d d 1.8.7.9.l.e.= * * * * * * * * * * * * * * , * * * , + , + , + , , 4 + * * ",
"* * * * + , * * , + , , * * # 2.4.d d d 2.1.d a t - # y g 1.h w.j + * * * * * * * * * * * * * * , * * * + , + , % & M >.] * * * ",
"* * * * , + + , + , * * * % s 7.f d a d 1.d s - % + + % : 8 E ^ l O * * * * * * * * * * * * * * * * * * , + , , 2 _ $XaX>., * * ",
"* * * * + , , + , + * * * : 3.3.d r t d d a # * , * = 1 B ] 4XeX'.k * * * * * * * * * * * * * * * * * * + , % 6 ] 6XrXhX7X2 * * ",
"* * * * * * * * * * * * + i 7.1.t # t d d - * * = = 9 E *.eXtXtXrX~.l % * * * * * * * * * * * * * * * * * * & ! <.7XtXdXtXm * * ",
"* * * * * * * * * * * * & 1.4.d - $ t d r * * & 2 w e *.fXjXfXfXfXyX~.l , * * * * * * * * * * * * * * * , % 7 *.6XeXlXdXaX^ + * ",
"* * * * * * * * * * * * - 4.3.a @ o s p & * % = q e ` 6XjXjXzXzXjXjXvX~.k * * * * * * * * * * * * * * * = % E <.7XfXdXdXlX+.* , ",
"* * * * * * * * * * * * r 4.3.t $ % t y = = & 5 e ! ,.7XgXxXzXzXzXzXgXvX'.> * * * * * * * * * * * * * * , < [ 6X8XlXsXdXlX=.% * ",
"* * * * * * * * * * * % t 7.2.r * * - ; + % = q E %.4X6XtXmXVXmXcXzXzXvXvXI % * * * * * * * * * * * , + & w :.7XiXBXsXdXhXV * * ",
"* * * * * * * * * * * + s 7.1.y = * $ * * & 3 e ` :.3X4XeXzXCXCXCXcXcXzXnX_.> * * * * * * * * * * * + % & ` <.7XxXBXsXMX$X< * * ",
"* * * * * * * * * * * , s 8.2.- * * * * % * 5 e @.<.6X8XrXfXxXCXCXCXCXzXnXkXD + * * * * * * * * * * * % 6 *.$XrXZXhXsXMX~ + * * ",
"* * * * * * * * * * * + i 7.5.# * + * * & * q E *.<.7X8XtXfXgXxXCXZXZXmXmXzX| * * * * * * * * * * * * , Q <.7XlXSXzXMXwX2 * * * ",
"* * * * * * * * * * * + y 4.2.# * * * * & , w ! *.F H +.`.tXhXjXxXCXCXcXmXmX_.= * * * * * * * * + , , < $.$XeXAXZXxXlXO.% , * * ",
"* * * * * * * * 3 + * * ; 2.3.; * * * * $ 3 e ` &.K S.v.K I tXjXzXzXqX&X).qX9X< * * * * * * * * , + $ w :.7XjXSXCXcXpX9 + + * * ",
"* * * * * * * * * * * * % s 3.; * * * * % 5 e [ _ m.R.R.R.K eXjXzX%XJ n.A +.qX6 * * * * * * * * , o < ` 4X8XZXZXNXcX).% * * * * ",
"* * 3 * * * * * 3 * * * , - g # * * * & * 5 E %.S S.B.c c K 0XjXjX+.B.R.B.+.rX1 * * * * * * * * , $ 5 *.6XgXAXjXcXkXD , * * * * ",
"* * * * * * * * + + + * * * y ; * * * % * q E %.J F.S.J n.M.7XgXfXU z.m.m.+.qX2 + , , * , + , , , , D <.wXZXCXgXcX%X< * * * * * ",
"* * * * * * * * 3 + + + * * , , * * * % * q ! ] K R.v.L Z.M.$XhXeXP P k A +.9X< , , * * + , % + > < [ O.| &XgXjXzX_ + * * * * * ",
"* * * * * * * * + + * 3 * * * * * * * $ 3 w ` ' K R.^.5XQ n.I  .} P A.C.n.=.%X% , + + , , > 1 + , 1 S P V.A ).zXuX1 * * * * * * ",
"* * * * * * * * + + * * * * * * * * % $ 5 e ` ' v.D.I } H #X*X#XH.J R  .P -.-.% + , , + + N A.> + 1 Z.C.n.c. .zX+., * * * * * * ",
"* * * * * * * * * * * * * * * * * * % % 5 e ] [ N S.H.N.P *X*X=X#XH ;.&XK `.X.% * * * * , Z.2XU > z V.t.b.z.P 9X9 + * * * * * * ",
"* * * * * * * * * * * * * * * * * * % % q e [ $.X.N P H.*XH.N.N.Z.P I L J 7X^ + * * * * < @X2X@XN J H.x c c.c 8 * * * * * * * * ",
"* * * * * * * * * * * * , * * % % * % ; q E [ $.%.*.] F L Z /./.C.A.P J H rXC % % % + * < @XU n H I G.c.c.z.> * * * % * * * * * ",
"* * * * * * * * * * * * * * 2 { | n > = 4 E [ $.%.%.*.' C.H.N.N.N.S O.O.:.0XG v } ^ 8 = , z n F $.~ z.G.c.z > + * & * * * * * * ",
"* * * + * * * * * * * % 2 C =.3X9XqX_.{ n M W ( ' X.*.H A.n.Z.A.H.I ,.:.<.9X^ ~ -.tX$XH 8 9 m D [ D z S z J P J U b * * * * * * ",
"* * * * * * * * * & 6 C #._.#.I I o.9XgXgXqX).o._ F ( I =Xn.k c A.H :.*.$X$X~ O.| rX8X:.D ` ( 9 1 z ~ $.B & @XbXvX8 * * * * * * ",
"* * * * * * = 1 M Y o.#...J b.E.W.D.v.U =.qXjXCXCXqXM U -X-X*X=X#XH *.*.6XX.` &.) 7X7X*.V ` ` n r u H [ B % U bX .% * * * * * * ",
"* * * * * * v { ....H Z t.E.;X;X,X;XoXE.D.V.N.U qXpXn z C.H.#X=XH.H %.' F D O.O.) <.<.O.V ` ~ r p s S m 2 & Z.^.< , * * * * * + ",
"* , * * * * b / C v.D.W.!.;X,X,X,X>X>XoX.XOX+XF.).pXz O._ H S J N M B v W $.%._ ] :.*.%.D ! D r f l [ [ 8 > 8 , * * * * * * * * ",
", + * * * + b / L ,X<XoXoX;X,X,X<X<XOX|.I. XOX{.).pX^ 4X4X4X:.&.~ V O.^ ( $.X.F O.*.%.~ n D : p f z Q H < * * * * * * * * * * * ",
"+ , * * , + 7 T J ,X<XoXoX,X1X1X1XOX X[.U..XOXR.).pXX.wXiXwX4X6X<.8XtXX.F ) m ( $.[ ] I =X@XA i h ( D 8 + * * * , * * * * * * * ",
", + * * + , 7 / J :X<XoX;X,X1X1X+XXX X[.U.|.oXR.).uX).NXBXlXaXaXrXrXtX_ 1 > 2 V ! ` _ I -X=X].z.z ] [ 8 + * * * * * * * * * * * ",
"* * * * , + = / C {.1XOX;X,X<X+X+XXX X[.U.Q.oXD.%XqX$XVXVXlXhXaXeXrXeXF % * * = > 1 2 > z C.G.F.V.I D > * * * * * * * * * * * * ",
"* * * * + , , T ~ F.1XOX;X,XOXXXXX X X[.U.Q.!.B.qX%X$XNXzXhXhXaXeXtX8X9 * * * * , , * * + , k z.G.-XU % * * * * * , * * * * * * ",
"* * * * * * = B ~ C.1X>X;XoX.X.X X X|.Y.I.I.!.b.tX).eXlXlXhXaXwX7XtX>.< * * * * , * * * , * + > z C.n * * * * * * * * * * * * * ",
"* * * * * * * m ] J <X<XQ.|.|.|.|.|.[.Y.T.T.W.b.fX=.aXlXhXaXtXeX8XeX~ % * * * * * * * * + , , + O + * * * * * * * * * * * * * * ",
"* * * * , * + 1 X.G {.+XY.Q.Q.Q.Q.Y.Y.U.J.T.J.| gXo.aXhXaXaXwX4X4X>.4 * * * * * * * * * * * * * + * * * * * * * * * * * * * * * ",
"* * * * + , , , W / V.XXY.Q.Q.U.U.U.U.K.f.T.x.`.0X&.aXwXwX6X,.*.,.F * * * * * * * * * * * * * + * + * * * * * * * * * * * * * * ",
"* * * * , + + + 6 ( J }.Y.I.I.Q.U.U.K.f.f.J.t.uX+.] 4X;.:.*.%._ H > * * * * * * * * * * * * 3 + O X O * * * * * * * * * * * * * ",
"* * * * + + 3 * > E B c.[.P.I.P.P.K.f.d.f.s. .fXH D F ] ~ F F X.$XS * * * * * * * * * * * * * + X X X + * * * * * * * * * * * * ",
", * * * * * * * = 9 ! N L.P.P.P.K.d.a.d.d.q.9X%X} :.^ n } >.0XeXhX%X8 , * * * * * * * * * * * * O X O * * * * * + + * * * * 3 * ",
"* * * , * * * * + > W W z.P.K.f.p.p.p.a.6. .tX^ ( *._ ~ ,.:.*.:.<.iX+.> * * * * * * * * * * * * + + * * * * * * + 3 * * * * * * ",
"* * , + + * * * * * 6 ` C q.u.u.u.u.p.y.Z eX-.B ! D 8 ! ` @.%.*.:.<.rXF * * * * * * * * + * * * * * * * * * * * 3 + * * * * * * ",
"* * + X O + * * * * = m ' N 5.i.u.u.y.j >.8XB B Q 8 < W ! ! ! ! Q ` :.-.3 * * * * * * * + 3 + + * * * * * * * * + + * * * * * * ",
"* * + X X * * * * + * > D %.F 5.y.y.j =.0XF < 5 6 > % 6 q q q w B m b b = + * * + * * * * * 3 + 3 * * * * * * * * * * * * + + + ",
"* * * + * * * * * , , + < D &._ x x O.7X^ : 1 ; = % , > 4 2 2 ; & 2 b : = + * * + 3 * * 3 + * * * * * * * * * * * + * * * 3 * * ",
"* * * * * * * * * * * * , , V &.:.:.`.G 3 0 T : % , + % % % $ o , 5 Y ..b % * * * * * + + * * * * * * * * * * * * * * * * * * * ",
"* * * * * * * * * * * * , * & 2 ' &.m * 3 0 (.T = + * * * $   + , 3 0 (.o.8 * * * * * * + * * * * * * * * * * * * * * * * * * * ",
"* * * * * * * * , + , + , + % @ @ = * 3 3 0 #...2 * * * % .   * * 3 5 ..#.B < + * * * * * * * * * * * * * * * * * * * * * 3 + + ",
"* * * * * * * * + , + , + , + , % % , 3 5 Y #.X.8 % * * @     + 3 3 5 / ` 9 = * * + * * * * * * * * * * * * * * * * * * * * 3 + ",
"+ , * * * * , + , + , + , + , + = % $ = 7 ~ ] ! 6 % * * % . . + * 3 7 9 6 = + * 3 + * * * * * * * * * * * * * * * * * * * * + + ",
", * * + * * * , + , + , + , + , * , , % = = 2 2 > * * * % % % % = % % % + * * * * * * * * * * * * * * * * * * * * * * * * * * * "
};
