/* XPM */
static char *result[] = {
/* columns rows colors chars-per-pixel */
"64 64 248 2 ",
"   c #120B07",
".  c #140E09",
"X  c #151513",
"o  c #1A1816",
"O  c #1E1D1B",
"+  c #27160E",
"@  c #37160F",
"#  c #251C16",
"$  c #2A1D15",
"%  c #201F1C",
"&  c #291F18",
"*  c #331A13",
"=  c #3A1913",
"-  c #2E2017",
";  c #21201D",
":  c #2D221A",
">  c #372418",
",  c #34251C",
"<  c #39261B",
"1  c #1F1F20",
"2  c #242423",
"3  c #2A2420",
"4  c #2B2A2B",
"5  c #342423",
"6  c #342A23",
"7  c #3B2C23",
"8  c #322C2B",
"9  c #3D3129",
"0  c #362B31",
"q  c #383533",
"w  c #3B3B3B",
"e  c #5B0B12",
"r  c #4B1312",
"t  c #4D1010",
"y  c #471814",
"u  c #591614",
"i  c #6B000E",
"p  c #73000F",
"a  c #6C0014",
"s  c #670A12",
"d  c #720015",
"f  c #7B0115",
"g  c #770A12",
"h  c #691919",
"j  c #751C19",
"k  c #472917",
"l  c #4A2815",
"z  c #4C321C",
"x  c #563419",
"c  c #6B2B17",
"v  c #663C1C",
"b  c #432D26",
"n  c #41342B",
"m  c #493529",
"M  c #553B27",
"N  c #582E37",
"B  c #463C37",
"V  c #4B3D34",
"C  c #563C35",
"Z  c #683D32",
"A  c #6A421A",
"S  c #79451D",
"D  c #5B422D",
"F  c #4D423C",
"G  c #54443A",
"H  c #59473A",
"J  c #684527",
"K  c #6C4B2B",
"L  c #754A28",
"P  c #7E5229",
"I  c #664835",
"U  c #754C34",
"Y  c #6C5138",
"T  c #785634",
"R  c #3F3F40",
"E  c #593B47",
"W  c #663C4C",
"Q  c #335554",
"!  c #444443",
"~  c #4B4642",
"^  c #4F4944",
"/  c #4C4C4C",
"(  c #4F4E4D",
")  c #574547",
"_  c #554B44",
"`  c #5A4D44",
"'  c #534E4B",
"]  c #56514D",
"[  c #5D524B",
"{  c #535353",
"}  c #5B5553",
"|  c #5D5956",
" . c #5C5B5B",
".. c #624948",
"X. c #62554C",
"o. c #6A5749",
"O. c #6A5A55",
"+. c #625F5D",
"@. c #725251",
"#. c #7F6147",
"$. c #65625D",
"%. c #72645B",
"&. c #766458",
"*. c #5F5F60",
"=. c #6E5862",
"-. c #576A6F",
";. c #636363",
":. c #6C6862",
">. c #6C6C6C",
",. c #746B64",
"<. c #7A6A65",
"1. c #7A726B",
"2. c #7F6871",
"3. c #737373",
"4. c #7A7775",
"5. c #7C7B7B",
"6. c #830114",
"7. c #8C0014",
"8. c #930015",
"9. c #9D0016",
"0. c #881E1E",
"q. c #95171D",
"w. c #AD0B0C",
"e. c #A40016",
"r. c #A70018",
"t. c #AB0018",
"y. c #B3001A",
"u. c #B8001D",
"i. c #982A16",
"p. c #971D21",
"a. c #B51B25",
"s. c #8F352F",
"d. c #DC120E",
"f. c #FB000D",
"g. c #F20A0E",
"h. c #FA1511",
"j. c #FA2A15",
"k. c #F33A19",
"l. c #C90622",
"z. c #D01828",
"x. c #E9182E",
"c. c #F41A31",
"v. c #8C551D",
"b. c #945D1E",
"n. c #884C24",
"m. c #82552B",
"M. c #8A5729",
"N. c #925525",
"B. c #834838",
"V. c #855A34",
"C. c #AB5124",
"Z. c #93632E",
"A. c #936433",
"S. c #9B6A35",
"D. c #9E6D39",
"F. c #A86728",
"G. c #B86C2D",
"H. c #B67328",
"J. c #AF7030",
"K. c #AA763B",
"L. c #B57A37",
"P. c #CF5C13",
"I. c #F84C1A",
"U. c #F76818",
"Y. c #F76C1B",
"T. c #F7731B",
"R. c #F87A1B",
"E. c #F55625",
"W. c #C2742F",
"Q. c #D66C30",
"!. c #C57933",
"~. c #F87823",
"^. c #F67431",
"/. c #A97544",
"(. c #A47552",
"). c #89566B",
"_. c #946964",
"`. c #84766D",
"'. c #877A76",
"]. c #C97478",
"[. c #F8811D",
"{. c #CE8634",
"}. c #F88324",
"|. c #F88B25",
" X c #F88A2B",
".X c #F9952B",
"XX c #FA8536",
"oX c #FA8C3C",
"OX c #F9983A",
"+X c #FBA13B",
"@X c #BC8445",
"#X c #88817B",
"$X c #91857D",
"%X c #B69368",
"&X c #C78D48",
"*X c #D0954D",
"=X c #F98640",
"-X c #F98D42",
";X c #E99A46",
":X c #F99A47",
">X c #FAA749",
",X c #E0A95F",
"<X c #FAAA52",
"1X c #CA9D62",
"2X c #D4A665",
"3X c #DCB075",
"4X c #8D7780",
"5X c #7D8384",
"6X c #838383",
"7X c #898986",
"8X c #8B8B8A",
"9X c #938984",
"0X c #948D8A",
"qX c #97918D",
"wX c #9C8E93",
"eX c #889695",
"rX c #949494",
"tX c #9B9895",
"yX c #9B9C9C",
"uX c #A59895",
"iX c #A19D9C",
"pX c #B59293",
"aX c #A4A09F",
"sX c #9CA8A7",
"dX c #89B2B2",
"fX c #99B6B5",
"gX c #A4A4A4",
"hX c #AAA6A5",
"jX c #A3ABAB",
"kX c #ACACAC",
"lX c #B4ACAA",
"zX c #AFAFB0",
"xX c #A9B7B6",
"cX c #B4B4B4",
"vX c #BCB7B7",
"bX c #BBBBBB",
"nX c #CF9397",
"mX c #C9A981",
"MX c #C9A8AA",
"NX c #C7B2B4",
"BX c #A6C0BF",
"VX c #BFBFC1",
"CX c #8AC4C3",
"ZX c #B9C2C2",
"AX c #C3C3C3",
"SX c #CBCBCB",
"DX c #DBDBDC",
"FX c gray88",
/* pixels */
"% % % % % % % % % % % % % % % % % % % % % % ; % % % % % % ; O ; ; O O ; ; O ; ; O ; ; O ; ; O ; ; % % O O ; O O ; O O ; ; O ; ; ",
"% % % % % % % % % % % % % % % % % % % % % % O ; % % ; O ; ; ; O ; ; ; ; O ; ; O ; ; O ; ; O ; ; % % O ; ; ; ; ; ; ; ; O O ; ; O ",
"; O % % % % % % % % % % % % % % % % % % % % % O % % - * * # ; ; O O ; O % % % % ; O O ; O O ; O ; ; ; O ; O ; O O O ; ; % % ; O ",
"; ; ; O % % % % % % % 1 % % % % % % % % O % O ; O % O @ g g u * % ; % % % % % % O ; ; O ; ; ; ; O O ; ; O # ; ; ; ; O ; % % % ; ",
"O ; % % % % % % % % % % % % 1 % % % % - u j q.0.h k - % u e.e.q.l ; % % % % % % O ; O ; ; O o O ; O O ; : 7 ; ; ; O O ; % % % % ",
"; O % % % O % % % % % % % % % % % - h z.x.x.x.x.x.z.p.l j y.e.y.z.y % ; % % % % ; ; ; ; O X X X % ; O : [ #X, ; O ; ; O % % % % ",
"; % % ; o X o % % % % % % % % % = p.z.l.u.t.t.t.y.l.c.z.z.t.e.e.l.a.- ; % % % % ; O O ; o X X X O O - G 0XsXX.; ; ; % O % % % % ",
"O ; % O X X X O % % % % % % % * q.u.r.e.e.e.e.e.e.e.y.l.t.e.e.e.e.x.u % % % % % ; O ; O o X X X % # 9 4.rXfX$X6 ; O % % % % % % ",
"; O O ; o X o O % % % % % % $ g e.r.e.e.e.e.e.e.e.e.9.9.e.e.e.e.e.x.0.# % % % % % 1 % % O O o O O ,  .7XtXxXjXo.; ; ; O ; ; O ; ",
"O ; ; ; O O ; ; % % % % % ; @ y r g e.e.8.6.6.9.9.7.f f 8.e.e.e.t.x.p.% % % % % % % % % ; ; ; ; - q 3.7XsXfXfXtX7 O O ; ; O O ; ",
"; ; ; O ; ; ; O % % % ; ; ; O O & 6.9.6.f d f 7.f d a a a 6.e.e.y.c.q.% % % % % 1 % % % O ; ; O # w 4.7XjXfXfXxXo.; O O O O ; ; ",
"; O ; O ; O ; O % % 1 1 ; O ; ; s 9.6.d d d 7.f d e y * @ r f g h a.h O % % % % % % % % ; O ; ; - F 5X$XxXCXfXxXH O ; o X % ; O ",
"; O ; ; ; O ; ; O ; ; O ; O O = 8.8.d s s f f a t $ % % ; # > n F C y 2 1 1 % 1 % % % % % % O O ; / 5X7XBXCXCXjXF % % X X % ; O ",
"O ; ; O ; O O ; ; O ; ; # O ; g r.f e = s d a r # % % # - 9 F ;.6X9XB.= % % % % % % % % O % O # - { 5XqXZXCXCXsX7 % % % O ; ; O ",
"O ; ; O ; ; ; ; ; O ; O O O @ 7.8.d @ * a a e # % % $ , q { 5.yXiXyX9Xs.* 1 % % % % 1 % 1 % % ; :  .6XrXAXsXCXsX6 ; O ; ; ; ; O ",
"; ; O ; O ; O O ; ; ; O O - r e.7.e $ * a s * % # & 7 w ! 5XkXhXjXgXiX].s.: % % % % % % ; ; % ; 3 ;.6XtXDXcXfXeX: % ; ; O ; O ; ",
"; O O ; ; ; % O % ; % % % ; s e.6.t % * a r O % - 4 w ! >.rXcXzXzXzXzXpX].W ; ; % % % % % % % # 6 >.6XgXFXVXcX6X: % ; O ; ; O ; ",
"; ; ; O O ; ; ; % % % % % $ 6.e.f @ O * t $ % # 2 q ! ;.5X8XcXvXbXcXcXzXnX1Xz ; % % % % % % % # 8 >.6XkXFXAXbX`.; % ; O ; O O ; ",
"O ; ; ; % ; % % % % % % % $ 7.e.i + O # * % % $ 2 w { 4.6X8XzXVXZXbXbXcXMXnX_.: % % % % % % % # q 3.7XbXFXVXZX%.; ; ; ; ; ; ; O ",
"; O O ; % ; O % % % % % % * 7.e.s + % % # % $ # q R >.5.6X8XyXVXAXVXbXbXcXnXpXz O % % % % % # # q 4.7XZXSXbXvXo.o ; ; O O O ; ; ",
"; ; % % % O ; ; % % % % O * 7.e.s # O ; O % $ ; w / 3.5X7XrXyXkXAXAXAXAXbXNXMX_.# % % % % % ; # w 5.7XSXvXzXcXH ; ; O ; ; ; O ; ",
"O O % ; O ; ; O % % % % O $ g e.e % ; % % % $ 4 w  .3.5.8XrXiXgXzXAXSXSXAXNXNX$X, % % % % % ; # ! 5.eXDXcXkXkXF o O ; ; O ; ; O ",
"; O O ; ; ; ; % % % % O ; ; s w.u % % % % # # 4 R :.[ M ..1.0XgXkXcXbXAXbXvXNXuX9 % % % % % # # / 6X8XlXkXkXhX9 ; ; ; O O ; ; O ",
"; ; % % % O % % % % % O # ; y 9.e % ; O % $ % q ~ >.D F.F.n.J #XkXcXvXzXiXtXuXhXF O % % ; ; # ; { :.I L &.kXtX< ; ; O ; ; ; O ; ",
"% ; O ; ; O ; ; O ; ; O O ; - 6.u O O ; % + ; w ( $.L W.W.W.N.1.kXzXhXo.K S I aXG O % % O ; O : ~ K F.H.S #XqX: ; O O ; O O ; O ",
"O ; ; O ; O O ; ; O O ; ; O # y r O O ; % + 4 w  .[ N.H.v x n.,.jXkX0Xn.W.G.Y iXG O % % # # % # z D.P L b.T H # O ; ; ; ; ; ; ; ",
"O ; ; O O ; ; O ; ; ; ; ; ; O # @ ; ; O # O 4 R *.H H.G.m.P S.<.kXkX<.v.F.G.Y yXn O ; ; z D o O z D.s.p.b.A ; % ; - O O ; O O ; ",
"; ; O ; ; ; O ; O O ; O O ; ; ; # ; ; ; % O q ! $.J W.M.T T A.<.gXgXo.M.l S Y yXD O O O J &XK , k K.S A b.z O O + $ O O O ; ; O ",
"O ; ; O ; ; O ; ; O O ; ; O O ; O O O ; + ; q /  .J !.V.dXQ M.I o.%.K K.m.P o.tX7 % % O T ,X1XT M S.L.H.b.z > m V.7 ; ; ; ; O ; ",
"O ; O ; ; O ; O ; ; ; O ; ; ; O O O O O # 4 w { O.J H.U ..C K.&X@XD.L Q Y V.&.9X: ; % O D 2XK F } D b.b.A A K.2XmX7 O O ; O O ; ",
"; ; O ; O O ; ; O ; ; ; O ; ; ; ; ; O - + 4 w { $.D M.J.S.m.@X*X*X*XY -.$XL ,.`.# ; % ; > D.z ^ *.F z H F # J 3X%X4 ; ; O ; ; O ",
"O ; ; O ; ; O ; ; O O ; ; O O ; ; O ; ; - 4 w  .*.*.G K S.@XK.T T S.K D #.L 4.%.o # # O # 7 7 F F D D -.| : > %XY O O ; ; O ; ; ",
"% % % % % % % % % % % % % 1 O 1 1 # , 7 * 8 w  .*.;.>.;.` J L /.(.A.K.M.L D qXH > H H F , F F ~ > l k ' F : > J : O % % % % % % ",
"% % % % % % % % % % % % % O O # & C '.'.o.V n _ | *.:.>.[ A.S.A.V.V.D [ [ >.tXH F qXtX7X[ F { { k i s V _ 7 $ % % % % % % % % % ",
"% % % % % 1 % % % % % % % # 3 C <.4X<.).wXiX7X%.` H H ' M S.m.A.K.K.Y 4.4.5.qX` _ 1.rX7X>.V ( ' y i h } $.9 % O % % % % % % % % ",
"% % % % % % % % % % % * 9 C @.2.=.Z n.N.U &.9XkXcXkXuX$XO.D.M.> x S.` 3.>.5X#X_ $.[ 7X5X3.V ' / r p h B F , % % % % % % % % % % ",
"% % % % % % % % # < N ) @.=...Z N.Q.=X-X^.G.M.U &.`.uXAXqXK.;X&X*XK.` >.>.8X%.] :.[ 5.4.3.G B F r p x _ ' 6 % % % % % % % % % % ",
"% % 1 % % % % % % m ..) C L C.Q.=X=X-X:X:X:XoX^.{.L.n.$XtXK K.&X*XD.` :.+.X.G *.$.H 3.3.>.F T T v c z { } , % % % % % % % % % % ",
"% % % % % % % % % b ..Z !.-XXX^.-X:X:X:X:XOX XT..X+X!.`.tXH H D K M F F b V  .;.[ [ >.;. .D 2X2X{.H.b.K Y , ; % % % % % 1 % % % ",
"% % % % % 1 % % % 9 E n.>X:XoXXX:X:X<X<X>X.X~.T..XOX!.`.tX$.5X3.$.F V O._ ' *.+.F  .*. . .G V.@XK.F.H.@X1Xm % % % % % % % % % % ",
"% % % % 1 % % % # 7 E K :X:XoXoX:X<X<X>X.X|.[.T. XoXW.'.wX:.eX5X6X4.8XiXX._ ] z 9 / / ^ F , - : > < x J J ; % % % % % % % % % % ",
"% % % % % % % % O 7 ) I ;X>XoX-X:X<X>X+X.X.X[.T.}.oXG.$X0X#XxXjXsXrXtXyX` > : ; # - - - # % O O ; O O O ; % % 1 % 1 1 % % % % % ",
"% % % % % % % % % , ) D *X>XOX-X:X:X.X.X.X[.[.T.~.XXF.qX#X7XxXjXsXrXyXrXH # ; O % % ; ; % % % % ; ; % % % % % % % % % % % % % % ",
"% % % % ; % % % % & ) E L.>X:X-X-XoX.X.X|.[.[.T.^.^.N.yX`.rXxXjXyX8XyX8Xn o ; ; % % % % % % % % ; ; % % % % % % % % % % % % % % ",
"% % % % % % % O % ; V ) Z.>X:XXX}. X X|.[.[.R.U.E.^.U hX,.yXfXsXyX8XiX4.: % O ; % % % % % % % % # % % % % % % % 1 % % % % % % % ",
"% % % % % % ; ; % % n X.I >X+XR.~.}.}.~.[.[.T.E.E.E.@.lX%.sXsXyXeX8XrXH ; % ; O % % % % % % % % % % % % % % % % % % % % % % % % ",
"% % O ; ; ; O ; O % , { H {.OXT.~.~.~.R.T.T.U.I.E.P.1.tX%.sXsXeX6X4X4., O O ; ; % % % % % % % % ; O % % % % % % % % % % % % % % ",
"% % ; ; O O % % O O - F ( M..XT.Y.~.T.T.T.U.I.k.I.n.qX#X3.eX5X4.>.5.F ; ; ; O ; % % % % % % % % ; ; O % % % % % % % % % % % % % ",
"% % % % % 1 % % % % O , / M {.R.U.Y.Y.Y.U.I.j.k.k.U kXX.>.3.>.;.] H - ; % % % % % % % % % % % % O % % % ; ; % ; O ; ; O ; ; O ; ",
"1 % % % % % % % % % O - F F v.[.U.U.Y.U.I.h.j.k.i.`.qXV } ` G G $.#XD # % % % % % % % % % ; % % ; % ; O O ; O ; ; O ; O O ; ; O ",
"% % % % % % % % % % % % 6 / z P.U.U.I.j.h.h.h.d.U yX&.G b X.4.8XrXjX$X> % % % % % % % % % % % % o X o O ; O % % ; O ; ; O ; ; O ",
"% % % % % % % % 1 % % % ; B / A P.k.g.f.f.h.h.i.'.0XG _ ` 3.3.3.1.5.sX,.# % % % % % % % % % % % X X X % ; O % ; O ; ; O ; ; O ; ",
"% % % % % % % % O ; ; O ; > ' _ j g.f.f.f.f.w.o.tX` q 7 / }  .;.>.>.5.rXG % % % % % % % ; % % % o X o ; ; % O ; ; O ; ; O O ; O ",
"% % % % % % % 1 ; ; O ; ; ; 7 | ' j d.f.f.w.I rX:.n 9 * ! ( / / / / { 4.1., % % % % % % % % % % O O O ; ; O % % ; ; O O ; ; ; ; ",
"% % % O O % % % O ; % O % % % 9 *.X.c w.w.I 7X1.< 5 * & 8 9 : , 7 q n 9 6 : % % % % % % % % % % % % O ; ; % O % O ; O ; ; O O ; ",
"% % % o X % % % O ; % % % % % ; 9 *.>.H ..6X1.6 5 b $ # $ . o 2 0 M > O % % % 1 1 % % % % % ; % % % ; O % % ; ; ; O ; ; O ; ; O ",
"O ; O X o O ; O ; ; ; ; % O ; ; % , X.4.4X| 6 1 0 W E *   X 1 2 8 @.W & % % % % % % % % % % % % ; O O ; ; O O ; ; O ; ; O ; ; O ",
"; O O O O O ; ; ; O O % % % % % O # + 7 V : 1 2 2 W ).m . o 1 2 0 W =.7 % % % % % % % % % % % % % ; ; ; O ; ; ; O ; O ; ; O ; ; ",
"; O ; ; O ; ; O O O ; % % % % O % $     o O 1 2 4 E ).[ : O 1 2 4 ) *.n # % % % % % % % % % % % % % ; O ; ; ; O ; ; O O ; O O ; ",
"O ; O ; ; O ; O ; ; ; % O % ; ; % # .   o 1 1 2 4 E =.{ 6 # # 3 0 E B 5 # % % % % % % % % % % % % % O ; ; O ; O ; O ; ; ; ; ; O ",
"; ; O ; % O ; ; % % O % ; % % O % % % $ $ # & 2 0 ) { B , # # # & & # % % % % % % % % % % % % % % % % % ; O ; ; ; ; ; O O ; ; O ",
"; O O ; ; ; ; O % ; ; % ; % ; ; % % % % # # $ $ & , , $ # O ; ; % % O O % % % % % % % % % % % % % % % % ; O ; O O O ; ; ; O ; ; ",
"O ; ; O ; O O % O ; ; % ; O % % % % % 1 O O % % % % % % ; % ; O % % O 2 % % % % % % % % % % % % % % % % O ; ; ; ; ; ; O ; O O ; ",
"; O ; ; O ; ; % % ; ; O ; ; O % % % % % % % % % % % % % O ; % % % % ; % % % % % % % % % % % % % % % % % ; ; O O ; O ; O ; ; O ; "
};
